%TF.GenerationSoftware,KiCad,Pcbnew,8.0.0*%
%TF.CreationDate,2024-06-04T15:45:32+02:00*%
%TF.ProjectId,filter prolab,66696c74-6572-4207-9072-6f6c61622e6b,rev?*%
%TF.SameCoordinates,Original*%
%TF.FileFunction,Copper,L2,Bot*%
%TF.FilePolarity,Positive*%
%FSLAX46Y46*%
G04 Gerber Fmt 4.6, Leading zero omitted, Abs format (unit mm)*
G04 Created by KiCad (PCBNEW 8.0.0) date 2024-06-04 15:45:32*
%MOMM*%
%LPD*%
G01*
G04 APERTURE LIST*
G04 Aperture macros list*
%AMRoundRect*
0 Rectangle with rounded corners*
0 $1 Rounding radius*
0 $2 $3 $4 $5 $6 $7 $8 $9 X,Y pos of 4 corners*
0 Add a 4 corners polygon primitive as box body*
4,1,4,$2,$3,$4,$5,$6,$7,$8,$9,$2,$3,0*
0 Add four circle primitives for the rounded corners*
1,1,$1+$1,$2,$3*
1,1,$1+$1,$4,$5*
1,1,$1+$1,$6,$7*
1,1,$1+$1,$8,$9*
0 Add four rect primitives between the rounded corners*
20,1,$1+$1,$2,$3,$4,$5,0*
20,1,$1+$1,$4,$5,$6,$7,0*
20,1,$1+$1,$6,$7,$8,$9,0*
20,1,$1+$1,$8,$9,$2,$3,0*%
G04 Aperture macros list end*
%TA.AperFunction,ComponentPad*%
%ADD10C,1.600000*%
%TD*%
%TA.AperFunction,ComponentPad*%
%ADD11R,1.800000X1.800000*%
%TD*%
%TA.AperFunction,ComponentPad*%
%ADD12C,1.800000*%
%TD*%
%TA.AperFunction,ComponentPad*%
%ADD13O,1.600000X1.600000*%
%TD*%
%TA.AperFunction,ComponentPad*%
%ADD14R,1.600000X1.600000*%
%TD*%
%TA.AperFunction,ComponentPad*%
%ADD15R,1.700000X1.700000*%
%TD*%
%TA.AperFunction,ComponentPad*%
%ADD16O,1.700000X1.700000*%
%TD*%
%TA.AperFunction,ComponentPad*%
%ADD17RoundRect,0.250000X-0.600000X0.600000X-0.600000X-0.600000X0.600000X-0.600000X0.600000X0.600000X0*%
%TD*%
%TA.AperFunction,ComponentPad*%
%ADD18C,1.700000*%
%TD*%
%TA.AperFunction,ViaPad*%
%ADD19C,0.600000*%
%TD*%
%TA.AperFunction,Conductor*%
%ADD20C,0.600000*%
%TD*%
%TA.AperFunction,Conductor*%
%ADD21C,0.800000*%
%TD*%
G04 APERTURE END LIST*
D10*
%TO.P,C7,1*%
%TO.N,GND*%
X130890000Y-106680000D03*
%TO.P,C7,2*%
%TO.N,+5V*%
X135890000Y-106680000D03*
%TD*%
D11*
%TO.P,D2,1,K*%
%TO.N,GND*%
X131725000Y-95100000D03*
D12*
%TO.P,D2,2,A*%
%TO.N,Net-(D2-A)*%
X134265000Y-95100000D03*
%TD*%
D10*
%TO.P,C6,1*%
%TO.N,Net-(U3-+)*%
X191770000Y-69850000D03*
%TO.P,C6,2*%
%TO.N,GND*%
X196770000Y-69850000D03*
%TD*%
%TO.P,R10,1*%
%TO.N,Net-(U4-PD4)*%
X127850000Y-104380000D03*
D13*
%TO.P,R10,2*%
%TO.N,Net-(D3-A)*%
X127850000Y-94220000D03*
%TD*%
D10*
%TO.P,R5,1*%
%TO.N,Net-(U2--)*%
X161650000Y-70400000D03*
D13*
%TO.P,R5,2*%
%TO.N,Net-(C5-Pad1)*%
X171810000Y-70400000D03*
%TD*%
D10*
%TO.P,C2,1*%
%TO.N,Net-(C2-Pad1)*%
X120700000Y-88400000D03*
%TO.P,C2,2*%
%TO.N,Net-(U1--)*%
X120700000Y-83400000D03*
%TD*%
D14*
%TO.P,U1,1*%
%TO.N,N/C*%
X125000000Y-77800000D03*
D13*
%TO.P,U1,2,-*%
%TO.N,Net-(U1--)*%
X125000000Y-80340000D03*
%TO.P,U1,3,+*%
%TO.N,Net-(U1-+)*%
X125000000Y-82880000D03*
%TO.P,U1,4,V-*%
%TO.N,-10V*%
X125000000Y-85420000D03*
%TO.P,U1,5,NC*%
%TO.N,unconnected-(U1-NC-Pad5)*%
X132620000Y-85420000D03*
%TO.P,U1,6*%
%TO.N,Net-(U1--)*%
X132620000Y-82880000D03*
%TO.P,U1,7,V+*%
%TO.N,+10V*%
X132620000Y-80340000D03*
%TO.P,U1,8*%
%TO.N,N/C*%
X132620000Y-77800000D03*
%TD*%
D10*
%TO.P,R6,1*%
%TO.N,Net-(C5-Pad1)*%
X177150000Y-70500000D03*
D13*
%TO.P,R6,2*%
%TO.N,Net-(U3-+)*%
X187310000Y-70500000D03*
%TD*%
D15*
%TO.P,REF\u002A\u002A,1*%
%TO.N,N/C*%
X187960000Y-76200000D03*
D16*
%TO.P,REF\u002A\u002A,2*%
X187960000Y-78740000D03*
%TO.P,REF\u002A\u002A,3*%
X187960000Y-81280000D03*
%TO.P,REF\u002A\u002A,4*%
X187960000Y-83820000D03*
%TO.P,REF\u002A\u002A,5*%
X187960000Y-86360000D03*
%TO.P,REF\u002A\u002A,6*%
X187960000Y-88900000D03*
%TD*%
D10*
%TO.P,R8,1*%
%TO.N,Net-(U4-PD0)*%
X157970000Y-94800000D03*
D13*
%TO.P,R8,2*%
%TO.N,Net-(D1-A)*%
X168130000Y-94800000D03*
%TD*%
D15*
%TO.P,REF\u002A\u002A,1*%
%TO.N,N/C*%
X190500000Y-76200000D03*
D16*
%TO.P,REF\u002A\u002A,2*%
X190500000Y-78740000D03*
%TO.P,REF\u002A\u002A,3*%
X190500000Y-81280000D03*
%TO.P,REF\u002A\u002A,4*%
X190500000Y-83820000D03*
%TO.P,REF\u002A\u002A,5*%
X190500000Y-86360000D03*
%TO.P,REF\u002A\u002A,6*%
X190500000Y-88900000D03*
%TD*%
D11*
%TO.P,D3,1,K*%
%TO.N,GND*%
X121600000Y-98200000D03*
D12*
%TO.P,D3,2,A*%
%TO.N,Net-(D3-A)*%
X121600000Y-95660000D03*
%TD*%
D10*
%TO.P,R3,1*%
%TO.N,Net-(U1--)*%
X143650000Y-76020000D03*
D13*
%TO.P,R3,2*%
%TO.N,Net-(C3-Pad1)*%
X143650000Y-86180000D03*
%TD*%
D11*
%TO.P,D1,1,K*%
%TO.N,GND*%
X151925000Y-94550000D03*
D12*
%TO.P,D1,2,A*%
%TO.N,Net-(D1-A)*%
X154465000Y-94550000D03*
%TD*%
D10*
%TO.P,R1,1*%
%TO.N,Net-(C2-Pad1)*%
X132550000Y-69450000D03*
D13*
%TO.P,R1,2*%
%TO.N,Net-(U1-+)*%
X122390000Y-69450000D03*
%TD*%
D10*
%TO.P,C5,1*%
%TO.N,Net-(C5-Pad1)*%
X165100000Y-77100000D03*
%TO.P,C5,2*%
%TO.N,Net-(U3--)*%
X165100000Y-82100000D03*
%TD*%
D15*
%TO.P,REF\u002A\u002A,1*%
%TO.N,N/C*%
X193040000Y-76200000D03*
D16*
%TO.P,REF\u002A\u002A,2*%
X193040000Y-78740000D03*
%TO.P,REF\u002A\u002A,3*%
X193040000Y-81280000D03*
%TO.P,REF\u002A\u002A,4*%
X193040000Y-83820000D03*
%TO.P,REF\u002A\u002A,5*%
X193040000Y-86360000D03*
%TO.P,REF\u002A\u002A,6*%
X193040000Y-88900000D03*
%TD*%
D14*
%TO.P,U3,1*%
%TO.N,N/C*%
X172720000Y-78740000D03*
D13*
%TO.P,U3,2,-*%
%TO.N,Net-(U3--)*%
X172720000Y-81280000D03*
%TO.P,U3,3,+*%
%TO.N,Net-(U3-+)*%
X172720000Y-83820000D03*
%TO.P,U3,4,V-*%
%TO.N,-10V*%
X172720000Y-86360000D03*
%TO.P,U3,5,NC*%
%TO.N,unconnected-(U3-NC-Pad5)*%
X180340000Y-86360000D03*
%TO.P,U3,6*%
%TO.N,Net-(U3--)*%
X180340000Y-83820000D03*
%TO.P,U3,7,V+*%
%TO.N,+10V*%
X180340000Y-81280000D03*
%TO.P,U3,8*%
%TO.N,N/C*%
X180340000Y-78740000D03*
%TD*%
D10*
%TO.P,R2,1*%
%TO.N,/Input Voltage*%
X139850000Y-67150000D03*
D13*
%TO.P,R2,2*%
%TO.N,Net-(C2-Pad1)*%
X139850000Y-77310000D03*
%TD*%
D10*
%TO.P,C4,1*%
%TO.N,Net-(U2-+)*%
X145200000Y-71650000D03*
%TO.P,C4,2*%
%TO.N,GND*%
X150200000Y-71650000D03*
%TD*%
%TO.P,R9,1*%
%TO.N,Net-(U4-PD2)*%
X138220000Y-94900000D03*
D13*
%TO.P,R9,2*%
%TO.N,Net-(D2-A)*%
X148380000Y-94900000D03*
%TD*%
D17*
%TO.P,J1,1,Pin_1*%
%TO.N,+10V*%
X195000000Y-95500000D03*
D18*
%TO.P,J1,2,Pin_2*%
X195000000Y-98040000D03*
%TO.P,J1,3,Pin_3*%
%TO.N,-10V*%
X192460000Y-95500000D03*
%TO.P,J1,4,Pin_4*%
%TO.N,unconnected-(J1-Pin_4-Pad4)*%
X192460000Y-98040000D03*
%TO.P,J1,5,Pin_5*%
%TO.N,GND*%
X189920000Y-95500000D03*
%TO.P,J1,6,Pin_6*%
X189920000Y-98040000D03*
%TO.P,J1,7,Pin_7*%
%TO.N,unconnected-(J1-Pin_7-Pad7)*%
X187380000Y-95500000D03*
%TO.P,J1,8,Pin_8*%
%TO.N,unconnected-(J1-Pin_8-Pad8)*%
X187380000Y-98040000D03*
%TO.P,J1,9,Pin_9*%
%TO.N,unconnected-(J1-Pin_9-Pad9)*%
X184840000Y-95500000D03*
%TO.P,J1,10,Pin_10*%
%TO.N,/Input Voltage*%
X184840000Y-98040000D03*
%TO.P,J1,11,Pin_11*%
%TO.N,/Output Voltage{slash} Signal *%
X182300000Y-95500000D03*
%TO.P,J1,12,Pin_12*%
%TO.N,unconnected-(J1-Pin_12-Pad12)*%
X182300000Y-98040000D03*
%TO.P,J1,13,Pin_13*%
%TO.N,unconnected-(J1-Pin_13-Pad13)*%
X179760000Y-95500000D03*
%TO.P,J1,14,Pin_14*%
%TO.N,+5V*%
X179760000Y-98040000D03*
%TD*%
D14*
%TO.P,U4,1,~{RESET}/PC6*%
%TO.N,unconnected-(U4-~{RESET}{slash}PC6-Pad1)*%
X172220000Y-99330000D03*
D13*
%TO.P,U4,2,PD0*%
%TO.N,Net-(U4-PD0)*%
X169680000Y-99330000D03*
%TO.P,U4,3,PD1*%
%TO.N,unconnected-(U4-PD1-Pad3)*%
X167140000Y-99330000D03*
%TO.P,U4,4,PD2*%
%TO.N,Net-(U4-PD2)*%
X164600000Y-99330000D03*
%TO.P,U4,5,PD3*%
%TO.N,unconnected-(U4-PD3-Pad5)*%
X162060000Y-99330000D03*
%TO.P,U4,6,PD4*%
%TO.N,Net-(U4-PD4)*%
X159520000Y-99330000D03*
%TO.P,U4,7,VCC*%
%TO.N,+5V*%
X156980000Y-99330000D03*
%TO.P,U4,8,GND*%
%TO.N,GND*%
X154440000Y-99330000D03*
%TO.P,U4,9,XTAL1/PB6*%
%TO.N,unconnected-(U4-XTAL1{slash}PB6-Pad9)*%
X151900000Y-99330000D03*
%TO.P,U4,10,XTAL2/PB7*%
%TO.N,unconnected-(U4-XTAL2{slash}PB7-Pad10)*%
X149360000Y-99330000D03*
%TO.P,U4,11,PD5*%
%TO.N,unconnected-(U4-PD5-Pad11)*%
X146820000Y-99330000D03*
%TO.P,U4,12,PD6*%
%TO.N,/Output Voltage{slash} Signal *%
X144280000Y-99330000D03*
%TO.P,U4,13,PD7*%
%TO.N,unconnected-(U4-PD7-Pad13)*%
X141740000Y-99330000D03*
%TO.P,U4,14,PB0*%
%TO.N,unconnected-(U4-PB0-Pad14)*%
X139200000Y-99330000D03*
%TO.P,U4,15,PB1*%
%TO.N,unconnected-(U4-PB1-Pad15)*%
X139200000Y-106950000D03*
%TO.P,U4,16,PB2*%
%TO.N,unconnected-(U4-PB2-Pad16)*%
X141740000Y-106950000D03*
%TO.P,U4,17,PB3*%
%TO.N,unconnected-(U4-PB3-Pad17)*%
X144280000Y-106950000D03*
%TO.P,U4,18,PB4*%
%TO.N,unconnected-(U4-PB4-Pad18)*%
X146820000Y-106950000D03*
%TO.P,U4,19,PB5*%
%TO.N,unconnected-(U4-PB5-Pad19)*%
X149360000Y-106950000D03*
%TO.P,U4,20,AVCC*%
%TO.N,+5V*%
X151900000Y-106950000D03*
%TO.P,U4,21,AREF*%
%TO.N,unconnected-(U4-AREF-Pad21)*%
X154440000Y-106950000D03*
%TO.P,U4,22,GND*%
%TO.N,GND*%
X156980000Y-106950000D03*
%TO.P,U4,23,PC0*%
%TO.N,unconnected-(U4-PC0-Pad23)*%
X159520000Y-106950000D03*
%TO.P,U4,24,PC1*%
%TO.N,unconnected-(U4-PC1-Pad24)*%
X162060000Y-106950000D03*
%TO.P,U4,25,PC2*%
%TO.N,unconnected-(U4-PC2-Pad25)*%
X164600000Y-106950000D03*
%TO.P,U4,26,PC3*%
%TO.N,unconnected-(U4-PC3-Pad26)*%
X167140000Y-106950000D03*
%TO.P,U4,27,PC4*%
%TO.N,unconnected-(U4-PC4-Pad27)*%
X169680000Y-106950000D03*
%TO.P,U4,28,PC5*%
%TO.N,unconnected-(U4-PC5-Pad28)*%
X172220000Y-106950000D03*
%TD*%
D10*
%TO.P,C3,1*%
%TO.N,Net-(C3-Pad1)*%
X143100000Y-90000000D03*
%TO.P,C3,2*%
%TO.N,Net-(U2--)*%
X148100000Y-90000000D03*
%TD*%
%TO.P,R7,1*%
%TO.N,Net-(U3--)*%
X166370000Y-90170000D03*
D13*
%TO.P,R7,2*%
%TO.N,/Output Voltage{slash} Signal *%
X176530000Y-90170000D03*
%TD*%
D15*
%TO.P,REF\u002A\u002A,1*%
%TO.N,N/C*%
X195580000Y-76200000D03*
D16*
%TO.P,REF\u002A\u002A,2*%
X195580000Y-78740000D03*
%TO.P,REF\u002A\u002A,3*%
X195580000Y-81280000D03*
%TO.P,REF\u002A\u002A,4*%
X195580000Y-83820000D03*
%TO.P,REF\u002A\u002A,5*%
X195580000Y-86360000D03*
%TO.P,REF\u002A\u002A,6*%
X195580000Y-88900000D03*
%TD*%
D10*
%TO.P,R4,1*%
%TO.N,Net-(C3-Pad1)*%
X159650000Y-86880000D03*
D13*
%TO.P,R4,2*%
%TO.N,Net-(U2-+)*%
X159650000Y-76720000D03*
%TD*%
D15*
%TO.P,REF\u002A\u002A,1*%
%TO.N,N/C*%
X198120000Y-76200000D03*
D16*
%TO.P,REF\u002A\u002A,2*%
X198120000Y-78740000D03*
%TO.P,REF\u002A\u002A,3*%
X198120000Y-81280000D03*
%TO.P,REF\u002A\u002A,4*%
X198120000Y-83820000D03*
%TO.P,REF\u002A\u002A,5*%
X198120000Y-86360000D03*
%TO.P,REF\u002A\u002A,6*%
X198120000Y-88900000D03*
%TD*%
D10*
%TO.P,C1,1*%
%TO.N,Net-(U1-+)*%
X120100000Y-74250000D03*
%TO.P,C1,2*%
%TO.N,GND*%
X120100000Y-79250000D03*
%TD*%
D14*
%TO.P,U2,1*%
%TO.N,N/C*%
X148050000Y-77850000D03*
D13*
%TO.P,U2,2,-*%
%TO.N,Net-(U2--)*%
X148050000Y-80390000D03*
%TO.P,U2,3,+*%
%TO.N,Net-(U2-+)*%
X148050000Y-82930000D03*
%TO.P,U2,4,V-*%
%TO.N,-10V*%
X148050000Y-85470000D03*
%TO.P,U2,5,NC*%
%TO.N,unconnected-(U2-NC-Pad5)*%
X155670000Y-85470000D03*
%TO.P,U2,6*%
%TO.N,Net-(U2--)*%
X155670000Y-82930000D03*
%TO.P,U2,7,V+*%
%TO.N,+10V*%
X155670000Y-80390000D03*
%TO.P,U2,8*%
%TO.N,N/C*%
X155670000Y-77850000D03*
%TD*%
D19*
%TO.N,GND*%
X139811648Y-83047049D03*
X135077328Y-84641259D03*
X169416710Y-84375908D03*
X176674928Y-85635359D03*
X175407075Y-78860952D03*
X151357590Y-83723381D03*
X126816424Y-83095359D03*
X151309281Y-78361039D03*
X130149771Y-85462519D03*
X170180000Y-80010000D03*
%TO.N,Net-(U1-+)*%
X123200000Y-82200000D03*
%TO.N,Net-(C2-Pad1)*%
X124600000Y-88400006D03*
%TO.N,Net-(C3-Pad1)*%
X149000000Y-88150000D03*
%TO.N,Net-(U2--)*%
X159100000Y-79450000D03*
%TO.N,Net-(U3-+)*%
X175260000Y-82550000D03*
%TO.N,/Output Voltage{slash} Signal *%
X181610000Y-92829698D03*
X177400000Y-97050000D03*
%TO.N,-10V*%
X150350000Y-86300000D03*
X167640000Y-85480000D03*
%TO.N,+10V*%
X138000000Y-80300000D03*
X181610000Y-77470000D03*
%TO.N,Net-(U4-PD0)*%
X164400000Y-95100000D03*
%TO.N,Net-(U4-PD2)*%
X144750000Y-94850000D03*
%TO.N,+5V*%
X157450000Y-101500000D03*
X151950000Y-105000000D03*
%TD*%
D20*
%TO.N,Net-(U1-+)*%
X123200000Y-77350000D02*
X120100000Y-74250000D01*
X123200000Y-82200000D02*
X123200000Y-77350000D01*
%TO.N,Net-(C2-Pad1)*%
X128500000Y-80600000D02*
X128500000Y-73500000D01*
X128500000Y-84600000D02*
X124699994Y-88400006D01*
X124699994Y-88400006D02*
X124600000Y-88400006D01*
X128500000Y-80600000D02*
X128500000Y-84600000D01*
X128500000Y-73500000D02*
X132550000Y-69450000D01*
%TO.N,Net-(C3-Pad1)*%
X158380000Y-88150000D02*
X159650000Y-86880000D01*
X149000000Y-88150000D02*
X158380000Y-88150000D01*
%TO.N,Net-(U2--)*%
X159100000Y-79500000D02*
X155670000Y-82930000D01*
X159100000Y-79450000D02*
X159100000Y-79500000D01*
%TO.N,Net-(U3-+)*%
X175260000Y-82550000D02*
X175260000Y-81280000D01*
X186040000Y-70500000D02*
X187310000Y-70500000D01*
X175260000Y-81280000D02*
X186040000Y-70500000D01*
%TO.N,/Output Voltage{slash} Signal *%
X182300000Y-95500000D02*
X182300000Y-93519698D01*
X177400000Y-97050000D02*
X177400000Y-95950811D01*
X179200811Y-94150000D02*
X180950000Y-94150000D01*
X182300000Y-93519698D02*
X181610000Y-92829698D01*
X180950000Y-94150000D02*
X182300000Y-95500000D01*
X177400000Y-95950811D02*
X179200811Y-94150000D01*
D21*
%TO.N,-10V*%
X157639899Y-85480000D02*
X167640000Y-85480000D01*
X150920000Y-86870000D02*
X156249899Y-86870000D01*
X156249899Y-86870000D02*
X157639899Y-85480000D01*
X150350000Y-86300000D02*
X150920000Y-86870000D01*
%TO.N,+10V*%
X146650000Y-76450000D02*
X156650000Y-76450000D01*
X156650000Y-76450000D02*
X158151752Y-77951752D01*
X158151752Y-77951752D02*
X158151752Y-79125456D01*
X190500000Y-91440000D02*
X186690000Y-91440000D01*
X138000000Y-80300000D02*
X142800000Y-80300000D01*
X182880000Y-82550000D02*
X182880000Y-78740000D01*
X182880000Y-82550000D02*
X181610000Y-81280000D01*
X182880000Y-78740000D02*
X181610000Y-77470000D01*
X182880000Y-87630000D02*
X182880000Y-82550000D01*
X181610000Y-81280000D02*
X180340000Y-81280000D01*
X158151752Y-79125456D02*
X156887208Y-80390000D01*
X156887208Y-80390000D02*
X155670000Y-80390000D01*
X194560000Y-95500000D02*
X190500000Y-91440000D01*
X142800000Y-80300000D02*
X146650000Y-76450000D01*
X186690000Y-91440000D02*
X182880000Y-87630000D01*
X195000000Y-95500000D02*
X194560000Y-95500000D01*
D20*
%TO.N,Net-(U4-PD0)*%
X164400000Y-95100000D02*
X165450000Y-95100000D01*
X165450000Y-95100000D02*
X169680000Y-99330000D01*
%TO.N,Net-(U4-PD2)*%
X163060000Y-97790000D02*
X164600000Y-99330000D01*
X144750000Y-94850000D02*
X147690000Y-97790000D01*
X147690000Y-97790000D02*
X148590000Y-97790000D01*
X148590000Y-97790000D02*
X163060000Y-97790000D01*
D21*
%TO.N,+5V*%
X151950000Y-105000000D02*
X151950000Y-104360000D01*
X179760000Y-98040000D02*
X176300000Y-101500000D01*
X151950000Y-104360000D02*
X156980000Y-99330000D01*
X176300000Y-101500000D02*
X157450000Y-101500000D01*
%TD*%
%TA.AperFunction,Conductor*%
%TO.N,GND*%
G36*
X205872539Y-65480185D02*
G01*
X205918294Y-65532989D01*
X205929500Y-65584500D01*
X205929500Y-108785500D01*
X205909815Y-108852539D01*
X205857011Y-108898294D01*
X205805500Y-108909500D01*
X116884500Y-108909500D01*
X116817461Y-108889815D01*
X116771706Y-108837011D01*
X116760500Y-108785500D01*
X116760500Y-106680001D01*
X134584532Y-106680001D01*
X134604364Y-106906686D01*
X134604366Y-106906697D01*
X134663258Y-107126488D01*
X134663261Y-107126497D01*
X134759431Y-107332732D01*
X134759432Y-107332734D01*
X134889954Y-107519141D01*
X135050858Y-107680045D01*
X135050861Y-107680047D01*
X135237266Y-107810568D01*
X135443504Y-107906739D01*
X135663308Y-107965635D01*
X135825230Y-107979801D01*
X135889998Y-107985468D01*
X135890000Y-107985468D01*
X135890002Y-107985468D01*
X135946673Y-107980509D01*
X136116692Y-107965635D01*
X136336496Y-107906739D01*
X136542734Y-107810568D01*
X136729139Y-107680047D01*
X136890047Y-107519139D01*
X137020568Y-107332734D01*
X137116739Y-107126496D01*
X137164030Y-106950001D01*
X137894532Y-106950001D01*
X137914364Y-107176686D01*
X137914366Y-107176697D01*
X137973258Y-107396488D01*
X137973261Y-107396497D01*
X138069431Y-107602732D01*
X138069432Y-107602734D01*
X138199954Y-107789141D01*
X138360858Y-107950045D01*
X138360861Y-107950047D01*
X138547266Y-108080568D01*
X138753504Y-108176739D01*
X138973308Y-108235635D01*
X139135230Y-108249801D01*
X139199998Y-108255468D01*
X139200000Y-108255468D01*
X139200002Y-108255468D01*
X139256673Y-108250509D01*
X139426692Y-108235635D01*
X139646496Y-108176739D01*
X139852734Y-108080568D01*
X140039139Y-107950047D01*
X140200047Y-107789139D01*
X140330568Y-107602734D01*
X140357618Y-107544724D01*
X140403790Y-107492285D01*
X140470983Y-107473133D01*
X140537865Y-107493348D01*
X140582382Y-107544725D01*
X140609429Y-107602728D01*
X140609432Y-107602734D01*
X140739954Y-107789141D01*
X140900858Y-107950045D01*
X140900861Y-107950047D01*
X141087266Y-108080568D01*
X141293504Y-108176739D01*
X141513308Y-108235635D01*
X141675230Y-108249801D01*
X141739998Y-108255468D01*
X141740000Y-108255468D01*
X141740002Y-108255468D01*
X141796673Y-108250509D01*
X141966692Y-108235635D01*
X142186496Y-108176739D01*
X142392734Y-108080568D01*
X142579139Y-107950047D01*
X142740047Y-107789139D01*
X142870568Y-107602734D01*
X142897618Y-107544724D01*
X142943790Y-107492285D01*
X143010983Y-107473133D01*
X143077865Y-107493348D01*
X143122382Y-107544725D01*
X143149429Y-107602728D01*
X143149432Y-107602734D01*
X143279954Y-107789141D01*
X143440858Y-107950045D01*
X143440861Y-107950047D01*
X143627266Y-108080568D01*
X143833504Y-108176739D01*
X144053308Y-108235635D01*
X144215230Y-108249801D01*
X144279998Y-108255468D01*
X144280000Y-108255468D01*
X144280002Y-108255468D01*
X144336673Y-108250509D01*
X144506692Y-108235635D01*
X144726496Y-108176739D01*
X144932734Y-108080568D01*
X145119139Y-107950047D01*
X145280047Y-107789139D01*
X145410568Y-107602734D01*
X145437618Y-107544724D01*
X145483790Y-107492285D01*
X145550983Y-107473133D01*
X145617865Y-107493348D01*
X145662382Y-107544725D01*
X145689429Y-107602728D01*
X145689432Y-107602734D01*
X145819954Y-107789141D01*
X145980858Y-107950045D01*
X145980861Y-107950047D01*
X146167266Y-108080568D01*
X146373504Y-108176739D01*
X146593308Y-108235635D01*
X146755230Y-108249801D01*
X146819998Y-108255468D01*
X146820000Y-108255468D01*
X146820002Y-108255468D01*
X146876673Y-108250509D01*
X147046692Y-108235635D01*
X147266496Y-108176739D01*
X147472734Y-108080568D01*
X147659139Y-107950047D01*
X147820047Y-107789139D01*
X147950568Y-107602734D01*
X147977618Y-107544724D01*
X148023790Y-107492285D01*
X148090983Y-107473133D01*
X148157865Y-107493348D01*
X148202382Y-107544725D01*
X148229429Y-107602728D01*
X148229432Y-107602734D01*
X148359954Y-107789141D01*
X148520858Y-107950045D01*
X148520861Y-107950047D01*
X148707266Y-108080568D01*
X148913504Y-108176739D01*
X149133308Y-108235635D01*
X149295230Y-108249801D01*
X149359998Y-108255468D01*
X149360000Y-108255468D01*
X149360002Y-108255468D01*
X149416673Y-108250509D01*
X149586692Y-108235635D01*
X149806496Y-108176739D01*
X150012734Y-108080568D01*
X150199139Y-107950047D01*
X150360047Y-107789139D01*
X150490568Y-107602734D01*
X150517618Y-107544724D01*
X150563790Y-107492285D01*
X150630983Y-107473133D01*
X150697865Y-107493348D01*
X150742382Y-107544725D01*
X150769429Y-107602728D01*
X150769432Y-107602734D01*
X150899954Y-107789141D01*
X151060858Y-107950045D01*
X151060861Y-107950047D01*
X151247266Y-108080568D01*
X151453504Y-108176739D01*
X151673308Y-108235635D01*
X151835230Y-108249801D01*
X151899998Y-108255468D01*
X151900000Y-108255468D01*
X151900002Y-108255468D01*
X151956673Y-108250509D01*
X152126692Y-108235635D01*
X152346496Y-108176739D01*
X152552734Y-108080568D01*
X152739139Y-107950047D01*
X152900047Y-107789139D01*
X153030568Y-107602734D01*
X153057618Y-107544724D01*
X153103790Y-107492285D01*
X153170983Y-107473133D01*
X153237865Y-107493348D01*
X153282382Y-107544725D01*
X153309429Y-107602728D01*
X153309432Y-107602734D01*
X153439954Y-107789141D01*
X153600858Y-107950045D01*
X153600861Y-107950047D01*
X153787266Y-108080568D01*
X153993504Y-108176739D01*
X154213308Y-108235635D01*
X154375230Y-108249801D01*
X154439998Y-108255468D01*
X154440000Y-108255468D01*
X154440002Y-108255468D01*
X154496673Y-108250509D01*
X154666692Y-108235635D01*
X154886496Y-108176739D01*
X155092734Y-108080568D01*
X155279139Y-107950047D01*
X155440047Y-107789139D01*
X155570568Y-107602734D01*
X155666739Y-107396496D01*
X155725635Y-107176692D01*
X155745468Y-106950001D01*
X158214532Y-106950001D01*
X158234364Y-107176686D01*
X158234366Y-107176697D01*
X158293258Y-107396488D01*
X158293261Y-107396497D01*
X158389431Y-107602732D01*
X158389432Y-107602734D01*
X158519954Y-107789141D01*
X158680858Y-107950045D01*
X158680861Y-107950047D01*
X158867266Y-108080568D01*
X159073504Y-108176739D01*
X159293308Y-108235635D01*
X159455230Y-108249801D01*
X159519998Y-108255468D01*
X159520000Y-108255468D01*
X159520002Y-108255468D01*
X159576673Y-108250509D01*
X159746692Y-108235635D01*
X159966496Y-108176739D01*
X160172734Y-108080568D01*
X160359139Y-107950047D01*
X160520047Y-107789139D01*
X160650568Y-107602734D01*
X160677618Y-107544724D01*
X160723790Y-107492285D01*
X160790983Y-107473133D01*
X160857865Y-107493348D01*
X160902382Y-107544725D01*
X160929429Y-107602728D01*
X160929432Y-107602734D01*
X161059954Y-107789141D01*
X161220858Y-107950045D01*
X161220861Y-107950047D01*
X161407266Y-108080568D01*
X161613504Y-108176739D01*
X161833308Y-108235635D01*
X161995230Y-108249801D01*
X162059998Y-108255468D01*
X162060000Y-108255468D01*
X162060002Y-108255468D01*
X162116673Y-108250509D01*
X162286692Y-108235635D01*
X162506496Y-108176739D01*
X162712734Y-108080568D01*
X162899139Y-107950047D01*
X163060047Y-107789139D01*
X163190568Y-107602734D01*
X163217618Y-107544724D01*
X163263790Y-107492285D01*
X163330983Y-107473133D01*
X163397865Y-107493348D01*
X163442382Y-107544725D01*
X163469429Y-107602728D01*
X163469432Y-107602734D01*
X163599954Y-107789141D01*
X163760858Y-107950045D01*
X163760861Y-107950047D01*
X163947266Y-108080568D01*
X164153504Y-108176739D01*
X164373308Y-108235635D01*
X164535230Y-108249801D01*
X164599998Y-108255468D01*
X164600000Y-108255468D01*
X164600002Y-108255468D01*
X164656673Y-108250509D01*
X164826692Y-108235635D01*
X165046496Y-108176739D01*
X165252734Y-108080568D01*
X165439139Y-107950047D01*
X165600047Y-107789139D01*
X165730568Y-107602734D01*
X165757618Y-107544724D01*
X165803790Y-107492285D01*
X165870983Y-107473133D01*
X165937865Y-107493348D01*
X165982382Y-107544725D01*
X166009429Y-107602728D01*
X166009432Y-107602734D01*
X166139954Y-107789141D01*
X166300858Y-107950045D01*
X166300861Y-107950047D01*
X166487266Y-108080568D01*
X166693504Y-108176739D01*
X166913308Y-108235635D01*
X167075230Y-108249801D01*
X167139998Y-108255468D01*
X167140000Y-108255468D01*
X167140002Y-108255468D01*
X167196673Y-108250509D01*
X167366692Y-108235635D01*
X167586496Y-108176739D01*
X167792734Y-108080568D01*
X167979139Y-107950047D01*
X168140047Y-107789139D01*
X168270568Y-107602734D01*
X168297618Y-107544724D01*
X168343790Y-107492285D01*
X168410983Y-107473133D01*
X168477865Y-107493348D01*
X168522382Y-107544725D01*
X168549429Y-107602728D01*
X168549432Y-107602734D01*
X168679954Y-107789141D01*
X168840858Y-107950045D01*
X168840861Y-107950047D01*
X169027266Y-108080568D01*
X169233504Y-108176739D01*
X169453308Y-108235635D01*
X169615230Y-108249801D01*
X169679998Y-108255468D01*
X169680000Y-108255468D01*
X169680002Y-108255468D01*
X169736673Y-108250509D01*
X169906692Y-108235635D01*
X170126496Y-108176739D01*
X170332734Y-108080568D01*
X170519139Y-107950047D01*
X170680047Y-107789139D01*
X170810568Y-107602734D01*
X170837618Y-107544724D01*
X170883790Y-107492285D01*
X170950983Y-107473133D01*
X171017865Y-107493348D01*
X171062382Y-107544725D01*
X171089429Y-107602728D01*
X171089432Y-107602734D01*
X171219954Y-107789141D01*
X171380858Y-107950045D01*
X171380861Y-107950047D01*
X171567266Y-108080568D01*
X171773504Y-108176739D01*
X171993308Y-108235635D01*
X172155230Y-108249801D01*
X172219998Y-108255468D01*
X172220000Y-108255468D01*
X172220002Y-108255468D01*
X172276673Y-108250509D01*
X172446692Y-108235635D01*
X172666496Y-108176739D01*
X172872734Y-108080568D01*
X173059139Y-107950047D01*
X173220047Y-107789139D01*
X173350568Y-107602734D01*
X173446739Y-107396496D01*
X173505635Y-107176692D01*
X173525468Y-106950000D01*
X173521679Y-106906697D01*
X173505635Y-106723313D01*
X173505635Y-106723308D01*
X173446739Y-106503504D01*
X173350568Y-106297266D01*
X173220047Y-106110861D01*
X173220045Y-106110858D01*
X173059141Y-105949954D01*
X172872734Y-105819432D01*
X172872732Y-105819431D01*
X172666497Y-105723261D01*
X172666488Y-105723258D01*
X172446697Y-105664366D01*
X172446693Y-105664365D01*
X172446692Y-105664365D01*
X172446691Y-105664364D01*
X172446686Y-105664364D01*
X172220002Y-105644532D01*
X172219998Y-105644532D01*
X171993313Y-105664364D01*
X171993302Y-105664366D01*
X171773511Y-105723258D01*
X171773502Y-105723261D01*
X171567267Y-105819431D01*
X171567265Y-105819432D01*
X171380858Y-105949954D01*
X171219954Y-106110858D01*
X171089432Y-106297265D01*
X171089431Y-106297267D01*
X171062382Y-106355275D01*
X171016209Y-106407714D01*
X170949016Y-106426866D01*
X170882135Y-106406650D01*
X170837618Y-106355275D01*
X170810568Y-106297267D01*
X170810567Y-106297265D01*
X170680045Y-106110858D01*
X170519141Y-105949954D01*
X170332734Y-105819432D01*
X170332732Y-105819431D01*
X170126497Y-105723261D01*
X170126488Y-105723258D01*
X169906697Y-105664366D01*
X169906693Y-105664365D01*
X169906692Y-105664365D01*
X169906691Y-105664364D01*
X169906686Y-105664364D01*
X169680002Y-105644532D01*
X169679998Y-105644532D01*
X169453313Y-105664364D01*
X169453302Y-105664366D01*
X169233511Y-105723258D01*
X169233502Y-105723261D01*
X169027267Y-105819431D01*
X169027265Y-105819432D01*
X168840858Y-105949954D01*
X168679954Y-106110858D01*
X168549432Y-106297265D01*
X168549431Y-106297267D01*
X168522382Y-106355275D01*
X168476209Y-106407714D01*
X168409016Y-106426866D01*
X168342135Y-106406650D01*
X168297618Y-106355275D01*
X168270568Y-106297267D01*
X168270567Y-106297265D01*
X168140045Y-106110858D01*
X167979141Y-105949954D01*
X167792734Y-105819432D01*
X167792732Y-105819431D01*
X167586497Y-105723261D01*
X167586488Y-105723258D01*
X167366697Y-105664366D01*
X167366693Y-105664365D01*
X167366692Y-105664365D01*
X167366691Y-105664364D01*
X167366686Y-105664364D01*
X167140002Y-105644532D01*
X167139998Y-105644532D01*
X166913313Y-105664364D01*
X166913302Y-105664366D01*
X166693511Y-105723258D01*
X166693502Y-105723261D01*
X166487267Y-105819431D01*
X166487265Y-105819432D01*
X166300858Y-105949954D01*
X166139954Y-106110858D01*
X166009432Y-106297265D01*
X166009431Y-106297267D01*
X165982382Y-106355275D01*
X165936209Y-106407714D01*
X165869016Y-106426866D01*
X165802135Y-106406650D01*
X165757618Y-106355275D01*
X165730568Y-106297267D01*
X165730567Y-106297265D01*
X165600045Y-106110858D01*
X165439141Y-105949954D01*
X165252734Y-105819432D01*
X165252732Y-105819431D01*
X165046497Y-105723261D01*
X165046488Y-105723258D01*
X164826697Y-105664366D01*
X164826693Y-105664365D01*
X164826692Y-105664365D01*
X164826691Y-105664364D01*
X164826686Y-105664364D01*
X164600002Y-105644532D01*
X164599998Y-105644532D01*
X164373313Y-105664364D01*
X164373302Y-105664366D01*
X164153511Y-105723258D01*
X164153502Y-105723261D01*
X163947267Y-105819431D01*
X163947265Y-105819432D01*
X163760858Y-105949954D01*
X163599954Y-106110858D01*
X163469432Y-106297265D01*
X163469431Y-106297267D01*
X163442382Y-106355275D01*
X163396209Y-106407714D01*
X163329016Y-106426866D01*
X163262135Y-106406650D01*
X163217618Y-106355275D01*
X163190568Y-106297267D01*
X163190567Y-106297265D01*
X163060045Y-106110858D01*
X162899141Y-105949954D01*
X162712734Y-105819432D01*
X162712732Y-105819431D01*
X162506497Y-105723261D01*
X162506488Y-105723258D01*
X162286697Y-105664366D01*
X162286693Y-105664365D01*
X162286692Y-105664365D01*
X162286691Y-105664364D01*
X162286686Y-105664364D01*
X162060002Y-105644532D01*
X162059998Y-105644532D01*
X161833313Y-105664364D01*
X161833302Y-105664366D01*
X161613511Y-105723258D01*
X161613502Y-105723261D01*
X161407267Y-105819431D01*
X161407265Y-105819432D01*
X161220858Y-105949954D01*
X161059954Y-106110858D01*
X160929432Y-106297265D01*
X160929431Y-106297267D01*
X160902382Y-106355275D01*
X160856209Y-106407714D01*
X160789016Y-106426866D01*
X160722135Y-106406650D01*
X160677618Y-106355275D01*
X160650568Y-106297267D01*
X160650567Y-106297265D01*
X160520045Y-106110858D01*
X160359141Y-105949954D01*
X160172734Y-105819432D01*
X160172732Y-105819431D01*
X159966497Y-105723261D01*
X159966488Y-105723258D01*
X159746697Y-105664366D01*
X159746693Y-105664365D01*
X159746692Y-105664365D01*
X159746691Y-105664364D01*
X159746686Y-105664364D01*
X159520002Y-105644532D01*
X159519998Y-105644532D01*
X159293313Y-105664364D01*
X159293302Y-105664366D01*
X159073511Y-105723258D01*
X159073502Y-105723261D01*
X158867267Y-105819431D01*
X158867265Y-105819432D01*
X158680858Y-105949954D01*
X158519954Y-106110858D01*
X158389432Y-106297265D01*
X158389431Y-106297267D01*
X158293261Y-106503502D01*
X158293258Y-106503511D01*
X158234366Y-106723302D01*
X158234364Y-106723313D01*
X158214532Y-106949998D01*
X158214532Y-106950001D01*
X155745468Y-106950001D01*
X155745468Y-106950000D01*
X155741679Y-106906697D01*
X155725635Y-106723313D01*
X155725635Y-106723308D01*
X155666739Y-106503504D01*
X155570568Y-106297266D01*
X155440047Y-106110861D01*
X155440045Y-106110858D01*
X155279141Y-105949954D01*
X155092734Y-105819432D01*
X155092732Y-105819431D01*
X154886497Y-105723261D01*
X154886488Y-105723258D01*
X154666697Y-105664366D01*
X154666693Y-105664365D01*
X154666692Y-105664365D01*
X154666691Y-105664364D01*
X154666686Y-105664364D01*
X154440002Y-105644532D01*
X154439998Y-105644532D01*
X154213313Y-105664364D01*
X154213302Y-105664366D01*
X153993511Y-105723258D01*
X153993502Y-105723261D01*
X153787267Y-105819431D01*
X153787265Y-105819432D01*
X153600858Y-105949954D01*
X153439954Y-106110858D01*
X153309432Y-106297265D01*
X153309431Y-106297267D01*
X153282382Y-106355275D01*
X153236209Y-106407714D01*
X153169016Y-106426866D01*
X153102135Y-106406650D01*
X153057618Y-106355275D01*
X153030568Y-106297267D01*
X153030567Y-106297265D01*
X152900045Y-106110858D01*
X152739141Y-105949954D01*
X152586346Y-105842967D01*
X152542721Y-105788391D01*
X152535527Y-105718892D01*
X152567050Y-105656537D01*
X152569757Y-105653741D01*
X152649464Y-105574035D01*
X152748013Y-105426547D01*
X152815894Y-105262666D01*
X152850500Y-105088691D01*
X152850500Y-104784361D01*
X152870185Y-104717322D01*
X152886814Y-104696685D01*
X156354141Y-101229357D01*
X156415464Y-101195873D01*
X156485156Y-101200857D01*
X156541089Y-101242729D01*
X156565506Y-101308193D01*
X156563439Y-101341230D01*
X156549500Y-101411304D01*
X156549500Y-101588695D01*
X156584103Y-101762658D01*
X156584106Y-101762667D01*
X156651983Y-101926540D01*
X156651990Y-101926553D01*
X156750535Y-102074034D01*
X156750538Y-102074038D01*
X156875961Y-102199461D01*
X156875965Y-102199464D01*
X157023446Y-102298009D01*
X157023459Y-102298016D01*
X157146363Y-102348923D01*
X157187334Y-102365894D01*
X157187336Y-102365894D01*
X157187341Y-102365896D01*
X157361304Y-102400499D01*
X157361307Y-102400500D01*
X157361309Y-102400500D01*
X176388693Y-102400500D01*
X176388694Y-102400499D01*
X176562666Y-102365895D01*
X176644606Y-102331953D01*
X176726547Y-102298013D01*
X176834637Y-102225789D01*
X176874036Y-102199464D01*
X179643565Y-99429933D01*
X179704886Y-99396450D01*
X179742049Y-99394088D01*
X179760000Y-99395659D01*
X179995408Y-99375063D01*
X180223663Y-99313903D01*
X180437830Y-99214035D01*
X180631401Y-99078495D01*
X180798495Y-98911401D01*
X180928425Y-98725842D01*
X180983002Y-98682217D01*
X181052500Y-98675023D01*
X181114855Y-98706546D01*
X181131575Y-98725842D01*
X181261500Y-98911395D01*
X181261505Y-98911401D01*
X181428599Y-99078495D01*
X181464043Y-99103313D01*
X181622165Y-99214032D01*
X181622167Y-99214033D01*
X181622170Y-99214035D01*
X181836337Y-99313903D01*
X182064592Y-99375063D01*
X182252918Y-99391539D01*
X182299999Y-99395659D01*
X182300000Y-99395659D01*
X182300001Y-99395659D01*
X182339234Y-99392226D01*
X182535408Y-99375063D01*
X182763663Y-99313903D01*
X182977830Y-99214035D01*
X183171401Y-99078495D01*
X183338495Y-98911401D01*
X183468425Y-98725842D01*
X183523002Y-98682217D01*
X183592500Y-98675023D01*
X183654855Y-98706546D01*
X183671575Y-98725842D01*
X183801500Y-98911395D01*
X183801505Y-98911401D01*
X183968599Y-99078495D01*
X184004043Y-99103313D01*
X184162165Y-99214032D01*
X184162167Y-99214033D01*
X184162170Y-99214035D01*
X184376337Y-99313903D01*
X184604592Y-99375063D01*
X184792918Y-99391539D01*
X184839999Y-99395659D01*
X184840000Y-99395659D01*
X184840001Y-99395659D01*
X184879234Y-99392226D01*
X185075408Y-99375063D01*
X185303663Y-99313903D01*
X185517830Y-99214035D01*
X185711401Y-99078495D01*
X185878495Y-98911401D01*
X186008425Y-98725842D01*
X186063002Y-98682217D01*
X186132500Y-98675023D01*
X186194855Y-98706546D01*
X186211575Y-98725842D01*
X186341500Y-98911395D01*
X186341505Y-98911401D01*
X186508599Y-99078495D01*
X186544043Y-99103313D01*
X186702165Y-99214032D01*
X186702167Y-99214033D01*
X186702170Y-99214035D01*
X186916337Y-99313903D01*
X187144592Y-99375063D01*
X187332918Y-99391539D01*
X187379999Y-99395659D01*
X187380000Y-99395659D01*
X187380001Y-99395659D01*
X187419234Y-99392226D01*
X187615408Y-99375063D01*
X187843663Y-99313903D01*
X188057830Y-99214035D01*
X188251401Y-99078495D01*
X188418495Y-98911401D01*
X188554035Y-98717830D01*
X188653903Y-98503663D01*
X188715063Y-98275408D01*
X188735659Y-98040000D01*
X188734740Y-98029501D01*
X188724070Y-97907544D01*
X188715063Y-97804592D01*
X188653903Y-97576337D01*
X188554035Y-97362171D01*
X188548425Y-97354158D01*
X188418494Y-97168597D01*
X188251402Y-97001506D01*
X188251396Y-97001501D01*
X188065842Y-96871575D01*
X188022217Y-96816998D01*
X188015023Y-96747500D01*
X188046546Y-96685145D01*
X188065842Y-96668425D01*
X188208325Y-96568657D01*
X188251401Y-96538495D01*
X188418495Y-96371401D01*
X188554035Y-96177830D01*
X188653903Y-95963663D01*
X188715063Y-95735408D01*
X188735659Y-95500000D01*
X188715063Y-95264592D01*
X188657051Y-95048085D01*
X188653905Y-95036344D01*
X188653904Y-95036343D01*
X188653903Y-95036337D01*
X188554035Y-94822171D01*
X188548425Y-94814158D01*
X188418494Y-94628597D01*
X188251402Y-94461506D01*
X188251395Y-94461501D01*
X188239971Y-94453502D01*
X188208051Y-94431151D01*
X188057834Y-94325967D01*
X188057830Y-94325965D01*
X188033526Y-94314632D01*
X187843663Y-94226097D01*
X187843659Y-94226096D01*
X187843655Y-94226094D01*
X187615413Y-94164938D01*
X187615403Y-94164936D01*
X187380001Y-94144341D01*
X187379999Y-94144341D01*
X187144596Y-94164936D01*
X187144586Y-94164938D01*
X186916344Y-94226094D01*
X186916335Y-94226098D01*
X186702171Y-94325964D01*
X186702169Y-94325965D01*
X186508597Y-94461505D01*
X186341505Y-94628597D01*
X186211575Y-94814158D01*
X186156998Y-94857783D01*
X186087500Y-94864977D01*
X186025145Y-94833454D01*
X186008425Y-94814158D01*
X185878494Y-94628597D01*
X185711402Y-94461506D01*
X185711395Y-94461501D01*
X185699971Y-94453502D01*
X185668051Y-94431151D01*
X185517834Y-94325967D01*
X185517830Y-94325965D01*
X185493526Y-94314632D01*
X185303663Y-94226097D01*
X185303659Y-94226096D01*
X185303655Y-94226094D01*
X185075413Y-94164938D01*
X185075403Y-94164936D01*
X184840001Y-94144341D01*
X184839999Y-94144341D01*
X184604596Y-94164936D01*
X184604586Y-94164938D01*
X184376344Y-94226094D01*
X184376335Y-94226098D01*
X184162171Y-94325964D01*
X184162169Y-94325965D01*
X183968597Y-94461505D01*
X183801505Y-94628597D01*
X183671575Y-94814158D01*
X183616998Y-94857783D01*
X183547500Y-94864977D01*
X183485145Y-94833454D01*
X183468425Y-94814158D01*
X183338494Y-94628597D01*
X183171404Y-94461508D01*
X183171402Y-94461506D01*
X183171401Y-94461505D01*
X183153374Y-94448882D01*
X183109751Y-94394306D01*
X183100500Y-94347309D01*
X183100500Y-93440856D01*
X183100499Y-93440853D01*
X183100476Y-93440731D01*
X183069738Y-93286207D01*
X183069737Y-93286200D01*
X183042296Y-93219953D01*
X183009394Y-93140519D01*
X182994728Y-93118570D01*
X182921790Y-93009410D01*
X182870381Y-92958001D01*
X182810289Y-92897909D01*
X182120289Y-92207909D01*
X182112262Y-92199882D01*
X182112260Y-92199880D01*
X182112257Y-92199878D01*
X182046900Y-92158812D01*
X182043982Y-92156921D01*
X181989179Y-92120303D01*
X181989173Y-92120301D01*
X181988365Y-92119966D01*
X181969865Y-92110407D01*
X181959524Y-92103910D01*
X181959523Y-92103909D01*
X181959522Y-92103909D01*
X181898867Y-92082684D01*
X181892377Y-92080207D01*
X181843496Y-92059960D01*
X181829860Y-92057248D01*
X181813104Y-92052674D01*
X181789260Y-92044331D01*
X181789256Y-92044330D01*
X181789255Y-92044330D01*
X181768575Y-92041999D01*
X181738303Y-92038588D01*
X181728003Y-92036986D01*
X181688844Y-92029198D01*
X181688842Y-92029198D01*
X181661915Y-92029198D01*
X181648031Y-92028418D01*
X181610002Y-92024133D01*
X181609998Y-92024133D01*
X181571969Y-92028418D01*
X181558085Y-92029198D01*
X181531152Y-92029198D01*
X181491994Y-92036986D01*
X181481696Y-92038588D01*
X181430742Y-92044330D01*
X181430735Y-92044332D01*
X181406898Y-92052673D01*
X181390140Y-92057248D01*
X181376502Y-92059961D01*
X181376496Y-92059962D01*
X181327631Y-92080202D01*
X181321140Y-92082680D01*
X181260477Y-92103908D01*
X181260474Y-92103910D01*
X181250127Y-92110411D01*
X181231639Y-92119964D01*
X181230832Y-92120298D01*
X181230824Y-92120302D01*
X181176047Y-92156902D01*
X181173132Y-92158790D01*
X181107742Y-92199878D01*
X181107735Y-92199884D01*
X180980186Y-92327433D01*
X180980180Y-92327440D01*
X180939092Y-92392830D01*
X180937204Y-92395745D01*
X180900604Y-92450522D01*
X180900600Y-92450530D01*
X180900266Y-92451337D01*
X180890713Y-92469825D01*
X180884212Y-92480172D01*
X180884210Y-92480175D01*
X180862982Y-92540838D01*
X180860504Y-92547329D01*
X180840264Y-92596194D01*
X180840263Y-92596200D01*
X180837550Y-92609838D01*
X180832975Y-92626596D01*
X180824634Y-92650433D01*
X180824632Y-92650440D01*
X180818890Y-92701394D01*
X180817288Y-92711692D01*
X180809500Y-92750850D01*
X180809500Y-92777783D01*
X180808720Y-92791667D01*
X180804435Y-92829696D01*
X180804435Y-92829699D01*
X180808720Y-92867727D01*
X180809500Y-92881612D01*
X180809500Y-92908542D01*
X180817288Y-92947701D01*
X180818890Y-92958001D01*
X180824632Y-93008950D01*
X180824633Y-93008958D01*
X180832976Y-93032802D01*
X180837550Y-93049558D01*
X180840262Y-93063194D01*
X180860509Y-93112075D01*
X180862986Y-93118565D01*
X180873811Y-93149500D01*
X180886074Y-93184544D01*
X180889637Y-93254323D01*
X180854908Y-93314951D01*
X180792915Y-93347178D01*
X180769033Y-93349500D01*
X179121965Y-93349500D01*
X178967320Y-93380261D01*
X178967308Y-93380264D01*
X178924643Y-93397936D01*
X178924644Y-93397937D01*
X178821634Y-93440604D01*
X178821625Y-93440609D01*
X178690523Y-93528209D01*
X178690522Y-93528211D01*
X178690521Y-93528212D01*
X176889711Y-95329022D01*
X176858444Y-95360289D01*
X176778209Y-95440523D01*
X176690609Y-95571625D01*
X176690602Y-95571638D01*
X176630264Y-95717309D01*
X176630261Y-95717321D01*
X176599500Y-95871964D01*
X176599500Y-96998085D01*
X176598720Y-97011968D01*
X176594435Y-97050000D01*
X176597883Y-97080606D01*
X176598720Y-97088029D01*
X176599500Y-97101914D01*
X176599500Y-97128844D01*
X176607288Y-97168003D01*
X176608890Y-97178303D01*
X176614632Y-97229252D01*
X176614633Y-97229260D01*
X176622976Y-97253104D01*
X176627550Y-97269860D01*
X176630262Y-97283496D01*
X176650509Y-97332377D01*
X176652986Y-97338867D01*
X176673602Y-97397783D01*
X176674212Y-97399524D01*
X176680709Y-97409865D01*
X176690268Y-97428365D01*
X176690603Y-97429173D01*
X176690605Y-97429179D01*
X176727223Y-97483982D01*
X176729114Y-97486900D01*
X176770180Y-97552257D01*
X176770182Y-97552260D01*
X176770184Y-97552262D01*
X176897738Y-97679816D01*
X176963096Y-97720883D01*
X176963131Y-97720905D01*
X176966040Y-97722790D01*
X177020821Y-97759394D01*
X177021606Y-97759719D01*
X177040134Y-97769289D01*
X177050478Y-97775789D01*
X177111175Y-97797028D01*
X177117607Y-97799484D01*
X177146021Y-97811253D01*
X177166497Y-97819735D01*
X177166498Y-97819735D01*
X177166503Y-97819737D01*
X177180139Y-97822449D01*
X177196898Y-97827023D01*
X177220745Y-97835368D01*
X177271714Y-97841110D01*
X177281992Y-97842709D01*
X177309140Y-97848109D01*
X177321157Y-97850500D01*
X177321158Y-97850500D01*
X177348085Y-97850500D01*
X177361969Y-97851280D01*
X177399998Y-97855565D01*
X177400000Y-97855565D01*
X177400002Y-97855565D01*
X177438031Y-97851280D01*
X177451915Y-97850500D01*
X177478841Y-97850500D01*
X177478842Y-97850500D01*
X177518017Y-97842707D01*
X177528283Y-97841110D01*
X177579255Y-97835368D01*
X177603100Y-97827023D01*
X177619862Y-97822448D01*
X177633497Y-97819737D01*
X177682389Y-97799484D01*
X177688837Y-97797023D01*
X177749522Y-97775789D01*
X177759868Y-97769287D01*
X177778390Y-97759720D01*
X177779179Y-97759394D01*
X177833987Y-97722771D01*
X177836825Y-97720931D01*
X177902262Y-97679816D01*
X178029816Y-97552262D01*
X178070931Y-97486825D01*
X178072777Y-97483979D01*
X178109389Y-97429186D01*
X178109394Y-97429179D01*
X178109720Y-97428390D01*
X178119287Y-97409868D01*
X178125789Y-97399522D01*
X178147023Y-97338837D01*
X178149490Y-97332377D01*
X178169737Y-97283497D01*
X178172449Y-97269860D01*
X178177023Y-97253100D01*
X178185368Y-97229255D01*
X178191110Y-97178283D01*
X178192707Y-97168017D01*
X178200500Y-97128842D01*
X178200500Y-97101914D01*
X178201280Y-97088029D01*
X178202117Y-97080606D01*
X178205565Y-97050000D01*
X178201279Y-97011968D01*
X178200500Y-96998085D01*
X178200500Y-96333750D01*
X178220185Y-96266711D01*
X178236810Y-96246078D01*
X178371414Y-96111474D01*
X178432732Y-96077992D01*
X178502424Y-96082976D01*
X178558358Y-96124847D01*
X178571473Y-96146752D01*
X178585966Y-96177832D01*
X178659178Y-96282389D01*
X178721501Y-96371396D01*
X178721506Y-96371402D01*
X178888597Y-96538493D01*
X178888603Y-96538498D01*
X179074158Y-96668425D01*
X179117783Y-96723002D01*
X179124977Y-96792500D01*
X179093454Y-96854855D01*
X179074158Y-96871575D01*
X178888597Y-97001505D01*
X178721505Y-97168597D01*
X178585965Y-97362169D01*
X178585964Y-97362171D01*
X178486098Y-97576335D01*
X178486094Y-97576344D01*
X178424938Y-97804586D01*
X178424936Y-97804596D01*
X178404341Y-98039998D01*
X178405911Y-98057952D01*
X178392141Y-98126452D01*
X178370063Y-98156435D01*
X175963319Y-100563181D01*
X175901996Y-100596666D01*
X175875638Y-100599500D01*
X173541460Y-100599500D01*
X173474421Y-100579815D01*
X173428666Y-100527011D01*
X173418722Y-100457853D01*
X173442193Y-100401189D01*
X173462603Y-100373924D01*
X173463796Y-100372331D01*
X173514091Y-100237483D01*
X173520500Y-100177873D01*
X173520499Y-98482128D01*
X173514091Y-98422517D01*
X173479567Y-98329954D01*
X173463797Y-98287671D01*
X173463793Y-98287664D01*
X173377547Y-98172455D01*
X173377544Y-98172452D01*
X173262335Y-98086206D01*
X173262328Y-98086202D01*
X173127482Y-98035908D01*
X173127483Y-98035908D01*
X173067883Y-98029501D01*
X173067881Y-98029500D01*
X173067873Y-98029500D01*
X173067864Y-98029500D01*
X171372129Y-98029500D01*
X171372123Y-98029501D01*
X171312516Y-98035908D01*
X171177671Y-98086202D01*
X171177664Y-98086206D01*
X171062455Y-98172452D01*
X171062452Y-98172455D01*
X170976206Y-98287664D01*
X170976202Y-98287671D01*
X170925908Y-98422516D01*
X170922137Y-98457596D01*
X170895398Y-98522146D01*
X170838006Y-98561994D01*
X170768180Y-98564487D01*
X170708092Y-98528834D01*
X170697273Y-98515462D01*
X170680045Y-98490858D01*
X170519141Y-98329954D01*
X170332734Y-98199432D01*
X170332732Y-98199431D01*
X170126497Y-98103261D01*
X170126488Y-98103258D01*
X169906697Y-98044366D01*
X169906693Y-98044365D01*
X169906692Y-98044365D01*
X169906691Y-98044364D01*
X169906686Y-98044364D01*
X169680002Y-98024532D01*
X169679998Y-98024532D01*
X169578160Y-98033441D01*
X169509660Y-98019674D01*
X169479672Y-97997594D01*
X167772107Y-96290029D01*
X167738622Y-96228706D01*
X167743606Y-96159014D01*
X167785478Y-96103081D01*
X167850942Y-96078664D01*
X167891879Y-96082572D01*
X167903308Y-96085635D01*
X168065230Y-96099801D01*
X168129998Y-96105468D01*
X168130000Y-96105468D01*
X168130002Y-96105468D01*
X168186673Y-96100509D01*
X168356692Y-96085635D01*
X168576496Y-96026739D01*
X168782734Y-95930568D01*
X168969139Y-95800047D01*
X169130047Y-95639139D01*
X169260568Y-95452734D01*
X169356739Y-95246496D01*
X169415635Y-95026692D01*
X169433528Y-94822169D01*
X169435468Y-94800001D01*
X169435468Y-94799998D01*
X169424383Y-94673302D01*
X169415635Y-94573308D01*
X169356739Y-94353504D01*
X169260568Y-94147266D01*
X169130047Y-93960861D01*
X169130045Y-93960858D01*
X168969141Y-93799954D01*
X168782734Y-93669432D01*
X168782732Y-93669431D01*
X168576497Y-93573261D01*
X168576488Y-93573258D01*
X168356697Y-93514366D01*
X168356693Y-93514365D01*
X168356692Y-93514365D01*
X168356691Y-93514364D01*
X168356686Y-93514364D01*
X168130002Y-93494532D01*
X168129998Y-93494532D01*
X167903313Y-93514364D01*
X167903302Y-93514366D01*
X167683511Y-93573258D01*
X167683502Y-93573261D01*
X167477267Y-93669431D01*
X167477265Y-93669432D01*
X167290858Y-93799954D01*
X167129954Y-93960858D01*
X166999432Y-94147265D01*
X166999431Y-94147267D01*
X166903261Y-94353502D01*
X166903258Y-94353511D01*
X166844366Y-94573302D01*
X166844364Y-94573313D01*
X166824532Y-94799998D01*
X166824532Y-94800001D01*
X166844364Y-95026686D01*
X166844365Y-95026693D01*
X166847427Y-95038119D01*
X166845762Y-95107969D01*
X166806598Y-95165831D01*
X166742369Y-95193333D01*
X166673467Y-95181745D01*
X166639970Y-95157891D01*
X165960292Y-94478213D01*
X165960288Y-94478210D01*
X165829185Y-94390609D01*
X165829172Y-94390602D01*
X165683501Y-94330264D01*
X165683489Y-94330261D01*
X165528845Y-94299500D01*
X165528842Y-94299500D01*
X164451915Y-94299500D01*
X164438031Y-94298720D01*
X164400002Y-94294435D01*
X164399998Y-94294435D01*
X164361969Y-94298720D01*
X164348085Y-94299500D01*
X164321152Y-94299500D01*
X164281994Y-94307288D01*
X164271696Y-94308890D01*
X164220742Y-94314632D01*
X164220735Y-94314634D01*
X164196898Y-94322975D01*
X164180140Y-94327550D01*
X164166502Y-94330263D01*
X164166496Y-94330264D01*
X164117631Y-94350504D01*
X164111140Y-94352982D01*
X164050477Y-94374210D01*
X164050474Y-94374212D01*
X164040127Y-94380713D01*
X164021639Y-94390266D01*
X164020832Y-94390600D01*
X164020824Y-94390604D01*
X164020821Y-94390605D01*
X164020821Y-94390606D01*
X163984914Y-94414598D01*
X163966047Y-94427204D01*
X163963132Y-94429092D01*
X163897742Y-94470180D01*
X163897735Y-94470186D01*
X163770186Y-94597735D01*
X163770180Y-94597742D01*
X163729092Y-94663132D01*
X163727209Y-94666038D01*
X163724067Y-94670742D01*
X163690604Y-94720824D01*
X163690600Y-94720832D01*
X163690266Y-94721639D01*
X163680713Y-94740127D01*
X163674212Y-94750474D01*
X163674210Y-94750477D01*
X163652982Y-94811140D01*
X163650504Y-94817631D01*
X163630264Y-94866496D01*
X163630263Y-94866502D01*
X163627550Y-94880140D01*
X163622975Y-94896898D01*
X163614634Y-94920735D01*
X163614632Y-94920742D01*
X163608890Y-94971696D01*
X163607288Y-94981994D01*
X163599500Y-95021152D01*
X163599500Y-95048085D01*
X163598720Y-95061969D01*
X163596295Y-95083496D01*
X163594435Y-95100000D01*
X163597442Y-95126692D01*
X163598720Y-95138029D01*
X163599500Y-95151914D01*
X163599500Y-95178844D01*
X163607288Y-95218003D01*
X163608890Y-95228303D01*
X163614632Y-95279252D01*
X163614633Y-95279260D01*
X163622976Y-95303104D01*
X163627550Y-95319860D01*
X163630262Y-95333496D01*
X163650509Y-95382377D01*
X163652986Y-95388867D01*
X163666925Y-95428702D01*
X163674212Y-95449524D01*
X163680709Y-95459865D01*
X163690268Y-95478365D01*
X163690603Y-95479173D01*
X163690605Y-95479179D01*
X163727223Y-95533982D01*
X163729114Y-95536900D01*
X163770180Y-95602257D01*
X163770182Y-95602260D01*
X163770184Y-95602262D01*
X163897738Y-95729816D01*
X163912579Y-95739141D01*
X163963131Y-95770905D01*
X163966040Y-95772790D01*
X164020821Y-95809394D01*
X164021606Y-95809719D01*
X164040134Y-95819289D01*
X164050478Y-95825789D01*
X164111175Y-95847028D01*
X164117607Y-95849484D01*
X164146021Y-95861253D01*
X164166497Y-95869735D01*
X164166498Y-95869735D01*
X164166503Y-95869737D01*
X164180139Y-95872449D01*
X164196898Y-95877023D01*
X164220745Y-95885368D01*
X164271714Y-95891110D01*
X164281992Y-95892709D01*
X164309140Y-95898109D01*
X164321157Y-95900500D01*
X164321158Y-95900500D01*
X164348085Y-95900500D01*
X164361969Y-95901280D01*
X164399998Y-95905565D01*
X164400000Y-95905565D01*
X164400002Y-95905565D01*
X164438031Y-95901280D01*
X164451915Y-95900500D01*
X165067060Y-95900500D01*
X165134099Y-95920185D01*
X165154741Y-95936819D01*
X167046178Y-97828256D01*
X167079663Y-97889579D01*
X167074679Y-97959271D01*
X167032807Y-98015204D01*
X166969306Y-98039465D01*
X166913312Y-98044364D01*
X166913302Y-98044366D01*
X166693511Y-98103258D01*
X166693502Y-98103261D01*
X166487267Y-98199431D01*
X166487265Y-98199432D01*
X166300858Y-98329954D01*
X166139954Y-98490858D01*
X166009432Y-98677265D01*
X166009431Y-98677267D01*
X166007123Y-98682217D01*
X165983841Y-98732147D01*
X165982382Y-98735275D01*
X165936209Y-98787714D01*
X165869016Y-98806866D01*
X165802135Y-98786650D01*
X165757618Y-98735275D01*
X165730568Y-98677266D01*
X165600047Y-98490861D01*
X165600045Y-98490858D01*
X165439141Y-98329954D01*
X165252734Y-98199432D01*
X165252732Y-98199431D01*
X165046497Y-98103261D01*
X165046488Y-98103258D01*
X164826697Y-98044366D01*
X164826693Y-98044365D01*
X164826692Y-98044365D01*
X164826691Y-98044364D01*
X164826686Y-98044364D01*
X164600002Y-98024532D01*
X164599998Y-98024532D01*
X164498160Y-98033441D01*
X164429660Y-98019674D01*
X164399672Y-97997594D01*
X163570292Y-97168213D01*
X163570288Y-97168210D01*
X163439185Y-97080609D01*
X163439172Y-97080602D01*
X163293501Y-97020264D01*
X163293489Y-97020261D01*
X163138845Y-96989500D01*
X163138842Y-96989500D01*
X148668842Y-96989500D01*
X148072940Y-96989500D01*
X148005901Y-96969815D01*
X147985259Y-96953181D01*
X145932079Y-94900001D01*
X147074532Y-94900001D01*
X147094364Y-95126686D01*
X147094366Y-95126697D01*
X147153258Y-95346488D01*
X147153261Y-95346497D01*
X147249431Y-95552732D01*
X147249432Y-95552734D01*
X147379954Y-95739141D01*
X147540858Y-95900045D01*
X147558356Y-95912297D01*
X147727266Y-96030568D01*
X147933504Y-96126739D01*
X147933509Y-96126740D01*
X147933511Y-96126741D01*
X147964420Y-96135023D01*
X148153308Y-96185635D01*
X148315230Y-96199801D01*
X148379998Y-96205468D01*
X148380000Y-96205468D01*
X148380002Y-96205468D01*
X148436673Y-96200509D01*
X148606692Y-96185635D01*
X148826496Y-96126739D01*
X149032734Y-96030568D01*
X149219139Y-95900047D01*
X149380047Y-95739139D01*
X149510568Y-95552734D01*
X149606739Y-95346496D01*
X149665635Y-95126692D01*
X149685468Y-94900000D01*
X149685026Y-94894953D01*
X149676719Y-94799998D01*
X149665635Y-94673308D01*
X149632596Y-94550006D01*
X153059700Y-94550006D01*
X153078864Y-94781297D01*
X153078866Y-94781308D01*
X153135842Y-95006300D01*
X153229075Y-95218848D01*
X153356016Y-95413147D01*
X153356019Y-95413151D01*
X153356021Y-95413153D01*
X153513216Y-95583913D01*
X153513219Y-95583915D01*
X153513222Y-95583918D01*
X153696365Y-95726464D01*
X153696371Y-95726468D01*
X153696374Y-95726470D01*
X153900497Y-95836936D01*
X153996037Y-95869735D01*
X154120015Y-95912297D01*
X154120017Y-95912297D01*
X154120019Y-95912298D01*
X154348951Y-95950500D01*
X154348952Y-95950500D01*
X154581048Y-95950500D01*
X154581049Y-95950500D01*
X154809981Y-95912298D01*
X155029503Y-95836936D01*
X155233626Y-95726470D01*
X155416784Y-95583913D01*
X155573979Y-95413153D01*
X155700924Y-95218849D01*
X155794157Y-95006300D01*
X155846399Y-94800001D01*
X156664532Y-94800001D01*
X156684364Y-95026686D01*
X156684366Y-95026697D01*
X156743258Y-95246488D01*
X156743261Y-95246497D01*
X156839431Y-95452732D01*
X156839432Y-95452734D01*
X156969954Y-95639141D01*
X157130858Y-95800045D01*
X157130861Y-95800047D01*
X157317266Y-95930568D01*
X157523504Y-96026739D01*
X157743308Y-96085635D01*
X157905230Y-96099801D01*
X157969998Y-96105468D01*
X157970000Y-96105468D01*
X157970002Y-96105468D01*
X158026673Y-96100509D01*
X158196692Y-96085635D01*
X158416496Y-96026739D01*
X158622734Y-95930568D01*
X158809139Y-95800047D01*
X158970047Y-95639139D01*
X159100568Y-95452734D01*
X159196739Y-95246496D01*
X159255635Y-95026692D01*
X159273528Y-94822169D01*
X159275468Y-94800001D01*
X159275468Y-94799998D01*
X159264383Y-94673302D01*
X159255635Y-94573308D01*
X159196739Y-94353504D01*
X159100568Y-94147266D01*
X158970047Y-93960861D01*
X158970045Y-93960858D01*
X158809141Y-93799954D01*
X158622734Y-93669432D01*
X158622732Y-93669431D01*
X158416497Y-93573261D01*
X158416488Y-93573258D01*
X158196697Y-93514366D01*
X158196693Y-93514365D01*
X158196692Y-93514365D01*
X158196691Y-93514364D01*
X158196686Y-93514364D01*
X157970002Y-93494532D01*
X157969998Y-93494532D01*
X157743313Y-93514364D01*
X157743302Y-93514366D01*
X157523511Y-93573258D01*
X157523502Y-93573261D01*
X157317267Y-93669431D01*
X157317265Y-93669432D01*
X157130858Y-93799954D01*
X156969954Y-93960858D01*
X156839432Y-94147265D01*
X156839431Y-94147267D01*
X156743261Y-94353502D01*
X156743258Y-94353511D01*
X156684366Y-94573302D01*
X156684364Y-94573313D01*
X156664532Y-94799998D01*
X156664532Y-94800001D01*
X155846399Y-94800001D01*
X155851134Y-94781305D01*
X155851975Y-94771158D01*
X155870300Y-94550006D01*
X155870300Y-94549993D01*
X155851135Y-94318702D01*
X155851133Y-94318691D01*
X155794157Y-94093699D01*
X155700924Y-93881151D01*
X155573983Y-93686852D01*
X155573980Y-93686849D01*
X155573979Y-93686847D01*
X155416784Y-93516087D01*
X155416779Y-93516083D01*
X155416777Y-93516081D01*
X155233634Y-93373535D01*
X155233628Y-93373531D01*
X155029504Y-93263064D01*
X155029495Y-93263061D01*
X154809984Y-93187702D01*
X154638282Y-93159050D01*
X154581049Y-93149500D01*
X154348951Y-93149500D01*
X154303164Y-93157140D01*
X154120015Y-93187702D01*
X153900504Y-93263061D01*
X153900495Y-93263064D01*
X153696371Y-93373531D01*
X153696365Y-93373535D01*
X153513222Y-93516081D01*
X153513219Y-93516084D01*
X153356016Y-93686852D01*
X153229075Y-93881151D01*
X153135842Y-94093699D01*
X153078866Y-94318691D01*
X153078864Y-94318702D01*
X153059700Y-94549993D01*
X153059700Y-94550006D01*
X149632596Y-94550006D01*
X149606739Y-94453504D01*
X149510568Y-94247266D01*
X149382688Y-94064633D01*
X149380045Y-94060858D01*
X149219141Y-93899954D01*
X149032734Y-93769432D01*
X149032732Y-93769431D01*
X148826497Y-93673261D01*
X148826488Y-93673258D01*
X148606697Y-93614366D01*
X148606693Y-93614365D01*
X148606692Y-93614365D01*
X148606691Y-93614364D01*
X148606686Y-93614364D01*
X148380002Y-93594532D01*
X148379998Y-93594532D01*
X148153313Y-93614364D01*
X148153302Y-93614366D01*
X147933511Y-93673258D01*
X147933502Y-93673261D01*
X147727267Y-93769431D01*
X147727265Y-93769432D01*
X147540858Y-93899954D01*
X147379954Y-94060858D01*
X147249432Y-94247265D01*
X147249431Y-94247267D01*
X147153261Y-94453502D01*
X147153258Y-94453511D01*
X147094366Y-94673302D01*
X147094364Y-94673313D01*
X147074532Y-94899998D01*
X147074532Y-94900001D01*
X145932079Y-94900001D01*
X145252260Y-94220182D01*
X145252257Y-94220180D01*
X145186900Y-94179114D01*
X145183982Y-94177223D01*
X145129179Y-94140605D01*
X145129173Y-94140603D01*
X145128365Y-94140268D01*
X145109865Y-94130709D01*
X145099524Y-94124212D01*
X145099523Y-94124211D01*
X145099522Y-94124211D01*
X145038867Y-94102986D01*
X145032377Y-94100509D01*
X144983496Y-94080262D01*
X144969860Y-94077550D01*
X144953104Y-94072976D01*
X144929260Y-94064633D01*
X144929256Y-94064632D01*
X144929255Y-94064632D01*
X144908575Y-94062301D01*
X144878303Y-94058890D01*
X144868003Y-94057288D01*
X144828844Y-94049500D01*
X144828842Y-94049500D01*
X144801915Y-94049500D01*
X144788031Y-94048720D01*
X144750002Y-94044435D01*
X144749998Y-94044435D01*
X144711969Y-94048720D01*
X144698085Y-94049500D01*
X144671152Y-94049500D01*
X144631994Y-94057288D01*
X144621696Y-94058890D01*
X144570742Y-94064632D01*
X144570735Y-94064634D01*
X144546898Y-94072975D01*
X144530140Y-94077550D01*
X144516502Y-94080263D01*
X144516496Y-94080264D01*
X144467631Y-94100504D01*
X144461140Y-94102982D01*
X144400477Y-94124210D01*
X144400474Y-94124212D01*
X144390127Y-94130713D01*
X144371639Y-94140266D01*
X144370832Y-94140600D01*
X144370824Y-94140604D01*
X144316047Y-94177204D01*
X144313132Y-94179092D01*
X144247742Y-94220180D01*
X144247735Y-94220186D01*
X144120186Y-94347735D01*
X144120180Y-94347742D01*
X144079092Y-94413132D01*
X144077209Y-94416038D01*
X144068488Y-94429092D01*
X144040604Y-94470824D01*
X144040600Y-94470832D01*
X144040266Y-94471639D01*
X144030713Y-94490127D01*
X144024212Y-94500474D01*
X144024210Y-94500477D01*
X144002982Y-94561140D01*
X144000504Y-94567631D01*
X143980264Y-94616496D01*
X143980263Y-94616502D01*
X143977550Y-94630140D01*
X143972975Y-94646898D01*
X143964634Y-94670735D01*
X143964632Y-94670742D01*
X143958890Y-94721696D01*
X143957288Y-94731994D01*
X143949500Y-94771152D01*
X143949500Y-94798085D01*
X143948720Y-94811969D01*
X143944435Y-94849998D01*
X143944435Y-94850001D01*
X143948720Y-94888029D01*
X143949500Y-94901914D01*
X143949500Y-94928844D01*
X143957288Y-94968003D01*
X143958890Y-94978303D01*
X143964343Y-95026693D01*
X143964632Y-95029252D01*
X143964633Y-95029260D01*
X143972976Y-95053104D01*
X143977550Y-95069860D01*
X143980262Y-95083496D01*
X144000509Y-95132377D01*
X144002986Y-95138867D01*
X144022045Y-95193333D01*
X144024212Y-95199524D01*
X144030709Y-95209865D01*
X144040268Y-95228365D01*
X144040603Y-95229173D01*
X144040605Y-95229179D01*
X144077223Y-95283982D01*
X144079114Y-95286900D01*
X144120180Y-95352257D01*
X144120182Y-95352260D01*
X146614143Y-97846221D01*
X146647628Y-97907544D01*
X146642644Y-97977236D01*
X146600772Y-98033169D01*
X146558555Y-98053677D01*
X146373511Y-98103258D01*
X146373502Y-98103261D01*
X146167267Y-98199431D01*
X146167265Y-98199432D01*
X145980858Y-98329954D01*
X145819954Y-98490858D01*
X145689432Y-98677265D01*
X145689431Y-98677267D01*
X145687123Y-98682217D01*
X145663841Y-98732147D01*
X145662382Y-98735275D01*
X145616209Y-98787714D01*
X145549016Y-98806866D01*
X145482135Y-98786650D01*
X145437618Y-98735275D01*
X145410568Y-98677266D01*
X145280047Y-98490861D01*
X145280045Y-98490858D01*
X145119141Y-98329954D01*
X144932734Y-98199432D01*
X144932732Y-98199431D01*
X144726497Y-98103261D01*
X144726488Y-98103258D01*
X144506697Y-98044366D01*
X144506693Y-98044365D01*
X144506692Y-98044365D01*
X144506691Y-98044364D01*
X144506686Y-98044364D01*
X144280002Y-98024532D01*
X144279998Y-98024532D01*
X144053313Y-98044364D01*
X144053302Y-98044366D01*
X143833511Y-98103258D01*
X143833502Y-98103261D01*
X143627267Y-98199431D01*
X143627265Y-98199432D01*
X143440858Y-98329954D01*
X143279954Y-98490858D01*
X143149432Y-98677265D01*
X143149431Y-98677267D01*
X143147123Y-98682217D01*
X143123841Y-98732147D01*
X143122382Y-98735275D01*
X143076209Y-98787714D01*
X143009016Y-98806866D01*
X142942135Y-98786650D01*
X142897618Y-98735275D01*
X142870568Y-98677266D01*
X142740047Y-98490861D01*
X142740045Y-98490858D01*
X142579141Y-98329954D01*
X142392734Y-98199432D01*
X142392732Y-98199431D01*
X142186497Y-98103261D01*
X142186488Y-98103258D01*
X141966697Y-98044366D01*
X141966693Y-98044365D01*
X141966692Y-98044365D01*
X141966691Y-98044364D01*
X141966686Y-98044364D01*
X141740002Y-98024532D01*
X141739998Y-98024532D01*
X141513313Y-98044364D01*
X141513302Y-98044366D01*
X141293511Y-98103258D01*
X141293502Y-98103261D01*
X141087267Y-98199431D01*
X141087265Y-98199432D01*
X140900858Y-98329954D01*
X140739954Y-98490858D01*
X140609432Y-98677265D01*
X140609431Y-98677267D01*
X140607123Y-98682217D01*
X140583841Y-98732147D01*
X140582382Y-98735275D01*
X140536209Y-98787714D01*
X140469016Y-98806866D01*
X140402135Y-98786650D01*
X140357618Y-98735275D01*
X140330568Y-98677266D01*
X140200047Y-98490861D01*
X140200045Y-98490858D01*
X140039141Y-98329954D01*
X139852734Y-98199432D01*
X139852732Y-98199431D01*
X139646497Y-98103261D01*
X139646488Y-98103258D01*
X139426697Y-98044366D01*
X139426693Y-98044365D01*
X139426692Y-98044365D01*
X139426691Y-98044364D01*
X139426686Y-98044364D01*
X139200002Y-98024532D01*
X139199998Y-98024532D01*
X138973313Y-98044364D01*
X138973302Y-98044366D01*
X138753511Y-98103258D01*
X138753502Y-98103261D01*
X138547267Y-98199431D01*
X138547265Y-98199432D01*
X138360858Y-98329954D01*
X138199954Y-98490858D01*
X138069432Y-98677265D01*
X138069431Y-98677267D01*
X137973261Y-98883502D01*
X137973258Y-98883511D01*
X137914366Y-99103302D01*
X137914364Y-99103313D01*
X137894532Y-99329998D01*
X137894532Y-99330001D01*
X137914364Y-99556686D01*
X137914366Y-99556697D01*
X137973258Y-99776488D01*
X137973261Y-99776497D01*
X138069431Y-99982732D01*
X138069432Y-99982734D01*
X138199954Y-100169141D01*
X138360858Y-100330045D01*
X138360861Y-100330047D01*
X138547266Y-100460568D01*
X138753504Y-100556739D01*
X138973308Y-100615635D01*
X139135230Y-100629801D01*
X139199998Y-100635468D01*
X139200000Y-100635468D01*
X139200002Y-100635468D01*
X139256673Y-100630509D01*
X139426692Y-100615635D01*
X139646496Y-100556739D01*
X139852734Y-100460568D01*
X140039139Y-100330047D01*
X140200047Y-100169139D01*
X140330568Y-99982734D01*
X140357618Y-99924724D01*
X140403790Y-99872285D01*
X140470983Y-99853133D01*
X140537865Y-99873348D01*
X140582382Y-99924725D01*
X140609429Y-99982728D01*
X140609432Y-99982734D01*
X140739954Y-100169141D01*
X140900858Y-100330045D01*
X140900861Y-100330047D01*
X141087266Y-100460568D01*
X141293504Y-100556739D01*
X141513308Y-100615635D01*
X141675230Y-100629801D01*
X141739998Y-100635468D01*
X141740000Y-100635468D01*
X141740002Y-100635468D01*
X141796673Y-100630509D01*
X141966692Y-100615635D01*
X142186496Y-100556739D01*
X142392734Y-100460568D01*
X142579139Y-100330047D01*
X142740047Y-100169139D01*
X142870568Y-99982734D01*
X142897618Y-99924724D01*
X142943790Y-99872285D01*
X143010983Y-99853133D01*
X143077865Y-99873348D01*
X143122382Y-99924725D01*
X143149429Y-99982728D01*
X143149432Y-99982734D01*
X143279954Y-100169141D01*
X143440858Y-100330045D01*
X143440861Y-100330047D01*
X143627266Y-100460568D01*
X143833504Y-100556739D01*
X144053308Y-100615635D01*
X144215230Y-100629801D01*
X144279998Y-100635468D01*
X144280000Y-100635468D01*
X144280002Y-100635468D01*
X144336673Y-100630509D01*
X144506692Y-100615635D01*
X144726496Y-100556739D01*
X144932734Y-100460568D01*
X145119139Y-100330047D01*
X145280047Y-100169139D01*
X145410568Y-99982734D01*
X145437618Y-99924724D01*
X145483790Y-99872285D01*
X145550983Y-99853133D01*
X145617865Y-99873348D01*
X145662382Y-99924725D01*
X145689429Y-99982728D01*
X145689432Y-99982734D01*
X145819954Y-100169141D01*
X145980858Y-100330045D01*
X145980861Y-100330047D01*
X146167266Y-100460568D01*
X146373504Y-100556739D01*
X146593308Y-100615635D01*
X146755230Y-100629801D01*
X146819998Y-100635468D01*
X146820000Y-100635468D01*
X146820002Y-100635468D01*
X146876673Y-100630509D01*
X147046692Y-100615635D01*
X147266496Y-100556739D01*
X147472734Y-100460568D01*
X147659139Y-100330047D01*
X147820047Y-100169139D01*
X147950568Y-99982734D01*
X147977618Y-99924724D01*
X148023790Y-99872285D01*
X148090983Y-99853133D01*
X148157865Y-99873348D01*
X148202382Y-99924725D01*
X148229429Y-99982728D01*
X148229432Y-99982734D01*
X148359954Y-100169141D01*
X148520858Y-100330045D01*
X148520861Y-100330047D01*
X148707266Y-100460568D01*
X148913504Y-100556739D01*
X149133308Y-100615635D01*
X149295230Y-100629801D01*
X149359998Y-100635468D01*
X149360000Y-100635468D01*
X149360002Y-100635468D01*
X149416673Y-100630509D01*
X149586692Y-100615635D01*
X149806496Y-100556739D01*
X150012734Y-100460568D01*
X150199139Y-100330047D01*
X150360047Y-100169139D01*
X150490568Y-99982734D01*
X150517618Y-99924724D01*
X150563790Y-99872285D01*
X150630983Y-99853133D01*
X150697865Y-99873348D01*
X150742382Y-99924725D01*
X150769429Y-99982728D01*
X150769432Y-99982734D01*
X150899954Y-100169141D01*
X151060858Y-100330045D01*
X151060861Y-100330047D01*
X151247266Y-100460568D01*
X151453504Y-100556739D01*
X151673308Y-100615635D01*
X151835230Y-100629801D01*
X151899998Y-100635468D01*
X151900000Y-100635468D01*
X151900002Y-100635468D01*
X151956673Y-100630509D01*
X152126692Y-100615635D01*
X152346496Y-100556739D01*
X152552734Y-100460568D01*
X152739139Y-100330047D01*
X152900047Y-100169139D01*
X153030568Y-99982734D01*
X153126739Y-99776496D01*
X153185635Y-99556692D01*
X153205468Y-99330000D01*
X153204599Y-99320072D01*
X153185635Y-99103313D01*
X153185635Y-99103312D01*
X153185635Y-99103308D01*
X153126739Y-98883504D01*
X153072368Y-98766905D01*
X153061876Y-98697827D01*
X153090396Y-98634043D01*
X153148873Y-98595804D01*
X153184750Y-98590500D01*
X155695250Y-98590500D01*
X155762289Y-98610185D01*
X155808044Y-98662989D01*
X155817988Y-98732147D01*
X155807632Y-98766905D01*
X155753262Y-98883502D01*
X155753258Y-98883511D01*
X155694366Y-99103302D01*
X155694364Y-99103312D01*
X155675400Y-99320072D01*
X155649947Y-99385140D01*
X155639553Y-99396945D01*
X151250537Y-103785961D01*
X151237172Y-103805965D01*
X151151985Y-103933455D01*
X151118046Y-104015393D01*
X151084106Y-104097329D01*
X151084103Y-104097341D01*
X151049500Y-104271303D01*
X151049500Y-105088695D01*
X151084103Y-105262658D01*
X151084106Y-105262667D01*
X151151983Y-105426540D01*
X151151990Y-105426553D01*
X151250535Y-105574034D01*
X151250538Y-105574038D01*
X151291630Y-105615130D01*
X151325115Y-105676453D01*
X151320131Y-105746145D01*
X151278259Y-105802078D01*
X151256360Y-105815190D01*
X151247272Y-105819428D01*
X151247268Y-105819430D01*
X151060858Y-105949954D01*
X150899954Y-106110858D01*
X150769432Y-106297265D01*
X150769431Y-106297267D01*
X150742382Y-106355275D01*
X150696209Y-106407714D01*
X150629016Y-106426866D01*
X150562135Y-106406650D01*
X150517618Y-106355275D01*
X150490568Y-106297267D01*
X150490567Y-106297265D01*
X150360045Y-106110858D01*
X150199141Y-105949954D01*
X150012734Y-105819432D01*
X150012732Y-105819431D01*
X149806497Y-105723261D01*
X149806488Y-105723258D01*
X149586697Y-105664366D01*
X149586693Y-105664365D01*
X149586692Y-105664365D01*
X149586691Y-105664364D01*
X149586686Y-105664364D01*
X149360002Y-105644532D01*
X149359998Y-105644532D01*
X149133313Y-105664364D01*
X149133302Y-105664366D01*
X148913511Y-105723258D01*
X148913502Y-105723261D01*
X148707267Y-105819431D01*
X148707265Y-105819432D01*
X148520858Y-105949954D01*
X148359954Y-106110858D01*
X148229432Y-106297265D01*
X148229431Y-106297267D01*
X148202382Y-106355275D01*
X148156209Y-106407714D01*
X148089016Y-106426866D01*
X148022135Y-106406650D01*
X147977618Y-106355275D01*
X147950568Y-106297267D01*
X147950567Y-106297265D01*
X147820045Y-106110858D01*
X147659141Y-105949954D01*
X147472734Y-105819432D01*
X147472732Y-105819431D01*
X147266497Y-105723261D01*
X147266488Y-105723258D01*
X147046697Y-105664366D01*
X147046693Y-105664365D01*
X147046692Y-105664365D01*
X147046691Y-105664364D01*
X147046686Y-105664364D01*
X146820002Y-105644532D01*
X146819998Y-105644532D01*
X146593313Y-105664364D01*
X146593302Y-105664366D01*
X146373511Y-105723258D01*
X146373502Y-105723261D01*
X146167267Y-105819431D01*
X146167265Y-105819432D01*
X145980858Y-105949954D01*
X145819954Y-106110858D01*
X145689432Y-106297265D01*
X145689431Y-106297267D01*
X145662382Y-106355275D01*
X145616209Y-106407714D01*
X145549016Y-106426866D01*
X145482135Y-106406650D01*
X145437618Y-106355275D01*
X145410568Y-106297267D01*
X145410567Y-106297265D01*
X145280045Y-106110858D01*
X145119141Y-105949954D01*
X144932734Y-105819432D01*
X144932732Y-105819431D01*
X144726497Y-105723261D01*
X144726488Y-105723258D01*
X144506697Y-105664366D01*
X144506693Y-105664365D01*
X144506692Y-105664365D01*
X144506691Y-105664364D01*
X144506686Y-105664364D01*
X144280002Y-105644532D01*
X144279998Y-105644532D01*
X144053313Y-105664364D01*
X144053302Y-105664366D01*
X143833511Y-105723258D01*
X143833502Y-105723261D01*
X143627267Y-105819431D01*
X143627265Y-105819432D01*
X143440858Y-105949954D01*
X143279954Y-106110858D01*
X143149432Y-106297265D01*
X143149431Y-106297267D01*
X143122382Y-106355275D01*
X143076209Y-106407714D01*
X143009016Y-106426866D01*
X142942135Y-106406650D01*
X142897618Y-106355275D01*
X142870568Y-106297267D01*
X142870567Y-106297265D01*
X142740045Y-106110858D01*
X142579141Y-105949954D01*
X142392734Y-105819432D01*
X142392732Y-105819431D01*
X142186497Y-105723261D01*
X142186488Y-105723258D01*
X141966697Y-105664366D01*
X141966693Y-105664365D01*
X141966692Y-105664365D01*
X141966691Y-105664364D01*
X141966686Y-105664364D01*
X141740002Y-105644532D01*
X141739998Y-105644532D01*
X141513313Y-105664364D01*
X141513302Y-105664366D01*
X141293511Y-105723258D01*
X141293502Y-105723261D01*
X141087267Y-105819431D01*
X141087265Y-105819432D01*
X140900858Y-105949954D01*
X140739954Y-106110858D01*
X140609432Y-106297265D01*
X140609431Y-106297267D01*
X140582382Y-106355275D01*
X140536209Y-106407714D01*
X140469016Y-106426866D01*
X140402135Y-106406650D01*
X140357618Y-106355275D01*
X140330568Y-106297267D01*
X140330567Y-106297265D01*
X140200045Y-106110858D01*
X140039141Y-105949954D01*
X139852734Y-105819432D01*
X139852732Y-105819431D01*
X139646497Y-105723261D01*
X139646488Y-105723258D01*
X139426697Y-105664366D01*
X139426693Y-105664365D01*
X139426692Y-105664365D01*
X139426691Y-105664364D01*
X139426686Y-105664364D01*
X139200002Y-105644532D01*
X139199998Y-105644532D01*
X138973313Y-105664364D01*
X138973302Y-105664366D01*
X138753511Y-105723258D01*
X138753502Y-105723261D01*
X138547267Y-105819431D01*
X138547265Y-105819432D01*
X138360858Y-105949954D01*
X138199954Y-106110858D01*
X138069432Y-106297265D01*
X138069431Y-106297267D01*
X137973261Y-106503502D01*
X137973258Y-106503511D01*
X137914366Y-106723302D01*
X137914364Y-106723313D01*
X137894532Y-106949998D01*
X137894532Y-106950001D01*
X137164030Y-106950001D01*
X137175635Y-106906692D01*
X137195468Y-106680000D01*
X137175635Y-106453308D01*
X137116739Y-106233504D01*
X137020568Y-106027266D01*
X136890047Y-105840861D01*
X136890045Y-105840858D01*
X136729141Y-105679954D01*
X136542734Y-105549432D01*
X136542732Y-105549431D01*
X136336497Y-105453261D01*
X136336488Y-105453258D01*
X136116697Y-105394366D01*
X136116693Y-105394365D01*
X136116692Y-105394365D01*
X136116691Y-105394364D01*
X136116686Y-105394364D01*
X135890002Y-105374532D01*
X135889998Y-105374532D01*
X135663313Y-105394364D01*
X135663302Y-105394366D01*
X135443511Y-105453258D01*
X135443502Y-105453261D01*
X135237267Y-105549431D01*
X135237265Y-105549432D01*
X135050858Y-105679954D01*
X134889954Y-105840858D01*
X134759432Y-106027265D01*
X134759431Y-106027267D01*
X134663261Y-106233502D01*
X134663258Y-106233511D01*
X134604366Y-106453302D01*
X134604364Y-106453313D01*
X134584532Y-106679998D01*
X134584532Y-106680001D01*
X116760500Y-106680001D01*
X116760500Y-104380001D01*
X126544532Y-104380001D01*
X126564364Y-104606686D01*
X126564366Y-104606697D01*
X126623258Y-104826488D01*
X126623261Y-104826497D01*
X126719431Y-105032732D01*
X126719432Y-105032734D01*
X126849954Y-105219141D01*
X127010858Y-105380045D01*
X127010861Y-105380047D01*
X127197266Y-105510568D01*
X127403504Y-105606739D01*
X127623308Y-105665635D01*
X127785230Y-105679801D01*
X127849998Y-105685468D01*
X127850000Y-105685468D01*
X127850002Y-105685468D01*
X127913025Y-105679954D01*
X128076692Y-105665635D01*
X128296496Y-105606739D01*
X128502734Y-105510568D01*
X128689139Y-105380047D01*
X128850047Y-105219139D01*
X128980568Y-105032734D01*
X129076739Y-104826496D01*
X129135635Y-104606692D01*
X129155468Y-104380000D01*
X129135635Y-104153308D01*
X129076739Y-103933504D01*
X128980568Y-103727266D01*
X128850047Y-103540861D01*
X128850045Y-103540858D01*
X128689141Y-103379954D01*
X128502734Y-103249432D01*
X128502732Y-103249431D01*
X128296497Y-103153261D01*
X128296488Y-103153258D01*
X128076697Y-103094366D01*
X128076693Y-103094365D01*
X128076692Y-103094365D01*
X128076691Y-103094364D01*
X128076686Y-103094364D01*
X127850002Y-103074532D01*
X127849998Y-103074532D01*
X127623313Y-103094364D01*
X127623302Y-103094366D01*
X127403511Y-103153258D01*
X127403502Y-103153261D01*
X127197267Y-103249431D01*
X127197265Y-103249432D01*
X127010858Y-103379954D01*
X126849954Y-103540858D01*
X126719432Y-103727265D01*
X126719431Y-103727267D01*
X126623261Y-103933502D01*
X126623258Y-103933511D01*
X126564366Y-104153302D01*
X126564364Y-104153313D01*
X126544532Y-104379998D01*
X126544532Y-104380001D01*
X116760500Y-104380001D01*
X116760500Y-95660006D01*
X120194700Y-95660006D01*
X120213864Y-95891297D01*
X120213866Y-95891308D01*
X120270842Y-96116300D01*
X120364075Y-96328848D01*
X120491016Y-96523147D01*
X120491019Y-96523151D01*
X120491021Y-96523153D01*
X120648216Y-96693913D01*
X120648219Y-96693915D01*
X120648222Y-96693918D01*
X120831365Y-96836464D01*
X120831371Y-96836468D01*
X120831374Y-96836470D01*
X121035497Y-96946936D01*
X121149487Y-96986068D01*
X121255015Y-97022297D01*
X121255017Y-97022297D01*
X121255019Y-97022298D01*
X121483951Y-97060500D01*
X121483952Y-97060500D01*
X121716048Y-97060500D01*
X121716049Y-97060500D01*
X121944981Y-97022298D01*
X122164503Y-96946936D01*
X122368626Y-96836470D01*
X122551784Y-96693913D01*
X122708979Y-96523153D01*
X122835924Y-96328849D01*
X122929157Y-96116300D01*
X122986134Y-95891305D01*
X122986135Y-95891297D01*
X123005300Y-95660006D01*
X123005300Y-95659993D01*
X122986135Y-95428702D01*
X122986133Y-95428691D01*
X122929157Y-95203699D01*
X122835924Y-94991151D01*
X122708983Y-94796852D01*
X122708980Y-94796849D01*
X122708979Y-94796847D01*
X122551784Y-94626087D01*
X122551779Y-94626083D01*
X122551777Y-94626081D01*
X122368634Y-94483535D01*
X122368628Y-94483531D01*
X122164504Y-94373064D01*
X122164495Y-94373061D01*
X121944984Y-94297702D01*
X121773282Y-94269050D01*
X121716049Y-94259500D01*
X121483951Y-94259500D01*
X121438164Y-94267140D01*
X121255015Y-94297702D01*
X121035504Y-94373061D01*
X121035495Y-94373064D01*
X120831371Y-94483531D01*
X120831365Y-94483535D01*
X120648222Y-94626081D01*
X120648219Y-94626084D01*
X120648216Y-94626086D01*
X120648216Y-94626087D01*
X120611017Y-94666496D01*
X120491016Y-94796852D01*
X120364075Y-94991151D01*
X120270842Y-95203699D01*
X120213866Y-95428691D01*
X120213864Y-95428702D01*
X120194700Y-95659993D01*
X120194700Y-95660006D01*
X116760500Y-95660006D01*
X116760500Y-94220001D01*
X126544532Y-94220001D01*
X126564364Y-94446686D01*
X126564366Y-94446697D01*
X126623258Y-94666488D01*
X126623261Y-94666497D01*
X126719431Y-94872732D01*
X126719432Y-94872734D01*
X126849954Y-95059141D01*
X127010858Y-95220045D01*
X127010861Y-95220047D01*
X127197266Y-95350568D01*
X127403504Y-95446739D01*
X127403509Y-95446740D01*
X127403511Y-95446741D01*
X127452491Y-95459865D01*
X127623308Y-95505635D01*
X127785230Y-95519801D01*
X127849998Y-95525468D01*
X127850000Y-95525468D01*
X127850002Y-95525468D01*
X127906673Y-95520509D01*
X128076692Y-95505635D01*
X128296496Y-95446739D01*
X128502734Y-95350568D01*
X128689139Y-95220047D01*
X128809180Y-95100006D01*
X132859700Y-95100006D01*
X132878864Y-95331297D01*
X132878866Y-95331308D01*
X132935842Y-95556300D01*
X133029075Y-95768848D01*
X133156016Y-95963147D01*
X133156019Y-95963151D01*
X133156021Y-95963153D01*
X133313216Y-96133913D01*
X133313219Y-96133915D01*
X133313222Y-96133918D01*
X133496365Y-96276464D01*
X133496371Y-96276468D01*
X133496374Y-96276470D01*
X133700497Y-96386936D01*
X133794869Y-96419334D01*
X133920015Y-96462297D01*
X133920017Y-96462297D01*
X133920019Y-96462298D01*
X134148951Y-96500500D01*
X134148952Y-96500500D01*
X134381048Y-96500500D01*
X134381049Y-96500500D01*
X134609981Y-96462298D01*
X134829503Y-96386936D01*
X135033626Y-96276470D01*
X135046165Y-96266711D01*
X135160354Y-96177834D01*
X135216784Y-96133913D01*
X135373979Y-95963153D01*
X135500924Y-95768849D01*
X135594157Y-95556300D01*
X135651134Y-95331305D01*
X135651323Y-95329023D01*
X135670300Y-95100006D01*
X135670300Y-95099993D01*
X135653728Y-94900001D01*
X136914532Y-94900001D01*
X136934364Y-95126686D01*
X136934366Y-95126697D01*
X136993258Y-95346488D01*
X136993261Y-95346497D01*
X137089431Y-95552732D01*
X137089432Y-95552734D01*
X137219954Y-95739141D01*
X137380858Y-95900045D01*
X137398356Y-95912297D01*
X137567266Y-96030568D01*
X137773504Y-96126739D01*
X137773509Y-96126740D01*
X137773511Y-96126741D01*
X137804420Y-96135023D01*
X137993308Y-96185635D01*
X138155230Y-96199801D01*
X138219998Y-96205468D01*
X138220000Y-96205468D01*
X138220002Y-96205468D01*
X138276673Y-96200509D01*
X138446692Y-96185635D01*
X138666496Y-96126739D01*
X138872734Y-96030568D01*
X139059139Y-95900047D01*
X139220047Y-95739139D01*
X139350568Y-95552734D01*
X139446739Y-95346496D01*
X139505635Y-95126692D01*
X139525468Y-94900000D01*
X139525026Y-94894953D01*
X139516719Y-94799998D01*
X139505635Y-94673308D01*
X139446739Y-94453504D01*
X139350568Y-94247266D01*
X139222688Y-94064633D01*
X139220045Y-94060858D01*
X139059141Y-93899954D01*
X138872734Y-93769432D01*
X138872732Y-93769431D01*
X138666497Y-93673261D01*
X138666488Y-93673258D01*
X138446697Y-93614366D01*
X138446693Y-93614365D01*
X138446692Y-93614365D01*
X138446691Y-93614364D01*
X138446686Y-93614364D01*
X138220002Y-93594532D01*
X138219998Y-93594532D01*
X137993313Y-93614364D01*
X137993302Y-93614366D01*
X137773511Y-93673258D01*
X137773502Y-93673261D01*
X137567267Y-93769431D01*
X137567265Y-93769432D01*
X137380858Y-93899954D01*
X137219954Y-94060858D01*
X137089432Y-94247265D01*
X137089431Y-94247267D01*
X136993261Y-94453502D01*
X136993258Y-94453511D01*
X136934366Y-94673302D01*
X136934364Y-94673313D01*
X136914532Y-94899998D01*
X136914532Y-94900001D01*
X135653728Y-94900001D01*
X135651135Y-94868702D01*
X135651133Y-94868691D01*
X135594157Y-94643699D01*
X135500924Y-94431151D01*
X135373983Y-94236852D01*
X135373980Y-94236849D01*
X135373979Y-94236847D01*
X135216784Y-94066087D01*
X135216779Y-94066083D01*
X135216777Y-94066081D01*
X135033634Y-93923535D01*
X135033628Y-93923531D01*
X134829504Y-93813064D01*
X134829495Y-93813061D01*
X134609984Y-93737702D01*
X134438282Y-93709050D01*
X134381049Y-93699500D01*
X134148951Y-93699500D01*
X134103164Y-93707140D01*
X133920015Y-93737702D01*
X133700504Y-93813061D01*
X133700495Y-93813064D01*
X133496371Y-93923531D01*
X133496365Y-93923535D01*
X133313222Y-94066081D01*
X133313219Y-94066084D01*
X133313216Y-94066086D01*
X133313216Y-94066087D01*
X133280305Y-94101838D01*
X133156016Y-94236852D01*
X133029075Y-94431151D01*
X132935842Y-94643699D01*
X132878866Y-94868691D01*
X132878864Y-94868702D01*
X132859700Y-95099993D01*
X132859700Y-95100006D01*
X128809180Y-95100006D01*
X128850047Y-95059139D01*
X128980568Y-94872734D01*
X129076739Y-94666496D01*
X129135635Y-94446692D01*
X129154880Y-94226719D01*
X129155468Y-94220001D01*
X129155468Y-94219998D01*
X129149105Y-94147266D01*
X129135635Y-93993308D01*
X129076739Y-93773504D01*
X128980568Y-93567266D01*
X128850047Y-93380861D01*
X128850045Y-93380858D01*
X128689141Y-93219954D01*
X128502734Y-93089432D01*
X128502732Y-93089431D01*
X128296497Y-92993261D01*
X128296488Y-92993258D01*
X128076697Y-92934366D01*
X128076693Y-92934365D01*
X128076692Y-92934365D01*
X128076691Y-92934364D01*
X128076686Y-92934364D01*
X127850002Y-92914532D01*
X127849998Y-92914532D01*
X127623313Y-92934364D01*
X127623302Y-92934366D01*
X127403511Y-92993258D01*
X127403502Y-92993261D01*
X127197267Y-93089431D01*
X127197265Y-93089432D01*
X127010858Y-93219954D01*
X126849954Y-93380858D01*
X126719432Y-93567265D01*
X126719431Y-93567267D01*
X126623261Y-93773502D01*
X126623258Y-93773511D01*
X126564366Y-93993302D01*
X126564364Y-93993313D01*
X126544532Y-94219998D01*
X126544532Y-94220001D01*
X116760500Y-94220001D01*
X116760500Y-90000001D01*
X141794532Y-90000001D01*
X141814364Y-90226686D01*
X141814366Y-90226697D01*
X141873258Y-90446488D01*
X141873261Y-90446497D01*
X141969431Y-90652732D01*
X141969432Y-90652734D01*
X142099954Y-90839141D01*
X142260858Y-91000045D01*
X142260861Y-91000047D01*
X142447266Y-91130568D01*
X142653504Y-91226739D01*
X142873308Y-91285635D01*
X143035230Y-91299801D01*
X143099998Y-91305468D01*
X143100000Y-91305468D01*
X143100002Y-91305468D01*
X143156673Y-91300509D01*
X143326692Y-91285635D01*
X143546496Y-91226739D01*
X143752734Y-91130568D01*
X143939139Y-91000047D01*
X144100047Y-90839139D01*
X144230568Y-90652734D01*
X144326739Y-90446496D01*
X144385635Y-90226692D01*
X144405468Y-90000000D01*
X144385635Y-89773308D01*
X144326739Y-89553504D01*
X144230568Y-89347266D01*
X144121640Y-89191699D01*
X144100045Y-89160858D01*
X143939141Y-88999954D01*
X143752734Y-88869432D01*
X143752732Y-88869431D01*
X143546497Y-88773261D01*
X143546488Y-88773258D01*
X143326697Y-88714366D01*
X143326693Y-88714365D01*
X143326692Y-88714365D01*
X143326691Y-88714364D01*
X143326686Y-88714364D01*
X143100002Y-88694532D01*
X143099998Y-88694532D01*
X142873313Y-88714364D01*
X142873302Y-88714366D01*
X142653511Y-88773258D01*
X142653502Y-88773261D01*
X142447267Y-88869431D01*
X142447265Y-88869432D01*
X142260858Y-88999954D01*
X142099954Y-89160858D01*
X141969432Y-89347265D01*
X141969431Y-89347267D01*
X141873261Y-89553502D01*
X141873258Y-89553511D01*
X141814366Y-89773302D01*
X141814364Y-89773313D01*
X141794532Y-89999998D01*
X141794532Y-90000001D01*
X116760500Y-90000001D01*
X116760500Y-88400001D01*
X119394532Y-88400001D01*
X119414364Y-88626686D01*
X119414366Y-88626697D01*
X119473258Y-88846488D01*
X119473261Y-88846497D01*
X119569431Y-89052732D01*
X119569432Y-89052734D01*
X119699954Y-89239141D01*
X119860858Y-89400045D01*
X119860861Y-89400047D01*
X120047266Y-89530568D01*
X120253504Y-89626739D01*
X120473308Y-89685635D01*
X120635230Y-89699801D01*
X120699998Y-89705468D01*
X120700000Y-89705468D01*
X120700002Y-89705468D01*
X120756673Y-89700509D01*
X120926692Y-89685635D01*
X121146496Y-89626739D01*
X121352734Y-89530568D01*
X121539139Y-89400047D01*
X121700047Y-89239139D01*
X121830568Y-89052734D01*
X121926739Y-88846496D01*
X121985635Y-88626692D01*
X122005467Y-88400007D01*
X122005468Y-88400001D01*
X122005468Y-88399998D01*
X121993655Y-88264977D01*
X121985635Y-88173308D01*
X121931356Y-87970735D01*
X121926741Y-87953511D01*
X121926738Y-87953502D01*
X121830568Y-87747266D01*
X121700047Y-87560861D01*
X121700045Y-87560858D01*
X121539141Y-87399954D01*
X121352734Y-87269432D01*
X121352732Y-87269431D01*
X121146497Y-87173261D01*
X121146488Y-87173258D01*
X120926697Y-87114366D01*
X120926693Y-87114365D01*
X120926692Y-87114365D01*
X120926691Y-87114364D01*
X120926686Y-87114364D01*
X120700002Y-87094532D01*
X120699998Y-87094532D01*
X120473313Y-87114364D01*
X120473302Y-87114366D01*
X120253511Y-87173258D01*
X120253502Y-87173261D01*
X120047267Y-87269431D01*
X120047265Y-87269432D01*
X119860858Y-87399954D01*
X119699954Y-87560858D01*
X119569432Y-87747265D01*
X119569431Y-87747267D01*
X119473261Y-87953502D01*
X119473258Y-87953511D01*
X119414366Y-88173302D01*
X119414364Y-88173313D01*
X119394532Y-88399998D01*
X119394532Y-88400001D01*
X116760500Y-88400001D01*
X116760500Y-83400001D01*
X119394532Y-83400001D01*
X119414364Y-83626686D01*
X119414366Y-83626697D01*
X119473258Y-83846488D01*
X119473261Y-83846497D01*
X119569431Y-84052732D01*
X119569432Y-84052734D01*
X119699954Y-84239141D01*
X119860858Y-84400045D01*
X119860861Y-84400047D01*
X120047266Y-84530568D01*
X120253504Y-84626739D01*
X120253509Y-84626740D01*
X120253511Y-84626741D01*
X120306415Y-84640916D01*
X120473308Y-84685635D01*
X120635230Y-84699801D01*
X120699998Y-84705468D01*
X120700000Y-84705468D01*
X120700002Y-84705468D01*
X120756673Y-84700509D01*
X120926692Y-84685635D01*
X121146496Y-84626739D01*
X121352734Y-84530568D01*
X121539139Y-84400047D01*
X121700047Y-84239139D01*
X121830568Y-84052734D01*
X121926739Y-83846496D01*
X121985635Y-83626692D01*
X122005468Y-83400000D01*
X121985635Y-83173308D01*
X121934069Y-82980861D01*
X121926741Y-82953511D01*
X121926738Y-82953502D01*
X121924451Y-82948597D01*
X121830568Y-82747266D01*
X121700047Y-82560861D01*
X121700045Y-82560858D01*
X121539141Y-82399954D01*
X121352734Y-82269432D01*
X121352732Y-82269431D01*
X121146497Y-82173261D01*
X121146488Y-82173258D01*
X120926697Y-82114366D01*
X120926693Y-82114365D01*
X120926692Y-82114365D01*
X120926691Y-82114364D01*
X120926686Y-82114364D01*
X120700002Y-82094532D01*
X120699998Y-82094532D01*
X120473313Y-82114364D01*
X120473302Y-82114366D01*
X120253511Y-82173258D01*
X120253502Y-82173261D01*
X120047267Y-82269431D01*
X120047265Y-82269432D01*
X119860858Y-82399954D01*
X119699954Y-82560858D01*
X119569432Y-82747265D01*
X119569431Y-82747267D01*
X119473261Y-82953502D01*
X119473258Y-82953511D01*
X119414366Y-83173302D01*
X119414364Y-83173313D01*
X119394532Y-83399998D01*
X119394532Y-83400001D01*
X116760500Y-83400001D01*
X116760500Y-74250001D01*
X118794532Y-74250001D01*
X118814364Y-74476686D01*
X118814366Y-74476697D01*
X118873258Y-74696488D01*
X118873261Y-74696497D01*
X118969431Y-74902732D01*
X118969432Y-74902734D01*
X119099954Y-75089141D01*
X119260858Y-75250045D01*
X119260861Y-75250047D01*
X119447266Y-75380568D01*
X119653504Y-75476739D01*
X119873308Y-75535635D01*
X120031786Y-75549500D01*
X120099998Y-75555468D01*
X120099999Y-75555468D01*
X120099999Y-75555467D01*
X120100000Y-75555468D01*
X120201839Y-75546557D01*
X120270336Y-75560323D01*
X120300326Y-75582404D01*
X122363181Y-77645259D01*
X122396666Y-77706582D01*
X122399500Y-77732940D01*
X122399500Y-82148085D01*
X122398720Y-82161969D01*
X122394435Y-82199998D01*
X122394435Y-82200001D01*
X122398720Y-82238029D01*
X122399500Y-82251914D01*
X122399500Y-82278844D01*
X122407288Y-82318003D01*
X122408890Y-82328303D01*
X122414632Y-82379252D01*
X122414633Y-82379260D01*
X122422976Y-82403104D01*
X122427550Y-82419860D01*
X122430262Y-82433496D01*
X122450509Y-82482377D01*
X122452986Y-82488867D01*
X122474034Y-82549017D01*
X122474212Y-82549524D01*
X122480709Y-82559865D01*
X122490268Y-82578365D01*
X122490603Y-82579173D01*
X122490605Y-82579179D01*
X122527223Y-82633982D01*
X122529114Y-82636900D01*
X122570180Y-82702257D01*
X122570182Y-82702260D01*
X122570184Y-82702262D01*
X122697738Y-82829816D01*
X122701814Y-82832377D01*
X122763131Y-82870905D01*
X122766040Y-82872790D01*
X122820821Y-82909394D01*
X122821606Y-82909719D01*
X122840134Y-82919289D01*
X122850478Y-82925789D01*
X122911175Y-82947028D01*
X122917607Y-82949484D01*
X122940702Y-82959050D01*
X122966497Y-82969735D01*
X122966498Y-82969735D01*
X122966503Y-82969737D01*
X122980139Y-82972449D01*
X122996898Y-82977023D01*
X123020745Y-82985368D01*
X123071714Y-82991110D01*
X123081992Y-82992709D01*
X123109140Y-82998109D01*
X123121157Y-83000500D01*
X123121158Y-83000500D01*
X123148085Y-83000500D01*
X123161969Y-83001280D01*
X123199998Y-83005565D01*
X123200000Y-83005565D01*
X123200002Y-83005565D01*
X123238031Y-83001280D01*
X123251915Y-83000500D01*
X123278841Y-83000500D01*
X123278842Y-83000500D01*
X123318017Y-82992707D01*
X123328283Y-82991110D01*
X123379255Y-82985368D01*
X123403100Y-82977023D01*
X123419862Y-82972448D01*
X123433497Y-82969737D01*
X123482389Y-82949484D01*
X123488844Y-82947020D01*
X123543535Y-82927883D01*
X123613310Y-82924321D01*
X123673938Y-82959050D01*
X123706165Y-83021043D01*
X123708015Y-83034117D01*
X123714364Y-83106687D01*
X123714366Y-83106697D01*
X123773258Y-83326488D01*
X123773261Y-83326497D01*
X123869431Y-83532732D01*
X123869432Y-83532734D01*
X123999954Y-83719141D01*
X124160858Y-83880045D01*
X124160861Y-83880047D01*
X124347266Y-84010568D01*
X124405275Y-84037618D01*
X124457714Y-84083791D01*
X124476866Y-84150984D01*
X124456650Y-84217865D01*
X124405275Y-84262381D01*
X124396469Y-84266488D01*
X124347267Y-84289431D01*
X124347265Y-84289432D01*
X124160858Y-84419954D01*
X123999954Y-84580858D01*
X123869432Y-84767265D01*
X123869431Y-84767267D01*
X123773261Y-84973502D01*
X123773258Y-84973511D01*
X123714366Y-85193302D01*
X123714364Y-85193313D01*
X123694532Y-85419998D01*
X123694532Y-85420001D01*
X123714364Y-85646686D01*
X123714366Y-85646697D01*
X123773258Y-85866488D01*
X123773261Y-85866497D01*
X123869431Y-86072732D01*
X123869432Y-86072734D01*
X123999954Y-86259141D01*
X124160858Y-86420045D01*
X124160861Y-86420047D01*
X124347266Y-86550568D01*
X124553504Y-86646739D01*
X124553509Y-86646740D01*
X124553511Y-86646741D01*
X124606415Y-86660916D01*
X124773308Y-86705635D01*
X124946926Y-86720824D01*
X124958040Y-86721797D01*
X125023109Y-86747249D01*
X125064088Y-86803840D01*
X125067966Y-86873602D01*
X125034914Y-86933006D01*
X124336985Y-87630935D01*
X124290263Y-87660294D01*
X124250475Y-87674218D01*
X124250474Y-87674218D01*
X124240127Y-87680719D01*
X124221639Y-87690272D01*
X124220832Y-87690606D01*
X124220824Y-87690610D01*
X124220821Y-87690611D01*
X124220821Y-87690612D01*
X124184923Y-87714598D01*
X124166047Y-87727210D01*
X124163132Y-87729098D01*
X124097742Y-87770186D01*
X124097735Y-87770192D01*
X123970186Y-87897741D01*
X123970180Y-87897748D01*
X123929092Y-87963138D01*
X123927204Y-87966053D01*
X123890604Y-88020830D01*
X123890600Y-88020838D01*
X123890266Y-88021645D01*
X123880713Y-88040133D01*
X123874212Y-88050480D01*
X123874210Y-88050483D01*
X123852982Y-88111146D01*
X123850504Y-88117637D01*
X123830264Y-88166502D01*
X123830263Y-88166508D01*
X123827550Y-88180146D01*
X123822975Y-88196904D01*
X123814634Y-88220741D01*
X123814632Y-88220748D01*
X123808890Y-88271702D01*
X123807288Y-88282000D01*
X123799500Y-88321158D01*
X123799500Y-88348091D01*
X123798720Y-88361975D01*
X123794436Y-88400001D01*
X123794435Y-88400006D01*
X123797585Y-88427967D01*
X123798720Y-88438035D01*
X123799500Y-88451920D01*
X123799500Y-88478850D01*
X123807288Y-88518009D01*
X123808890Y-88528309D01*
X123814632Y-88579258D01*
X123814633Y-88579266D01*
X123822976Y-88603110D01*
X123827550Y-88619866D01*
X123830262Y-88633502D01*
X123850509Y-88682383D01*
X123852986Y-88688873D01*
X123861906Y-88714365D01*
X123874212Y-88749530D01*
X123880709Y-88759871D01*
X123890268Y-88778371D01*
X123890603Y-88779179D01*
X123890605Y-88779185D01*
X123927223Y-88833988D01*
X123929114Y-88836906D01*
X123970180Y-88902263D01*
X123970182Y-88902266D01*
X123970184Y-88902268D01*
X124097738Y-89029822D01*
X124163131Y-89070911D01*
X124166040Y-89072796D01*
X124220821Y-89109400D01*
X124221606Y-89109725D01*
X124240134Y-89119295D01*
X124250478Y-89125795D01*
X124311175Y-89147034D01*
X124317607Y-89149490D01*
X124345045Y-89160855D01*
X124366497Y-89169741D01*
X124366498Y-89169741D01*
X124366503Y-89169743D01*
X124380139Y-89172455D01*
X124396898Y-89177029D01*
X124420745Y-89185374D01*
X124471714Y-89191116D01*
X124481992Y-89192715D01*
X124509140Y-89198115D01*
X124521157Y-89200506D01*
X124521158Y-89200506D01*
X124548085Y-89200506D01*
X124561969Y-89201286D01*
X124599998Y-89205571D01*
X124600000Y-89205571D01*
X124600002Y-89205571D01*
X124638031Y-89201286D01*
X124651915Y-89200506D01*
X124778838Y-89200506D01*
X124778839Y-89200505D01*
X124933491Y-89169743D01*
X125079173Y-89109400D01*
X125210283Y-89021795D01*
X128812077Y-85420001D01*
X131314532Y-85420001D01*
X131334364Y-85646686D01*
X131334366Y-85646697D01*
X131393258Y-85866488D01*
X131393261Y-85866497D01*
X131489431Y-86072732D01*
X131489432Y-86072734D01*
X131619954Y-86259141D01*
X131780858Y-86420045D01*
X131780861Y-86420047D01*
X131967266Y-86550568D01*
X132173504Y-86646739D01*
X132173509Y-86646740D01*
X132173511Y-86646741D01*
X132226415Y-86660916D01*
X132393308Y-86705635D01*
X132555230Y-86719801D01*
X132619998Y-86725468D01*
X132620000Y-86725468D01*
X132620002Y-86725468D01*
X132676673Y-86720509D01*
X132846692Y-86705635D01*
X133066496Y-86646739D01*
X133272734Y-86550568D01*
X133459139Y-86420047D01*
X133620047Y-86259139D01*
X133675460Y-86180001D01*
X142344532Y-86180001D01*
X142364364Y-86406686D01*
X142364366Y-86406697D01*
X142423258Y-86626488D01*
X142423261Y-86626497D01*
X142519431Y-86832732D01*
X142519432Y-86832734D01*
X142649954Y-87019141D01*
X142810858Y-87180045D01*
X142810861Y-87180047D01*
X142997266Y-87310568D01*
X143203504Y-87406739D01*
X143423308Y-87465635D01*
X143577122Y-87479092D01*
X143649998Y-87485468D01*
X143650000Y-87485468D01*
X143650002Y-87485468D01*
X143706673Y-87480509D01*
X143876692Y-87465635D01*
X144096496Y-87406739D01*
X144302734Y-87310568D01*
X144489139Y-87180047D01*
X144650047Y-87019139D01*
X144780568Y-86832734D01*
X144876739Y-86626496D01*
X144935635Y-86406692D01*
X144955468Y-86180000D01*
X144935635Y-85953308D01*
X144876739Y-85733504D01*
X144780568Y-85527266D01*
X144650047Y-85340861D01*
X144650045Y-85340858D01*
X144489141Y-85179954D01*
X144302734Y-85049432D01*
X144302732Y-85049431D01*
X144096497Y-84953261D01*
X144096488Y-84953258D01*
X143876697Y-84894366D01*
X143876693Y-84894365D01*
X143876692Y-84894365D01*
X143876691Y-84894364D01*
X143876686Y-84894364D01*
X143650002Y-84874532D01*
X143649998Y-84874532D01*
X143423313Y-84894364D01*
X143423302Y-84894366D01*
X143203511Y-84953258D01*
X143203502Y-84953261D01*
X142997267Y-85049431D01*
X142997265Y-85049432D01*
X142810858Y-85179954D01*
X142649954Y-85340858D01*
X142519432Y-85527265D01*
X142519431Y-85527267D01*
X142423261Y-85733502D01*
X142423258Y-85733511D01*
X142364366Y-85953302D01*
X142364364Y-85953313D01*
X142344532Y-86179998D01*
X142344532Y-86180001D01*
X133675460Y-86180001D01*
X133750568Y-86072734D01*
X133846739Y-85866496D01*
X133905635Y-85646692D01*
X133925468Y-85420000D01*
X133923674Y-85399500D01*
X133908795Y-85229429D01*
X133905635Y-85193308D01*
X133846739Y-84973504D01*
X133750568Y-84767266D01*
X133643325Y-84614106D01*
X133620045Y-84580858D01*
X133459141Y-84419954D01*
X133272734Y-84289432D01*
X133272728Y-84289429D01*
X133227678Y-84268422D01*
X133214724Y-84262381D01*
X133162285Y-84216210D01*
X133143133Y-84149017D01*
X133163348Y-84082135D01*
X133214725Y-84037618D01*
X133272734Y-84010568D01*
X133459139Y-83880047D01*
X133620047Y-83719139D01*
X133750568Y-83532734D01*
X133846739Y-83326496D01*
X133905635Y-83106692D01*
X133923760Y-82899521D01*
X133925468Y-82880001D01*
X133925468Y-82879998D01*
X133915832Y-82769860D01*
X133905635Y-82653308D01*
X133846739Y-82433504D01*
X133750568Y-82227266D01*
X133620047Y-82040861D01*
X133620045Y-82040858D01*
X133459141Y-81879954D01*
X133272734Y-81749432D01*
X133272728Y-81749429D01*
X133245038Y-81736517D01*
X133214724Y-81722381D01*
X133162285Y-81676210D01*
X133143133Y-81609017D01*
X133163348Y-81542135D01*
X133214725Y-81497618D01*
X133272734Y-81470568D01*
X133459139Y-81340047D01*
X133620047Y-81179139D01*
X133750568Y-80992734D01*
X133846739Y-80786496D01*
X133905635Y-80566692D01*
X133921208Y-80388695D01*
X137099500Y-80388695D01*
X137134103Y-80562658D01*
X137134106Y-80562667D01*
X137201983Y-80726540D01*
X137201990Y-80726553D01*
X137300535Y-80874034D01*
X137300538Y-80874038D01*
X137425961Y-80999461D01*
X137425965Y-80999464D01*
X137573446Y-81098009D01*
X137573459Y-81098016D01*
X137696363Y-81148923D01*
X137737334Y-81165894D01*
X137737336Y-81165894D01*
X137737341Y-81165896D01*
X137911304Y-81200499D01*
X137911307Y-81200500D01*
X137911309Y-81200500D01*
X142888693Y-81200500D01*
X142888694Y-81200499D01*
X143062666Y-81165895D01*
X143144606Y-81131953D01*
X143226547Y-81098013D01*
X143293445Y-81053313D01*
X143347290Y-81017335D01*
X143352610Y-81013780D01*
X143374036Y-80999464D01*
X146537821Y-77835677D01*
X146599142Y-77802194D01*
X146668834Y-77807178D01*
X146724767Y-77849050D01*
X146749184Y-77914514D01*
X146749500Y-77923360D01*
X146749500Y-78697870D01*
X146749501Y-78697876D01*
X146755908Y-78757483D01*
X146806202Y-78892328D01*
X146806206Y-78892335D01*
X146892452Y-79007544D01*
X146892455Y-79007547D01*
X147007664Y-79093793D01*
X147007671Y-79093797D01*
X147052618Y-79110561D01*
X147142517Y-79144091D01*
X147177596Y-79147862D01*
X147242144Y-79174599D01*
X147281993Y-79231991D01*
X147284488Y-79301816D01*
X147248836Y-79361905D01*
X147235464Y-79372725D01*
X147210858Y-79389954D01*
X147049954Y-79550858D01*
X146919432Y-79737265D01*
X146919431Y-79737267D01*
X146823261Y-79943502D01*
X146823258Y-79943511D01*
X146764366Y-80163302D01*
X146764364Y-80163313D01*
X146744532Y-80389998D01*
X146744532Y-80390001D01*
X146764364Y-80616686D01*
X146764366Y-80616697D01*
X146823258Y-80836488D01*
X146823261Y-80836497D01*
X146919431Y-81042732D01*
X146919432Y-81042734D01*
X147049954Y-81229141D01*
X147210858Y-81390045D01*
X147210861Y-81390047D01*
X147397266Y-81520568D01*
X147447068Y-81543791D01*
X147455275Y-81547618D01*
X147507714Y-81593791D01*
X147526866Y-81660984D01*
X147506650Y-81727865D01*
X147455275Y-81772382D01*
X147397267Y-81799431D01*
X147397265Y-81799432D01*
X147210858Y-81929954D01*
X147049954Y-82090858D01*
X146919432Y-82277265D01*
X146919431Y-82277267D01*
X146823261Y-82483502D01*
X146823258Y-82483511D01*
X146764366Y-82703302D01*
X146764364Y-82703313D01*
X146744532Y-82929998D01*
X146744532Y-82930001D01*
X146764364Y-83156686D01*
X146764366Y-83156697D01*
X146823258Y-83376488D01*
X146823261Y-83376497D01*
X146919431Y-83582732D01*
X146919432Y-83582734D01*
X147049954Y-83769141D01*
X147210858Y-83930045D01*
X147210861Y-83930047D01*
X147397266Y-84060568D01*
X147447068Y-84083791D01*
X147455275Y-84087618D01*
X147507714Y-84133791D01*
X147526866Y-84200984D01*
X147506650Y-84267865D01*
X147455275Y-84312382D01*
X147397267Y-84339431D01*
X147397265Y-84339432D01*
X147210858Y-84469954D01*
X147049954Y-84630858D01*
X146919432Y-84817265D01*
X146919431Y-84817267D01*
X146823261Y-85023502D01*
X146823258Y-85023511D01*
X146764366Y-85243302D01*
X146764364Y-85243313D01*
X146744532Y-85469998D01*
X146744532Y-85470001D01*
X146764364Y-85696686D01*
X146764366Y-85696697D01*
X146823258Y-85916488D01*
X146823261Y-85916497D01*
X146919431Y-86122732D01*
X146919432Y-86122734D01*
X147049954Y-86309141D01*
X147210858Y-86470045D01*
X147210861Y-86470047D01*
X147397266Y-86600568D01*
X147603504Y-86696739D01*
X147823308Y-86755635D01*
X147985230Y-86769801D01*
X148049998Y-86775468D01*
X148050000Y-86775468D01*
X148050002Y-86775468D01*
X148106673Y-86770509D01*
X148276692Y-86755635D01*
X148496496Y-86696739D01*
X148702734Y-86600568D01*
X148889139Y-86470047D01*
X149050047Y-86309139D01*
X149180568Y-86122734D01*
X149245641Y-85983184D01*
X149291812Y-85930747D01*
X149302109Y-85927812D01*
X149291298Y-85867881D01*
X149294810Y-85849051D01*
X149335635Y-85696692D01*
X149355468Y-85470000D01*
X149335635Y-85243308D01*
X149282965Y-85046739D01*
X149276741Y-85023511D01*
X149276738Y-85023502D01*
X149260381Y-84988425D01*
X149180568Y-84817266D01*
X149050047Y-84630861D01*
X149050045Y-84630858D01*
X148889141Y-84469954D01*
X148702734Y-84339432D01*
X148702728Y-84339429D01*
X148644725Y-84312382D01*
X148592285Y-84266210D01*
X148573133Y-84199017D01*
X148593348Y-84132135D01*
X148644725Y-84087618D01*
X148652932Y-84083791D01*
X148702734Y-84060568D01*
X148889139Y-83930047D01*
X149050047Y-83769139D01*
X149180568Y-83582734D01*
X149276739Y-83376496D01*
X149335635Y-83156692D01*
X149353412Y-82953502D01*
X149355468Y-82930001D01*
X149355468Y-82929998D01*
X149342651Y-82783498D01*
X149335635Y-82703308D01*
X149282511Y-82505046D01*
X149276741Y-82483511D01*
X149276738Y-82483502D01*
X149253423Y-82433504D01*
X149180568Y-82277266D01*
X149056445Y-82099998D01*
X149050045Y-82090858D01*
X148889141Y-81929954D01*
X148702734Y-81799432D01*
X148702728Y-81799429D01*
X148644725Y-81772382D01*
X148592285Y-81726210D01*
X148573133Y-81659017D01*
X148593348Y-81592135D01*
X148644725Y-81547618D01*
X148652932Y-81543791D01*
X148702734Y-81520568D01*
X148889139Y-81390047D01*
X149050047Y-81229139D01*
X149180568Y-81042734D01*
X149276739Y-80836496D01*
X149335635Y-80616692D01*
X149355468Y-80390000D01*
X149355353Y-80388691D01*
X149342476Y-80241501D01*
X149335635Y-80163308D01*
X149282965Y-79966739D01*
X149276741Y-79943511D01*
X149276738Y-79943502D01*
X149253423Y-79893504D01*
X149180568Y-79737266D01*
X149050047Y-79550861D01*
X149050045Y-79550858D01*
X148889143Y-79389956D01*
X148867816Y-79375023D01*
X148864535Y-79372725D01*
X148820912Y-79318149D01*
X148813719Y-79248650D01*
X148845241Y-79186296D01*
X148905471Y-79150882D01*
X148922404Y-79147861D01*
X148957483Y-79144091D01*
X149092331Y-79093796D01*
X149207546Y-79007546D01*
X149293796Y-78892331D01*
X149344091Y-78757483D01*
X149350500Y-78697873D01*
X149350499Y-77474499D01*
X149370184Y-77407461D01*
X149422987Y-77361706D01*
X149474499Y-77350500D01*
X154295863Y-77350500D01*
X154362902Y-77370185D01*
X154408657Y-77422989D01*
X154418601Y-77492147D01*
X154415638Y-77506593D01*
X154384366Y-77623302D01*
X154384364Y-77623313D01*
X154364532Y-77849998D01*
X154364532Y-77850001D01*
X154384364Y-78076686D01*
X154384366Y-78076697D01*
X154443258Y-78296488D01*
X154443261Y-78296497D01*
X154539431Y-78502732D01*
X154539432Y-78502734D01*
X154669954Y-78689141D01*
X154830858Y-78850045D01*
X154830861Y-78850047D01*
X155017266Y-78980568D01*
X155075275Y-79007618D01*
X155127714Y-79053791D01*
X155146866Y-79120984D01*
X155126650Y-79187865D01*
X155075275Y-79232382D01*
X155017267Y-79259431D01*
X155017265Y-79259432D01*
X154830858Y-79389954D01*
X154669954Y-79550858D01*
X154539432Y-79737265D01*
X154539431Y-79737267D01*
X154443261Y-79943502D01*
X154443258Y-79943511D01*
X154384366Y-80163302D01*
X154384364Y-80163313D01*
X154364532Y-80389998D01*
X154364532Y-80390001D01*
X154384364Y-80616686D01*
X154384366Y-80616697D01*
X154443258Y-80836488D01*
X154443261Y-80836497D01*
X154539431Y-81042732D01*
X154539432Y-81042734D01*
X154669954Y-81229141D01*
X154830858Y-81390045D01*
X154830861Y-81390047D01*
X155017266Y-81520568D01*
X155067068Y-81543791D01*
X155075275Y-81547618D01*
X155127714Y-81593791D01*
X155146866Y-81660984D01*
X155126650Y-81727865D01*
X155075275Y-81772382D01*
X155017267Y-81799431D01*
X155017265Y-81799432D01*
X154830858Y-81929954D01*
X154669954Y-82090858D01*
X154539432Y-82277265D01*
X154539431Y-82277267D01*
X154443261Y-82483502D01*
X154443258Y-82483511D01*
X154384366Y-82703302D01*
X154384364Y-82703313D01*
X154364532Y-82929998D01*
X154364532Y-82930001D01*
X154384364Y-83156686D01*
X154384366Y-83156697D01*
X154443258Y-83376488D01*
X154443261Y-83376497D01*
X154539431Y-83582732D01*
X154539432Y-83582734D01*
X154669954Y-83769141D01*
X154830858Y-83930045D01*
X154830861Y-83930047D01*
X155017266Y-84060568D01*
X155067068Y-84083791D01*
X155075275Y-84087618D01*
X155127714Y-84133791D01*
X155146866Y-84200984D01*
X155126650Y-84267865D01*
X155075275Y-84312382D01*
X155017267Y-84339431D01*
X155017265Y-84339432D01*
X154830858Y-84469954D01*
X154669954Y-84630858D01*
X154539432Y-84817265D01*
X154539431Y-84817267D01*
X154443261Y-85023502D01*
X154443258Y-85023511D01*
X154384366Y-85243302D01*
X154384364Y-85243313D01*
X154364532Y-85469998D01*
X154364532Y-85470001D01*
X154384364Y-85696686D01*
X154384366Y-85696697D01*
X154415638Y-85813407D01*
X154413975Y-85883257D01*
X154374812Y-85941119D01*
X154310583Y-85968623D01*
X154295863Y-85969500D01*
X151344361Y-85969500D01*
X151277322Y-85949815D01*
X151256684Y-85933185D01*
X150924036Y-85600536D01*
X150924035Y-85600535D01*
X150924034Y-85600534D01*
X150776548Y-85501988D01*
X150612666Y-85434105D01*
X150612658Y-85434103D01*
X150438696Y-85399500D01*
X150438692Y-85399500D01*
X150261308Y-85399500D01*
X150261303Y-85399500D01*
X150087341Y-85434103D01*
X150087333Y-85434105D01*
X149923451Y-85501988D01*
X149775965Y-85600534D01*
X149775958Y-85600540D01*
X149650540Y-85725958D01*
X149650534Y-85725965D01*
X149551988Y-85873451D01*
X149551985Y-85873456D01*
X149529147Y-85928592D01*
X149485306Y-85982995D01*
X149471572Y-85987565D01*
X149480616Y-86054211D01*
X149479640Y-86059777D01*
X149455728Y-86180001D01*
X149449500Y-86211310D01*
X149449500Y-86388696D01*
X149484103Y-86562658D01*
X149484105Y-86562666D01*
X149551988Y-86726548D01*
X149650534Y-86874034D01*
X149650540Y-86874041D01*
X149914319Y-87137819D01*
X149947804Y-87199142D01*
X149942820Y-87268833D01*
X149900949Y-87324767D01*
X149835484Y-87349184D01*
X149826638Y-87349500D01*
X149051915Y-87349500D01*
X149038031Y-87348720D01*
X149000002Y-87344435D01*
X148999998Y-87344435D01*
X148961969Y-87348720D01*
X148948085Y-87349500D01*
X148921152Y-87349500D01*
X148881994Y-87357288D01*
X148871696Y-87358890D01*
X148820742Y-87364632D01*
X148820735Y-87364634D01*
X148796898Y-87372975D01*
X148780140Y-87377550D01*
X148766502Y-87380263D01*
X148766496Y-87380264D01*
X148717631Y-87400504D01*
X148711140Y-87402982D01*
X148650477Y-87424210D01*
X148650474Y-87424212D01*
X148640127Y-87430713D01*
X148621639Y-87440266D01*
X148620832Y-87440600D01*
X148620824Y-87440604D01*
X148620821Y-87440605D01*
X148620821Y-87440606D01*
X148583362Y-87465635D01*
X148566047Y-87477204D01*
X148563132Y-87479092D01*
X148497742Y-87520180D01*
X148497735Y-87520186D01*
X148370186Y-87647735D01*
X148370180Y-87647742D01*
X148329092Y-87713132D01*
X148327209Y-87716038D01*
X148318484Y-87729098D01*
X148290604Y-87770824D01*
X148290600Y-87770832D01*
X148290266Y-87771639D01*
X148280713Y-87790127D01*
X148274212Y-87800474D01*
X148274210Y-87800477D01*
X148252982Y-87861140D01*
X148250504Y-87867631D01*
X148230264Y-87916496D01*
X148230263Y-87916502D01*
X148227550Y-87930140D01*
X148222975Y-87946898D01*
X148214634Y-87970735D01*
X148214632Y-87970742D01*
X148208890Y-88021696D01*
X148207288Y-88031994D01*
X148199500Y-88071152D01*
X148199500Y-88098085D01*
X148198720Y-88111969D01*
X148194435Y-88149998D01*
X148194435Y-88150001D01*
X148198720Y-88188029D01*
X148199500Y-88201914D01*
X148199500Y-88228844D01*
X148207288Y-88268003D01*
X148208890Y-88278303D01*
X148214632Y-88329252D01*
X148214633Y-88329260D01*
X148222976Y-88353104D01*
X148227550Y-88369860D01*
X148230262Y-88383496D01*
X148250509Y-88432377D01*
X148252986Y-88438867D01*
X148266977Y-88478850D01*
X148274212Y-88499524D01*
X148280709Y-88509865D01*
X148290270Y-88528372D01*
X148290635Y-88529253D01*
X148298109Y-88598721D01*
X148266839Y-88661203D01*
X148206753Y-88696860D01*
X148165271Y-88700242D01*
X148100002Y-88694532D01*
X148099998Y-88694532D01*
X147873313Y-88714364D01*
X147873302Y-88714366D01*
X147653511Y-88773258D01*
X147653502Y-88773261D01*
X147447267Y-88869431D01*
X147447265Y-88869432D01*
X147260858Y-88999954D01*
X147099954Y-89160858D01*
X146969432Y-89347265D01*
X146969431Y-89347267D01*
X146873261Y-89553502D01*
X146873258Y-89553511D01*
X146814366Y-89773302D01*
X146814364Y-89773313D01*
X146794532Y-89999998D01*
X146794532Y-90000001D01*
X146814364Y-90226686D01*
X146814366Y-90226697D01*
X146873258Y-90446488D01*
X146873261Y-90446497D01*
X146969431Y-90652732D01*
X146969432Y-90652734D01*
X147099954Y-90839141D01*
X147260858Y-91000045D01*
X147260861Y-91000047D01*
X147447266Y-91130568D01*
X147653504Y-91226739D01*
X147873308Y-91285635D01*
X148035230Y-91299801D01*
X148099998Y-91305468D01*
X148100000Y-91305468D01*
X148100002Y-91305468D01*
X148156673Y-91300509D01*
X148326692Y-91285635D01*
X148546496Y-91226739D01*
X148752734Y-91130568D01*
X148939139Y-91000047D01*
X149100047Y-90839139D01*
X149230568Y-90652734D01*
X149326739Y-90446496D01*
X149385635Y-90226692D01*
X149390595Y-90170001D01*
X165064532Y-90170001D01*
X165084364Y-90396686D01*
X165084366Y-90396697D01*
X165143258Y-90616488D01*
X165143261Y-90616497D01*
X165239431Y-90822732D01*
X165239432Y-90822734D01*
X165369954Y-91009141D01*
X165530858Y-91170045D01*
X165530861Y-91170047D01*
X165717266Y-91300568D01*
X165923504Y-91396739D01*
X166143308Y-91455635D01*
X166305230Y-91469801D01*
X166369998Y-91475468D01*
X166370000Y-91475468D01*
X166370002Y-91475468D01*
X166426673Y-91470509D01*
X166596692Y-91455635D01*
X166816496Y-91396739D01*
X167022734Y-91300568D01*
X167209139Y-91170047D01*
X167370047Y-91009139D01*
X167500568Y-90822734D01*
X167596739Y-90616496D01*
X167655635Y-90396692D01*
X167675468Y-90170001D01*
X175224532Y-90170001D01*
X175244364Y-90396686D01*
X175244366Y-90396697D01*
X175303258Y-90616488D01*
X175303261Y-90616497D01*
X175399431Y-90822732D01*
X175399432Y-90822734D01*
X175529954Y-91009141D01*
X175690858Y-91170045D01*
X175690861Y-91170047D01*
X175877266Y-91300568D01*
X176083504Y-91396739D01*
X176303308Y-91455635D01*
X176465230Y-91469801D01*
X176529998Y-91475468D01*
X176530000Y-91475468D01*
X176530002Y-91475468D01*
X176586673Y-91470509D01*
X176756692Y-91455635D01*
X176976496Y-91396739D01*
X177182734Y-91300568D01*
X177369139Y-91170047D01*
X177530047Y-91009139D01*
X177660568Y-90822734D01*
X177756739Y-90616496D01*
X177815635Y-90396692D01*
X177835468Y-90170000D01*
X177815635Y-89943308D01*
X177756739Y-89723504D01*
X177660568Y-89517266D01*
X177530047Y-89330861D01*
X177530045Y-89330858D01*
X177369141Y-89169954D01*
X177182734Y-89039432D01*
X177182732Y-89039431D01*
X176976497Y-88943261D01*
X176976488Y-88943258D01*
X176756697Y-88884366D01*
X176756693Y-88884365D01*
X176756692Y-88884365D01*
X176756691Y-88884364D01*
X176756686Y-88884364D01*
X176530002Y-88864532D01*
X176529998Y-88864532D01*
X176303313Y-88884364D01*
X176303302Y-88884366D01*
X176083511Y-88943258D01*
X176083502Y-88943261D01*
X175877267Y-89039431D01*
X175877265Y-89039432D01*
X175690858Y-89169954D01*
X175529954Y-89330858D01*
X175399432Y-89517265D01*
X175399431Y-89517267D01*
X175303261Y-89723502D01*
X175303258Y-89723511D01*
X175244366Y-89943302D01*
X175244364Y-89943313D01*
X175224532Y-90169998D01*
X175224532Y-90170001D01*
X167675468Y-90170001D01*
X167675468Y-90170000D01*
X167655635Y-89943308D01*
X167596739Y-89723504D01*
X167500568Y-89517266D01*
X167370047Y-89330861D01*
X167370045Y-89330858D01*
X167209141Y-89169954D01*
X167022734Y-89039432D01*
X167022732Y-89039431D01*
X166816497Y-88943261D01*
X166816488Y-88943258D01*
X166596697Y-88884366D01*
X166596693Y-88884365D01*
X166596692Y-88884365D01*
X166596691Y-88884364D01*
X166596686Y-88884364D01*
X166370002Y-88864532D01*
X166369998Y-88864532D01*
X166143313Y-88884364D01*
X166143302Y-88884366D01*
X165923511Y-88943258D01*
X165923502Y-88943261D01*
X165717267Y-89039431D01*
X165717265Y-89039432D01*
X165530858Y-89169954D01*
X165369954Y-89330858D01*
X165239432Y-89517265D01*
X165239431Y-89517267D01*
X165143261Y-89723502D01*
X165143258Y-89723511D01*
X165084366Y-89943302D01*
X165084364Y-89943313D01*
X165064532Y-90169998D01*
X165064532Y-90170001D01*
X149390595Y-90170001D01*
X149405468Y-90000000D01*
X149385635Y-89773308D01*
X149326739Y-89553504D01*
X149230568Y-89347266D01*
X149128353Y-89201286D01*
X149100043Y-89160855D01*
X149096566Y-89156711D01*
X149097810Y-89155666D01*
X149067883Y-89100858D01*
X149072867Y-89031166D01*
X149114739Y-88975233D01*
X149180203Y-88950816D01*
X149189049Y-88950500D01*
X158458844Y-88950500D01*
X158458845Y-88950499D01*
X158613497Y-88919737D01*
X158759179Y-88859394D01*
X158890289Y-88771789D01*
X159449674Y-88212402D01*
X159510995Y-88178919D01*
X159548156Y-88176557D01*
X159650000Y-88185468D01*
X159650000Y-88185467D01*
X159650001Y-88185468D01*
X159650002Y-88185468D01*
X159724855Y-88178919D01*
X159876692Y-88165635D01*
X160096496Y-88106739D01*
X160302734Y-88010568D01*
X160489139Y-87880047D01*
X160650047Y-87719139D01*
X160780568Y-87532734D01*
X160876739Y-87326496D01*
X160935635Y-87106692D01*
X160955468Y-86880000D01*
X160935635Y-86653308D01*
X160920121Y-86595408D01*
X160904362Y-86536593D01*
X160906025Y-86466743D01*
X160945188Y-86408881D01*
X161009417Y-86381377D01*
X161024137Y-86380500D01*
X167728693Y-86380500D01*
X167728694Y-86380499D01*
X167786682Y-86368964D01*
X167831744Y-86360001D01*
X171414532Y-86360001D01*
X171434364Y-86586686D01*
X171434366Y-86586697D01*
X171493258Y-86806488D01*
X171493261Y-86806497D01*
X171589431Y-87012732D01*
X171589432Y-87012734D01*
X171719954Y-87199141D01*
X171880858Y-87360045D01*
X171880861Y-87360047D01*
X172067266Y-87490568D01*
X172273504Y-87586739D01*
X172493308Y-87645635D01*
X172655230Y-87659801D01*
X172719998Y-87665468D01*
X172720000Y-87665468D01*
X172720002Y-87665468D01*
X172779139Y-87660294D01*
X172946692Y-87645635D01*
X173166496Y-87586739D01*
X173372734Y-87490568D01*
X173559139Y-87360047D01*
X173720047Y-87199139D01*
X173850568Y-87012734D01*
X173946739Y-86806496D01*
X174005635Y-86586692D01*
X174023598Y-86381377D01*
X174025468Y-86360001D01*
X174025468Y-86359998D01*
X174005635Y-86133313D01*
X174005635Y-86133308D01*
X173946739Y-85913504D01*
X173850568Y-85707266D01*
X173752839Y-85567693D01*
X173720045Y-85520858D01*
X173559141Y-85359954D01*
X173372734Y-85229432D01*
X173372728Y-85229429D01*
X173314725Y-85202382D01*
X173262285Y-85156210D01*
X173243133Y-85089017D01*
X173263348Y-85022135D01*
X173314725Y-84977618D01*
X173372734Y-84950568D01*
X173559139Y-84820047D01*
X173720047Y-84659139D01*
X173850568Y-84472734D01*
X173946739Y-84266496D01*
X174005635Y-84046692D01*
X174025468Y-83820000D01*
X174005635Y-83593308D01*
X173953838Y-83399998D01*
X173946741Y-83373511D01*
X173946738Y-83373502D01*
X173924932Y-83326739D01*
X173850568Y-83167266D01*
X173720047Y-82980861D01*
X173720045Y-82980858D01*
X173559141Y-82819954D01*
X173372734Y-82689432D01*
X173372728Y-82689429D01*
X173337744Y-82673116D01*
X173314724Y-82662381D01*
X173262285Y-82616210D01*
X173243413Y-82550001D01*
X174454435Y-82550001D01*
X174458720Y-82588029D01*
X174459500Y-82601914D01*
X174459500Y-82628844D01*
X174467288Y-82668003D01*
X174468890Y-82678303D01*
X174474632Y-82729252D01*
X174474633Y-82729260D01*
X174482976Y-82753104D01*
X174487550Y-82769860D01*
X174490262Y-82783496D01*
X174510509Y-82832377D01*
X174512988Y-82838872D01*
X174534212Y-82899524D01*
X174540709Y-82909865D01*
X174550268Y-82928365D01*
X174550603Y-82929173D01*
X174550605Y-82929179D01*
X174587223Y-82983982D01*
X174589114Y-82986900D01*
X174630180Y-83052257D01*
X174630182Y-83052260D01*
X174630184Y-83052262D01*
X174757738Y-83179816D01*
X174765952Y-83184977D01*
X174823131Y-83220905D01*
X174826040Y-83222790D01*
X174880821Y-83259394D01*
X174881606Y-83259719D01*
X174900134Y-83269289D01*
X174910478Y-83275789D01*
X174971175Y-83297028D01*
X174977607Y-83299484D01*
X175006021Y-83311253D01*
X175026497Y-83319735D01*
X175026498Y-83319735D01*
X175026503Y-83319737D01*
X175040139Y-83322449D01*
X175056898Y-83327023D01*
X175080745Y-83335368D01*
X175131714Y-83341110D01*
X175141992Y-83342709D01*
X175168424Y-83347967D01*
X175181157Y-83350500D01*
X175181158Y-83350500D01*
X175208085Y-83350500D01*
X175221969Y-83351280D01*
X175259998Y-83355565D01*
X175260000Y-83355565D01*
X175260002Y-83355565D01*
X175298031Y-83351280D01*
X175311915Y-83350500D01*
X175338841Y-83350500D01*
X175338842Y-83350500D01*
X175378017Y-83342707D01*
X175388283Y-83341110D01*
X175439255Y-83335368D01*
X175463100Y-83327023D01*
X175479862Y-83322448D01*
X175493497Y-83319737D01*
X175542389Y-83299484D01*
X175548837Y-83297023D01*
X175609522Y-83275789D01*
X175619868Y-83269287D01*
X175638390Y-83259720D01*
X175639179Y-83259394D01*
X175693987Y-83222771D01*
X175696825Y-83220931D01*
X175762262Y-83179816D01*
X175889816Y-83052262D01*
X175930931Y-82986825D01*
X175932777Y-82983979D01*
X175969394Y-82929179D01*
X175969720Y-82928390D01*
X175979287Y-82909868D01*
X175985789Y-82899522D01*
X176007023Y-82838837D01*
X176009490Y-82832377D01*
X176029737Y-82783497D01*
X176032449Y-82769860D01*
X176037023Y-82753100D01*
X176045368Y-82729255D01*
X176051110Y-82678283D01*
X176052707Y-82668017D01*
X176060500Y-82628842D01*
X176060500Y-82601914D01*
X176061280Y-82588029D01*
X176065565Y-82550001D01*
X176065565Y-82549998D01*
X176061280Y-82511969D01*
X176060500Y-82498085D01*
X176060500Y-81662939D01*
X176080185Y-81595900D01*
X176096814Y-81575263D01*
X178838258Y-78833818D01*
X178899579Y-78800335D01*
X178969271Y-78805319D01*
X179025204Y-78847191D01*
X179049465Y-78910692D01*
X179054364Y-78966687D01*
X179054366Y-78966697D01*
X179113258Y-79186488D01*
X179113261Y-79186497D01*
X179209431Y-79392732D01*
X179209432Y-79392734D01*
X179339954Y-79579141D01*
X179500858Y-79740045D01*
X179500861Y-79740047D01*
X179687266Y-79870568D01*
X179745275Y-79897618D01*
X179797714Y-79943791D01*
X179816866Y-80010984D01*
X179796650Y-80077865D01*
X179745275Y-80122382D01*
X179687267Y-80149431D01*
X179687265Y-80149432D01*
X179500858Y-80279954D01*
X179339954Y-80440858D01*
X179209432Y-80627265D01*
X179209431Y-80627267D01*
X179113261Y-80833502D01*
X179113258Y-80833511D01*
X179054366Y-81053302D01*
X179054364Y-81053313D01*
X179034532Y-81279998D01*
X179034532Y-81280001D01*
X179054364Y-81506686D01*
X179054366Y-81506697D01*
X179113258Y-81726488D01*
X179113261Y-81726497D01*
X179209431Y-81932732D01*
X179209432Y-81932734D01*
X179339954Y-82119141D01*
X179500858Y-82280045D01*
X179547693Y-82312839D01*
X179687266Y-82410568D01*
X179745275Y-82437618D01*
X179797714Y-82483791D01*
X179816866Y-82550984D01*
X179796650Y-82617865D01*
X179745275Y-82662382D01*
X179687267Y-82689431D01*
X179687265Y-82689432D01*
X179500858Y-82819954D01*
X179339954Y-82980858D01*
X179209432Y-83167265D01*
X179209431Y-83167267D01*
X179113261Y-83373502D01*
X179113258Y-83373511D01*
X179054366Y-83593302D01*
X179054364Y-83593313D01*
X179034532Y-83819998D01*
X179034532Y-83820001D01*
X179054364Y-84046686D01*
X179054366Y-84046697D01*
X179113258Y-84266488D01*
X179113261Y-84266497D01*
X179209431Y-84472732D01*
X179209432Y-84472734D01*
X179339954Y-84659141D01*
X179500858Y-84820045D01*
X179500861Y-84820047D01*
X179687266Y-84950568D01*
X179745275Y-84977618D01*
X179797714Y-85023791D01*
X179816866Y-85090984D01*
X179796650Y-85157865D01*
X179745275Y-85202382D01*
X179687267Y-85229431D01*
X179687265Y-85229432D01*
X179500858Y-85359954D01*
X179339954Y-85520858D01*
X179209432Y-85707265D01*
X179209431Y-85707267D01*
X179113261Y-85913502D01*
X179113258Y-85913511D01*
X179054366Y-86133302D01*
X179054364Y-86133313D01*
X179034532Y-86359998D01*
X179034532Y-86360001D01*
X179054364Y-86586686D01*
X179054366Y-86586697D01*
X179113258Y-86806488D01*
X179113261Y-86806497D01*
X179209431Y-87012732D01*
X179209432Y-87012734D01*
X179339954Y-87199141D01*
X179500858Y-87360045D01*
X179500861Y-87360047D01*
X179687266Y-87490568D01*
X179893504Y-87586739D01*
X180113308Y-87645635D01*
X180275230Y-87659801D01*
X180339998Y-87665468D01*
X180340000Y-87665468D01*
X180340002Y-87665468D01*
X180399139Y-87660294D01*
X180566692Y-87645635D01*
X180786496Y-87586739D01*
X180992734Y-87490568D01*
X181179139Y-87360047D01*
X181340047Y-87199139D01*
X181470568Y-87012734D01*
X181566739Y-86806496D01*
X181625635Y-86586692D01*
X181643598Y-86381377D01*
X181645468Y-86360001D01*
X181645468Y-86359998D01*
X181625635Y-86133313D01*
X181625635Y-86133308D01*
X181566739Y-85913504D01*
X181470568Y-85707266D01*
X181372839Y-85567693D01*
X181340045Y-85520858D01*
X181179141Y-85359954D01*
X180992734Y-85229432D01*
X180992728Y-85229429D01*
X180934725Y-85202382D01*
X180882285Y-85156210D01*
X180863133Y-85089017D01*
X180883348Y-85022135D01*
X180934725Y-84977618D01*
X180992734Y-84950568D01*
X181179139Y-84820047D01*
X181340047Y-84659139D01*
X181470568Y-84472734D01*
X181566739Y-84266496D01*
X181625635Y-84046692D01*
X181645468Y-83820000D01*
X181625635Y-83593308D01*
X181573838Y-83399998D01*
X181566741Y-83373511D01*
X181566738Y-83373502D01*
X181544932Y-83326739D01*
X181470568Y-83167266D01*
X181340047Y-82980861D01*
X181340045Y-82980858D01*
X181179141Y-82819954D01*
X180992734Y-82689432D01*
X180992728Y-82689429D01*
X180957744Y-82673116D01*
X180934724Y-82662381D01*
X180882285Y-82616210D01*
X180863133Y-82549017D01*
X180883348Y-82482135D01*
X180934725Y-82437618D01*
X180992734Y-82410568D01*
X181129810Y-82314586D01*
X181183574Y-82276942D01*
X181184515Y-82278286D01*
X181241651Y-82253257D01*
X181310647Y-82264272D01*
X181345073Y-82288573D01*
X181943181Y-82886681D01*
X181976666Y-82948004D01*
X181979500Y-82974362D01*
X181979500Y-87718696D01*
X182014103Y-87892658D01*
X182014105Y-87892666D01*
X182046447Y-87970746D01*
X182081984Y-88056542D01*
X182081985Y-88056544D01*
X182126293Y-88122856D01*
X182126294Y-88122857D01*
X182126297Y-88122861D01*
X182164573Y-88180146D01*
X182180537Y-88204038D01*
X182180538Y-88204039D01*
X185990536Y-92014035D01*
X186056703Y-92080202D01*
X186115966Y-92139465D01*
X186142091Y-92156921D01*
X186263453Y-92238013D01*
X186311452Y-92257895D01*
X186427334Y-92305895D01*
X186601304Y-92340499D01*
X186601308Y-92340500D01*
X186601309Y-92340500D01*
X186778692Y-92340500D01*
X190075638Y-92340500D01*
X190142677Y-92360185D01*
X190163319Y-92376819D01*
X191882204Y-94095704D01*
X191915689Y-94157027D01*
X191910705Y-94226719D01*
X191868833Y-94282652D01*
X191846929Y-94295766D01*
X191782176Y-94325961D01*
X191782169Y-94325965D01*
X191588597Y-94461505D01*
X191421505Y-94628597D01*
X191285965Y-94822169D01*
X191285964Y-94822171D01*
X191186098Y-95036335D01*
X191186094Y-95036344D01*
X191124938Y-95264586D01*
X191124936Y-95264596D01*
X191104341Y-95499999D01*
X191104341Y-95500000D01*
X191124936Y-95735403D01*
X191124938Y-95735413D01*
X191186094Y-95963655D01*
X191186096Y-95963659D01*
X191186097Y-95963663D01*
X191266004Y-96135023D01*
X191285965Y-96177830D01*
X191285967Y-96177834D01*
X191391709Y-96328848D01*
X191421501Y-96371396D01*
X191421506Y-96371402D01*
X191588597Y-96538493D01*
X191588603Y-96538498D01*
X191774158Y-96668425D01*
X191817783Y-96723002D01*
X191824977Y-96792500D01*
X191793454Y-96854855D01*
X191774158Y-96871575D01*
X191588597Y-97001505D01*
X191421505Y-97168597D01*
X191285965Y-97362169D01*
X191285964Y-97362171D01*
X191186098Y-97576335D01*
X191186094Y-97576344D01*
X191124938Y-97804586D01*
X191124936Y-97804596D01*
X191104341Y-98039999D01*
X191104341Y-98040000D01*
X191124936Y-98275403D01*
X191124938Y-98275413D01*
X191186094Y-98503655D01*
X191186096Y-98503659D01*
X191186097Y-98503663D01*
X191260392Y-98662989D01*
X191285965Y-98717830D01*
X191285967Y-98717834D01*
X191394281Y-98872521D01*
X191421505Y-98911401D01*
X191588599Y-99078495D01*
X191624043Y-99103313D01*
X191782165Y-99214032D01*
X191782167Y-99214033D01*
X191782170Y-99214035D01*
X191996337Y-99313903D01*
X192224592Y-99375063D01*
X192412918Y-99391539D01*
X192459999Y-99395659D01*
X192460000Y-99395659D01*
X192460001Y-99395659D01*
X192499234Y-99392226D01*
X192695408Y-99375063D01*
X192923663Y-99313903D01*
X193137830Y-99214035D01*
X193331401Y-99078495D01*
X193498495Y-98911401D01*
X193628425Y-98725842D01*
X193683002Y-98682217D01*
X193752500Y-98675023D01*
X193814855Y-98706546D01*
X193831575Y-98725842D01*
X193961500Y-98911395D01*
X193961505Y-98911401D01*
X194128599Y-99078495D01*
X194164043Y-99103313D01*
X194322165Y-99214032D01*
X194322167Y-99214033D01*
X194322170Y-99214035D01*
X194536337Y-99313903D01*
X194764592Y-99375063D01*
X194952918Y-99391539D01*
X194999999Y-99395659D01*
X195000000Y-99395659D01*
X195000001Y-99395659D01*
X195039234Y-99392226D01*
X195235408Y-99375063D01*
X195463663Y-99313903D01*
X195677830Y-99214035D01*
X195871401Y-99078495D01*
X196038495Y-98911401D01*
X196174035Y-98717830D01*
X196273903Y-98503663D01*
X196335063Y-98275408D01*
X196355659Y-98040000D01*
X196354740Y-98029501D01*
X196344070Y-97907544D01*
X196335063Y-97804592D01*
X196273903Y-97576337D01*
X196174035Y-97362171D01*
X196168425Y-97354158D01*
X196038494Y-97168597D01*
X195871398Y-97001501D01*
X195870030Y-97000354D01*
X195869592Y-96999696D01*
X195867573Y-96997677D01*
X195867978Y-96997271D01*
X195831330Y-96942182D01*
X195830224Y-96872321D01*
X195867063Y-96812952D01*
X195910737Y-96787662D01*
X195919334Y-96784814D01*
X196068656Y-96692712D01*
X196192712Y-96568656D01*
X196284814Y-96419334D01*
X196339999Y-96252797D01*
X196350500Y-96150009D01*
X196350499Y-94849992D01*
X196339999Y-94747203D01*
X196284814Y-94580666D01*
X196192712Y-94431344D01*
X196068656Y-94307288D01*
X195971343Y-94247265D01*
X195919336Y-94215187D01*
X195919331Y-94215185D01*
X195917862Y-94214698D01*
X195752797Y-94160001D01*
X195752795Y-94160000D01*
X195650016Y-94149500D01*
X195650009Y-94149500D01*
X194534362Y-94149500D01*
X194467323Y-94129815D01*
X194446681Y-94113181D01*
X191074039Y-90740538D01*
X191074034Y-90740534D01*
X191012568Y-90699465D01*
X191012567Y-90699464D01*
X190926552Y-90641990D01*
X190926540Y-90641983D01*
X190844607Y-90608046D01*
X190844606Y-90608046D01*
X190762666Y-90574105D01*
X190762658Y-90574103D01*
X190588696Y-90539500D01*
X190588692Y-90539500D01*
X190588691Y-90539500D01*
X187114361Y-90539500D01*
X187047322Y-90519815D01*
X187026680Y-90503181D01*
X185423499Y-88900000D01*
X186604341Y-88900000D01*
X186624936Y-89135403D01*
X186624938Y-89135413D01*
X186686094Y-89363655D01*
X186686096Y-89363659D01*
X186686097Y-89363663D01*
X186757724Y-89517267D01*
X186785965Y-89577830D01*
X186785967Y-89577834D01*
X186861451Y-89685635D01*
X186921505Y-89771401D01*
X187088599Y-89938495D01*
X187095473Y-89943308D01*
X187282165Y-90074032D01*
X187282167Y-90074033D01*
X187282170Y-90074035D01*
X187496337Y-90173903D01*
X187724592Y-90235063D01*
X187912918Y-90251539D01*
X187959999Y-90255659D01*
X187960000Y-90255659D01*
X187960001Y-90255659D01*
X187999234Y-90252226D01*
X188195408Y-90235063D01*
X188423663Y-90173903D01*
X188637830Y-90074035D01*
X188831401Y-89938495D01*
X188998495Y-89771401D01*
X189128425Y-89585842D01*
X189183002Y-89542217D01*
X189252500Y-89535023D01*
X189314855Y-89566546D01*
X189331575Y-89585842D01*
X189461500Y-89771395D01*
X189461505Y-89771401D01*
X189628599Y-89938495D01*
X189635473Y-89943308D01*
X189822165Y-90074032D01*
X189822167Y-90074033D01*
X189822170Y-90074035D01*
X190036337Y-90173903D01*
X190264592Y-90235063D01*
X190452918Y-90251539D01*
X190499999Y-90255659D01*
X190500000Y-90255659D01*
X190500001Y-90255659D01*
X190539234Y-90252226D01*
X190735408Y-90235063D01*
X190963663Y-90173903D01*
X191177830Y-90074035D01*
X191371401Y-89938495D01*
X191538495Y-89771401D01*
X191668425Y-89585842D01*
X191723002Y-89542217D01*
X191792500Y-89535023D01*
X191854855Y-89566546D01*
X191871575Y-89585842D01*
X192001500Y-89771395D01*
X192001505Y-89771401D01*
X192168599Y-89938495D01*
X192175473Y-89943308D01*
X192362165Y-90074032D01*
X192362167Y-90074033D01*
X192362170Y-90074035D01*
X192576337Y-90173903D01*
X192804592Y-90235063D01*
X192992918Y-90251539D01*
X193039999Y-90255659D01*
X193040000Y-90255659D01*
X193040001Y-90255659D01*
X193079234Y-90252226D01*
X193275408Y-90235063D01*
X193503663Y-90173903D01*
X193717830Y-90074035D01*
X193911401Y-89938495D01*
X194078495Y-89771401D01*
X194208425Y-89585842D01*
X194263002Y-89542217D01*
X194332500Y-89535023D01*
X194394855Y-89566546D01*
X194411575Y-89585842D01*
X194541500Y-89771395D01*
X194541505Y-89771401D01*
X194708599Y-89938495D01*
X194715473Y-89943308D01*
X194902165Y-90074032D01*
X194902167Y-90074033D01*
X194902170Y-90074035D01*
X195116337Y-90173903D01*
X195344592Y-90235063D01*
X195532918Y-90251539D01*
X195579999Y-90255659D01*
X195580000Y-90255659D01*
X195580001Y-90255659D01*
X195619234Y-90252226D01*
X195815408Y-90235063D01*
X196043663Y-90173903D01*
X196257830Y-90074035D01*
X196451401Y-89938495D01*
X196618495Y-89771401D01*
X196748425Y-89585842D01*
X196803002Y-89542217D01*
X196872500Y-89535023D01*
X196934855Y-89566546D01*
X196951575Y-89585842D01*
X197081500Y-89771395D01*
X197081505Y-89771401D01*
X197248599Y-89938495D01*
X197255473Y-89943308D01*
X197442165Y-90074032D01*
X197442167Y-90074033D01*
X197442170Y-90074035D01*
X197656337Y-90173903D01*
X197884592Y-90235063D01*
X198072918Y-90251539D01*
X198119999Y-90255659D01*
X198120000Y-90255659D01*
X198120001Y-90255659D01*
X198159234Y-90252226D01*
X198355408Y-90235063D01*
X198583663Y-90173903D01*
X198797830Y-90074035D01*
X198991401Y-89938495D01*
X199158495Y-89771401D01*
X199294035Y-89577830D01*
X199393903Y-89363663D01*
X199455063Y-89135408D01*
X199475659Y-88900000D01*
X199472984Y-88869431D01*
X199465088Y-88779179D01*
X199455063Y-88664592D01*
X199393903Y-88436337D01*
X199294035Y-88222171D01*
X199288425Y-88214158D01*
X199158494Y-88028597D01*
X198991402Y-87861506D01*
X198991396Y-87861501D01*
X198805842Y-87731575D01*
X198762217Y-87676998D01*
X198755023Y-87607500D01*
X198786546Y-87545145D01*
X198805842Y-87528425D01*
X198867191Y-87485468D01*
X198991401Y-87398495D01*
X199158495Y-87231401D01*
X199294035Y-87037830D01*
X199393903Y-86823663D01*
X199455063Y-86595408D01*
X199475659Y-86360000D01*
X199455063Y-86124592D01*
X199393903Y-85896337D01*
X199294035Y-85682171D01*
X199288425Y-85674158D01*
X199158494Y-85488597D01*
X198991402Y-85321506D01*
X198991396Y-85321501D01*
X198805842Y-85191575D01*
X198762217Y-85136998D01*
X198755023Y-85067500D01*
X198786546Y-85005145D01*
X198805842Y-84988425D01*
X198856061Y-84953261D01*
X198991401Y-84858495D01*
X199158495Y-84691401D01*
X199294035Y-84497830D01*
X199393903Y-84283663D01*
X199455063Y-84055408D01*
X199475659Y-83820000D01*
X199455063Y-83584592D01*
X199393903Y-83356337D01*
X199294035Y-83142171D01*
X199288425Y-83134158D01*
X199158494Y-82948597D01*
X198991402Y-82781506D01*
X198991396Y-82781501D01*
X198805842Y-82651575D01*
X198762217Y-82596998D01*
X198755023Y-82527500D01*
X198786546Y-82465145D01*
X198805842Y-82448425D01*
X198846637Y-82419860D01*
X198991401Y-82318495D01*
X199158495Y-82151401D01*
X199294035Y-81957830D01*
X199393903Y-81743663D01*
X199455063Y-81515408D01*
X199475659Y-81280000D01*
X199455063Y-81044592D01*
X199393903Y-80816337D01*
X199294035Y-80602171D01*
X199288425Y-80594158D01*
X199158494Y-80408597D01*
X198991402Y-80241506D01*
X198991396Y-80241501D01*
X198805842Y-80111575D01*
X198762217Y-80056998D01*
X198755023Y-79987500D01*
X198786546Y-79925145D01*
X198805842Y-79908425D01*
X198859909Y-79870567D01*
X198991401Y-79778495D01*
X199158495Y-79611401D01*
X199294035Y-79417830D01*
X199393903Y-79203663D01*
X199455063Y-78975408D01*
X199475659Y-78740000D01*
X199471972Y-78697864D01*
X199468563Y-78658890D01*
X199455063Y-78504592D01*
X199403848Y-78313453D01*
X199393905Y-78276344D01*
X199393904Y-78276343D01*
X199393903Y-78276337D01*
X199294035Y-78062171D01*
X199288424Y-78054158D01*
X199158496Y-77868600D01*
X199122412Y-77832516D01*
X199036567Y-77746671D01*
X199003084Y-77685351D01*
X199008068Y-77615659D01*
X199049939Y-77559725D01*
X199080915Y-77542810D01*
X199212331Y-77493796D01*
X199327546Y-77407546D01*
X199413796Y-77292331D01*
X199464091Y-77157483D01*
X199470500Y-77097873D01*
X199470499Y-75302128D01*
X199464091Y-75242517D01*
X199413796Y-75107669D01*
X199413795Y-75107668D01*
X199413793Y-75107664D01*
X199327547Y-74992455D01*
X199327544Y-74992452D01*
X199212335Y-74906206D01*
X199212328Y-74906202D01*
X199077482Y-74855908D01*
X199077483Y-74855908D01*
X199017883Y-74849501D01*
X199017881Y-74849500D01*
X199017873Y-74849500D01*
X199017864Y-74849500D01*
X197222129Y-74849500D01*
X197222123Y-74849501D01*
X197162516Y-74855908D01*
X197027671Y-74906202D01*
X197027669Y-74906203D01*
X196924311Y-74983578D01*
X196858847Y-75007995D01*
X196790574Y-74993144D01*
X196775689Y-74983578D01*
X196672330Y-74906203D01*
X196672328Y-74906202D01*
X196537482Y-74855908D01*
X196537483Y-74855908D01*
X196477883Y-74849501D01*
X196477881Y-74849500D01*
X196477873Y-74849500D01*
X196477864Y-74849500D01*
X194682129Y-74849500D01*
X194682123Y-74849501D01*
X194622516Y-74855908D01*
X194487671Y-74906202D01*
X194487669Y-74906203D01*
X194384311Y-74983578D01*
X194318847Y-75007995D01*
X194250574Y-74993144D01*
X194235689Y-74983578D01*
X194132330Y-74906203D01*
X194132328Y-74906202D01*
X193997482Y-74855908D01*
X193997483Y-74855908D01*
X193937883Y-74849501D01*
X193937881Y-74849500D01*
X193937873Y-74849500D01*
X193937864Y-74849500D01*
X192142129Y-74849500D01*
X192142123Y-74849501D01*
X192082516Y-74855908D01*
X191947671Y-74906202D01*
X191947669Y-74906203D01*
X191844311Y-74983578D01*
X191778847Y-75007995D01*
X191710574Y-74993144D01*
X191695689Y-74983578D01*
X191592330Y-74906203D01*
X191592328Y-74906202D01*
X191457482Y-74855908D01*
X191457483Y-74855908D01*
X191397883Y-74849501D01*
X191397881Y-74849500D01*
X191397873Y-74849500D01*
X191397864Y-74849500D01*
X189602129Y-74849500D01*
X189602123Y-74849501D01*
X189542516Y-74855908D01*
X189407671Y-74906202D01*
X189407669Y-74906203D01*
X189304311Y-74983578D01*
X189238847Y-75007995D01*
X189170574Y-74993144D01*
X189155689Y-74983578D01*
X189052330Y-74906203D01*
X189052328Y-74906202D01*
X188917482Y-74855908D01*
X188917483Y-74855908D01*
X188857883Y-74849501D01*
X188857881Y-74849500D01*
X188857873Y-74849500D01*
X188857864Y-74849500D01*
X187062129Y-74849500D01*
X187062123Y-74849501D01*
X187002516Y-74855908D01*
X186867671Y-74906202D01*
X186867664Y-74906206D01*
X186752455Y-74992452D01*
X186752452Y-74992455D01*
X186666206Y-75107664D01*
X186666202Y-75107671D01*
X186615908Y-75242517D01*
X186615099Y-75250047D01*
X186609501Y-75302123D01*
X186609500Y-75302135D01*
X186609500Y-77097870D01*
X186609501Y-77097876D01*
X186615908Y-77157483D01*
X186666202Y-77292328D01*
X186666206Y-77292335D01*
X186752452Y-77407544D01*
X186752455Y-77407547D01*
X186867664Y-77493793D01*
X186867671Y-77493797D01*
X186999081Y-77542810D01*
X187055015Y-77584681D01*
X187079432Y-77650145D01*
X187064580Y-77718418D01*
X187043430Y-77746673D01*
X186921503Y-77868600D01*
X186785965Y-78062169D01*
X186785964Y-78062171D01*
X186686098Y-78276335D01*
X186686094Y-78276344D01*
X186624938Y-78504586D01*
X186624936Y-78504596D01*
X186604341Y-78739999D01*
X186604341Y-78740000D01*
X186624936Y-78975403D01*
X186624938Y-78975413D01*
X186686094Y-79203655D01*
X186686096Y-79203659D01*
X186686097Y-79203663D01*
X186764932Y-79372725D01*
X186785965Y-79417830D01*
X186785967Y-79417834D01*
X186879112Y-79550858D01*
X186921501Y-79611396D01*
X186921506Y-79611402D01*
X187088597Y-79778493D01*
X187088603Y-79778498D01*
X187274158Y-79908425D01*
X187317783Y-79963002D01*
X187324977Y-80032500D01*
X187293454Y-80094855D01*
X187274158Y-80111575D01*
X187088597Y-80241505D01*
X186921505Y-80408597D01*
X186785965Y-80602169D01*
X186785964Y-80602171D01*
X186686098Y-80816335D01*
X186686094Y-80816344D01*
X186624938Y-81044586D01*
X186624936Y-81044596D01*
X186604341Y-81279999D01*
X186604341Y-81280000D01*
X186624936Y-81515403D01*
X186624938Y-81515413D01*
X186686094Y-81743655D01*
X186686096Y-81743659D01*
X186686097Y-81743663D01*
X186738300Y-81855612D01*
X186785965Y-81957830D01*
X186785967Y-81957834D01*
X186843721Y-82040314D01*
X186921501Y-82151396D01*
X186921506Y-82151402D01*
X187088597Y-82318493D01*
X187088603Y-82318498D01*
X187274158Y-82448425D01*
X187317783Y-82503002D01*
X187324977Y-82572500D01*
X187293454Y-82634855D01*
X187274158Y-82651575D01*
X187088597Y-82781505D01*
X186921505Y-82948597D01*
X186785965Y-83142169D01*
X186785964Y-83142171D01*
X186686098Y-83356335D01*
X186686094Y-83356344D01*
X186624938Y-83584586D01*
X186624936Y-83584596D01*
X186604341Y-83819999D01*
X186604341Y-83820000D01*
X186624936Y-84055403D01*
X186624938Y-84055413D01*
X186686094Y-84283655D01*
X186686096Y-84283659D01*
X186686097Y-84283663D01*
X186712103Y-84339432D01*
X186785965Y-84497830D01*
X186785967Y-84497834D01*
X186879112Y-84630858D01*
X186921501Y-84691396D01*
X186921506Y-84691402D01*
X187088597Y-84858493D01*
X187088603Y-84858498D01*
X187274158Y-84988425D01*
X187317783Y-85043002D01*
X187324977Y-85112500D01*
X187293454Y-85174855D01*
X187274158Y-85191575D01*
X187088597Y-85321505D01*
X186921505Y-85488597D01*
X186785965Y-85682169D01*
X186785964Y-85682171D01*
X186686098Y-85896335D01*
X186686094Y-85896344D01*
X186624938Y-86124586D01*
X186624936Y-86124596D01*
X186604341Y-86359999D01*
X186604341Y-86360000D01*
X186624936Y-86595403D01*
X186624938Y-86595413D01*
X186686094Y-86823655D01*
X186686096Y-86823659D01*
X186686097Y-86823663D01*
X186766004Y-86995023D01*
X186785965Y-87037830D01*
X186785967Y-87037834D01*
X186894281Y-87192521D01*
X186921501Y-87231396D01*
X186921506Y-87231402D01*
X187088597Y-87398493D01*
X187088603Y-87398498D01*
X187274158Y-87528425D01*
X187317783Y-87583002D01*
X187324977Y-87652500D01*
X187293454Y-87714855D01*
X187274158Y-87731575D01*
X187088597Y-87861505D01*
X186921505Y-88028597D01*
X186785965Y-88222169D01*
X186785964Y-88222171D01*
X186686098Y-88436335D01*
X186686094Y-88436344D01*
X186624938Y-88664586D01*
X186624936Y-88664596D01*
X186604341Y-88899999D01*
X186604341Y-88900000D01*
X185423499Y-88900000D01*
X183816819Y-87293319D01*
X183783334Y-87231996D01*
X183780500Y-87205638D01*
X183780500Y-78651310D01*
X183780500Y-78651309D01*
X183780144Y-78649520D01*
X183780146Y-78649498D01*
X183780141Y-78649500D01*
X183755476Y-78525500D01*
X183745895Y-78477334D01*
X183704873Y-78378299D01*
X183703968Y-78376114D01*
X183678016Y-78313459D01*
X183678014Y-78313455D01*
X183678013Y-78313453D01*
X183618881Y-78224956D01*
X183618881Y-78224955D01*
X183618879Y-78224954D01*
X183579464Y-78165964D01*
X183579461Y-78165960D01*
X182184041Y-76770540D01*
X182184034Y-76770534D01*
X182036548Y-76671988D01*
X181872666Y-76604105D01*
X181872658Y-76604103D01*
X181698696Y-76569500D01*
X181698692Y-76569500D01*
X181521308Y-76569500D01*
X181502400Y-76573261D01*
X181399522Y-76593724D01*
X181329931Y-76587495D01*
X181274754Y-76544632D01*
X181251510Y-76478742D01*
X181267578Y-76410745D01*
X181287647Y-76384429D01*
X186233766Y-71438311D01*
X186295087Y-71404828D01*
X186364779Y-71409812D01*
X186409126Y-71438313D01*
X186470858Y-71500045D01*
X186470861Y-71500047D01*
X186657266Y-71630568D01*
X186863504Y-71726739D01*
X187083308Y-71785635D01*
X187245230Y-71799801D01*
X187309998Y-71805468D01*
X187310000Y-71805468D01*
X187310002Y-71805468D01*
X187366673Y-71800509D01*
X187536692Y-71785635D01*
X187756496Y-71726739D01*
X187962734Y-71630568D01*
X188149139Y-71500047D01*
X188310047Y-71339139D01*
X188440568Y-71152734D01*
X188536739Y-70946496D01*
X188595635Y-70726692D01*
X188615468Y-70500000D01*
X188611097Y-70450045D01*
X188606719Y-70399998D01*
X188595635Y-70273308D01*
X188536739Y-70053504D01*
X188441843Y-69850000D01*
X190464532Y-69850000D01*
X190484364Y-70076686D01*
X190484366Y-70076697D01*
X190543258Y-70296488D01*
X190543261Y-70296497D01*
X190639431Y-70502732D01*
X190639432Y-70502734D01*
X190769954Y-70689141D01*
X190930858Y-70850045D01*
X190930861Y-70850047D01*
X191117266Y-70980568D01*
X191323504Y-71076739D01*
X191543308Y-71135635D01*
X191705230Y-71149801D01*
X191769998Y-71155468D01*
X191770000Y-71155468D01*
X191770002Y-71155468D01*
X191826673Y-71150509D01*
X191996692Y-71135635D01*
X192216496Y-71076739D01*
X192422734Y-70980568D01*
X192609139Y-70850047D01*
X192770047Y-70689139D01*
X192900568Y-70502734D01*
X192996739Y-70296496D01*
X193055635Y-70076692D01*
X193075468Y-69850000D01*
X193055635Y-69623308D01*
X192996739Y-69403504D01*
X192900568Y-69197266D01*
X192770047Y-69010861D01*
X192770045Y-69010858D01*
X192609141Y-68849954D01*
X192422734Y-68719432D01*
X192422732Y-68719431D01*
X192216497Y-68623261D01*
X192216488Y-68623258D01*
X191996697Y-68564366D01*
X191996693Y-68564365D01*
X191996692Y-68564365D01*
X191996691Y-68564364D01*
X191996686Y-68564364D01*
X191770002Y-68544532D01*
X191769998Y-68544532D01*
X191543313Y-68564364D01*
X191543302Y-68564366D01*
X191323511Y-68623258D01*
X191323502Y-68623261D01*
X191117267Y-68719431D01*
X191117265Y-68719432D01*
X190930858Y-68849954D01*
X190769954Y-69010858D01*
X190639432Y-69197265D01*
X190639431Y-69197267D01*
X190543261Y-69403502D01*
X190543258Y-69403511D01*
X190484366Y-69623302D01*
X190484364Y-69623313D01*
X190464532Y-69849998D01*
X190464532Y-69850000D01*
X188441843Y-69850000D01*
X188440568Y-69847266D01*
X188321128Y-69676686D01*
X188310045Y-69660858D01*
X188149141Y-69499954D01*
X187962734Y-69369432D01*
X187962732Y-69369431D01*
X187756497Y-69273261D01*
X187756488Y-69273258D01*
X187536697Y-69214366D01*
X187536693Y-69214365D01*
X187536692Y-69214365D01*
X187536691Y-69214364D01*
X187536686Y-69214364D01*
X187310002Y-69194532D01*
X187309998Y-69194532D01*
X187083313Y-69214364D01*
X187083302Y-69214366D01*
X186863511Y-69273258D01*
X186863502Y-69273261D01*
X186657267Y-69369431D01*
X186657265Y-69369432D01*
X186470858Y-69499954D01*
X186307632Y-69663181D01*
X186246309Y-69696666D01*
X186219951Y-69699500D01*
X185961155Y-69699500D01*
X185894968Y-69712666D01*
X185894967Y-69712666D01*
X185806510Y-69730261D01*
X185806498Y-69730264D01*
X185660827Y-69790602D01*
X185660815Y-69790609D01*
X185571932Y-69850000D01*
X185571931Y-69850001D01*
X185529708Y-69878212D01*
X185529707Y-69878213D01*
X177407150Y-78000772D01*
X174749711Y-80658211D01*
X174693960Y-80713962D01*
X174638209Y-80769712D01*
X174550609Y-80900814D01*
X174550602Y-80900827D01*
X174490264Y-81046498D01*
X174490261Y-81046510D01*
X174459500Y-81201153D01*
X174459500Y-82498085D01*
X174458720Y-82511969D01*
X174454435Y-82549998D01*
X174454435Y-82550001D01*
X173243413Y-82550001D01*
X173243133Y-82549017D01*
X173263348Y-82482135D01*
X173314725Y-82437618D01*
X173372734Y-82410568D01*
X173559139Y-82280047D01*
X173720047Y-82119139D01*
X173850568Y-81932734D01*
X173946739Y-81726496D01*
X174005635Y-81506692D01*
X174025468Y-81280000D01*
X174005635Y-81053308D01*
X173946739Y-80833504D01*
X173850568Y-80627266D01*
X173720047Y-80440861D01*
X173720045Y-80440858D01*
X173559143Y-80279956D01*
X173534536Y-80262726D01*
X173490912Y-80208149D01*
X173483719Y-80138650D01*
X173515241Y-80076296D01*
X173575471Y-80040882D01*
X173592404Y-80037861D01*
X173627483Y-80034091D01*
X173762331Y-79983796D01*
X173877546Y-79897546D01*
X173963796Y-79782331D01*
X174014091Y-79647483D01*
X174020500Y-79587873D01*
X174020499Y-77892128D01*
X174014091Y-77832517D01*
X174004640Y-77807178D01*
X173963797Y-77697671D01*
X173963793Y-77697664D01*
X173877547Y-77582455D01*
X173877544Y-77582452D01*
X173762335Y-77496206D01*
X173762328Y-77496202D01*
X173627482Y-77445908D01*
X173627483Y-77445908D01*
X173567883Y-77439501D01*
X173567881Y-77439500D01*
X173567873Y-77439500D01*
X173567864Y-77439500D01*
X171872129Y-77439500D01*
X171872123Y-77439501D01*
X171812516Y-77445908D01*
X171677671Y-77496202D01*
X171677664Y-77496206D01*
X171562455Y-77582452D01*
X171562452Y-77582455D01*
X171476206Y-77697664D01*
X171476202Y-77697671D01*
X171425908Y-77832517D01*
X171419501Y-77892116D01*
X171419501Y-77892123D01*
X171419500Y-77892135D01*
X171419500Y-79587870D01*
X171419501Y-79587876D01*
X171425908Y-79647483D01*
X171476202Y-79782328D01*
X171476206Y-79782335D01*
X171562452Y-79897544D01*
X171562455Y-79897547D01*
X171677664Y-79983793D01*
X171677671Y-79983797D01*
X171722618Y-80000561D01*
X171812517Y-80034091D01*
X171847596Y-80037862D01*
X171912144Y-80064599D01*
X171951993Y-80121991D01*
X171954488Y-80191816D01*
X171918836Y-80251905D01*
X171905464Y-80262725D01*
X171880858Y-80279954D01*
X171719954Y-80440858D01*
X171589432Y-80627265D01*
X171589431Y-80627267D01*
X171493261Y-80833502D01*
X171493258Y-80833511D01*
X171434366Y-81053302D01*
X171434364Y-81053313D01*
X171414532Y-81279998D01*
X171414532Y-81280001D01*
X171434364Y-81506686D01*
X171434366Y-81506697D01*
X171493258Y-81726488D01*
X171493261Y-81726497D01*
X171589431Y-81932732D01*
X171589432Y-81932734D01*
X171719954Y-82119141D01*
X171880858Y-82280045D01*
X171927693Y-82312839D01*
X172067266Y-82410568D01*
X172125275Y-82437618D01*
X172177714Y-82483791D01*
X172196866Y-82550984D01*
X172176650Y-82617865D01*
X172125275Y-82662382D01*
X172067267Y-82689431D01*
X172067265Y-82689432D01*
X171880858Y-82819954D01*
X171719954Y-82980858D01*
X171589432Y-83167265D01*
X171589431Y-83167267D01*
X171493261Y-83373502D01*
X171493258Y-83373511D01*
X171434366Y-83593302D01*
X171434364Y-83593313D01*
X171414532Y-83819998D01*
X171414532Y-83820001D01*
X171434364Y-84046686D01*
X171434366Y-84046697D01*
X171493258Y-84266488D01*
X171493261Y-84266497D01*
X171589431Y-84472732D01*
X171589432Y-84472734D01*
X171719954Y-84659141D01*
X171880858Y-84820045D01*
X171880861Y-84820047D01*
X172067266Y-84950568D01*
X172125275Y-84977618D01*
X172177714Y-85023791D01*
X172196866Y-85090984D01*
X172176650Y-85157865D01*
X172125275Y-85202382D01*
X172067267Y-85229431D01*
X172067265Y-85229432D01*
X171880858Y-85359954D01*
X171719954Y-85520858D01*
X171589432Y-85707265D01*
X171589431Y-85707267D01*
X171493261Y-85913502D01*
X171493258Y-85913511D01*
X171434366Y-86133302D01*
X171434364Y-86133313D01*
X171414532Y-86359998D01*
X171414532Y-86360001D01*
X167831744Y-86360001D01*
X167902658Y-86345896D01*
X167902661Y-86345894D01*
X167902666Y-86345894D01*
X168066547Y-86278013D01*
X168214035Y-86179464D01*
X168339464Y-86054035D01*
X168438013Y-85906547D01*
X168505894Y-85742666D01*
X168507717Y-85733504D01*
X168540499Y-85568695D01*
X168540500Y-85568693D01*
X168540500Y-85391306D01*
X168540499Y-85391304D01*
X168505896Y-85217341D01*
X168505893Y-85217332D01*
X168438016Y-85053459D01*
X168438009Y-85053446D01*
X168339464Y-84905965D01*
X168339461Y-84905961D01*
X168214038Y-84780538D01*
X168214034Y-84780535D01*
X168066553Y-84681990D01*
X168066540Y-84681983D01*
X167902667Y-84614106D01*
X167902658Y-84614103D01*
X167728694Y-84579500D01*
X167728691Y-84579500D01*
X157728591Y-84579500D01*
X157551207Y-84579500D01*
X157551202Y-84579500D01*
X157377240Y-84614103D01*
X157377232Y-84614105D01*
X157213354Y-84681985D01*
X157213345Y-84681990D01*
X157065863Y-84780535D01*
X156998476Y-84847922D01*
X156937152Y-84881406D01*
X156867461Y-84876421D01*
X156811527Y-84834550D01*
X156803802Y-84821652D01*
X156803276Y-84821957D01*
X156800567Y-84817265D01*
X156774849Y-84780536D01*
X156670047Y-84630861D01*
X156670045Y-84630858D01*
X156509141Y-84469954D01*
X156322734Y-84339432D01*
X156322728Y-84339429D01*
X156264725Y-84312382D01*
X156212285Y-84266210D01*
X156193133Y-84199017D01*
X156213348Y-84132135D01*
X156264725Y-84087618D01*
X156272932Y-84083791D01*
X156322734Y-84060568D01*
X156509139Y-83930047D01*
X156670047Y-83769139D01*
X156800568Y-83582734D01*
X156896739Y-83376496D01*
X156955635Y-83156692D01*
X156973412Y-82953502D01*
X156975468Y-82930001D01*
X156975468Y-82930000D01*
X156974971Y-82924321D01*
X156966557Y-82828158D01*
X156980323Y-82759662D01*
X157002401Y-82729675D01*
X157632075Y-82100001D01*
X163794532Y-82100001D01*
X163814364Y-82326686D01*
X163814366Y-82326697D01*
X163873258Y-82546488D01*
X163873261Y-82546497D01*
X163969431Y-82752732D01*
X163969432Y-82752734D01*
X164099954Y-82939141D01*
X164260858Y-83100045D01*
X164270344Y-83106687D01*
X164447266Y-83230568D01*
X164653504Y-83326739D01*
X164653509Y-83326740D01*
X164653511Y-83326741D01*
X164685708Y-83335368D01*
X164873308Y-83385635D01*
X165035230Y-83399801D01*
X165099998Y-83405468D01*
X165100000Y-83405468D01*
X165100002Y-83405468D01*
X165162522Y-83399998D01*
X165326692Y-83385635D01*
X165546496Y-83326739D01*
X165752734Y-83230568D01*
X165939139Y-83100047D01*
X166100047Y-82939139D01*
X166230568Y-82752734D01*
X166326739Y-82546496D01*
X166385635Y-82326692D01*
X166405468Y-82100000D01*
X166404668Y-82090861D01*
X166399801Y-82035230D01*
X166385635Y-81873308D01*
X166340071Y-81703261D01*
X166326741Y-81653511D01*
X166326738Y-81653502D01*
X166306911Y-81610984D01*
X166230568Y-81447266D01*
X166113448Y-81280000D01*
X166100045Y-81260858D01*
X165939141Y-81099954D01*
X165752734Y-80969432D01*
X165752732Y-80969431D01*
X165546497Y-80873261D01*
X165546488Y-80873258D01*
X165326697Y-80814366D01*
X165326693Y-80814365D01*
X165326692Y-80814365D01*
X165326691Y-80814364D01*
X165326686Y-80814364D01*
X165100002Y-80794532D01*
X165099998Y-80794532D01*
X164873313Y-80814364D01*
X164873302Y-80814366D01*
X164653511Y-80873258D01*
X164653502Y-80873261D01*
X164447267Y-80969431D01*
X164447265Y-80969432D01*
X164260858Y-81099954D01*
X164099954Y-81260858D01*
X163969432Y-81447265D01*
X163969431Y-81447267D01*
X163873261Y-81653502D01*
X163873258Y-81653511D01*
X163814366Y-81873302D01*
X163814364Y-81873313D01*
X163794532Y-82099998D01*
X163794532Y-82100001D01*
X157632075Y-82100001D01*
X159721789Y-80010289D01*
X159809394Y-79879179D01*
X159869738Y-79733497D01*
X159900500Y-79578842D01*
X159900500Y-79501914D01*
X159901280Y-79488029D01*
X159905565Y-79450001D01*
X159905565Y-79449998D01*
X159901280Y-79411969D01*
X159900500Y-79398085D01*
X159900500Y-79371157D01*
X159892711Y-79332003D01*
X159891110Y-79321714D01*
X159885368Y-79270745D01*
X159877023Y-79246898D01*
X159872449Y-79230139D01*
X159869737Y-79216503D01*
X159849484Y-79167607D01*
X159847028Y-79161175D01*
X159825789Y-79100478D01*
X159819289Y-79090134D01*
X159809719Y-79071606D01*
X159809394Y-79070821D01*
X159772790Y-79016040D01*
X159770905Y-79013131D01*
X159729816Y-78947738D01*
X159602262Y-78820184D01*
X159602260Y-78820182D01*
X159602257Y-78820180D01*
X159536900Y-78779114D01*
X159533982Y-78777223D01*
X159479179Y-78740605D01*
X159479173Y-78740603D01*
X159478365Y-78740268D01*
X159459865Y-78730709D01*
X159449524Y-78724212D01*
X159449523Y-78724211D01*
X159449522Y-78724211D01*
X159388867Y-78702986D01*
X159382377Y-78700509D01*
X159333496Y-78680262D01*
X159319860Y-78677550D01*
X159303104Y-78672976D01*
X159279260Y-78664633D01*
X159279256Y-78664632D01*
X159279255Y-78664632D01*
X159258575Y-78662301D01*
X159228303Y-78658890D01*
X159218003Y-78657288D01*
X159178844Y-78649500D01*
X159178842Y-78649500D01*
X159176252Y-78649500D01*
X159174944Y-78649116D01*
X159172780Y-78648903D01*
X159172820Y-78648492D01*
X159109213Y-78629815D01*
X159063458Y-78577011D01*
X159052252Y-78525500D01*
X159052252Y-78067811D01*
X159071937Y-78000772D01*
X159124741Y-77955017D01*
X159193899Y-77945073D01*
X159208342Y-77948035D01*
X159423308Y-78005635D01*
X159585230Y-78019801D01*
X159649998Y-78025468D01*
X159650000Y-78025468D01*
X159650002Y-78025468D01*
X159706673Y-78020509D01*
X159876692Y-78005635D01*
X160096496Y-77946739D01*
X160302734Y-77850568D01*
X160489139Y-77720047D01*
X160650047Y-77559139D01*
X160780568Y-77372734D01*
X160876739Y-77166496D01*
X160894556Y-77100001D01*
X163794532Y-77100001D01*
X163814364Y-77326686D01*
X163814366Y-77326697D01*
X163873258Y-77546488D01*
X163873261Y-77546497D01*
X163969431Y-77752732D01*
X163969432Y-77752734D01*
X164099954Y-77939141D01*
X164260858Y-78100045D01*
X164260861Y-78100047D01*
X164447266Y-78230568D01*
X164653504Y-78326739D01*
X164873308Y-78385635D01*
X165035230Y-78399801D01*
X165099998Y-78405468D01*
X165100000Y-78405468D01*
X165100002Y-78405468D01*
X165156673Y-78400509D01*
X165326692Y-78385635D01*
X165546496Y-78326739D01*
X165752734Y-78230568D01*
X165939139Y-78100047D01*
X166100047Y-77939139D01*
X166230568Y-77752734D01*
X166326739Y-77546496D01*
X166385635Y-77326692D01*
X166405468Y-77100000D01*
X166404290Y-77086540D01*
X166393295Y-76960861D01*
X166385635Y-76873308D01*
X166340916Y-76706415D01*
X166326741Y-76653511D01*
X166326738Y-76653502D01*
X166261857Y-76514365D01*
X166230568Y-76447266D01*
X166100047Y-76260861D01*
X166100045Y-76260858D01*
X165939141Y-76099954D01*
X165752734Y-75969432D01*
X165752732Y-75969431D01*
X165546497Y-75873261D01*
X165546488Y-75873258D01*
X165326697Y-75814366D01*
X165326693Y-75814365D01*
X165326692Y-75814365D01*
X165326691Y-75814364D01*
X165326686Y-75814364D01*
X165100002Y-75794532D01*
X165099998Y-75794532D01*
X164873313Y-75814364D01*
X164873302Y-75814366D01*
X164653511Y-75873258D01*
X164653502Y-75873261D01*
X164447267Y-75969431D01*
X164447265Y-75969432D01*
X164260858Y-76099954D01*
X164099954Y-76260858D01*
X163969432Y-76447265D01*
X163969431Y-76447267D01*
X163873261Y-76653502D01*
X163873258Y-76653511D01*
X163814366Y-76873302D01*
X163814364Y-76873313D01*
X163794532Y-77099998D01*
X163794532Y-77100001D01*
X160894556Y-77100001D01*
X160935635Y-76946692D01*
X160955468Y-76720000D01*
X160954059Y-76703900D01*
X160941138Y-76556206D01*
X160935635Y-76493308D01*
X160876739Y-76273504D01*
X160780568Y-76067266D01*
X160650047Y-75880861D01*
X160650045Y-75880858D01*
X160489141Y-75719954D01*
X160302734Y-75589432D01*
X160302732Y-75589431D01*
X160096497Y-75493261D01*
X160096488Y-75493258D01*
X159876697Y-75434366D01*
X159876693Y-75434365D01*
X159876692Y-75434365D01*
X159876691Y-75434364D01*
X159876686Y-75434364D01*
X159650002Y-75414532D01*
X159649998Y-75414532D01*
X159423313Y-75434364D01*
X159423302Y-75434366D01*
X159203511Y-75493258D01*
X159203502Y-75493261D01*
X158997267Y-75589431D01*
X158997265Y-75589432D01*
X158810858Y-75719954D01*
X158649954Y-75880858D01*
X158519432Y-76067265D01*
X158519431Y-76067267D01*
X158423261Y-76273502D01*
X158423258Y-76273511D01*
X158364366Y-76493302D01*
X158364364Y-76493312D01*
X158355557Y-76593975D01*
X158330104Y-76659044D01*
X158273513Y-76700022D01*
X158203751Y-76703900D01*
X158144348Y-76670848D01*
X157224035Y-75750535D01*
X157224030Y-75750531D01*
X157164961Y-75711064D01*
X157164960Y-75711063D01*
X157076544Y-75651985D01*
X157076542Y-75651984D01*
X156994607Y-75618046D01*
X156994606Y-75618046D01*
X156912666Y-75584105D01*
X156912658Y-75584103D01*
X156738696Y-75549500D01*
X156738692Y-75549500D01*
X156738691Y-75549500D01*
X146738692Y-75549500D01*
X146561308Y-75549500D01*
X146561303Y-75549500D01*
X146387341Y-75584103D01*
X146387329Y-75584106D01*
X146305392Y-75618045D01*
X146305393Y-75618046D01*
X146223455Y-75651985D01*
X146135040Y-75711063D01*
X146135039Y-75711064D01*
X146075961Y-75750537D01*
X144911113Y-76915385D01*
X144849790Y-76948870D01*
X144780098Y-76943886D01*
X144724165Y-76902014D01*
X144699748Y-76836550D01*
X144714600Y-76768277D01*
X144721841Y-76756604D01*
X144780568Y-76672734D01*
X144876739Y-76466496D01*
X144935635Y-76246692D01*
X144955468Y-76020000D01*
X144935635Y-75793308D01*
X144876739Y-75573504D01*
X144780568Y-75367266D01*
X144650047Y-75180861D01*
X144650045Y-75180858D01*
X144489141Y-75019954D01*
X144302734Y-74889432D01*
X144302732Y-74889431D01*
X144096497Y-74793261D01*
X144096488Y-74793258D01*
X143876697Y-74734366D01*
X143876693Y-74734365D01*
X143876692Y-74734365D01*
X143876691Y-74734364D01*
X143876686Y-74734364D01*
X143650002Y-74714532D01*
X143649998Y-74714532D01*
X143423313Y-74734364D01*
X143423302Y-74734366D01*
X143203511Y-74793258D01*
X143203502Y-74793261D01*
X142997267Y-74889431D01*
X142997265Y-74889432D01*
X142810858Y-75019954D01*
X142649954Y-75180858D01*
X142519432Y-75367265D01*
X142519431Y-75367267D01*
X142423261Y-75573502D01*
X142423258Y-75573511D01*
X142364366Y-75793302D01*
X142364364Y-75793313D01*
X142344532Y-76019998D01*
X142344532Y-76020001D01*
X142364364Y-76246686D01*
X142364366Y-76246697D01*
X142423258Y-76466488D01*
X142423261Y-76466497D01*
X142519431Y-76672732D01*
X142519432Y-76672734D01*
X142649954Y-76859141D01*
X142810858Y-77020045D01*
X142857693Y-77052839D01*
X142997266Y-77150568D01*
X143203504Y-77246739D01*
X143423308Y-77305635D01*
X143585230Y-77319801D01*
X143649998Y-77325468D01*
X143650000Y-77325468D01*
X143650002Y-77325468D01*
X143706673Y-77320509D01*
X143876692Y-77305635D01*
X144096496Y-77246739D01*
X144302734Y-77150568D01*
X144386585Y-77091855D01*
X144452786Y-77069530D01*
X144520554Y-77086540D01*
X144568367Y-77137488D01*
X144581045Y-77206198D01*
X144554564Y-77270854D01*
X144545385Y-77281113D01*
X142463319Y-79363181D01*
X142401996Y-79396666D01*
X142375638Y-79399500D01*
X137911306Y-79399500D01*
X137737341Y-79434103D01*
X137737332Y-79434106D01*
X137573459Y-79501983D01*
X137573446Y-79501990D01*
X137425965Y-79600535D01*
X137425961Y-79600538D01*
X137300538Y-79725961D01*
X137300535Y-79725965D01*
X137201990Y-79873446D01*
X137201983Y-79873459D01*
X137134106Y-80037332D01*
X137134103Y-80037341D01*
X137099500Y-80211304D01*
X137099500Y-80388695D01*
X133921208Y-80388695D01*
X133925468Y-80340000D01*
X133905635Y-80113308D01*
X133846739Y-79893504D01*
X133750568Y-79687266D01*
X133620838Y-79501990D01*
X133620045Y-79500858D01*
X133459141Y-79339954D01*
X133272734Y-79209432D01*
X133272728Y-79209429D01*
X133245038Y-79196517D01*
X133214724Y-79182381D01*
X133162285Y-79136210D01*
X133143133Y-79069017D01*
X133163348Y-79002135D01*
X133214725Y-78957618D01*
X133272734Y-78930568D01*
X133459139Y-78800047D01*
X133620047Y-78639139D01*
X133750568Y-78452734D01*
X133846739Y-78246496D01*
X133905635Y-78026692D01*
X133925468Y-77800000D01*
X133920802Y-77746673D01*
X133916515Y-77697664D01*
X133905635Y-77573308D01*
X133846739Y-77353504D01*
X133826453Y-77310001D01*
X138544532Y-77310001D01*
X138564364Y-77536686D01*
X138564366Y-77536697D01*
X138623258Y-77756488D01*
X138623261Y-77756497D01*
X138719431Y-77962732D01*
X138719432Y-77962734D01*
X138849954Y-78149141D01*
X139010858Y-78310045D01*
X139010861Y-78310047D01*
X139197266Y-78440568D01*
X139403504Y-78536739D01*
X139623308Y-78595635D01*
X139785230Y-78609801D01*
X139849998Y-78615468D01*
X139850000Y-78615468D01*
X139850002Y-78615468D01*
X139906673Y-78610509D01*
X140076692Y-78595635D01*
X140296496Y-78536739D01*
X140502734Y-78440568D01*
X140689139Y-78310047D01*
X140850047Y-78149139D01*
X140980568Y-77962734D01*
X141076739Y-77756496D01*
X141135635Y-77536692D01*
X141155468Y-77310000D01*
X141135635Y-77083308D01*
X141076739Y-76863504D01*
X140980568Y-76657266D01*
X140870100Y-76499500D01*
X140850045Y-76470858D01*
X140689141Y-76309954D01*
X140502734Y-76179432D01*
X140502732Y-76179431D01*
X140296497Y-76083261D01*
X140296488Y-76083258D01*
X140076697Y-76024366D01*
X140076693Y-76024365D01*
X140076692Y-76024365D01*
X140076691Y-76024364D01*
X140076686Y-76024364D01*
X139850002Y-76004532D01*
X139849998Y-76004532D01*
X139623313Y-76024364D01*
X139623302Y-76024366D01*
X139403511Y-76083258D01*
X139403502Y-76083261D01*
X139197267Y-76179431D01*
X139197265Y-76179432D01*
X139010858Y-76309954D01*
X138849954Y-76470858D01*
X138719432Y-76657265D01*
X138719431Y-76657267D01*
X138623261Y-76863502D01*
X138623258Y-76863511D01*
X138564366Y-77083302D01*
X138564364Y-77083313D01*
X138544532Y-77309998D01*
X138544532Y-77310001D01*
X133826453Y-77310001D01*
X133750568Y-77147266D01*
X133620047Y-76960861D01*
X133620045Y-76960858D01*
X133459141Y-76799954D01*
X133272734Y-76669432D01*
X133272732Y-76669431D01*
X133066497Y-76573261D01*
X133066488Y-76573258D01*
X132846697Y-76514366D01*
X132846693Y-76514365D01*
X132846692Y-76514365D01*
X132846691Y-76514364D01*
X132846686Y-76514364D01*
X132620002Y-76494532D01*
X132619998Y-76494532D01*
X132393313Y-76514364D01*
X132393302Y-76514366D01*
X132173511Y-76573258D01*
X132173502Y-76573261D01*
X131967267Y-76669431D01*
X131967265Y-76669432D01*
X131780858Y-76799954D01*
X131619954Y-76960858D01*
X131489432Y-77147265D01*
X131489431Y-77147267D01*
X131393261Y-77353502D01*
X131393258Y-77353511D01*
X131334366Y-77573302D01*
X131334364Y-77573313D01*
X131314532Y-77799998D01*
X131314532Y-77800001D01*
X131334364Y-78026686D01*
X131334366Y-78026697D01*
X131393258Y-78246488D01*
X131393261Y-78246497D01*
X131489431Y-78452732D01*
X131489432Y-78452734D01*
X131619954Y-78639141D01*
X131780858Y-78800045D01*
X131780861Y-78800047D01*
X131967266Y-78930568D01*
X132025275Y-78957618D01*
X132077714Y-79003791D01*
X132096866Y-79070984D01*
X132076650Y-79137865D01*
X132025275Y-79182381D01*
X132016881Y-79186296D01*
X131967267Y-79209431D01*
X131967265Y-79209432D01*
X131780858Y-79339954D01*
X131619954Y-79500858D01*
X131489432Y-79687265D01*
X131489431Y-79687267D01*
X131393261Y-79893502D01*
X131393258Y-79893511D01*
X131334366Y-80113302D01*
X131334364Y-80113313D01*
X131314532Y-80339998D01*
X131314532Y-80340001D01*
X131334364Y-80566686D01*
X131334366Y-80566697D01*
X131393258Y-80786488D01*
X131393261Y-80786497D01*
X131489431Y-80992732D01*
X131489432Y-80992734D01*
X131619954Y-81179141D01*
X131780858Y-81340045D01*
X131780861Y-81340047D01*
X131967266Y-81470568D01*
X132025275Y-81497618D01*
X132077714Y-81543791D01*
X132096866Y-81610984D01*
X132076650Y-81677865D01*
X132025275Y-81722381D01*
X132016469Y-81726488D01*
X131967267Y-81749431D01*
X131967265Y-81749432D01*
X131780858Y-81879954D01*
X131619954Y-82040858D01*
X131489432Y-82227265D01*
X131489431Y-82227267D01*
X131393261Y-82433502D01*
X131393258Y-82433511D01*
X131334366Y-82653302D01*
X131334364Y-82653313D01*
X131314532Y-82879998D01*
X131314532Y-82880001D01*
X131334364Y-83106686D01*
X131334366Y-83106697D01*
X131393258Y-83326488D01*
X131393261Y-83326497D01*
X131489431Y-83532732D01*
X131489432Y-83532734D01*
X131619954Y-83719141D01*
X131780858Y-83880045D01*
X131780861Y-83880047D01*
X131967266Y-84010568D01*
X132025275Y-84037618D01*
X132077714Y-84083791D01*
X132096866Y-84150984D01*
X132076650Y-84217865D01*
X132025275Y-84262381D01*
X132016469Y-84266488D01*
X131967267Y-84289431D01*
X131967265Y-84289432D01*
X131780858Y-84419954D01*
X131619954Y-84580858D01*
X131489432Y-84767265D01*
X131489431Y-84767267D01*
X131393261Y-84973502D01*
X131393258Y-84973511D01*
X131334366Y-85193302D01*
X131334364Y-85193313D01*
X131314532Y-85419998D01*
X131314532Y-85420001D01*
X128812077Y-85420001D01*
X129121789Y-85110289D01*
X129209394Y-84979179D01*
X129211746Y-84973502D01*
X129244525Y-84894364D01*
X129269737Y-84833497D01*
X129300500Y-84678842D01*
X129300500Y-84521158D01*
X129300500Y-80521158D01*
X129300500Y-73882939D01*
X129320185Y-73815900D01*
X129336814Y-73795263D01*
X131482075Y-71650001D01*
X143894532Y-71650001D01*
X143914364Y-71876686D01*
X143914366Y-71876697D01*
X143973258Y-72096488D01*
X143973261Y-72096497D01*
X144069431Y-72302732D01*
X144069432Y-72302734D01*
X144199954Y-72489141D01*
X144360858Y-72650045D01*
X144360861Y-72650047D01*
X144547266Y-72780568D01*
X144753504Y-72876739D01*
X144753509Y-72876740D01*
X144753511Y-72876741D01*
X144759001Y-72878212D01*
X144973308Y-72935635D01*
X145135230Y-72949801D01*
X145199998Y-72955468D01*
X145200000Y-72955468D01*
X145200002Y-72955468D01*
X145256673Y-72950509D01*
X145426692Y-72935635D01*
X145646496Y-72876739D01*
X145852734Y-72780568D01*
X146039139Y-72650047D01*
X146200047Y-72489139D01*
X146330568Y-72302734D01*
X146426739Y-72096496D01*
X146485635Y-71876692D01*
X146505468Y-71650000D01*
X146485635Y-71423308D01*
X146426739Y-71203504D01*
X146330568Y-70997266D01*
X146200047Y-70810861D01*
X146200045Y-70810858D01*
X146039141Y-70649954D01*
X145852734Y-70519432D01*
X145852732Y-70519431D01*
X145646497Y-70423261D01*
X145646488Y-70423258D01*
X145559690Y-70400001D01*
X160344532Y-70400001D01*
X160364364Y-70626686D01*
X160364366Y-70626697D01*
X160423258Y-70846488D01*
X160423261Y-70846497D01*
X160519431Y-71052732D01*
X160519432Y-71052734D01*
X160649954Y-71239141D01*
X160810858Y-71400045D01*
X160810861Y-71400047D01*
X160997266Y-71530568D01*
X161203504Y-71626739D01*
X161423308Y-71685635D01*
X161585230Y-71699801D01*
X161649998Y-71705468D01*
X161650000Y-71705468D01*
X161650002Y-71705468D01*
X161706673Y-71700509D01*
X161876692Y-71685635D01*
X162096496Y-71626739D01*
X162302734Y-71530568D01*
X162489139Y-71400047D01*
X162650047Y-71239139D01*
X162780568Y-71052734D01*
X162876739Y-70846496D01*
X162935635Y-70626692D01*
X162955468Y-70400001D01*
X170504532Y-70400001D01*
X170524364Y-70626686D01*
X170524366Y-70626697D01*
X170583258Y-70846488D01*
X170583261Y-70846497D01*
X170679431Y-71052732D01*
X170679432Y-71052734D01*
X170809954Y-71239141D01*
X170970858Y-71400045D01*
X170970861Y-71400047D01*
X171157266Y-71530568D01*
X171363504Y-71626739D01*
X171583308Y-71685635D01*
X171745230Y-71699801D01*
X171809998Y-71705468D01*
X171810000Y-71705468D01*
X171810002Y-71705468D01*
X171866673Y-71700509D01*
X172036692Y-71685635D01*
X172256496Y-71626739D01*
X172462734Y-71530568D01*
X172649139Y-71400047D01*
X172810047Y-71239139D01*
X172940568Y-71052734D01*
X173036739Y-70846496D01*
X173095635Y-70626692D01*
X173106719Y-70500001D01*
X175844532Y-70500001D01*
X175864364Y-70726686D01*
X175864366Y-70726697D01*
X175923258Y-70946488D01*
X175923261Y-70946497D01*
X176019431Y-71152732D01*
X176019432Y-71152734D01*
X176149954Y-71339141D01*
X176310858Y-71500045D01*
X176310861Y-71500047D01*
X176497266Y-71630568D01*
X176703504Y-71726739D01*
X176923308Y-71785635D01*
X177085230Y-71799801D01*
X177149998Y-71805468D01*
X177150000Y-71805468D01*
X177150002Y-71805468D01*
X177206673Y-71800509D01*
X177376692Y-71785635D01*
X177596496Y-71726739D01*
X177802734Y-71630568D01*
X177989139Y-71500047D01*
X178150047Y-71339139D01*
X178280568Y-71152734D01*
X178376739Y-70946496D01*
X178435635Y-70726692D01*
X178455468Y-70500000D01*
X178451097Y-70450045D01*
X178446719Y-70399998D01*
X178435635Y-70273308D01*
X178376739Y-70053504D01*
X178280568Y-69847266D01*
X178161128Y-69676686D01*
X178150045Y-69660858D01*
X177989141Y-69499954D01*
X177802734Y-69369432D01*
X177802732Y-69369431D01*
X177596497Y-69273261D01*
X177596488Y-69273258D01*
X177376697Y-69214366D01*
X177376693Y-69214365D01*
X177376692Y-69214365D01*
X177376691Y-69214364D01*
X177376686Y-69214364D01*
X177150002Y-69194532D01*
X177149998Y-69194532D01*
X176923313Y-69214364D01*
X176923302Y-69214366D01*
X176703511Y-69273258D01*
X176703502Y-69273261D01*
X176497267Y-69369431D01*
X176497265Y-69369432D01*
X176310858Y-69499954D01*
X176149954Y-69660858D01*
X176019432Y-69847265D01*
X176019431Y-69847267D01*
X175923261Y-70053502D01*
X175923258Y-70053511D01*
X175864366Y-70273302D01*
X175864364Y-70273313D01*
X175844532Y-70499998D01*
X175844532Y-70500001D01*
X173106719Y-70500001D01*
X173115468Y-70400000D01*
X173112350Y-70364366D01*
X173106413Y-70296497D01*
X173095635Y-70173308D01*
X173036739Y-69953504D01*
X172940568Y-69747266D01*
X172810047Y-69560861D01*
X172810045Y-69560858D01*
X172649141Y-69399954D01*
X172462734Y-69269432D01*
X172462732Y-69269431D01*
X172256497Y-69173261D01*
X172256488Y-69173258D01*
X172036697Y-69114366D01*
X172036693Y-69114365D01*
X172036692Y-69114365D01*
X172036691Y-69114364D01*
X172036686Y-69114364D01*
X171810002Y-69094532D01*
X171809998Y-69094532D01*
X171583313Y-69114364D01*
X171583302Y-69114366D01*
X171363511Y-69173258D01*
X171363502Y-69173261D01*
X171157267Y-69269431D01*
X171157265Y-69269432D01*
X170970858Y-69399954D01*
X170809954Y-69560858D01*
X170679432Y-69747265D01*
X170679431Y-69747267D01*
X170583261Y-69953502D01*
X170583258Y-69953511D01*
X170524366Y-70173302D01*
X170524364Y-70173313D01*
X170504532Y-70399998D01*
X170504532Y-70400001D01*
X162955468Y-70400001D01*
X162955468Y-70400000D01*
X162952350Y-70364366D01*
X162946413Y-70296497D01*
X162935635Y-70173308D01*
X162876739Y-69953504D01*
X162780568Y-69747266D01*
X162650047Y-69560861D01*
X162650045Y-69560858D01*
X162489141Y-69399954D01*
X162302734Y-69269432D01*
X162302732Y-69269431D01*
X162096497Y-69173261D01*
X162096488Y-69173258D01*
X161876697Y-69114366D01*
X161876693Y-69114365D01*
X161876692Y-69114365D01*
X161876691Y-69114364D01*
X161876686Y-69114364D01*
X161650002Y-69094532D01*
X161649998Y-69094532D01*
X161423313Y-69114364D01*
X161423302Y-69114366D01*
X161203511Y-69173258D01*
X161203502Y-69173261D01*
X160997267Y-69269431D01*
X160997265Y-69269432D01*
X160810858Y-69399954D01*
X160649954Y-69560858D01*
X160519432Y-69747265D01*
X160519431Y-69747267D01*
X160423261Y-69953502D01*
X160423258Y-69953511D01*
X160364366Y-70173302D01*
X160364364Y-70173313D01*
X160344532Y-70399998D01*
X160344532Y-70400001D01*
X145559690Y-70400001D01*
X145426697Y-70364366D01*
X145426693Y-70364365D01*
X145426692Y-70364365D01*
X145426691Y-70364364D01*
X145426686Y-70364364D01*
X145200002Y-70344532D01*
X145199998Y-70344532D01*
X144973313Y-70364364D01*
X144973302Y-70364366D01*
X144753511Y-70423258D01*
X144753502Y-70423261D01*
X144547267Y-70519431D01*
X144547265Y-70519432D01*
X144360858Y-70649954D01*
X144199954Y-70810858D01*
X144069432Y-70997265D01*
X144069431Y-70997267D01*
X143973261Y-71203502D01*
X143973258Y-71203511D01*
X143914366Y-71423302D01*
X143914364Y-71423313D01*
X143894532Y-71649998D01*
X143894532Y-71650001D01*
X131482075Y-71650001D01*
X132349674Y-70782402D01*
X132410995Y-70748919D01*
X132448156Y-70746557D01*
X132550000Y-70755468D01*
X132550000Y-70755467D01*
X132550001Y-70755468D01*
X132550002Y-70755468D01*
X132624855Y-70748919D01*
X132776692Y-70735635D01*
X132996496Y-70676739D01*
X133202734Y-70580568D01*
X133389139Y-70450047D01*
X133550047Y-70289139D01*
X133680568Y-70102734D01*
X133776739Y-69896496D01*
X133835635Y-69676692D01*
X133855468Y-69450000D01*
X133835635Y-69223308D01*
X133778710Y-69010861D01*
X133776741Y-69003511D01*
X133776738Y-69003502D01*
X133705137Y-68849954D01*
X133680568Y-68797266D01*
X133582839Y-68657693D01*
X133550045Y-68610858D01*
X133389141Y-68449954D01*
X133202734Y-68319432D01*
X133202732Y-68319431D01*
X132996497Y-68223261D01*
X132996488Y-68223258D01*
X132776697Y-68164366D01*
X132776693Y-68164365D01*
X132776692Y-68164365D01*
X132776691Y-68164364D01*
X132776686Y-68164364D01*
X132550002Y-68144532D01*
X132549998Y-68144532D01*
X132323313Y-68164364D01*
X132323302Y-68164366D01*
X132103511Y-68223258D01*
X132103502Y-68223261D01*
X131897267Y-68319431D01*
X131897265Y-68319432D01*
X131710858Y-68449954D01*
X131549954Y-68610858D01*
X131419432Y-68797265D01*
X131419431Y-68797267D01*
X131323261Y-69003502D01*
X131323258Y-69003511D01*
X131264366Y-69223302D01*
X131264364Y-69223313D01*
X131244532Y-69449998D01*
X131244532Y-69450002D01*
X131253441Y-69551838D01*
X131239674Y-69620338D01*
X131217594Y-69650326D01*
X128771434Y-72096488D01*
X127989711Y-72878211D01*
X127933960Y-72933962D01*
X127878209Y-72989712D01*
X127790609Y-73120814D01*
X127790602Y-73120827D01*
X127730264Y-73266498D01*
X127730261Y-73266510D01*
X127699500Y-73421153D01*
X127699500Y-84217059D01*
X127679815Y-84284098D01*
X127663181Y-84304740D01*
X126513006Y-85454914D01*
X126451683Y-85488399D01*
X126381991Y-85483415D01*
X126326058Y-85441543D01*
X126301797Y-85378040D01*
X126288795Y-85229429D01*
X126285635Y-85193308D01*
X126226739Y-84973504D01*
X126130568Y-84767266D01*
X126023325Y-84614106D01*
X126000045Y-84580858D01*
X125839141Y-84419954D01*
X125652734Y-84289432D01*
X125652728Y-84289429D01*
X125607678Y-84268422D01*
X125594724Y-84262381D01*
X125542285Y-84216210D01*
X125523133Y-84149017D01*
X125543348Y-84082135D01*
X125594725Y-84037618D01*
X125652734Y-84010568D01*
X125839139Y-83880047D01*
X126000047Y-83719139D01*
X126130568Y-83532734D01*
X126226739Y-83326496D01*
X126285635Y-83106692D01*
X126303760Y-82899521D01*
X126305468Y-82880001D01*
X126305468Y-82879998D01*
X126295832Y-82769860D01*
X126285635Y-82653308D01*
X126226739Y-82433504D01*
X126130568Y-82227266D01*
X126000047Y-82040861D01*
X126000045Y-82040858D01*
X125839141Y-81879954D01*
X125652734Y-81749432D01*
X125652728Y-81749429D01*
X125625038Y-81736517D01*
X125594724Y-81722381D01*
X125542285Y-81676210D01*
X125523133Y-81609017D01*
X125543348Y-81542135D01*
X125594725Y-81497618D01*
X125652734Y-81470568D01*
X125839139Y-81340047D01*
X126000047Y-81179139D01*
X126130568Y-80992734D01*
X126226739Y-80786496D01*
X126285635Y-80566692D01*
X126305468Y-80340000D01*
X126285635Y-80113308D01*
X126226739Y-79893504D01*
X126130568Y-79687266D01*
X126000838Y-79501990D01*
X126000045Y-79500858D01*
X125839143Y-79339956D01*
X125814536Y-79322726D01*
X125770912Y-79268149D01*
X125763719Y-79198650D01*
X125795241Y-79136296D01*
X125855471Y-79100882D01*
X125872404Y-79097861D01*
X125907483Y-79094091D01*
X126042331Y-79043796D01*
X126157546Y-78957546D01*
X126243796Y-78842331D01*
X126294091Y-78707483D01*
X126300500Y-78647873D01*
X126300499Y-76952128D01*
X126294091Y-76892517D01*
X126291478Y-76885512D01*
X126243797Y-76757671D01*
X126243793Y-76757664D01*
X126157547Y-76642455D01*
X126157544Y-76642452D01*
X126042335Y-76556206D01*
X126042328Y-76556202D01*
X125907482Y-76505908D01*
X125907483Y-76505908D01*
X125847883Y-76499501D01*
X125847881Y-76499500D01*
X125847873Y-76499500D01*
X125847864Y-76499500D01*
X124152129Y-76499500D01*
X124152123Y-76499501D01*
X124092516Y-76505908D01*
X123957671Y-76556202D01*
X123957664Y-76556206D01*
X123842455Y-76642452D01*
X123842452Y-76642455D01*
X123834912Y-76652527D01*
X123778976Y-76694395D01*
X123709284Y-76699375D01*
X123647969Y-76665891D01*
X121432404Y-74450326D01*
X121398919Y-74389003D01*
X121396557Y-74351842D01*
X121405468Y-74250000D01*
X121385635Y-74023308D01*
X121334261Y-73831578D01*
X121326741Y-73803511D01*
X121326738Y-73803502D01*
X121230568Y-73597267D01*
X121230567Y-73597265D01*
X121100045Y-73410858D01*
X120939141Y-73249954D01*
X120752734Y-73119432D01*
X120752732Y-73119431D01*
X120546497Y-73023261D01*
X120546488Y-73023258D01*
X120326697Y-72964366D01*
X120326693Y-72964365D01*
X120326692Y-72964365D01*
X120326691Y-72964364D01*
X120326686Y-72964364D01*
X120100002Y-72944532D01*
X120099998Y-72944532D01*
X119873313Y-72964364D01*
X119873302Y-72964366D01*
X119653511Y-73023258D01*
X119653502Y-73023261D01*
X119447267Y-73119431D01*
X119447265Y-73119432D01*
X119260858Y-73249954D01*
X119099954Y-73410858D01*
X118969432Y-73597265D01*
X118969431Y-73597267D01*
X118873261Y-73803502D01*
X118873258Y-73803511D01*
X118814366Y-74023302D01*
X118814364Y-74023313D01*
X118794532Y-74249998D01*
X118794532Y-74250001D01*
X116760500Y-74250001D01*
X116760500Y-69450001D01*
X121084532Y-69450001D01*
X121104364Y-69676686D01*
X121104366Y-69676697D01*
X121163258Y-69896488D01*
X121163261Y-69896497D01*
X121259431Y-70102732D01*
X121259432Y-70102734D01*
X121389954Y-70289141D01*
X121550858Y-70450045D01*
X121550861Y-70450047D01*
X121737266Y-70580568D01*
X121943504Y-70676739D01*
X122163308Y-70735635D01*
X122315145Y-70748919D01*
X122389998Y-70755468D01*
X122390000Y-70755468D01*
X122390002Y-70755468D01*
X122464855Y-70748919D01*
X122616692Y-70735635D01*
X122836496Y-70676739D01*
X123042734Y-70580568D01*
X123229139Y-70450047D01*
X123390047Y-70289139D01*
X123520568Y-70102734D01*
X123616739Y-69896496D01*
X123675635Y-69676692D01*
X123695468Y-69450000D01*
X123675635Y-69223308D01*
X123618710Y-69010861D01*
X123616741Y-69003511D01*
X123616738Y-69003502D01*
X123545137Y-68849954D01*
X123520568Y-68797266D01*
X123422839Y-68657693D01*
X123390045Y-68610858D01*
X123229141Y-68449954D01*
X123042734Y-68319432D01*
X123042732Y-68319431D01*
X122836497Y-68223261D01*
X122836488Y-68223258D01*
X122616697Y-68164366D01*
X122616693Y-68164365D01*
X122616692Y-68164365D01*
X122616691Y-68164364D01*
X122616686Y-68164364D01*
X122390002Y-68144532D01*
X122389998Y-68144532D01*
X122163313Y-68164364D01*
X122163302Y-68164366D01*
X121943511Y-68223258D01*
X121943502Y-68223261D01*
X121737267Y-68319431D01*
X121737265Y-68319432D01*
X121550858Y-68449954D01*
X121389954Y-68610858D01*
X121259432Y-68797265D01*
X121259431Y-68797267D01*
X121163261Y-69003502D01*
X121163258Y-69003511D01*
X121104366Y-69223302D01*
X121104364Y-69223313D01*
X121084532Y-69449998D01*
X121084532Y-69450001D01*
X116760500Y-69450001D01*
X116760500Y-67150001D01*
X138544532Y-67150001D01*
X138564364Y-67376686D01*
X138564366Y-67376697D01*
X138623258Y-67596488D01*
X138623261Y-67596497D01*
X138719431Y-67802732D01*
X138719432Y-67802734D01*
X138849954Y-67989141D01*
X139010858Y-68150045D01*
X139010861Y-68150047D01*
X139197266Y-68280568D01*
X139403504Y-68376739D01*
X139623308Y-68435635D01*
X139785230Y-68449801D01*
X139849998Y-68455468D01*
X139850000Y-68455468D01*
X139850002Y-68455468D01*
X139913025Y-68449954D01*
X140076692Y-68435635D01*
X140296496Y-68376739D01*
X140502734Y-68280568D01*
X140689139Y-68150047D01*
X140850047Y-67989139D01*
X140980568Y-67802734D01*
X141076739Y-67596496D01*
X141135635Y-67376692D01*
X141155468Y-67150000D01*
X141135635Y-66923308D01*
X141076739Y-66703504D01*
X140980568Y-66497266D01*
X140850047Y-66310861D01*
X140850045Y-66310858D01*
X140689141Y-66149954D01*
X140502734Y-66019432D01*
X140502732Y-66019431D01*
X140296497Y-65923261D01*
X140296488Y-65923258D01*
X140076697Y-65864366D01*
X140076693Y-65864365D01*
X140076692Y-65864365D01*
X140076691Y-65864364D01*
X140076686Y-65864364D01*
X139850002Y-65844532D01*
X139849998Y-65844532D01*
X139623313Y-65864364D01*
X139623302Y-65864366D01*
X139403511Y-65923258D01*
X139403502Y-65923261D01*
X139197267Y-66019431D01*
X139197265Y-66019432D01*
X139010858Y-66149954D01*
X138849954Y-66310858D01*
X138719432Y-66497265D01*
X138719431Y-66497267D01*
X138623261Y-66703502D01*
X138623258Y-66703511D01*
X138564366Y-66923302D01*
X138564364Y-66923313D01*
X138544532Y-67149998D01*
X138544532Y-67150001D01*
X116760500Y-67150001D01*
X116760500Y-65584500D01*
X116780185Y-65517461D01*
X116832989Y-65471706D01*
X116884500Y-65460500D01*
X205805500Y-65460500D01*
X205872539Y-65480185D01*
G37*
%TD.AperFunction*%
%TD*%
M02*
