%TF.GenerationSoftware,KiCad,Pcbnew,8.0.0*%
%TF.CreationDate,2024-06-04T15:45:32+02:00*%
%TF.ProjectId,filter prolab,66696c74-6572-4207-9072-6f6c61622e6b,rev?*%
%TF.SameCoordinates,Original*%
%TF.FileFunction,Legend,Top*%
%TF.FilePolarity,Positive*%
%FSLAX46Y46*%
G04 Gerber Fmt 4.6, Leading zero omitted, Abs format (unit mm)*
G04 Created by KiCad (PCBNEW 8.0.0) date 2024-06-04 15:45:32*
%MOMM*%
%LPD*%
G01*
G04 APERTURE LIST*
%ADD10C,0.300000*%
%ADD11C,0.200000*%
%ADD12C,0.150000*%
%ADD13C,0.120000*%
G04 APERTURE END LIST*
D10*
X151200225Y-91240828D02*
X150343082Y-91240828D01*
X150771653Y-91240828D02*
X150771653Y-89740828D01*
X150771653Y-89740828D02*
X150628796Y-89955114D01*
X150628796Y-89955114D02*
X150485939Y-90097971D01*
X150485939Y-90097971D02*
X150343082Y-90169400D01*
X151628796Y-89740828D02*
X152128796Y-91240828D01*
X152128796Y-91240828D02*
X152628796Y-89740828D01*
X154271652Y-90669400D02*
X155414510Y-90669400D01*
X157200224Y-89883685D02*
X157271652Y-89812257D01*
X157271652Y-89812257D02*
X157414510Y-89740828D01*
X157414510Y-89740828D02*
X157771652Y-89740828D01*
X157771652Y-89740828D02*
X157914510Y-89812257D01*
X157914510Y-89812257D02*
X157985938Y-89883685D01*
X157985938Y-89883685D02*
X158057367Y-90026542D01*
X158057367Y-90026542D02*
X158057367Y-90169400D01*
X158057367Y-90169400D02*
X157985938Y-90383685D01*
X157985938Y-90383685D02*
X157128795Y-91240828D01*
X157128795Y-91240828D02*
X158057367Y-91240828D01*
X158485938Y-89740828D02*
X158985938Y-91240828D01*
X158985938Y-91240828D02*
X159485938Y-89740828D01*
D11*
X189703006Y-66541695D02*
X189322054Y-66541695D01*
X189322054Y-66541695D02*
X189322054Y-65741695D01*
X190083958Y-66541695D02*
X190007768Y-66503600D01*
X190007768Y-66503600D02*
X189969673Y-66465504D01*
X189969673Y-66465504D02*
X189931577Y-66389314D01*
X189931577Y-66389314D02*
X189931577Y-66160742D01*
X189931577Y-66160742D02*
X189969673Y-66084552D01*
X189969673Y-66084552D02*
X190007768Y-66046457D01*
X190007768Y-66046457D02*
X190083958Y-66008361D01*
X190083958Y-66008361D02*
X190198244Y-66008361D01*
X190198244Y-66008361D02*
X190274435Y-66046457D01*
X190274435Y-66046457D02*
X190312530Y-66084552D01*
X190312530Y-66084552D02*
X190350625Y-66160742D01*
X190350625Y-66160742D02*
X190350625Y-66389314D01*
X190350625Y-66389314D02*
X190312530Y-66465504D01*
X190312530Y-66465504D02*
X190274435Y-66503600D01*
X190274435Y-66503600D02*
X190198244Y-66541695D01*
X190198244Y-66541695D02*
X190083958Y-66541695D01*
X191036340Y-66503600D02*
X190960149Y-66541695D01*
X190960149Y-66541695D02*
X190807768Y-66541695D01*
X190807768Y-66541695D02*
X190731578Y-66503600D01*
X190731578Y-66503600D02*
X190693483Y-66465504D01*
X190693483Y-66465504D02*
X190655387Y-66389314D01*
X190655387Y-66389314D02*
X190655387Y-66160742D01*
X190655387Y-66160742D02*
X190693483Y-66084552D01*
X190693483Y-66084552D02*
X190731578Y-66046457D01*
X190731578Y-66046457D02*
X190807768Y-66008361D01*
X190807768Y-66008361D02*
X190960149Y-66008361D01*
X190960149Y-66008361D02*
X191036340Y-66046457D01*
X191379197Y-66541695D02*
X191379197Y-65741695D01*
X191455387Y-66236933D02*
X191683959Y-66541695D01*
X191683959Y-66008361D02*
X191379197Y-66313123D01*
X192636340Y-66541695D02*
X192636340Y-66008361D01*
X192636340Y-65741695D02*
X192598244Y-65779790D01*
X192598244Y-65779790D02*
X192636340Y-65817885D01*
X192636340Y-65817885D02*
X192674435Y-65779790D01*
X192674435Y-65779790D02*
X192636340Y-65741695D01*
X192636340Y-65741695D02*
X192636340Y-65817885D01*
X193017292Y-66008361D02*
X193017292Y-66541695D01*
X193017292Y-66084552D02*
X193055387Y-66046457D01*
X193055387Y-66046457D02*
X193131577Y-66008361D01*
X193131577Y-66008361D02*
X193245863Y-66008361D01*
X193245863Y-66008361D02*
X193322054Y-66046457D01*
X193322054Y-66046457D02*
X193360149Y-66122647D01*
X193360149Y-66122647D02*
X193360149Y-66541695D01*
X194236340Y-65741695D02*
X194503007Y-66541695D01*
X194503007Y-66541695D02*
X194769673Y-65741695D01*
X195341102Y-66503600D02*
X195264911Y-66541695D01*
X195264911Y-66541695D02*
X195112530Y-66541695D01*
X195112530Y-66541695D02*
X195036340Y-66503600D01*
X195036340Y-66503600D02*
X194998244Y-66427409D01*
X194998244Y-66427409D02*
X194998244Y-66122647D01*
X194998244Y-66122647D02*
X195036340Y-66046457D01*
X195036340Y-66046457D02*
X195112530Y-66008361D01*
X195112530Y-66008361D02*
X195264911Y-66008361D01*
X195264911Y-66008361D02*
X195341102Y-66046457D01*
X195341102Y-66046457D02*
X195379197Y-66122647D01*
X195379197Y-66122647D02*
X195379197Y-66198838D01*
X195379197Y-66198838D02*
X194998244Y-66275028D01*
X195722054Y-66541695D02*
X195722054Y-66008361D01*
X195722054Y-66160742D02*
X195760149Y-66084552D01*
X195760149Y-66084552D02*
X195798244Y-66046457D01*
X195798244Y-66046457D02*
X195874435Y-66008361D01*
X195874435Y-66008361D02*
X195950625Y-66008361D01*
X196179196Y-66503600D02*
X196255387Y-66541695D01*
X196255387Y-66541695D02*
X196407768Y-66541695D01*
X196407768Y-66541695D02*
X196483958Y-66503600D01*
X196483958Y-66503600D02*
X196522054Y-66427409D01*
X196522054Y-66427409D02*
X196522054Y-66389314D01*
X196522054Y-66389314D02*
X196483958Y-66313123D01*
X196483958Y-66313123D02*
X196407768Y-66275028D01*
X196407768Y-66275028D02*
X196293482Y-66275028D01*
X196293482Y-66275028D02*
X196217292Y-66236933D01*
X196217292Y-66236933D02*
X196179196Y-66160742D01*
X196179196Y-66160742D02*
X196179196Y-66122647D01*
X196179196Y-66122647D02*
X196217292Y-66046457D01*
X196217292Y-66046457D02*
X196293482Y-66008361D01*
X196293482Y-66008361D02*
X196407768Y-66008361D01*
X196407768Y-66008361D02*
X196483958Y-66046457D01*
X196750625Y-66008361D02*
X197055387Y-66008361D01*
X196864911Y-65741695D02*
X196864911Y-66427409D01*
X196864911Y-66427409D02*
X196903006Y-66503600D01*
X196903006Y-66503600D02*
X196979196Y-66541695D01*
X196979196Y-66541695D02*
X197055387Y-66541695D01*
X197664911Y-66541695D02*
X197664911Y-66122647D01*
X197664911Y-66122647D02*
X197626816Y-66046457D01*
X197626816Y-66046457D02*
X197550625Y-66008361D01*
X197550625Y-66008361D02*
X197398244Y-66008361D01*
X197398244Y-66008361D02*
X197322054Y-66046457D01*
X197664911Y-66503600D02*
X197588720Y-66541695D01*
X197588720Y-66541695D02*
X197398244Y-66541695D01*
X197398244Y-66541695D02*
X197322054Y-66503600D01*
X197322054Y-66503600D02*
X197283958Y-66427409D01*
X197283958Y-66427409D02*
X197283958Y-66351219D01*
X197283958Y-66351219D02*
X197322054Y-66275028D01*
X197322054Y-66275028D02*
X197398244Y-66236933D01*
X197398244Y-66236933D02*
X197588720Y-66236933D01*
X197588720Y-66236933D02*
X197664911Y-66198838D01*
X198350626Y-66503600D02*
X198274435Y-66541695D01*
X198274435Y-66541695D02*
X198122054Y-66541695D01*
X198122054Y-66541695D02*
X198045864Y-66503600D01*
X198045864Y-66503600D02*
X198007768Y-66427409D01*
X198007768Y-66427409D02*
X198007768Y-66122647D01*
X198007768Y-66122647D02*
X198045864Y-66046457D01*
X198045864Y-66046457D02*
X198122054Y-66008361D01*
X198122054Y-66008361D02*
X198274435Y-66008361D01*
X198274435Y-66008361D02*
X198350626Y-66046457D01*
X198350626Y-66046457D02*
X198388721Y-66122647D01*
X198388721Y-66122647D02*
X198388721Y-66198838D01*
X198388721Y-66198838D02*
X198007768Y-66275028D01*
X198731578Y-66541695D02*
X198731578Y-66008361D01*
X198731578Y-66160742D02*
X198769673Y-66084552D01*
X198769673Y-66084552D02*
X198807768Y-66046457D01*
X198807768Y-66046457D02*
X198883959Y-66008361D01*
X198883959Y-66008361D02*
X198960149Y-66008361D01*
X199226816Y-66541695D02*
X199226816Y-65741695D01*
X199303006Y-66236933D02*
X199531578Y-66541695D01*
X199531578Y-66008361D02*
X199226816Y-66313123D01*
X200179197Y-66503600D02*
X200103006Y-66541695D01*
X200103006Y-66541695D02*
X199950625Y-66541695D01*
X199950625Y-66541695D02*
X199874435Y-66503600D01*
X199874435Y-66503600D02*
X199836339Y-66427409D01*
X199836339Y-66427409D02*
X199836339Y-66122647D01*
X199836339Y-66122647D02*
X199874435Y-66046457D01*
X199874435Y-66046457D02*
X199950625Y-66008361D01*
X199950625Y-66008361D02*
X200103006Y-66008361D01*
X200103006Y-66008361D02*
X200179197Y-66046457D01*
X200179197Y-66046457D02*
X200217292Y-66122647D01*
X200217292Y-66122647D02*
X200217292Y-66198838D01*
X200217292Y-66198838D02*
X199836339Y-66275028D01*
X200560149Y-66541695D02*
X200560149Y-66008361D01*
X200560149Y-66160742D02*
X200598244Y-66084552D01*
X200598244Y-66084552D02*
X200636339Y-66046457D01*
X200636339Y-66046457D02*
X200712530Y-66008361D01*
X200712530Y-66008361D02*
X200788720Y-66008361D01*
X201931577Y-66122647D02*
X201664911Y-66122647D01*
X201664911Y-66541695D02*
X201664911Y-65741695D01*
X201664911Y-65741695D02*
X202045863Y-65741695D01*
X202350625Y-66541695D02*
X202350625Y-66008361D01*
X202350625Y-65741695D02*
X202312529Y-65779790D01*
X202312529Y-65779790D02*
X202350625Y-65817885D01*
X202350625Y-65817885D02*
X202388720Y-65779790D01*
X202388720Y-65779790D02*
X202350625Y-65741695D01*
X202350625Y-65741695D02*
X202350625Y-65817885D01*
X202845862Y-66541695D02*
X202769672Y-66503600D01*
X202769672Y-66503600D02*
X202731577Y-66427409D01*
X202731577Y-66427409D02*
X202731577Y-65741695D01*
X203036339Y-66008361D02*
X203341101Y-66008361D01*
X203150625Y-65741695D02*
X203150625Y-66427409D01*
X203150625Y-66427409D02*
X203188720Y-66503600D01*
X203188720Y-66503600D02*
X203264910Y-66541695D01*
X203264910Y-66541695D02*
X203341101Y-66541695D01*
X203912530Y-66503600D02*
X203836339Y-66541695D01*
X203836339Y-66541695D02*
X203683958Y-66541695D01*
X203683958Y-66541695D02*
X203607768Y-66503600D01*
X203607768Y-66503600D02*
X203569672Y-66427409D01*
X203569672Y-66427409D02*
X203569672Y-66122647D01*
X203569672Y-66122647D02*
X203607768Y-66046457D01*
X203607768Y-66046457D02*
X203683958Y-66008361D01*
X203683958Y-66008361D02*
X203836339Y-66008361D01*
X203836339Y-66008361D02*
X203912530Y-66046457D01*
X203912530Y-66046457D02*
X203950625Y-66122647D01*
X203950625Y-66122647D02*
X203950625Y-66198838D01*
X203950625Y-66198838D02*
X203569672Y-66275028D01*
X204293482Y-66541695D02*
X204293482Y-66008361D01*
X204293482Y-66160742D02*
X204331577Y-66084552D01*
X204331577Y-66084552D02*
X204369672Y-66046457D01*
X204369672Y-66046457D02*
X204445863Y-66008361D01*
X204445863Y-66008361D02*
X204522053Y-66008361D01*
D10*
X118912541Y-100259774D02*
X118912541Y-101116917D01*
X118912541Y-100688346D02*
X117412541Y-100688346D01*
X117412541Y-100688346D02*
X117626827Y-100831203D01*
X117626827Y-100831203D02*
X117769684Y-100974060D01*
X117769684Y-100974060D02*
X117841113Y-101116917D01*
X117412541Y-99831203D02*
X118912541Y-99331203D01*
X118912541Y-99331203D02*
X117412541Y-98831203D01*
X118341113Y-97188347D02*
X118341113Y-96045490D01*
X117412541Y-93474061D02*
X117412541Y-94188347D01*
X117412541Y-94188347D02*
X118126827Y-94259775D01*
X118126827Y-94259775D02*
X118055398Y-94188347D01*
X118055398Y-94188347D02*
X117983970Y-94045490D01*
X117983970Y-94045490D02*
X117983970Y-93688347D01*
X117983970Y-93688347D02*
X118055398Y-93545490D01*
X118055398Y-93545490D02*
X118126827Y-93474061D01*
X118126827Y-93474061D02*
X118269684Y-93402632D01*
X118269684Y-93402632D02*
X118626827Y-93402632D01*
X118626827Y-93402632D02*
X118769684Y-93474061D01*
X118769684Y-93474061D02*
X118841113Y-93545490D01*
X118841113Y-93545490D02*
X118912541Y-93688347D01*
X118912541Y-93688347D02*
X118912541Y-94045490D01*
X118912541Y-94045490D02*
X118841113Y-94188347D01*
X118841113Y-94188347D02*
X118769684Y-94259775D01*
X117412541Y-92974061D02*
X118912541Y-92474061D01*
X118912541Y-92474061D02*
X117412541Y-91974061D01*
X128340225Y-92510828D02*
X127483082Y-92510828D01*
X127911653Y-92510828D02*
X127911653Y-91010828D01*
X127911653Y-91010828D02*
X127768796Y-91225114D01*
X127768796Y-91225114D02*
X127625939Y-91367971D01*
X127625939Y-91367971D02*
X127483082Y-91439400D01*
X128768796Y-91010828D02*
X129268796Y-92510828D01*
X129268796Y-92510828D02*
X129768796Y-91010828D01*
X131411652Y-91939400D02*
X132554510Y-91939400D01*
X134268795Y-91010828D02*
X135197367Y-91010828D01*
X135197367Y-91010828D02*
X134697367Y-91582257D01*
X134697367Y-91582257D02*
X134911652Y-91582257D01*
X134911652Y-91582257D02*
X135054510Y-91653685D01*
X135054510Y-91653685D02*
X135125938Y-91725114D01*
X135125938Y-91725114D02*
X135197367Y-91867971D01*
X135197367Y-91867971D02*
X135197367Y-92225114D01*
X135197367Y-92225114D02*
X135125938Y-92367971D01*
X135125938Y-92367971D02*
X135054510Y-92439400D01*
X135054510Y-92439400D02*
X134911652Y-92510828D01*
X134911652Y-92510828D02*
X134483081Y-92510828D01*
X134483081Y-92510828D02*
X134340224Y-92439400D01*
X134340224Y-92439400D02*
X134268795Y-92367971D01*
X135625938Y-91010828D02*
X136125938Y-92510828D01*
X136125938Y-92510828D02*
X136625938Y-91010828D01*
D12*
X133223333Y-104539580D02*
X133175714Y-104587200D01*
X133175714Y-104587200D02*
X133032857Y-104634819D01*
X133032857Y-104634819D02*
X132937619Y-104634819D01*
X132937619Y-104634819D02*
X132794762Y-104587200D01*
X132794762Y-104587200D02*
X132699524Y-104491961D01*
X132699524Y-104491961D02*
X132651905Y-104396723D01*
X132651905Y-104396723D02*
X132604286Y-104206247D01*
X132604286Y-104206247D02*
X132604286Y-104063390D01*
X132604286Y-104063390D02*
X132651905Y-103872914D01*
X132651905Y-103872914D02*
X132699524Y-103777676D01*
X132699524Y-103777676D02*
X132794762Y-103682438D01*
X132794762Y-103682438D02*
X132937619Y-103634819D01*
X132937619Y-103634819D02*
X133032857Y-103634819D01*
X133032857Y-103634819D02*
X133175714Y-103682438D01*
X133175714Y-103682438D02*
X133223333Y-103730057D01*
X133556667Y-103634819D02*
X134223333Y-103634819D01*
X134223333Y-103634819D02*
X133794762Y-104634819D01*
X132163164Y-98844928D02*
X132163164Y-97844928D01*
X132163164Y-97844928D02*
X132401259Y-97844928D01*
X132401259Y-97844928D02*
X132544116Y-97892547D01*
X132544116Y-97892547D02*
X132639354Y-97987785D01*
X132639354Y-97987785D02*
X132686973Y-98083023D01*
X132686973Y-98083023D02*
X132734592Y-98273499D01*
X132734592Y-98273499D02*
X132734592Y-98416356D01*
X132734592Y-98416356D02*
X132686973Y-98606832D01*
X132686973Y-98606832D02*
X132639354Y-98702070D01*
X132639354Y-98702070D02*
X132544116Y-98797309D01*
X132544116Y-98797309D02*
X132401259Y-98844928D01*
X132401259Y-98844928D02*
X132163164Y-98844928D01*
X133115545Y-97940166D02*
X133163164Y-97892547D01*
X133163164Y-97892547D02*
X133258402Y-97844928D01*
X133258402Y-97844928D02*
X133496497Y-97844928D01*
X133496497Y-97844928D02*
X133591735Y-97892547D01*
X133591735Y-97892547D02*
X133639354Y-97940166D01*
X133639354Y-97940166D02*
X133686973Y-98035404D01*
X133686973Y-98035404D02*
X133686973Y-98130642D01*
X133686973Y-98130642D02*
X133639354Y-98273499D01*
X133639354Y-98273499D02*
X133067926Y-98844928D01*
X133067926Y-98844928D02*
X133686973Y-98844928D01*
X194103333Y-67709580D02*
X194055714Y-67757200D01*
X194055714Y-67757200D02*
X193912857Y-67804819D01*
X193912857Y-67804819D02*
X193817619Y-67804819D01*
X193817619Y-67804819D02*
X193674762Y-67757200D01*
X193674762Y-67757200D02*
X193579524Y-67661961D01*
X193579524Y-67661961D02*
X193531905Y-67566723D01*
X193531905Y-67566723D02*
X193484286Y-67376247D01*
X193484286Y-67376247D02*
X193484286Y-67233390D01*
X193484286Y-67233390D02*
X193531905Y-67042914D01*
X193531905Y-67042914D02*
X193579524Y-66947676D01*
X193579524Y-66947676D02*
X193674762Y-66852438D01*
X193674762Y-66852438D02*
X193817619Y-66804819D01*
X193817619Y-66804819D02*
X193912857Y-66804819D01*
X193912857Y-66804819D02*
X194055714Y-66852438D01*
X194055714Y-66852438D02*
X194103333Y-66900057D01*
X194960476Y-66804819D02*
X194770000Y-66804819D01*
X194770000Y-66804819D02*
X194674762Y-66852438D01*
X194674762Y-66852438D02*
X194627143Y-66900057D01*
X194627143Y-66900057D02*
X194531905Y-67042914D01*
X194531905Y-67042914D02*
X194484286Y-67233390D01*
X194484286Y-67233390D02*
X194484286Y-67614342D01*
X194484286Y-67614342D02*
X194531905Y-67709580D01*
X194531905Y-67709580D02*
X194579524Y-67757200D01*
X194579524Y-67757200D02*
X194674762Y-67804819D01*
X194674762Y-67804819D02*
X194865238Y-67804819D01*
X194865238Y-67804819D02*
X194960476Y-67757200D01*
X194960476Y-67757200D02*
X195008095Y-67709580D01*
X195008095Y-67709580D02*
X195055714Y-67614342D01*
X195055714Y-67614342D02*
X195055714Y-67376247D01*
X195055714Y-67376247D02*
X195008095Y-67281009D01*
X195008095Y-67281009D02*
X194960476Y-67233390D01*
X194960476Y-67233390D02*
X194865238Y-67185771D01*
X194865238Y-67185771D02*
X194674762Y-67185771D01*
X194674762Y-67185771D02*
X194579524Y-67233390D01*
X194579524Y-67233390D02*
X194531905Y-67281009D01*
X194531905Y-67281009D02*
X194484286Y-67376247D01*
X125934819Y-99942857D02*
X125458628Y-100276190D01*
X125934819Y-100514285D02*
X124934819Y-100514285D01*
X124934819Y-100514285D02*
X124934819Y-100133333D01*
X124934819Y-100133333D02*
X124982438Y-100038095D01*
X124982438Y-100038095D02*
X125030057Y-99990476D01*
X125030057Y-99990476D02*
X125125295Y-99942857D01*
X125125295Y-99942857D02*
X125268152Y-99942857D01*
X125268152Y-99942857D02*
X125363390Y-99990476D01*
X125363390Y-99990476D02*
X125411009Y-100038095D01*
X125411009Y-100038095D02*
X125458628Y-100133333D01*
X125458628Y-100133333D02*
X125458628Y-100514285D01*
X125934819Y-98990476D02*
X125934819Y-99561904D01*
X125934819Y-99276190D02*
X124934819Y-99276190D01*
X124934819Y-99276190D02*
X125077676Y-99371428D01*
X125077676Y-99371428D02*
X125172914Y-99466666D01*
X125172914Y-99466666D02*
X125220533Y-99561904D01*
X124934819Y-98371428D02*
X124934819Y-98276190D01*
X124934819Y-98276190D02*
X124982438Y-98180952D01*
X124982438Y-98180952D02*
X125030057Y-98133333D01*
X125030057Y-98133333D02*
X125125295Y-98085714D01*
X125125295Y-98085714D02*
X125315771Y-98038095D01*
X125315771Y-98038095D02*
X125553866Y-98038095D01*
X125553866Y-98038095D02*
X125744342Y-98085714D01*
X125744342Y-98085714D02*
X125839580Y-98133333D01*
X125839580Y-98133333D02*
X125887200Y-98180952D01*
X125887200Y-98180952D02*
X125934819Y-98276190D01*
X125934819Y-98276190D02*
X125934819Y-98371428D01*
X125934819Y-98371428D02*
X125887200Y-98466666D01*
X125887200Y-98466666D02*
X125839580Y-98514285D01*
X125839580Y-98514285D02*
X125744342Y-98561904D01*
X125744342Y-98561904D02*
X125553866Y-98609523D01*
X125553866Y-98609523D02*
X125315771Y-98609523D01*
X125315771Y-98609523D02*
X125125295Y-98561904D01*
X125125295Y-98561904D02*
X125030057Y-98514285D01*
X125030057Y-98514285D02*
X124982438Y-98466666D01*
X124982438Y-98466666D02*
X124934819Y-98371428D01*
X166563333Y-68484819D02*
X166230000Y-68008628D01*
X165991905Y-68484819D02*
X165991905Y-67484819D01*
X165991905Y-67484819D02*
X166372857Y-67484819D01*
X166372857Y-67484819D02*
X166468095Y-67532438D01*
X166468095Y-67532438D02*
X166515714Y-67580057D01*
X166515714Y-67580057D02*
X166563333Y-67675295D01*
X166563333Y-67675295D02*
X166563333Y-67818152D01*
X166563333Y-67818152D02*
X166515714Y-67913390D01*
X166515714Y-67913390D02*
X166468095Y-67961009D01*
X166468095Y-67961009D02*
X166372857Y-68008628D01*
X166372857Y-68008628D02*
X165991905Y-68008628D01*
X167468095Y-67484819D02*
X166991905Y-67484819D01*
X166991905Y-67484819D02*
X166944286Y-67961009D01*
X166944286Y-67961009D02*
X166991905Y-67913390D01*
X166991905Y-67913390D02*
X167087143Y-67865771D01*
X167087143Y-67865771D02*
X167325238Y-67865771D01*
X167325238Y-67865771D02*
X167420476Y-67913390D01*
X167420476Y-67913390D02*
X167468095Y-67961009D01*
X167468095Y-67961009D02*
X167515714Y-68056247D01*
X167515714Y-68056247D02*
X167515714Y-68294342D01*
X167515714Y-68294342D02*
X167468095Y-68389580D01*
X167468095Y-68389580D02*
X167420476Y-68437200D01*
X167420476Y-68437200D02*
X167325238Y-68484819D01*
X167325238Y-68484819D02*
X167087143Y-68484819D01*
X167087143Y-68484819D02*
X166991905Y-68437200D01*
X166991905Y-68437200D02*
X166944286Y-68389580D01*
X118559580Y-86066666D02*
X118607200Y-86114285D01*
X118607200Y-86114285D02*
X118654819Y-86257142D01*
X118654819Y-86257142D02*
X118654819Y-86352380D01*
X118654819Y-86352380D02*
X118607200Y-86495237D01*
X118607200Y-86495237D02*
X118511961Y-86590475D01*
X118511961Y-86590475D02*
X118416723Y-86638094D01*
X118416723Y-86638094D02*
X118226247Y-86685713D01*
X118226247Y-86685713D02*
X118083390Y-86685713D01*
X118083390Y-86685713D02*
X117892914Y-86638094D01*
X117892914Y-86638094D02*
X117797676Y-86590475D01*
X117797676Y-86590475D02*
X117702438Y-86495237D01*
X117702438Y-86495237D02*
X117654819Y-86352380D01*
X117654819Y-86352380D02*
X117654819Y-86257142D01*
X117654819Y-86257142D02*
X117702438Y-86114285D01*
X117702438Y-86114285D02*
X117750057Y-86066666D01*
X117750057Y-85685713D02*
X117702438Y-85638094D01*
X117702438Y-85638094D02*
X117654819Y-85542856D01*
X117654819Y-85542856D02*
X117654819Y-85304761D01*
X117654819Y-85304761D02*
X117702438Y-85209523D01*
X117702438Y-85209523D02*
X117750057Y-85161904D01*
X117750057Y-85161904D02*
X117845295Y-85114285D01*
X117845295Y-85114285D02*
X117940533Y-85114285D01*
X117940533Y-85114285D02*
X118083390Y-85161904D01*
X118083390Y-85161904D02*
X118654819Y-85733332D01*
X118654819Y-85733332D02*
X118654819Y-85114285D01*
X128048095Y-74924819D02*
X128048095Y-75734342D01*
X128048095Y-75734342D02*
X128095714Y-75829580D01*
X128095714Y-75829580D02*
X128143333Y-75877200D01*
X128143333Y-75877200D02*
X128238571Y-75924819D01*
X128238571Y-75924819D02*
X128429047Y-75924819D01*
X128429047Y-75924819D02*
X128524285Y-75877200D01*
X128524285Y-75877200D02*
X128571904Y-75829580D01*
X128571904Y-75829580D02*
X128619523Y-75734342D01*
X128619523Y-75734342D02*
X128619523Y-74924819D01*
X129619523Y-75924819D02*
X129048095Y-75924819D01*
X129333809Y-75924819D02*
X129333809Y-74924819D01*
X129333809Y-74924819D02*
X129238571Y-75067676D01*
X129238571Y-75067676D02*
X129143333Y-75162914D01*
X129143333Y-75162914D02*
X129048095Y-75210533D01*
X182063333Y-68584819D02*
X181730000Y-68108628D01*
X181491905Y-68584819D02*
X181491905Y-67584819D01*
X181491905Y-67584819D02*
X181872857Y-67584819D01*
X181872857Y-67584819D02*
X181968095Y-67632438D01*
X181968095Y-67632438D02*
X182015714Y-67680057D01*
X182015714Y-67680057D02*
X182063333Y-67775295D01*
X182063333Y-67775295D02*
X182063333Y-67918152D01*
X182063333Y-67918152D02*
X182015714Y-68013390D01*
X182015714Y-68013390D02*
X181968095Y-68061009D01*
X181968095Y-68061009D02*
X181872857Y-68108628D01*
X181872857Y-68108628D02*
X181491905Y-68108628D01*
X182920476Y-67584819D02*
X182730000Y-67584819D01*
X182730000Y-67584819D02*
X182634762Y-67632438D01*
X182634762Y-67632438D02*
X182587143Y-67680057D01*
X182587143Y-67680057D02*
X182491905Y-67822914D01*
X182491905Y-67822914D02*
X182444286Y-68013390D01*
X182444286Y-68013390D02*
X182444286Y-68394342D01*
X182444286Y-68394342D02*
X182491905Y-68489580D01*
X182491905Y-68489580D02*
X182539524Y-68537200D01*
X182539524Y-68537200D02*
X182634762Y-68584819D01*
X182634762Y-68584819D02*
X182825238Y-68584819D01*
X182825238Y-68584819D02*
X182920476Y-68537200D01*
X182920476Y-68537200D02*
X182968095Y-68489580D01*
X182968095Y-68489580D02*
X183015714Y-68394342D01*
X183015714Y-68394342D02*
X183015714Y-68156247D01*
X183015714Y-68156247D02*
X182968095Y-68061009D01*
X182968095Y-68061009D02*
X182920476Y-68013390D01*
X182920476Y-68013390D02*
X182825238Y-67965771D01*
X182825238Y-67965771D02*
X182634762Y-67965771D01*
X182634762Y-67965771D02*
X182539524Y-68013390D01*
X182539524Y-68013390D02*
X182491905Y-68061009D01*
X182491905Y-68061009D02*
X182444286Y-68156247D01*
X162883333Y-92884819D02*
X162550000Y-92408628D01*
X162311905Y-92884819D02*
X162311905Y-91884819D01*
X162311905Y-91884819D02*
X162692857Y-91884819D01*
X162692857Y-91884819D02*
X162788095Y-91932438D01*
X162788095Y-91932438D02*
X162835714Y-91980057D01*
X162835714Y-91980057D02*
X162883333Y-92075295D01*
X162883333Y-92075295D02*
X162883333Y-92218152D01*
X162883333Y-92218152D02*
X162835714Y-92313390D01*
X162835714Y-92313390D02*
X162788095Y-92361009D01*
X162788095Y-92361009D02*
X162692857Y-92408628D01*
X162692857Y-92408628D02*
X162311905Y-92408628D01*
X163454762Y-92313390D02*
X163359524Y-92265771D01*
X163359524Y-92265771D02*
X163311905Y-92218152D01*
X163311905Y-92218152D02*
X163264286Y-92122914D01*
X163264286Y-92122914D02*
X163264286Y-92075295D01*
X163264286Y-92075295D02*
X163311905Y-91980057D01*
X163311905Y-91980057D02*
X163359524Y-91932438D01*
X163359524Y-91932438D02*
X163454762Y-91884819D01*
X163454762Y-91884819D02*
X163645238Y-91884819D01*
X163645238Y-91884819D02*
X163740476Y-91932438D01*
X163740476Y-91932438D02*
X163788095Y-91980057D01*
X163788095Y-91980057D02*
X163835714Y-92075295D01*
X163835714Y-92075295D02*
X163835714Y-92122914D01*
X163835714Y-92122914D02*
X163788095Y-92218152D01*
X163788095Y-92218152D02*
X163740476Y-92265771D01*
X163740476Y-92265771D02*
X163645238Y-92313390D01*
X163645238Y-92313390D02*
X163454762Y-92313390D01*
X163454762Y-92313390D02*
X163359524Y-92361009D01*
X163359524Y-92361009D02*
X163311905Y-92408628D01*
X163311905Y-92408628D02*
X163264286Y-92503866D01*
X163264286Y-92503866D02*
X163264286Y-92694342D01*
X163264286Y-92694342D02*
X163311905Y-92789580D01*
X163311905Y-92789580D02*
X163359524Y-92837200D01*
X163359524Y-92837200D02*
X163454762Y-92884819D01*
X163454762Y-92884819D02*
X163645238Y-92884819D01*
X163645238Y-92884819D02*
X163740476Y-92837200D01*
X163740476Y-92837200D02*
X163788095Y-92789580D01*
X163788095Y-92789580D02*
X163835714Y-92694342D01*
X163835714Y-92694342D02*
X163835714Y-92503866D01*
X163835714Y-92503866D02*
X163788095Y-92408628D01*
X163788095Y-92408628D02*
X163740476Y-92361009D01*
X163740476Y-92361009D02*
X163645238Y-92313390D01*
X121181905Y-100784819D02*
X121181905Y-99784819D01*
X121181905Y-99784819D02*
X121420000Y-99784819D01*
X121420000Y-99784819D02*
X121562857Y-99832438D01*
X121562857Y-99832438D02*
X121658095Y-99927676D01*
X121658095Y-99927676D02*
X121705714Y-100022914D01*
X121705714Y-100022914D02*
X121753333Y-100213390D01*
X121753333Y-100213390D02*
X121753333Y-100356247D01*
X121753333Y-100356247D02*
X121705714Y-100546723D01*
X121705714Y-100546723D02*
X121658095Y-100641961D01*
X121658095Y-100641961D02*
X121562857Y-100737200D01*
X121562857Y-100737200D02*
X121420000Y-100784819D01*
X121420000Y-100784819D02*
X121181905Y-100784819D01*
X122086667Y-99784819D02*
X122705714Y-99784819D01*
X122705714Y-99784819D02*
X122372381Y-100165771D01*
X122372381Y-100165771D02*
X122515238Y-100165771D01*
X122515238Y-100165771D02*
X122610476Y-100213390D01*
X122610476Y-100213390D02*
X122658095Y-100261009D01*
X122658095Y-100261009D02*
X122705714Y-100356247D01*
X122705714Y-100356247D02*
X122705714Y-100594342D01*
X122705714Y-100594342D02*
X122658095Y-100689580D01*
X122658095Y-100689580D02*
X122610476Y-100737200D01*
X122610476Y-100737200D02*
X122515238Y-100784819D01*
X122515238Y-100784819D02*
X122229524Y-100784819D01*
X122229524Y-100784819D02*
X122134286Y-100737200D01*
X122134286Y-100737200D02*
X122086667Y-100689580D01*
X146474819Y-81266666D02*
X145998628Y-81599999D01*
X146474819Y-81838094D02*
X145474819Y-81838094D01*
X145474819Y-81838094D02*
X145474819Y-81457142D01*
X145474819Y-81457142D02*
X145522438Y-81361904D01*
X145522438Y-81361904D02*
X145570057Y-81314285D01*
X145570057Y-81314285D02*
X145665295Y-81266666D01*
X145665295Y-81266666D02*
X145808152Y-81266666D01*
X145808152Y-81266666D02*
X145903390Y-81314285D01*
X145903390Y-81314285D02*
X145951009Y-81361904D01*
X145951009Y-81361904D02*
X145998628Y-81457142D01*
X145998628Y-81457142D02*
X145998628Y-81838094D01*
X145474819Y-80933332D02*
X145474819Y-80314285D01*
X145474819Y-80314285D02*
X145855771Y-80647618D01*
X145855771Y-80647618D02*
X145855771Y-80504761D01*
X145855771Y-80504761D02*
X145903390Y-80409523D01*
X145903390Y-80409523D02*
X145951009Y-80361904D01*
X145951009Y-80361904D02*
X146046247Y-80314285D01*
X146046247Y-80314285D02*
X146284342Y-80314285D01*
X146284342Y-80314285D02*
X146379580Y-80361904D01*
X146379580Y-80361904D02*
X146427200Y-80409523D01*
X146427200Y-80409523D02*
X146474819Y-80504761D01*
X146474819Y-80504761D02*
X146474819Y-80790475D01*
X146474819Y-80790475D02*
X146427200Y-80885713D01*
X146427200Y-80885713D02*
X146379580Y-80933332D01*
X152561905Y-98054819D02*
X152561905Y-97054819D01*
X152561905Y-97054819D02*
X152800000Y-97054819D01*
X152800000Y-97054819D02*
X152942857Y-97102438D01*
X152942857Y-97102438D02*
X153038095Y-97197676D01*
X153038095Y-97197676D02*
X153085714Y-97292914D01*
X153085714Y-97292914D02*
X153133333Y-97483390D01*
X153133333Y-97483390D02*
X153133333Y-97626247D01*
X153133333Y-97626247D02*
X153085714Y-97816723D01*
X153085714Y-97816723D02*
X153038095Y-97911961D01*
X153038095Y-97911961D02*
X152942857Y-98007200D01*
X152942857Y-98007200D02*
X152800000Y-98054819D01*
X152800000Y-98054819D02*
X152561905Y-98054819D01*
X154085714Y-98054819D02*
X153514286Y-98054819D01*
X153800000Y-98054819D02*
X153800000Y-97054819D01*
X153800000Y-97054819D02*
X153704762Y-97197676D01*
X153704762Y-97197676D02*
X153609524Y-97292914D01*
X153609524Y-97292914D02*
X153514286Y-97340533D01*
X127303333Y-72274819D02*
X126970000Y-71798628D01*
X126731905Y-72274819D02*
X126731905Y-71274819D01*
X126731905Y-71274819D02*
X127112857Y-71274819D01*
X127112857Y-71274819D02*
X127208095Y-71322438D01*
X127208095Y-71322438D02*
X127255714Y-71370057D01*
X127255714Y-71370057D02*
X127303333Y-71465295D01*
X127303333Y-71465295D02*
X127303333Y-71608152D01*
X127303333Y-71608152D02*
X127255714Y-71703390D01*
X127255714Y-71703390D02*
X127208095Y-71751009D01*
X127208095Y-71751009D02*
X127112857Y-71798628D01*
X127112857Y-71798628D02*
X126731905Y-71798628D01*
X128255714Y-72274819D02*
X127684286Y-72274819D01*
X127970000Y-72274819D02*
X127970000Y-71274819D01*
X127970000Y-71274819D02*
X127874762Y-71417676D01*
X127874762Y-71417676D02*
X127779524Y-71512914D01*
X127779524Y-71512914D02*
X127684286Y-71560533D01*
X163159580Y-78716666D02*
X163207200Y-78764285D01*
X163207200Y-78764285D02*
X163254819Y-78907142D01*
X163254819Y-78907142D02*
X163254819Y-79002380D01*
X163254819Y-79002380D02*
X163207200Y-79145237D01*
X163207200Y-79145237D02*
X163111961Y-79240475D01*
X163111961Y-79240475D02*
X163016723Y-79288094D01*
X163016723Y-79288094D02*
X162826247Y-79335713D01*
X162826247Y-79335713D02*
X162683390Y-79335713D01*
X162683390Y-79335713D02*
X162492914Y-79288094D01*
X162492914Y-79288094D02*
X162397676Y-79240475D01*
X162397676Y-79240475D02*
X162302438Y-79145237D01*
X162302438Y-79145237D02*
X162254819Y-79002380D01*
X162254819Y-79002380D02*
X162254819Y-78907142D01*
X162254819Y-78907142D02*
X162302438Y-78764285D01*
X162302438Y-78764285D02*
X162350057Y-78716666D01*
X162254819Y-77811904D02*
X162254819Y-78288094D01*
X162254819Y-78288094D02*
X162731009Y-78335713D01*
X162731009Y-78335713D02*
X162683390Y-78288094D01*
X162683390Y-78288094D02*
X162635771Y-78192856D01*
X162635771Y-78192856D02*
X162635771Y-77954761D01*
X162635771Y-77954761D02*
X162683390Y-77859523D01*
X162683390Y-77859523D02*
X162731009Y-77811904D01*
X162731009Y-77811904D02*
X162826247Y-77764285D01*
X162826247Y-77764285D02*
X163064342Y-77764285D01*
X163064342Y-77764285D02*
X163159580Y-77811904D01*
X163159580Y-77811904D02*
X163207200Y-77859523D01*
X163207200Y-77859523D02*
X163254819Y-77954761D01*
X163254819Y-77954761D02*
X163254819Y-78192856D01*
X163254819Y-78192856D02*
X163207200Y-78288094D01*
X163207200Y-78288094D02*
X163159580Y-78335713D01*
X175768095Y-75864819D02*
X175768095Y-76674342D01*
X175768095Y-76674342D02*
X175815714Y-76769580D01*
X175815714Y-76769580D02*
X175863333Y-76817200D01*
X175863333Y-76817200D02*
X175958571Y-76864819D01*
X175958571Y-76864819D02*
X176149047Y-76864819D01*
X176149047Y-76864819D02*
X176244285Y-76817200D01*
X176244285Y-76817200D02*
X176291904Y-76769580D01*
X176291904Y-76769580D02*
X176339523Y-76674342D01*
X176339523Y-76674342D02*
X176339523Y-75864819D01*
X176720476Y-75864819D02*
X177339523Y-75864819D01*
X177339523Y-75864819D02*
X177006190Y-76245771D01*
X177006190Y-76245771D02*
X177149047Y-76245771D01*
X177149047Y-76245771D02*
X177244285Y-76293390D01*
X177244285Y-76293390D02*
X177291904Y-76341009D01*
X177291904Y-76341009D02*
X177339523Y-76436247D01*
X177339523Y-76436247D02*
X177339523Y-76674342D01*
X177339523Y-76674342D02*
X177291904Y-76769580D01*
X177291904Y-76769580D02*
X177244285Y-76817200D01*
X177244285Y-76817200D02*
X177149047Y-76864819D01*
X177149047Y-76864819D02*
X176863333Y-76864819D01*
X176863333Y-76864819D02*
X176768095Y-76817200D01*
X176768095Y-76817200D02*
X176720476Y-76769580D01*
X142674819Y-72396666D02*
X142198628Y-72729999D01*
X142674819Y-72968094D02*
X141674819Y-72968094D01*
X141674819Y-72968094D02*
X141674819Y-72587142D01*
X141674819Y-72587142D02*
X141722438Y-72491904D01*
X141722438Y-72491904D02*
X141770057Y-72444285D01*
X141770057Y-72444285D02*
X141865295Y-72396666D01*
X141865295Y-72396666D02*
X142008152Y-72396666D01*
X142008152Y-72396666D02*
X142103390Y-72444285D01*
X142103390Y-72444285D02*
X142151009Y-72491904D01*
X142151009Y-72491904D02*
X142198628Y-72587142D01*
X142198628Y-72587142D02*
X142198628Y-72968094D01*
X141770057Y-72015713D02*
X141722438Y-71968094D01*
X141722438Y-71968094D02*
X141674819Y-71872856D01*
X141674819Y-71872856D02*
X141674819Y-71634761D01*
X141674819Y-71634761D02*
X141722438Y-71539523D01*
X141722438Y-71539523D02*
X141770057Y-71491904D01*
X141770057Y-71491904D02*
X141865295Y-71444285D01*
X141865295Y-71444285D02*
X141960533Y-71444285D01*
X141960533Y-71444285D02*
X142103390Y-71491904D01*
X142103390Y-71491904D02*
X142674819Y-72063332D01*
X142674819Y-72063332D02*
X142674819Y-71444285D01*
X147533333Y-69509580D02*
X147485714Y-69557200D01*
X147485714Y-69557200D02*
X147342857Y-69604819D01*
X147342857Y-69604819D02*
X147247619Y-69604819D01*
X147247619Y-69604819D02*
X147104762Y-69557200D01*
X147104762Y-69557200D02*
X147009524Y-69461961D01*
X147009524Y-69461961D02*
X146961905Y-69366723D01*
X146961905Y-69366723D02*
X146914286Y-69176247D01*
X146914286Y-69176247D02*
X146914286Y-69033390D01*
X146914286Y-69033390D02*
X146961905Y-68842914D01*
X146961905Y-68842914D02*
X147009524Y-68747676D01*
X147009524Y-68747676D02*
X147104762Y-68652438D01*
X147104762Y-68652438D02*
X147247619Y-68604819D01*
X147247619Y-68604819D02*
X147342857Y-68604819D01*
X147342857Y-68604819D02*
X147485714Y-68652438D01*
X147485714Y-68652438D02*
X147533333Y-68700057D01*
X148390476Y-68938152D02*
X148390476Y-69604819D01*
X148152381Y-68557200D02*
X147914286Y-69271485D01*
X147914286Y-69271485D02*
X148533333Y-69271485D01*
X143133333Y-92984819D02*
X142800000Y-92508628D01*
X142561905Y-92984819D02*
X142561905Y-91984819D01*
X142561905Y-91984819D02*
X142942857Y-91984819D01*
X142942857Y-91984819D02*
X143038095Y-92032438D01*
X143038095Y-92032438D02*
X143085714Y-92080057D01*
X143085714Y-92080057D02*
X143133333Y-92175295D01*
X143133333Y-92175295D02*
X143133333Y-92318152D01*
X143133333Y-92318152D02*
X143085714Y-92413390D01*
X143085714Y-92413390D02*
X143038095Y-92461009D01*
X143038095Y-92461009D02*
X142942857Y-92508628D01*
X142942857Y-92508628D02*
X142561905Y-92508628D01*
X143609524Y-92984819D02*
X143800000Y-92984819D01*
X143800000Y-92984819D02*
X143895238Y-92937200D01*
X143895238Y-92937200D02*
X143942857Y-92889580D01*
X143942857Y-92889580D02*
X144038095Y-92746723D01*
X144038095Y-92746723D02*
X144085714Y-92556247D01*
X144085714Y-92556247D02*
X144085714Y-92175295D01*
X144085714Y-92175295D02*
X144038095Y-92080057D01*
X144038095Y-92080057D02*
X143990476Y-92032438D01*
X143990476Y-92032438D02*
X143895238Y-91984819D01*
X143895238Y-91984819D02*
X143704762Y-91984819D01*
X143704762Y-91984819D02*
X143609524Y-92032438D01*
X143609524Y-92032438D02*
X143561905Y-92080057D01*
X143561905Y-92080057D02*
X143514286Y-92175295D01*
X143514286Y-92175295D02*
X143514286Y-92413390D01*
X143514286Y-92413390D02*
X143561905Y-92508628D01*
X143561905Y-92508628D02*
X143609524Y-92556247D01*
X143609524Y-92556247D02*
X143704762Y-92603866D01*
X143704762Y-92603866D02*
X143895238Y-92603866D01*
X143895238Y-92603866D02*
X143990476Y-92556247D01*
X143990476Y-92556247D02*
X144038095Y-92508628D01*
X144038095Y-92508628D02*
X144085714Y-92413390D01*
X186834819Y-104663333D02*
X187549104Y-104663333D01*
X187549104Y-104663333D02*
X187691961Y-104710952D01*
X187691961Y-104710952D02*
X187787200Y-104806190D01*
X187787200Y-104806190D02*
X187834819Y-104949047D01*
X187834819Y-104949047D02*
X187834819Y-105044285D01*
X187834819Y-103663333D02*
X187834819Y-104234761D01*
X187834819Y-103949047D02*
X186834819Y-103949047D01*
X186834819Y-103949047D02*
X186977676Y-104044285D01*
X186977676Y-104044285D02*
X187072914Y-104139523D01*
X187072914Y-104139523D02*
X187120533Y-104234761D01*
X177029523Y-98434819D02*
X176458095Y-98434819D01*
X176743809Y-98434819D02*
X176743809Y-97434819D01*
X176743809Y-97434819D02*
X176648571Y-97577676D01*
X176648571Y-97577676D02*
X176553333Y-97672914D01*
X176553333Y-97672914D02*
X176458095Y-97720533D01*
X177886666Y-97768152D02*
X177886666Y-98434819D01*
X177648571Y-97387200D02*
X177410476Y-98101485D01*
X177410476Y-98101485D02*
X178029523Y-98101485D01*
X196619286Y-97530057D02*
X196666905Y-97482438D01*
X196666905Y-97482438D02*
X196762143Y-97434819D01*
X196762143Y-97434819D02*
X197000238Y-97434819D01*
X197000238Y-97434819D02*
X197095476Y-97482438D01*
X197095476Y-97482438D02*
X197143095Y-97530057D01*
X197143095Y-97530057D02*
X197190714Y-97625295D01*
X197190714Y-97625295D02*
X197190714Y-97720533D01*
X197190714Y-97720533D02*
X197143095Y-97863390D01*
X197143095Y-97863390D02*
X196571667Y-98434819D01*
X196571667Y-98434819D02*
X197190714Y-98434819D01*
X191523808Y-104261009D02*
X191666665Y-104308628D01*
X191666665Y-104308628D02*
X191714284Y-104356247D01*
X191714284Y-104356247D02*
X191761903Y-104451485D01*
X191761903Y-104451485D02*
X191761903Y-104594342D01*
X191761903Y-104594342D02*
X191714284Y-104689580D01*
X191714284Y-104689580D02*
X191666665Y-104737200D01*
X191666665Y-104737200D02*
X191571427Y-104784819D01*
X191571427Y-104784819D02*
X191190475Y-104784819D01*
X191190475Y-104784819D02*
X191190475Y-103784819D01*
X191190475Y-103784819D02*
X191523808Y-103784819D01*
X191523808Y-103784819D02*
X191619046Y-103832438D01*
X191619046Y-103832438D02*
X191666665Y-103880057D01*
X191666665Y-103880057D02*
X191714284Y-103975295D01*
X191714284Y-103975295D02*
X191714284Y-104070533D01*
X191714284Y-104070533D02*
X191666665Y-104165771D01*
X191666665Y-104165771D02*
X191619046Y-104213390D01*
X191619046Y-104213390D02*
X191523808Y-104261009D01*
X191523808Y-104261009D02*
X191190475Y-104261009D01*
X192619046Y-104118152D02*
X192619046Y-104784819D01*
X192190475Y-104118152D02*
X192190475Y-104641961D01*
X192190475Y-104641961D02*
X192238094Y-104737200D01*
X192238094Y-104737200D02*
X192333332Y-104784819D01*
X192333332Y-104784819D02*
X192476189Y-104784819D01*
X192476189Y-104784819D02*
X192571427Y-104737200D01*
X192571427Y-104737200D02*
X192619046Y-104689580D01*
X193047618Y-104737200D02*
X193142856Y-104784819D01*
X193142856Y-104784819D02*
X193333332Y-104784819D01*
X193333332Y-104784819D02*
X193428570Y-104737200D01*
X193428570Y-104737200D02*
X193476189Y-104641961D01*
X193476189Y-104641961D02*
X193476189Y-104594342D01*
X193476189Y-104594342D02*
X193428570Y-104499104D01*
X193428570Y-104499104D02*
X193333332Y-104451485D01*
X193333332Y-104451485D02*
X193190475Y-104451485D01*
X193190475Y-104451485D02*
X193095237Y-104403866D01*
X193095237Y-104403866D02*
X193047618Y-104308628D01*
X193047618Y-104308628D02*
X193047618Y-104261009D01*
X193047618Y-104261009D02*
X193095237Y-104165771D01*
X193095237Y-104165771D02*
X193190475Y-104118152D01*
X193190475Y-104118152D02*
X193333332Y-104118152D01*
X193333332Y-104118152D02*
X193428570Y-104165771D01*
X193857142Y-104737200D02*
X193952380Y-104784819D01*
X193952380Y-104784819D02*
X194142856Y-104784819D01*
X194142856Y-104784819D02*
X194238094Y-104737200D01*
X194238094Y-104737200D02*
X194285713Y-104641961D01*
X194285713Y-104641961D02*
X194285713Y-104594342D01*
X194285713Y-104594342D02*
X194238094Y-104499104D01*
X194238094Y-104499104D02*
X194142856Y-104451485D01*
X194142856Y-104451485D02*
X193999999Y-104451485D01*
X193999999Y-104451485D02*
X193904761Y-104403866D01*
X193904761Y-104403866D02*
X193857142Y-104308628D01*
X193857142Y-104308628D02*
X193857142Y-104261009D01*
X193857142Y-104261009D02*
X193904761Y-104165771D01*
X193904761Y-104165771D02*
X193999999Y-104118152D01*
X193999999Y-104118152D02*
X194142856Y-104118152D01*
X194142856Y-104118152D02*
X194238094Y-104165771D01*
X194571428Y-104118152D02*
X194952380Y-104118152D01*
X194714285Y-103784819D02*
X194714285Y-104641961D01*
X194714285Y-104641961D02*
X194761904Y-104737200D01*
X194761904Y-104737200D02*
X194857142Y-104784819D01*
X194857142Y-104784819D02*
X194952380Y-104784819D01*
X195666666Y-104737200D02*
X195571428Y-104784819D01*
X195571428Y-104784819D02*
X195380952Y-104784819D01*
X195380952Y-104784819D02*
X195285714Y-104737200D01*
X195285714Y-104737200D02*
X195238095Y-104641961D01*
X195238095Y-104641961D02*
X195238095Y-104261009D01*
X195238095Y-104261009D02*
X195285714Y-104165771D01*
X195285714Y-104165771D02*
X195380952Y-104118152D01*
X195380952Y-104118152D02*
X195571428Y-104118152D01*
X195571428Y-104118152D02*
X195666666Y-104165771D01*
X195666666Y-104165771D02*
X195714285Y-104261009D01*
X195714285Y-104261009D02*
X195714285Y-104356247D01*
X195714285Y-104356247D02*
X195238095Y-104451485D01*
X196571428Y-104737200D02*
X196476190Y-104784819D01*
X196476190Y-104784819D02*
X196285714Y-104784819D01*
X196285714Y-104784819D02*
X196190476Y-104737200D01*
X196190476Y-104737200D02*
X196142857Y-104689580D01*
X196142857Y-104689580D02*
X196095238Y-104594342D01*
X196095238Y-104594342D02*
X196095238Y-104308628D01*
X196095238Y-104308628D02*
X196142857Y-104213390D01*
X196142857Y-104213390D02*
X196190476Y-104165771D01*
X196190476Y-104165771D02*
X196285714Y-104118152D01*
X196285714Y-104118152D02*
X196476190Y-104118152D01*
X196476190Y-104118152D02*
X196571428Y-104165771D01*
X197000000Y-104784819D02*
X197000000Y-103784819D01*
X197095238Y-104403866D02*
X197380952Y-104784819D01*
X197380952Y-104118152D02*
X197000000Y-104499104D01*
X198190476Y-104737200D02*
X198095238Y-104784819D01*
X198095238Y-104784819D02*
X197904762Y-104784819D01*
X197904762Y-104784819D02*
X197809524Y-104737200D01*
X197809524Y-104737200D02*
X197761905Y-104641961D01*
X197761905Y-104641961D02*
X197761905Y-104261009D01*
X197761905Y-104261009D02*
X197809524Y-104165771D01*
X197809524Y-104165771D02*
X197904762Y-104118152D01*
X197904762Y-104118152D02*
X198095238Y-104118152D01*
X198095238Y-104118152D02*
X198190476Y-104165771D01*
X198190476Y-104165771D02*
X198238095Y-104261009D01*
X198238095Y-104261009D02*
X198238095Y-104356247D01*
X198238095Y-104356247D02*
X197761905Y-104451485D01*
X198666667Y-104784819D02*
X198666667Y-104118152D01*
X198666667Y-104308628D02*
X198714286Y-104213390D01*
X198714286Y-104213390D02*
X198761905Y-104165771D01*
X198761905Y-104165771D02*
X198857143Y-104118152D01*
X198857143Y-104118152D02*
X198952381Y-104118152D01*
X177426666Y-104784819D02*
X177426666Y-103784819D01*
X177426666Y-103784819D02*
X177807618Y-103784819D01*
X177807618Y-103784819D02*
X177902856Y-103832438D01*
X177902856Y-103832438D02*
X177950475Y-103880057D01*
X177950475Y-103880057D02*
X177998094Y-103975295D01*
X177998094Y-103975295D02*
X177998094Y-104118152D01*
X177998094Y-104118152D02*
X177950475Y-104213390D01*
X177950475Y-104213390D02*
X177902856Y-104261009D01*
X177902856Y-104261009D02*
X177807618Y-104308628D01*
X177807618Y-104308628D02*
X177426666Y-104308628D01*
X178426666Y-104784819D02*
X178426666Y-104118152D01*
X178426666Y-104308628D02*
X178474285Y-104213390D01*
X178474285Y-104213390D02*
X178521904Y-104165771D01*
X178521904Y-104165771D02*
X178617142Y-104118152D01*
X178617142Y-104118152D02*
X178712380Y-104118152D01*
X179188571Y-104784819D02*
X179093333Y-104737200D01*
X179093333Y-104737200D02*
X179045714Y-104689580D01*
X179045714Y-104689580D02*
X178998095Y-104594342D01*
X178998095Y-104594342D02*
X178998095Y-104308628D01*
X178998095Y-104308628D02*
X179045714Y-104213390D01*
X179045714Y-104213390D02*
X179093333Y-104165771D01*
X179093333Y-104165771D02*
X179188571Y-104118152D01*
X179188571Y-104118152D02*
X179331428Y-104118152D01*
X179331428Y-104118152D02*
X179426666Y-104165771D01*
X179426666Y-104165771D02*
X179474285Y-104213390D01*
X179474285Y-104213390D02*
X179521904Y-104308628D01*
X179521904Y-104308628D02*
X179521904Y-104594342D01*
X179521904Y-104594342D02*
X179474285Y-104689580D01*
X179474285Y-104689580D02*
X179426666Y-104737200D01*
X179426666Y-104737200D02*
X179331428Y-104784819D01*
X179331428Y-104784819D02*
X179188571Y-104784819D01*
X180426666Y-104784819D02*
X179950476Y-104784819D01*
X179950476Y-104784819D02*
X179950476Y-103784819D01*
X181188571Y-104784819D02*
X181188571Y-104261009D01*
X181188571Y-104261009D02*
X181140952Y-104165771D01*
X181140952Y-104165771D02*
X181045714Y-104118152D01*
X181045714Y-104118152D02*
X180855238Y-104118152D01*
X180855238Y-104118152D02*
X180760000Y-104165771D01*
X181188571Y-104737200D02*
X181093333Y-104784819D01*
X181093333Y-104784819D02*
X180855238Y-104784819D01*
X180855238Y-104784819D02*
X180760000Y-104737200D01*
X180760000Y-104737200D02*
X180712381Y-104641961D01*
X180712381Y-104641961D02*
X180712381Y-104546723D01*
X180712381Y-104546723D02*
X180760000Y-104451485D01*
X180760000Y-104451485D02*
X180855238Y-104403866D01*
X180855238Y-104403866D02*
X181093333Y-104403866D01*
X181093333Y-104403866D02*
X181188571Y-104356247D01*
X181664762Y-104784819D02*
X181664762Y-103784819D01*
X181664762Y-104165771D02*
X181760000Y-104118152D01*
X181760000Y-104118152D02*
X181950476Y-104118152D01*
X181950476Y-104118152D02*
X182045714Y-104165771D01*
X182045714Y-104165771D02*
X182093333Y-104213390D01*
X182093333Y-104213390D02*
X182140952Y-104308628D01*
X182140952Y-104308628D02*
X182140952Y-104594342D01*
X182140952Y-104594342D02*
X182093333Y-104689580D01*
X182093333Y-104689580D02*
X182045714Y-104737200D01*
X182045714Y-104737200D02*
X181950476Y-104784819D01*
X181950476Y-104784819D02*
X181760000Y-104784819D01*
X181760000Y-104784819D02*
X181664762Y-104737200D01*
X197190714Y-95894819D02*
X196619286Y-95894819D01*
X196905000Y-95894819D02*
X196905000Y-94894819D01*
X196905000Y-94894819D02*
X196809762Y-95037676D01*
X196809762Y-95037676D02*
X196714524Y-95132914D01*
X196714524Y-95132914D02*
X196619286Y-95180533D01*
X177029523Y-95894819D02*
X176458095Y-95894819D01*
X176743809Y-95894819D02*
X176743809Y-94894819D01*
X176743809Y-94894819D02*
X176648571Y-95037676D01*
X176648571Y-95037676D02*
X176553333Y-95132914D01*
X176553333Y-95132914D02*
X176458095Y-95180533D01*
X177362857Y-94894819D02*
X177981904Y-94894819D01*
X177981904Y-94894819D02*
X177648571Y-95275771D01*
X177648571Y-95275771D02*
X177791428Y-95275771D01*
X177791428Y-95275771D02*
X177886666Y-95323390D01*
X177886666Y-95323390D02*
X177934285Y-95371009D01*
X177934285Y-95371009D02*
X177981904Y-95466247D01*
X177981904Y-95466247D02*
X177981904Y-95704342D01*
X177981904Y-95704342D02*
X177934285Y-95799580D01*
X177934285Y-95799580D02*
X177886666Y-95847200D01*
X177886666Y-95847200D02*
X177791428Y-95894819D01*
X177791428Y-95894819D02*
X177505714Y-95894819D01*
X177505714Y-95894819D02*
X177410476Y-95847200D01*
X177410476Y-95847200D02*
X177362857Y-95799580D01*
X170048095Y-96584819D02*
X170048095Y-97394342D01*
X170048095Y-97394342D02*
X170095714Y-97489580D01*
X170095714Y-97489580D02*
X170143333Y-97537200D01*
X170143333Y-97537200D02*
X170238571Y-97584819D01*
X170238571Y-97584819D02*
X170429047Y-97584819D01*
X170429047Y-97584819D02*
X170524285Y-97537200D01*
X170524285Y-97537200D02*
X170571904Y-97489580D01*
X170571904Y-97489580D02*
X170619523Y-97394342D01*
X170619523Y-97394342D02*
X170619523Y-96584819D01*
X171524285Y-96918152D02*
X171524285Y-97584819D01*
X171286190Y-96537200D02*
X171048095Y-97251485D01*
X171048095Y-97251485D02*
X171667142Y-97251485D01*
X145433333Y-87859580D02*
X145385714Y-87907200D01*
X145385714Y-87907200D02*
X145242857Y-87954819D01*
X145242857Y-87954819D02*
X145147619Y-87954819D01*
X145147619Y-87954819D02*
X145004762Y-87907200D01*
X145004762Y-87907200D02*
X144909524Y-87811961D01*
X144909524Y-87811961D02*
X144861905Y-87716723D01*
X144861905Y-87716723D02*
X144814286Y-87526247D01*
X144814286Y-87526247D02*
X144814286Y-87383390D01*
X144814286Y-87383390D02*
X144861905Y-87192914D01*
X144861905Y-87192914D02*
X144909524Y-87097676D01*
X144909524Y-87097676D02*
X145004762Y-87002438D01*
X145004762Y-87002438D02*
X145147619Y-86954819D01*
X145147619Y-86954819D02*
X145242857Y-86954819D01*
X145242857Y-86954819D02*
X145385714Y-87002438D01*
X145385714Y-87002438D02*
X145433333Y-87050057D01*
X145766667Y-86954819D02*
X146385714Y-86954819D01*
X146385714Y-86954819D02*
X146052381Y-87335771D01*
X146052381Y-87335771D02*
X146195238Y-87335771D01*
X146195238Y-87335771D02*
X146290476Y-87383390D01*
X146290476Y-87383390D02*
X146338095Y-87431009D01*
X146338095Y-87431009D02*
X146385714Y-87526247D01*
X146385714Y-87526247D02*
X146385714Y-87764342D01*
X146385714Y-87764342D02*
X146338095Y-87859580D01*
X146338095Y-87859580D02*
X146290476Y-87907200D01*
X146290476Y-87907200D02*
X146195238Y-87954819D01*
X146195238Y-87954819D02*
X145909524Y-87954819D01*
X145909524Y-87954819D02*
X145814286Y-87907200D01*
X145814286Y-87907200D02*
X145766667Y-87859580D01*
X171283333Y-88254819D02*
X170950000Y-87778628D01*
X170711905Y-88254819D02*
X170711905Y-87254819D01*
X170711905Y-87254819D02*
X171092857Y-87254819D01*
X171092857Y-87254819D02*
X171188095Y-87302438D01*
X171188095Y-87302438D02*
X171235714Y-87350057D01*
X171235714Y-87350057D02*
X171283333Y-87445295D01*
X171283333Y-87445295D02*
X171283333Y-87588152D01*
X171283333Y-87588152D02*
X171235714Y-87683390D01*
X171235714Y-87683390D02*
X171188095Y-87731009D01*
X171188095Y-87731009D02*
X171092857Y-87778628D01*
X171092857Y-87778628D02*
X170711905Y-87778628D01*
X171616667Y-87254819D02*
X172283333Y-87254819D01*
X172283333Y-87254819D02*
X171854762Y-88254819D01*
X157734819Y-81966666D02*
X157258628Y-82299999D01*
X157734819Y-82538094D02*
X156734819Y-82538094D01*
X156734819Y-82538094D02*
X156734819Y-82157142D01*
X156734819Y-82157142D02*
X156782438Y-82061904D01*
X156782438Y-82061904D02*
X156830057Y-82014285D01*
X156830057Y-82014285D02*
X156925295Y-81966666D01*
X156925295Y-81966666D02*
X157068152Y-81966666D01*
X157068152Y-81966666D02*
X157163390Y-82014285D01*
X157163390Y-82014285D02*
X157211009Y-82061904D01*
X157211009Y-82061904D02*
X157258628Y-82157142D01*
X157258628Y-82157142D02*
X157258628Y-82538094D01*
X157068152Y-81109523D02*
X157734819Y-81109523D01*
X156687200Y-81347618D02*
X157401485Y-81585713D01*
X157401485Y-81585713D02*
X157401485Y-80966666D01*
X122959580Y-76916666D02*
X123007200Y-76964285D01*
X123007200Y-76964285D02*
X123054819Y-77107142D01*
X123054819Y-77107142D02*
X123054819Y-77202380D01*
X123054819Y-77202380D02*
X123007200Y-77345237D01*
X123007200Y-77345237D02*
X122911961Y-77440475D01*
X122911961Y-77440475D02*
X122816723Y-77488094D01*
X122816723Y-77488094D02*
X122626247Y-77535713D01*
X122626247Y-77535713D02*
X122483390Y-77535713D01*
X122483390Y-77535713D02*
X122292914Y-77488094D01*
X122292914Y-77488094D02*
X122197676Y-77440475D01*
X122197676Y-77440475D02*
X122102438Y-77345237D01*
X122102438Y-77345237D02*
X122054819Y-77202380D01*
X122054819Y-77202380D02*
X122054819Y-77107142D01*
X122054819Y-77107142D02*
X122102438Y-76964285D01*
X122102438Y-76964285D02*
X122150057Y-76916666D01*
X123054819Y-75964285D02*
X123054819Y-76535713D01*
X123054819Y-76249999D02*
X122054819Y-76249999D01*
X122054819Y-76249999D02*
X122197676Y-76345237D01*
X122197676Y-76345237D02*
X122292914Y-76440475D01*
X122292914Y-76440475D02*
X122340533Y-76535713D01*
X148738095Y-74754819D02*
X148738095Y-75564342D01*
X148738095Y-75564342D02*
X148785714Y-75659580D01*
X148785714Y-75659580D02*
X148833333Y-75707200D01*
X148833333Y-75707200D02*
X148928571Y-75754819D01*
X148928571Y-75754819D02*
X149119047Y-75754819D01*
X149119047Y-75754819D02*
X149214285Y-75707200D01*
X149214285Y-75707200D02*
X149261904Y-75659580D01*
X149261904Y-75659580D02*
X149309523Y-75564342D01*
X149309523Y-75564342D02*
X149309523Y-74754819D01*
X149738095Y-74850057D02*
X149785714Y-74802438D01*
X149785714Y-74802438D02*
X149880952Y-74754819D01*
X149880952Y-74754819D02*
X150119047Y-74754819D01*
X150119047Y-74754819D02*
X150214285Y-74802438D01*
X150214285Y-74802438D02*
X150261904Y-74850057D01*
X150261904Y-74850057D02*
X150309523Y-74945295D01*
X150309523Y-74945295D02*
X150309523Y-75040533D01*
X150309523Y-75040533D02*
X150261904Y-75183390D01*
X150261904Y-75183390D02*
X149690476Y-75754819D01*
X149690476Y-75754819D02*
X150309523Y-75754819D01*
D13*
%TO.C,C7*%
X130770000Y-105310000D02*
X130770000Y-105625000D01*
X130770000Y-105310000D02*
X136010000Y-105310000D01*
X130770000Y-107735000D02*
X130770000Y-108050000D01*
X130770000Y-108050000D02*
X136010000Y-108050000D01*
X136010000Y-105310000D02*
X136010000Y-105625000D01*
X136010000Y-107735000D02*
X136010000Y-108050000D01*
%TO.C,D2*%
X131435000Y-93864000D02*
X131435000Y-94020000D01*
X131435000Y-96180000D02*
X131435000Y-96336000D01*
X131435001Y-93864485D02*
G75*
G02*
X134667334Y-94021392I1559999J-1235515D01*
G01*
X131954040Y-94020001D02*
G75*
G02*
X134036129Y-94020164I1040960J-1079999D01*
G01*
X134036129Y-96179836D02*
G75*
G02*
X131954040Y-96179999I-1041129J1079836D01*
G01*
X134667334Y-96178608D02*
G75*
G02*
X131435001Y-96335515I-1672334J1078608D01*
G01*
%TO.C,C6*%
X191650000Y-68480000D02*
X191650000Y-68795000D01*
X191650000Y-68480000D02*
X196890000Y-68480000D01*
X191650000Y-70905000D02*
X191650000Y-71220000D01*
X191650000Y-71220000D02*
X196890000Y-71220000D01*
X196890000Y-68480000D02*
X196890000Y-68795000D01*
X196890000Y-70905000D02*
X196890000Y-71220000D01*
%TO.C,R10*%
X126480000Y-96030000D02*
X126480000Y-102570000D01*
X126480000Y-102570000D02*
X129220000Y-102570000D01*
X127850000Y-95260000D02*
X127850000Y-96030000D01*
X127850000Y-103340000D02*
X127850000Y-102570000D01*
X129220000Y-96030000D02*
X126480000Y-96030000D01*
X129220000Y-102570000D02*
X129220000Y-96030000D01*
%TO.C,R5*%
X162690000Y-70400000D02*
X163460000Y-70400000D01*
X163460000Y-69030000D02*
X163460000Y-71770000D01*
X163460000Y-71770000D02*
X170000000Y-71770000D01*
X170000000Y-69030000D02*
X163460000Y-69030000D01*
X170000000Y-71770000D02*
X170000000Y-69030000D01*
X170770000Y-70400000D02*
X170000000Y-70400000D01*
%TO.C,C2*%
X119330000Y-83280000D02*
X119645000Y-83280000D01*
X119330000Y-88520000D02*
X119330000Y-83280000D01*
X119330000Y-88520000D02*
X119645000Y-88520000D01*
X121755000Y-83280000D02*
X122070000Y-83280000D01*
X121755000Y-88520000D02*
X122070000Y-88520000D01*
X122070000Y-88520000D02*
X122070000Y-83280000D01*
%TO.C,U1*%
X126160000Y-76470000D02*
X126160000Y-86750000D01*
X126160000Y-86750000D02*
X131460000Y-86750000D01*
X127810000Y-76470000D02*
X126160000Y-76470000D01*
X131460000Y-76470000D02*
X129810000Y-76470000D01*
X131460000Y-86750000D02*
X131460000Y-76470000D01*
X129810000Y-76470000D02*
G75*
G02*
X127810000Y-76470000I-1000000J0D01*
G01*
%TO.C,R6*%
X178190000Y-70500000D02*
X178960000Y-70500000D01*
X178960000Y-69130000D02*
X178960000Y-71870000D01*
X178960000Y-71870000D02*
X185500000Y-71870000D01*
X185500000Y-69130000D02*
X178960000Y-69130000D01*
X185500000Y-71870000D02*
X185500000Y-69130000D01*
X186270000Y-70500000D02*
X185500000Y-70500000D01*
%TO.C,REF\u002A\u002A*%
X186630000Y-74870000D02*
X187960000Y-74870000D01*
X186630000Y-76200000D02*
X186630000Y-74870000D01*
X186630000Y-77470000D02*
X186630000Y-90230000D01*
X186630000Y-77470000D02*
X189290000Y-77470000D01*
X186630000Y-90230000D02*
X189290000Y-90230000D01*
X189290000Y-77470000D02*
X189290000Y-90230000D01*
%TO.C,R8*%
X159010000Y-94800000D02*
X159780000Y-94800000D01*
X159780000Y-93430000D02*
X159780000Y-96170000D01*
X159780000Y-96170000D02*
X166320000Y-96170000D01*
X166320000Y-93430000D02*
X159780000Y-93430000D01*
X166320000Y-96170000D02*
X166320000Y-93430000D01*
X167090000Y-94800000D02*
X166320000Y-94800000D01*
%TO.C,REF\u002A\u002A*%
X189170000Y-74870000D02*
X190500000Y-74870000D01*
X189170000Y-76200000D02*
X189170000Y-74870000D01*
X189170000Y-77470000D02*
X189170000Y-90230000D01*
X189170000Y-77470000D02*
X191830000Y-77470000D01*
X189170000Y-90230000D02*
X191830000Y-90230000D01*
X191830000Y-77470000D02*
X191830000Y-90230000D01*
%TO.C,D3*%
X120364000Y-98490000D02*
X120520000Y-98490000D01*
X122680000Y-98490000D02*
X122836000Y-98490000D01*
X120364485Y-98489999D02*
G75*
G02*
X120521392Y-95257666I1235515J1559999D01*
G01*
X120520001Y-97970960D02*
G75*
G02*
X120520164Y-95888871I1079999J1040960D01*
G01*
X122678608Y-95257666D02*
G75*
G02*
X122835515Y-98489999I-1078608J-1672334D01*
G01*
X122679836Y-95888871D02*
G75*
G02*
X122679999Y-97970960I-1079836J-1041129D01*
G01*
%TO.C,R3*%
X142280000Y-77830000D02*
X142280000Y-84370000D01*
X142280000Y-84370000D02*
X145020000Y-84370000D01*
X143650000Y-77060000D02*
X143650000Y-77830000D01*
X143650000Y-85140000D02*
X143650000Y-84370000D01*
X145020000Y-77830000D02*
X142280000Y-77830000D01*
X145020000Y-84370000D02*
X145020000Y-77830000D01*
%TO.C,D1*%
X151635000Y-93314000D02*
X151635000Y-93470000D01*
X151635000Y-95630000D02*
X151635000Y-95786000D01*
X151635001Y-93314485D02*
G75*
G02*
X154867334Y-93471392I1559999J-1235515D01*
G01*
X152154040Y-93470001D02*
G75*
G02*
X154236129Y-93470164I1040960J-1079999D01*
G01*
X154236129Y-95629836D02*
G75*
G02*
X152154040Y-95629999I-1041129J1079836D01*
G01*
X154867334Y-95628608D02*
G75*
G02*
X151635001Y-95785515I-1672334J1078608D01*
G01*
%TO.C,R1*%
X123430000Y-69450000D02*
X124200000Y-69450000D01*
X124200000Y-68080000D02*
X124200000Y-70820000D01*
X124200000Y-70820000D02*
X130740000Y-70820000D01*
X130740000Y-68080000D02*
X124200000Y-68080000D01*
X130740000Y-70820000D02*
X130740000Y-68080000D01*
X131510000Y-69450000D02*
X130740000Y-69450000D01*
%TO.C,C5*%
X163730000Y-76980000D02*
X163730000Y-82220000D01*
X164045000Y-76980000D02*
X163730000Y-76980000D01*
X164045000Y-82220000D02*
X163730000Y-82220000D01*
X166470000Y-76980000D02*
X166155000Y-76980000D01*
X166470000Y-76980000D02*
X166470000Y-82220000D01*
X166470000Y-82220000D02*
X166155000Y-82220000D01*
%TO.C,REF\u002A\u002A*%
X191710000Y-74870000D02*
X193040000Y-74870000D01*
X191710000Y-76200000D02*
X191710000Y-74870000D01*
X191710000Y-77470000D02*
X191710000Y-90230000D01*
X191710000Y-77470000D02*
X194370000Y-77470000D01*
X191710000Y-90230000D02*
X194370000Y-90230000D01*
X194370000Y-77470000D02*
X194370000Y-90230000D01*
%TO.C,U3*%
X173880000Y-77410000D02*
X173880000Y-87690000D01*
X173880000Y-87690000D02*
X179180000Y-87690000D01*
X175530000Y-77410000D02*
X173880000Y-77410000D01*
X179180000Y-77410000D02*
X177530000Y-77410000D01*
X179180000Y-87690000D02*
X179180000Y-77410000D01*
X177530000Y-77410000D02*
G75*
G02*
X175530000Y-77410000I-1000000J0D01*
G01*
%TO.C,R2*%
X138480000Y-68960000D02*
X138480000Y-75500000D01*
X138480000Y-75500000D02*
X141220000Y-75500000D01*
X139850000Y-68190000D02*
X139850000Y-68960000D01*
X139850000Y-76270000D02*
X139850000Y-75500000D01*
X141220000Y-68960000D02*
X138480000Y-68960000D01*
X141220000Y-75500000D02*
X141220000Y-68960000D01*
%TO.C,C4*%
X145080000Y-70280000D02*
X145080000Y-70595000D01*
X145080000Y-70280000D02*
X150320000Y-70280000D01*
X145080000Y-72705000D02*
X145080000Y-73020000D01*
X145080000Y-73020000D02*
X150320000Y-73020000D01*
X150320000Y-70280000D02*
X150320000Y-70595000D01*
X150320000Y-72705000D02*
X150320000Y-73020000D01*
%TO.C,R9*%
X139260000Y-94900000D02*
X140030000Y-94900000D01*
X140030000Y-93530000D02*
X140030000Y-96270000D01*
X140030000Y-96270000D02*
X146570000Y-96270000D01*
X146570000Y-93530000D02*
X140030000Y-93530000D01*
X146570000Y-96270000D02*
X146570000Y-93530000D01*
X147340000Y-94900000D02*
X146570000Y-94900000D01*
%TO.C,J1*%
X174550000Y-99770000D02*
X200210000Y-99770000D01*
X174550000Y-108890000D02*
X174550000Y-99770000D01*
X185330000Y-99770000D02*
X185330000Y-108890000D01*
X189430000Y-99770000D02*
X189430000Y-108890000D01*
X194500000Y-93150000D02*
X195000000Y-94150000D01*
X195000000Y-94150000D02*
X195500000Y-93150000D01*
X195500000Y-93150000D02*
X194500000Y-93150000D01*
X200210000Y-99770000D02*
X200210000Y-108890000D01*
X200210000Y-108890000D02*
X174550000Y-108890000D01*
%TO.C,U4*%
X137870000Y-100490000D02*
X137870000Y-105790000D01*
X137870000Y-105790000D02*
X173550000Y-105790000D01*
X173550000Y-100490000D02*
X137870000Y-100490000D01*
X173550000Y-102140000D02*
X173550000Y-100490000D01*
X173550000Y-105790000D02*
X173550000Y-104140000D01*
X173550000Y-104140000D02*
G75*
G02*
X173550000Y-102140000I0J1000000D01*
G01*
%TO.C,C3*%
X142980000Y-88630000D02*
X142980000Y-88945000D01*
X142980000Y-88630000D02*
X148220000Y-88630000D01*
X142980000Y-91055000D02*
X142980000Y-91370000D01*
X142980000Y-91370000D02*
X148220000Y-91370000D01*
X148220000Y-88630000D02*
X148220000Y-88945000D01*
X148220000Y-91055000D02*
X148220000Y-91370000D01*
%TO.C,R7*%
X167410000Y-90170000D02*
X168180000Y-90170000D01*
X168180000Y-88800000D02*
X168180000Y-91540000D01*
X168180000Y-91540000D02*
X174720000Y-91540000D01*
X174720000Y-88800000D02*
X168180000Y-88800000D01*
X174720000Y-91540000D02*
X174720000Y-88800000D01*
X175490000Y-90170000D02*
X174720000Y-90170000D01*
%TO.C,REF\u002A\u002A*%
X194250000Y-74870000D02*
X195580000Y-74870000D01*
X194250000Y-76200000D02*
X194250000Y-74870000D01*
X194250000Y-77470000D02*
X194250000Y-90230000D01*
X194250000Y-77470000D02*
X196910000Y-77470000D01*
X194250000Y-90230000D02*
X196910000Y-90230000D01*
X196910000Y-77470000D02*
X196910000Y-90230000D01*
%TO.C,R4*%
X158280000Y-78530000D02*
X158280000Y-85070000D01*
X158280000Y-85070000D02*
X161020000Y-85070000D01*
X159650000Y-77760000D02*
X159650000Y-78530000D01*
X159650000Y-85840000D02*
X159650000Y-85070000D01*
X161020000Y-78530000D02*
X158280000Y-78530000D01*
X161020000Y-85070000D02*
X161020000Y-78530000D01*
%TO.C,REF\u002A\u002A*%
X196790000Y-74870000D02*
X198120000Y-74870000D01*
X196790000Y-76200000D02*
X196790000Y-74870000D01*
X196790000Y-77470000D02*
X196790000Y-90230000D01*
X196790000Y-77470000D02*
X199450000Y-77470000D01*
X196790000Y-90230000D02*
X199450000Y-90230000D01*
X199450000Y-77470000D02*
X199450000Y-90230000D01*
%TO.C,C1*%
X118730000Y-74130000D02*
X118730000Y-79370000D01*
X119045000Y-74130000D02*
X118730000Y-74130000D01*
X119045000Y-79370000D02*
X118730000Y-79370000D01*
X121470000Y-74130000D02*
X121155000Y-74130000D01*
X121470000Y-74130000D02*
X121470000Y-79370000D01*
X121470000Y-79370000D02*
X121155000Y-79370000D01*
%TO.C,U2*%
X149210000Y-76520000D02*
X149210000Y-86800000D01*
X149210000Y-86800000D02*
X154510000Y-86800000D01*
X150860000Y-76520000D02*
X149210000Y-76520000D01*
X154510000Y-76520000D02*
X152860000Y-76520000D01*
X154510000Y-86800000D02*
X154510000Y-76520000D01*
X152860000Y-76520000D02*
G75*
G02*
X150860000Y-76520000I-1000000J0D01*
G01*
%TD*%
M02*
