%TF.GenerationSoftware,KiCad,Pcbnew,8.0.0*%
%TF.CreationDate,2024-06-04T15:45:32+02:00*%
%TF.ProjectId,filter prolab,66696c74-6572-4207-9072-6f6c61622e6b,rev?*%
%TF.SameCoordinates,Original*%
%TF.FileFunction,Copper,L1,Top*%
%TF.FilePolarity,Positive*%
%FSLAX46Y46*%
G04 Gerber Fmt 4.6, Leading zero omitted, Abs format (unit mm)*
G04 Created by KiCad (PCBNEW 8.0.0) date 2024-06-04 15:45:32*
%MOMM*%
%LPD*%
G01*
G04 APERTURE LIST*
G04 Aperture macros list*
%AMRoundRect*
0 Rectangle with rounded corners*
0 $1 Rounding radius*
0 $2 $3 $4 $5 $6 $7 $8 $9 X,Y pos of 4 corners*
0 Add a 4 corners polygon primitive as box body*
4,1,4,$2,$3,$4,$5,$6,$7,$8,$9,$2,$3,0*
0 Add four circle primitives for the rounded corners*
1,1,$1+$1,$2,$3*
1,1,$1+$1,$4,$5*
1,1,$1+$1,$6,$7*
1,1,$1+$1,$8,$9*
0 Add four rect primitives between the rounded corners*
20,1,$1+$1,$2,$3,$4,$5,0*
20,1,$1+$1,$4,$5,$6,$7,0*
20,1,$1+$1,$6,$7,$8,$9,0*
20,1,$1+$1,$8,$9,$2,$3,0*%
G04 Aperture macros list end*
%TA.AperFunction,ComponentPad*%
%ADD10C,1.600000*%
%TD*%
%TA.AperFunction,ComponentPad*%
%ADD11R,1.800000X1.800000*%
%TD*%
%TA.AperFunction,ComponentPad*%
%ADD12C,1.800000*%
%TD*%
%TA.AperFunction,ComponentPad*%
%ADD13O,1.600000X1.600000*%
%TD*%
%TA.AperFunction,ComponentPad*%
%ADD14R,1.600000X1.600000*%
%TD*%
%TA.AperFunction,ComponentPad*%
%ADD15R,1.700000X1.700000*%
%TD*%
%TA.AperFunction,ComponentPad*%
%ADD16O,1.700000X1.700000*%
%TD*%
%TA.AperFunction,ComponentPad*%
%ADD17RoundRect,0.250000X-0.600000X0.600000X-0.600000X-0.600000X0.600000X-0.600000X0.600000X0.600000X0*%
%TD*%
%TA.AperFunction,ComponentPad*%
%ADD18C,1.700000*%
%TD*%
%TA.AperFunction,ViaPad*%
%ADD19C,0.600000*%
%TD*%
%TA.AperFunction,Conductor*%
%ADD20C,0.600000*%
%TD*%
%TA.AperFunction,Conductor*%
%ADD21C,0.400000*%
%TD*%
%TA.AperFunction,Conductor*%
%ADD22C,0.800000*%
%TD*%
G04 APERTURE END LIST*
D10*
%TO.P,C7,1*%
%TO.N,GND*%
X130890000Y-106680000D03*
%TO.P,C7,2*%
%TO.N,+5V*%
X135890000Y-106680000D03*
%TD*%
D11*
%TO.P,D2,1,K*%
%TO.N,GND*%
X131725000Y-95100000D03*
D12*
%TO.P,D2,2,A*%
%TO.N,Net-(D2-A)*%
X134265000Y-95100000D03*
%TD*%
D10*
%TO.P,C6,1*%
%TO.N,Net-(U3-+)*%
X191770000Y-69850000D03*
%TO.P,C6,2*%
%TO.N,GND*%
X196770000Y-69850000D03*
%TD*%
%TO.P,R10,1*%
%TO.N,Net-(U4-PD4)*%
X127850000Y-104380000D03*
D13*
%TO.P,R10,2*%
%TO.N,Net-(D3-A)*%
X127850000Y-94220000D03*
%TD*%
D10*
%TO.P,R5,1*%
%TO.N,Net-(U2--)*%
X161650000Y-70400000D03*
D13*
%TO.P,R5,2*%
%TO.N,Net-(C5-Pad1)*%
X171810000Y-70400000D03*
%TD*%
D10*
%TO.P,C2,1*%
%TO.N,Net-(C2-Pad1)*%
X120700000Y-88400000D03*
%TO.P,C2,2*%
%TO.N,Net-(U1--)*%
X120700000Y-83400000D03*
%TD*%
D14*
%TO.P,U1,1*%
%TO.N,N/C*%
X125000000Y-77800000D03*
D13*
%TO.P,U1,2,-*%
%TO.N,Net-(U1--)*%
X125000000Y-80340000D03*
%TO.P,U1,3,+*%
%TO.N,Net-(U1-+)*%
X125000000Y-82880000D03*
%TO.P,U1,4,V-*%
%TO.N,-10V*%
X125000000Y-85420000D03*
%TO.P,U1,5,NC*%
%TO.N,unconnected-(U1-NC-Pad5)*%
X132620000Y-85420000D03*
%TO.P,U1,6*%
%TO.N,Net-(U1--)*%
X132620000Y-82880000D03*
%TO.P,U1,7,V+*%
%TO.N,+10V*%
X132620000Y-80340000D03*
%TO.P,U1,8*%
%TO.N,N/C*%
X132620000Y-77800000D03*
%TD*%
D10*
%TO.P,R6,1*%
%TO.N,Net-(C5-Pad1)*%
X177150000Y-70500000D03*
D13*
%TO.P,R6,2*%
%TO.N,Net-(U3-+)*%
X187310000Y-70500000D03*
%TD*%
D15*
%TO.P,REF\u002A\u002A,1*%
%TO.N,N/C*%
X187960000Y-76200000D03*
D16*
%TO.P,REF\u002A\u002A,2*%
X187960000Y-78740000D03*
%TO.P,REF\u002A\u002A,3*%
X187960000Y-81280000D03*
%TO.P,REF\u002A\u002A,4*%
X187960000Y-83820000D03*
%TO.P,REF\u002A\u002A,5*%
X187960000Y-86360000D03*
%TO.P,REF\u002A\u002A,6*%
X187960000Y-88900000D03*
%TD*%
D10*
%TO.P,R8,1*%
%TO.N,Net-(U4-PD0)*%
X157970000Y-94800000D03*
D13*
%TO.P,R8,2*%
%TO.N,Net-(D1-A)*%
X168130000Y-94800000D03*
%TD*%
D15*
%TO.P,REF\u002A\u002A,1*%
%TO.N,N/C*%
X190500000Y-76200000D03*
D16*
%TO.P,REF\u002A\u002A,2*%
X190500000Y-78740000D03*
%TO.P,REF\u002A\u002A,3*%
X190500000Y-81280000D03*
%TO.P,REF\u002A\u002A,4*%
X190500000Y-83820000D03*
%TO.P,REF\u002A\u002A,5*%
X190500000Y-86360000D03*
%TO.P,REF\u002A\u002A,6*%
X190500000Y-88900000D03*
%TD*%
D11*
%TO.P,D3,1,K*%
%TO.N,GND*%
X121600000Y-98200000D03*
D12*
%TO.P,D3,2,A*%
%TO.N,Net-(D3-A)*%
X121600000Y-95660000D03*
%TD*%
D10*
%TO.P,R3,1*%
%TO.N,Net-(U1--)*%
X143650000Y-76020000D03*
D13*
%TO.P,R3,2*%
%TO.N,Net-(C3-Pad1)*%
X143650000Y-86180000D03*
%TD*%
D11*
%TO.P,D1,1,K*%
%TO.N,GND*%
X151925000Y-94550000D03*
D12*
%TO.P,D1,2,A*%
%TO.N,Net-(D1-A)*%
X154465000Y-94550000D03*
%TD*%
D10*
%TO.P,R1,1*%
%TO.N,Net-(C2-Pad1)*%
X132550000Y-69450000D03*
D13*
%TO.P,R1,2*%
%TO.N,Net-(U1-+)*%
X122390000Y-69450000D03*
%TD*%
D10*
%TO.P,C5,1*%
%TO.N,Net-(C5-Pad1)*%
X165100000Y-77100000D03*
%TO.P,C5,2*%
%TO.N,Net-(U3--)*%
X165100000Y-82100000D03*
%TD*%
D15*
%TO.P,REF\u002A\u002A,1*%
%TO.N,N/C*%
X193040000Y-76200000D03*
D16*
%TO.P,REF\u002A\u002A,2*%
X193040000Y-78740000D03*
%TO.P,REF\u002A\u002A,3*%
X193040000Y-81280000D03*
%TO.P,REF\u002A\u002A,4*%
X193040000Y-83820000D03*
%TO.P,REF\u002A\u002A,5*%
X193040000Y-86360000D03*
%TO.P,REF\u002A\u002A,6*%
X193040000Y-88900000D03*
%TD*%
D14*
%TO.P,U3,1*%
%TO.N,N/C*%
X172720000Y-78740000D03*
D13*
%TO.P,U3,2,-*%
%TO.N,Net-(U3--)*%
X172720000Y-81280000D03*
%TO.P,U3,3,+*%
%TO.N,Net-(U3-+)*%
X172720000Y-83820000D03*
%TO.P,U3,4,V-*%
%TO.N,-10V*%
X172720000Y-86360000D03*
%TO.P,U3,5,NC*%
%TO.N,unconnected-(U3-NC-Pad5)*%
X180340000Y-86360000D03*
%TO.P,U3,6*%
%TO.N,Net-(U3--)*%
X180340000Y-83820000D03*
%TO.P,U3,7,V+*%
%TO.N,+10V*%
X180340000Y-81280000D03*
%TO.P,U3,8*%
%TO.N,N/C*%
X180340000Y-78740000D03*
%TD*%
D10*
%TO.P,R2,1*%
%TO.N,/Input Voltage*%
X139850000Y-67150000D03*
D13*
%TO.P,R2,2*%
%TO.N,Net-(C2-Pad1)*%
X139850000Y-77310000D03*
%TD*%
D10*
%TO.P,C4,1*%
%TO.N,Net-(U2-+)*%
X145200000Y-71650000D03*
%TO.P,C4,2*%
%TO.N,GND*%
X150200000Y-71650000D03*
%TD*%
%TO.P,R9,1*%
%TO.N,Net-(U4-PD2)*%
X138220000Y-94900000D03*
D13*
%TO.P,R9,2*%
%TO.N,Net-(D2-A)*%
X148380000Y-94900000D03*
%TD*%
D17*
%TO.P,J1,1,Pin_1*%
%TO.N,+10V*%
X195000000Y-95500000D03*
D18*
%TO.P,J1,2,Pin_2*%
X195000000Y-98040000D03*
%TO.P,J1,3,Pin_3*%
%TO.N,-10V*%
X192460000Y-95500000D03*
%TO.P,J1,4,Pin_4*%
%TO.N,unconnected-(J1-Pin_4-Pad4)*%
X192460000Y-98040000D03*
%TO.P,J1,5,Pin_5*%
%TO.N,GND*%
X189920000Y-95500000D03*
%TO.P,J1,6,Pin_6*%
X189920000Y-98040000D03*
%TO.P,J1,7,Pin_7*%
%TO.N,unconnected-(J1-Pin_7-Pad7)*%
X187380000Y-95500000D03*
%TO.P,J1,8,Pin_8*%
%TO.N,unconnected-(J1-Pin_8-Pad8)*%
X187380000Y-98040000D03*
%TO.P,J1,9,Pin_9*%
%TO.N,unconnected-(J1-Pin_9-Pad9)*%
X184840000Y-95500000D03*
%TO.P,J1,10,Pin_10*%
%TO.N,/Input Voltage*%
X184840000Y-98040000D03*
%TO.P,J1,11,Pin_11*%
%TO.N,/Output Voltage{slash} Signal *%
X182300000Y-95500000D03*
%TO.P,J1,12,Pin_12*%
%TO.N,unconnected-(J1-Pin_12-Pad12)*%
X182300000Y-98040000D03*
%TO.P,J1,13,Pin_13*%
%TO.N,unconnected-(J1-Pin_13-Pad13)*%
X179760000Y-95500000D03*
%TO.P,J1,14,Pin_14*%
%TO.N,+5V*%
X179760000Y-98040000D03*
%TD*%
D14*
%TO.P,U4,1,~{RESET}/PC6*%
%TO.N,unconnected-(U4-~{RESET}{slash}PC6-Pad1)*%
X172220000Y-99330000D03*
D13*
%TO.P,U4,2,PD0*%
%TO.N,Net-(U4-PD0)*%
X169680000Y-99330000D03*
%TO.P,U4,3,PD1*%
%TO.N,unconnected-(U4-PD1-Pad3)*%
X167140000Y-99330000D03*
%TO.P,U4,4,PD2*%
%TO.N,Net-(U4-PD2)*%
X164600000Y-99330000D03*
%TO.P,U4,5,PD3*%
%TO.N,unconnected-(U4-PD3-Pad5)*%
X162060000Y-99330000D03*
%TO.P,U4,6,PD4*%
%TO.N,Net-(U4-PD4)*%
X159520000Y-99330000D03*
%TO.P,U4,7,VCC*%
%TO.N,+5V*%
X156980000Y-99330000D03*
%TO.P,U4,8,GND*%
%TO.N,GND*%
X154440000Y-99330000D03*
%TO.P,U4,9,XTAL1/PB6*%
%TO.N,unconnected-(U4-XTAL1{slash}PB6-Pad9)*%
X151900000Y-99330000D03*
%TO.P,U4,10,XTAL2/PB7*%
%TO.N,unconnected-(U4-XTAL2{slash}PB7-Pad10)*%
X149360000Y-99330000D03*
%TO.P,U4,11,PD5*%
%TO.N,unconnected-(U4-PD5-Pad11)*%
X146820000Y-99330000D03*
%TO.P,U4,12,PD6*%
%TO.N,/Output Voltage{slash} Signal *%
X144280000Y-99330000D03*
%TO.P,U4,13,PD7*%
%TO.N,unconnected-(U4-PD7-Pad13)*%
X141740000Y-99330000D03*
%TO.P,U4,14,PB0*%
%TO.N,unconnected-(U4-PB0-Pad14)*%
X139200000Y-99330000D03*
%TO.P,U4,15,PB1*%
%TO.N,unconnected-(U4-PB1-Pad15)*%
X139200000Y-106950000D03*
%TO.P,U4,16,PB2*%
%TO.N,unconnected-(U4-PB2-Pad16)*%
X141740000Y-106950000D03*
%TO.P,U4,17,PB3*%
%TO.N,unconnected-(U4-PB3-Pad17)*%
X144280000Y-106950000D03*
%TO.P,U4,18,PB4*%
%TO.N,unconnected-(U4-PB4-Pad18)*%
X146820000Y-106950000D03*
%TO.P,U4,19,PB5*%
%TO.N,unconnected-(U4-PB5-Pad19)*%
X149360000Y-106950000D03*
%TO.P,U4,20,AVCC*%
%TO.N,+5V*%
X151900000Y-106950000D03*
%TO.P,U4,21,AREF*%
%TO.N,unconnected-(U4-AREF-Pad21)*%
X154440000Y-106950000D03*
%TO.P,U4,22,GND*%
%TO.N,GND*%
X156980000Y-106950000D03*
%TO.P,U4,23,PC0*%
%TO.N,unconnected-(U4-PC0-Pad23)*%
X159520000Y-106950000D03*
%TO.P,U4,24,PC1*%
%TO.N,unconnected-(U4-PC1-Pad24)*%
X162060000Y-106950000D03*
%TO.P,U4,25,PC2*%
%TO.N,unconnected-(U4-PC2-Pad25)*%
X164600000Y-106950000D03*
%TO.P,U4,26,PC3*%
%TO.N,unconnected-(U4-PC3-Pad26)*%
X167140000Y-106950000D03*
%TO.P,U4,27,PC4*%
%TO.N,unconnected-(U4-PC4-Pad27)*%
X169680000Y-106950000D03*
%TO.P,U4,28,PC5*%
%TO.N,unconnected-(U4-PC5-Pad28)*%
X172220000Y-106950000D03*
%TD*%
D10*
%TO.P,C3,1*%
%TO.N,Net-(C3-Pad1)*%
X143100000Y-90000000D03*
%TO.P,C3,2*%
%TO.N,Net-(U2--)*%
X148100000Y-90000000D03*
%TD*%
%TO.P,R7,1*%
%TO.N,Net-(U3--)*%
X166370000Y-90170000D03*
D13*
%TO.P,R7,2*%
%TO.N,/Output Voltage{slash} Signal *%
X176530000Y-90170000D03*
%TD*%
D15*
%TO.P,REF\u002A\u002A,1*%
%TO.N,N/C*%
X195580000Y-76200000D03*
D16*
%TO.P,REF\u002A\u002A,2*%
X195580000Y-78740000D03*
%TO.P,REF\u002A\u002A,3*%
X195580000Y-81280000D03*
%TO.P,REF\u002A\u002A,4*%
X195580000Y-83820000D03*
%TO.P,REF\u002A\u002A,5*%
X195580000Y-86360000D03*
%TO.P,REF\u002A\u002A,6*%
X195580000Y-88900000D03*
%TD*%
D10*
%TO.P,R4,1*%
%TO.N,Net-(C3-Pad1)*%
X159650000Y-86880000D03*
D13*
%TO.P,R4,2*%
%TO.N,Net-(U2-+)*%
X159650000Y-76720000D03*
%TD*%
D15*
%TO.P,REF\u002A\u002A,1*%
%TO.N,N/C*%
X198120000Y-76200000D03*
D16*
%TO.P,REF\u002A\u002A,2*%
X198120000Y-78740000D03*
%TO.P,REF\u002A\u002A,3*%
X198120000Y-81280000D03*
%TO.P,REF\u002A\u002A,4*%
X198120000Y-83820000D03*
%TO.P,REF\u002A\u002A,5*%
X198120000Y-86360000D03*
%TO.P,REF\u002A\u002A,6*%
X198120000Y-88900000D03*
%TD*%
D10*
%TO.P,C1,1*%
%TO.N,Net-(U1-+)*%
X120100000Y-74250000D03*
%TO.P,C1,2*%
%TO.N,GND*%
X120100000Y-79250000D03*
%TD*%
D14*
%TO.P,U2,1*%
%TO.N,N/C*%
X148050000Y-77850000D03*
D13*
%TO.P,U2,2,-*%
%TO.N,Net-(U2--)*%
X148050000Y-80390000D03*
%TO.P,U2,3,+*%
%TO.N,Net-(U2-+)*%
X148050000Y-82930000D03*
%TO.P,U2,4,V-*%
%TO.N,-10V*%
X148050000Y-85470000D03*
%TO.P,U2,5,NC*%
%TO.N,unconnected-(U2-NC-Pad5)*%
X155670000Y-85470000D03*
%TO.P,U2,6*%
%TO.N,Net-(U2--)*%
X155670000Y-82930000D03*
%TO.P,U2,7,V+*%
%TO.N,+10V*%
X155670000Y-80390000D03*
%TO.P,U2,8*%
%TO.N,N/C*%
X155670000Y-77850000D03*
%TD*%
D19*
%TO.N,GND*%
X139811648Y-83047049D03*
X135077328Y-84641259D03*
X169416710Y-84375908D03*
X176674928Y-85635359D03*
X175407075Y-78860952D03*
X151357590Y-83723381D03*
X126816424Y-83095359D03*
X151309281Y-78361039D03*
X130149771Y-85462519D03*
X170180000Y-80010000D03*
%TO.N,Net-(U1-+)*%
X123200000Y-82200000D03*
%TO.N,Net-(C2-Pad1)*%
X124600000Y-88400006D03*
%TO.N,Net-(C3-Pad1)*%
X149000000Y-88150000D03*
%TO.N,Net-(U2--)*%
X159100000Y-79450000D03*
%TO.N,Net-(U3-+)*%
X175260000Y-82550000D03*
%TO.N,/Output Voltage{slash} Signal *%
X181610000Y-92829698D03*
X177400000Y-97050000D03*
%TO.N,-10V*%
X150350000Y-86300000D03*
X167640000Y-85480000D03*
%TO.N,+10V*%
X138000000Y-80300000D03*
X181610000Y-77470000D03*
%TO.N,Net-(U4-PD0)*%
X164400000Y-95100000D03*
%TO.N,Net-(U4-PD2)*%
X144750000Y-94850000D03*
%TO.N,+5V*%
X157450000Y-101500000D03*
X151950000Y-105000000D03*
%TD*%
D20*
%TO.N,Net-(U1-+)*%
X120100000Y-74250000D02*
X120100000Y-71740000D01*
X125000000Y-82880000D02*
X123880000Y-82880000D01*
X123880000Y-82880000D02*
X123200000Y-82200000D01*
X120100000Y-71740000D02*
X122390000Y-69450000D01*
D21*
%TO.N,Net-(U1--)*%
X132620000Y-82880000D02*
X136790000Y-82880000D01*
X136790000Y-82880000D02*
X143650000Y-76020000D01*
X129280001Y-79540001D02*
X132620000Y-82880000D01*
D20*
X120700000Y-83400000D02*
X123760000Y-80340000D01*
D21*
X125000000Y-80340000D02*
X125799999Y-79540001D01*
X125799999Y-79540001D02*
X129280001Y-79540001D01*
D20*
X123760000Y-80340000D02*
X125000000Y-80340000D01*
D21*
%TO.N,Net-(C2-Pad1)*%
X132550000Y-70010000D02*
X132550000Y-69450000D01*
D20*
X120700000Y-88400000D02*
X124599994Y-88400000D01*
X124599994Y-88400000D02*
X124600000Y-88400006D01*
X139850000Y-77310000D02*
X132550000Y-70010000D01*
%TO.N,Net-(C3-Pad1)*%
X145480000Y-86180000D02*
X146600000Y-87300000D01*
X143650000Y-86180000D02*
X143650000Y-89450000D01*
X146600000Y-87300000D02*
X148150000Y-87300000D01*
X143650000Y-89450000D02*
X143100000Y-90000000D01*
X148150000Y-87300000D02*
X149000000Y-88150000D01*
X143650000Y-86180000D02*
X145480000Y-86180000D01*
%TO.N,Net-(U2--)*%
X148600000Y-90000000D02*
X155670000Y-82930000D01*
X153130000Y-80390000D02*
X155670000Y-82930000D01*
X159150000Y-79400000D02*
X159100000Y-79450000D01*
X148050000Y-80390000D02*
X153130000Y-80390000D01*
X159850000Y-79400000D02*
X159150000Y-79400000D01*
X148100000Y-90000000D02*
X148600000Y-90000000D01*
X161650000Y-77600000D02*
X159850000Y-79400000D01*
X161650000Y-70400000D02*
X161650000Y-77600000D01*
%TO.N,Net-(U2-+)*%
X145200000Y-80080000D02*
X145200000Y-71650000D01*
X159650000Y-76720000D02*
X158850001Y-75920001D01*
X158850001Y-75920001D02*
X149470001Y-75920001D01*
X149470001Y-75920001D02*
X145200000Y-71650000D01*
X148050000Y-82930000D02*
X145200000Y-80080000D01*
%TO.N,Net-(U3--)*%
X180340000Y-83820000D02*
X177800000Y-81280000D01*
X177800000Y-81280000D02*
X172720000Y-81280000D01*
X165100000Y-82100000D02*
X171900000Y-82100000D01*
X171900000Y-82100000D02*
X172720000Y-81280000D01*
X166370000Y-83370000D02*
X165100000Y-82100000D01*
X166370000Y-90170000D02*
X166370000Y-83370000D01*
%TO.N,Net-(C5-Pad1)*%
X165100000Y-77100000D02*
X167420000Y-77100000D01*
X167420000Y-77100000D02*
X171810000Y-72710000D01*
X171810000Y-72710000D02*
X171810000Y-70400000D01*
X171810000Y-70400000D02*
X177050000Y-70400000D01*
X177050000Y-70400000D02*
X177150000Y-70500000D01*
%TO.N,Net-(U3-+)*%
X173990000Y-83820000D02*
X175260000Y-82550000D01*
X187310000Y-70500000D02*
X189470000Y-70500000D01*
X189470000Y-70500000D02*
X190120000Y-69850000D01*
X172720000Y-83820000D02*
X173990000Y-83820000D01*
X190120000Y-69850000D02*
X191770000Y-69850000D01*
%TO.N,/Input Voltage*%
X185600000Y-99300000D02*
X185600000Y-98800000D01*
X200660000Y-94540000D02*
X193750000Y-101450000D01*
X185600000Y-98800000D02*
X184840000Y-98040000D01*
X193750000Y-101450000D02*
X187750000Y-101450000D01*
X187750000Y-101450000D02*
X185600000Y-99300000D01*
X200660000Y-68580000D02*
X200660000Y-94540000D01*
X139850000Y-67150000D02*
X199230000Y-67150000D01*
X199230000Y-67150000D02*
X200660000Y-68580000D01*
%TO.N,/Output Voltage{slash} Signal *%
X176200000Y-97450000D02*
X177000000Y-97450000D01*
X176530000Y-90170000D02*
X178950302Y-90170000D01*
X144280000Y-99330000D02*
X146160000Y-97450000D01*
X178950302Y-90170000D02*
X181610000Y-92829698D01*
X177000000Y-97450000D02*
X177400000Y-97050000D01*
X146160000Y-97450000D02*
X176200000Y-97450000D01*
D22*
%TO.N,-10V*%
X150350000Y-86300000D02*
X148880000Y-86300000D01*
X185420000Y-92710000D02*
X189670000Y-92710000D01*
X125000000Y-86850000D02*
X125000000Y-85420000D01*
X132800000Y-88800000D02*
X126950000Y-88800000D01*
X181610000Y-88900000D02*
X185420000Y-92710000D01*
X189670000Y-92710000D02*
X192460000Y-95500000D01*
X148880000Y-86300000D02*
X148050000Y-85470000D01*
X148050000Y-85470000D02*
X147250001Y-84670001D01*
X192460000Y-95500000D02*
X192270101Y-95500000D01*
X136929999Y-84670001D02*
X132800000Y-88800000D01*
X126950000Y-88800000D02*
X125000000Y-86850000D01*
X172720000Y-86360000D02*
X168520000Y-86360000D01*
X174760000Y-88400000D02*
X172720000Y-86360000D01*
X179070000Y-88400000D02*
X181110000Y-88400000D01*
X181110000Y-88400000D02*
X181610000Y-88900000D01*
X179070000Y-88400000D02*
X174760000Y-88400000D01*
X147250001Y-84670001D02*
X136929999Y-84670001D01*
X168520000Y-86360000D02*
X167640000Y-85480000D01*
%TO.N,+10V*%
X181610000Y-77470000D02*
X181610000Y-77010000D01*
X195000000Y-95500000D02*
X195000000Y-98040000D01*
X132620000Y-80340000D02*
X137960000Y-80340000D01*
X195000000Y-95500000D02*
X194560000Y-95500000D01*
X155670000Y-80390000D02*
X165990000Y-80390000D01*
X165990000Y-80390000D02*
X169738248Y-76641752D01*
X137960000Y-80340000D02*
X138000000Y-80300000D01*
X181610000Y-77010000D02*
X181241752Y-76641752D01*
X169738248Y-76641752D02*
X181241752Y-76641752D01*
D20*
%TO.N,Net-(U4-PD0)*%
X164100000Y-94800000D02*
X164400000Y-95100000D01*
X157970000Y-94800000D02*
X164100000Y-94800000D01*
%TO.N,Net-(U4-PD2)*%
X138220000Y-94900000D02*
X144700000Y-94900000D01*
X144700000Y-94900000D02*
X144750000Y-94850000D01*
%TO.N,Net-(U4-PD4)*%
X158481371Y-103000000D02*
X159520000Y-101961371D01*
X127850000Y-104380000D02*
X129230000Y-103000000D01*
X159520000Y-101961371D02*
X159520000Y-99330000D01*
X129230000Y-103000000D02*
X158481371Y-103000000D01*
%TO.N,Net-(D1-A)*%
X154465000Y-94550000D02*
X156515000Y-96600000D01*
X156515000Y-96600000D02*
X166330000Y-96600000D01*
X166330000Y-96600000D02*
X168130000Y-94800000D01*
%TO.N,Net-(D2-A)*%
X146580000Y-93100000D02*
X148380000Y-94900000D01*
X134265000Y-95100000D02*
X136265000Y-93100000D01*
X136265000Y-93100000D02*
X146580000Y-93100000D01*
%TO.N,Net-(D3-A)*%
X123040000Y-94220000D02*
X127850000Y-94220000D01*
X121600000Y-95660000D02*
X123040000Y-94220000D01*
D22*
%TO.N,+5V*%
X151900000Y-105050000D02*
X151950000Y-105000000D01*
D20*
X150240000Y-108610000D02*
X151900000Y-106950000D01*
D22*
X156980000Y-101030000D02*
X157450000Y-101500000D01*
D20*
X137820000Y-108610000D02*
X150240000Y-108610000D01*
D22*
X156980000Y-99330000D02*
X156980000Y-101030000D01*
X151900000Y-106950000D02*
X151900000Y-105050000D01*
D20*
X135890000Y-106680000D02*
X137820000Y-108610000D01*
%TD*%
%TA.AperFunction,Conductor*%
%TO.N,GND*%
G36*
X129005521Y-80260186D02*
G01*
X129026163Y-80276820D01*
X131298972Y-82549629D01*
X131332457Y-82610952D01*
X131334819Y-82648117D01*
X131314532Y-82879998D01*
X131314532Y-82880001D01*
X131334364Y-83106686D01*
X131334366Y-83106697D01*
X131393258Y-83326488D01*
X131393261Y-83326497D01*
X131489431Y-83532732D01*
X131489432Y-83532734D01*
X131619954Y-83719141D01*
X131780858Y-83880045D01*
X131780861Y-83880047D01*
X131967266Y-84010568D01*
X132025275Y-84037618D01*
X132077714Y-84083791D01*
X132096866Y-84150984D01*
X132076650Y-84217865D01*
X132025275Y-84262381D01*
X132016469Y-84266488D01*
X131967267Y-84289431D01*
X131967265Y-84289432D01*
X131780858Y-84419954D01*
X131619954Y-84580858D01*
X131489432Y-84767265D01*
X131489431Y-84767267D01*
X131393261Y-84973502D01*
X131393258Y-84973511D01*
X131334366Y-85193302D01*
X131334364Y-85193313D01*
X131314532Y-85419998D01*
X131314532Y-85420001D01*
X131334364Y-85646686D01*
X131334366Y-85646697D01*
X131393258Y-85866488D01*
X131393261Y-85866497D01*
X131489431Y-86072732D01*
X131489432Y-86072734D01*
X131619954Y-86259141D01*
X131780858Y-86420045D01*
X131780861Y-86420047D01*
X131967266Y-86550568D01*
X132173504Y-86646739D01*
X132173509Y-86646740D01*
X132173511Y-86646741D01*
X132226415Y-86660916D01*
X132393308Y-86705635D01*
X132555230Y-86719801D01*
X132619998Y-86725468D01*
X132620000Y-86725468D01*
X132620002Y-86725468D01*
X132676673Y-86720509D01*
X132846692Y-86705635D01*
X133066496Y-86646739D01*
X133272734Y-86550568D01*
X133459139Y-86420047D01*
X133620047Y-86259139D01*
X133750568Y-86072734D01*
X133846739Y-85866496D01*
X133905635Y-85646692D01*
X133925468Y-85420000D01*
X133923674Y-85399500D01*
X133919801Y-85355230D01*
X133905635Y-85193308D01*
X133846739Y-84973504D01*
X133750568Y-84767266D01*
X133647802Y-84620499D01*
X133620045Y-84580858D01*
X133459141Y-84419954D01*
X133272734Y-84289432D01*
X133272728Y-84289429D01*
X133223548Y-84266496D01*
X133214724Y-84262381D01*
X133162285Y-84216210D01*
X133143133Y-84149017D01*
X133163348Y-84082135D01*
X133214725Y-84037618D01*
X133272734Y-84010568D01*
X133459139Y-83880047D01*
X133620047Y-83719139D01*
X133666365Y-83652989D01*
X133680098Y-83633377D01*
X133734675Y-83589752D01*
X133781673Y-83580500D01*
X136583776Y-83580500D01*
X136650815Y-83600185D01*
X136696570Y-83652989D01*
X136706514Y-83722147D01*
X136677489Y-83785703D01*
X136631229Y-83819060D01*
X136628962Y-83820000D01*
X136564996Y-83846496D01*
X136503448Y-83871989D01*
X136355964Y-83970536D01*
X136355960Y-83970539D01*
X132463319Y-87863181D01*
X132401996Y-87896666D01*
X132375638Y-87899500D01*
X127374361Y-87899500D01*
X127307322Y-87879815D01*
X127286680Y-87863181D01*
X125936819Y-86513319D01*
X125903334Y-86451996D01*
X125900500Y-86425638D01*
X125900500Y-86410048D01*
X125920185Y-86343009D01*
X125936814Y-86322371D01*
X126000047Y-86259139D01*
X126130568Y-86072734D01*
X126226739Y-85866496D01*
X126285635Y-85646692D01*
X126305468Y-85420000D01*
X126303674Y-85399500D01*
X126299801Y-85355230D01*
X126285635Y-85193308D01*
X126226739Y-84973504D01*
X126130568Y-84767266D01*
X126027802Y-84620499D01*
X126000045Y-84580858D01*
X125839141Y-84419954D01*
X125652734Y-84289432D01*
X125652728Y-84289429D01*
X125603548Y-84266496D01*
X125594724Y-84262381D01*
X125542285Y-84216210D01*
X125523133Y-84149017D01*
X125543348Y-84082135D01*
X125594725Y-84037618D01*
X125652734Y-84010568D01*
X125839139Y-83880047D01*
X126000047Y-83719139D01*
X126130568Y-83532734D01*
X126226739Y-83326496D01*
X126285635Y-83106692D01*
X126303337Y-82904352D01*
X126305468Y-82880001D01*
X126305468Y-82879998D01*
X126295823Y-82769758D01*
X126285635Y-82653308D01*
X126226739Y-82433504D01*
X126130568Y-82227266D01*
X126027802Y-82080500D01*
X126000045Y-82040858D01*
X125839141Y-81879954D01*
X125652734Y-81749432D01*
X125652728Y-81749429D01*
X125603548Y-81726496D01*
X125594724Y-81722381D01*
X125542285Y-81676210D01*
X125523133Y-81609017D01*
X125543348Y-81542135D01*
X125594725Y-81497618D01*
X125652734Y-81470568D01*
X125839139Y-81340047D01*
X126000047Y-81179139D01*
X126130568Y-80992734D01*
X126226739Y-80786496D01*
X126285635Y-80566692D01*
X126304270Y-80353694D01*
X126329722Y-80288625D01*
X126386313Y-80247646D01*
X126427798Y-80240501D01*
X128938482Y-80240501D01*
X129005521Y-80260186D01*
G37*
%TD.AperFunction*%
%TA.AperFunction,Conductor*%
G36*
X177484099Y-82100185D02*
G01*
X177504741Y-82116819D01*
X179007594Y-83619672D01*
X179041079Y-83680995D01*
X179043441Y-83718160D01*
X179034532Y-83819997D01*
X179034532Y-83820001D01*
X179054364Y-84046686D01*
X179054366Y-84046697D01*
X179113258Y-84266488D01*
X179113261Y-84266497D01*
X179209431Y-84472732D01*
X179209432Y-84472734D01*
X179339954Y-84659141D01*
X179500858Y-84820045D01*
X179500861Y-84820047D01*
X179687266Y-84950568D01*
X179745275Y-84977618D01*
X179797714Y-85023791D01*
X179816866Y-85090984D01*
X179796650Y-85157865D01*
X179745275Y-85202382D01*
X179687267Y-85229431D01*
X179687265Y-85229432D01*
X179500858Y-85359954D01*
X179339954Y-85520858D01*
X179209432Y-85707265D01*
X179209431Y-85707267D01*
X179113261Y-85913502D01*
X179113258Y-85913511D01*
X179054366Y-86133302D01*
X179054364Y-86133313D01*
X179034532Y-86359998D01*
X179034532Y-86360001D01*
X179054364Y-86586686D01*
X179054366Y-86586697D01*
X179113258Y-86806488D01*
X179113261Y-86806497D01*
X179209431Y-87012732D01*
X179209432Y-87012734D01*
X179339954Y-87199141D01*
X179428632Y-87287819D01*
X179462117Y-87349142D01*
X179457133Y-87418834D01*
X179415261Y-87474767D01*
X179349797Y-87499184D01*
X179340951Y-87499500D01*
X175184361Y-87499500D01*
X175117322Y-87479815D01*
X175096680Y-87463181D01*
X174060446Y-86426946D01*
X174026961Y-86365623D01*
X174024599Y-86350072D01*
X174022175Y-86322366D01*
X174005635Y-86133308D01*
X173946739Y-85913504D01*
X173850568Y-85707266D01*
X173720047Y-85520861D01*
X173720045Y-85520858D01*
X173559141Y-85359954D01*
X173372734Y-85229432D01*
X173372728Y-85229429D01*
X173314725Y-85202382D01*
X173262285Y-85156210D01*
X173243133Y-85089017D01*
X173263348Y-85022135D01*
X173314725Y-84977618D01*
X173372734Y-84950568D01*
X173559139Y-84820047D01*
X173611921Y-84767265D01*
X173722368Y-84656819D01*
X173783691Y-84623334D01*
X173810049Y-84620500D01*
X174068844Y-84620500D01*
X174068845Y-84620499D01*
X174223497Y-84589737D01*
X174369179Y-84529394D01*
X174500289Y-84441789D01*
X175881789Y-83060289D01*
X175889816Y-83052262D01*
X175930921Y-82986842D01*
X175932778Y-82983976D01*
X175969393Y-82929179D01*
X175969719Y-82928389D01*
X175979293Y-82909859D01*
X175985789Y-82899522D01*
X176007017Y-82838852D01*
X176009493Y-82832368D01*
X176029737Y-82783497D01*
X176032450Y-82769852D01*
X176037020Y-82753107D01*
X176045368Y-82729255D01*
X176051110Y-82678285D01*
X176052708Y-82668011D01*
X176060500Y-82628843D01*
X176060500Y-82601914D01*
X176061280Y-82588029D01*
X176065565Y-82550001D01*
X176065565Y-82549998D01*
X176061280Y-82511969D01*
X176060500Y-82498085D01*
X176060500Y-82471157D01*
X176053010Y-82433504D01*
X176052709Y-82431992D01*
X176051110Y-82421714D01*
X176045368Y-82370745D01*
X176037023Y-82346898D01*
X176032449Y-82330139D01*
X176029737Y-82316503D01*
X176029735Y-82316498D01*
X176029734Y-82316494D01*
X176009492Y-82267627D01*
X176007018Y-82261148D01*
X176001525Y-82245451D01*
X175997965Y-82175674D01*
X176032695Y-82115047D01*
X176094689Y-82082821D01*
X176118568Y-82080500D01*
X177417060Y-82080500D01*
X177484099Y-82100185D01*
G37*
%TD.AperFunction*%
%TA.AperFunction,Conductor*%
G36*
X152814099Y-81210185D02*
G01*
X152834741Y-81226819D01*
X154337594Y-82729672D01*
X154371079Y-82790995D01*
X154373441Y-82828160D01*
X154364532Y-82929997D01*
X154364532Y-82930002D01*
X154373441Y-83031838D01*
X154359674Y-83100338D01*
X154337594Y-83130326D01*
X151410000Y-86057921D01*
X151348677Y-86091406D01*
X151278985Y-86086422D01*
X151223052Y-86044550D01*
X151207758Y-86017692D01*
X151148016Y-85873458D01*
X151148009Y-85873446D01*
X151049464Y-85725965D01*
X151049461Y-85725961D01*
X150924038Y-85600538D01*
X150924034Y-85600535D01*
X150776553Y-85501990D01*
X150776540Y-85501983D01*
X150612667Y-85434106D01*
X150612658Y-85434103D01*
X150438694Y-85399500D01*
X150438691Y-85399500D01*
X149462925Y-85399500D01*
X149395886Y-85379815D01*
X149350131Y-85327011D01*
X149339397Y-85286308D01*
X149335635Y-85243312D01*
X149335635Y-85243308D01*
X149282965Y-85046739D01*
X149276741Y-85023511D01*
X149276738Y-85023502D01*
X149253423Y-84973504D01*
X149180568Y-84817266D01*
X149050047Y-84630861D01*
X149050045Y-84630858D01*
X148889141Y-84469954D01*
X148702734Y-84339432D01*
X148702728Y-84339429D01*
X148644725Y-84312382D01*
X148592285Y-84266210D01*
X148573133Y-84199017D01*
X148593348Y-84132135D01*
X148644725Y-84087618D01*
X148652932Y-84083791D01*
X148702734Y-84060568D01*
X148889139Y-83930047D01*
X149050047Y-83769139D01*
X149180568Y-83582734D01*
X149276739Y-83376496D01*
X149335635Y-83156692D01*
X149354668Y-82939141D01*
X149355468Y-82930001D01*
X149355468Y-82929998D01*
X149345840Y-82819953D01*
X149335635Y-82703308D01*
X149282511Y-82505046D01*
X149276741Y-82483511D01*
X149276738Y-82483502D01*
X149253423Y-82433504D01*
X149180568Y-82277266D01*
X149066982Y-82115047D01*
X149050045Y-82090858D01*
X148889141Y-81929954D01*
X148702734Y-81799432D01*
X148702728Y-81799429D01*
X148644725Y-81772382D01*
X148592285Y-81726210D01*
X148573133Y-81659017D01*
X148593348Y-81592135D01*
X148644725Y-81547618D01*
X148652932Y-81543791D01*
X148702734Y-81520568D01*
X148889139Y-81390047D01*
X148969001Y-81310185D01*
X149052368Y-81226819D01*
X149113691Y-81193334D01*
X149140049Y-81190500D01*
X152747060Y-81190500D01*
X152814099Y-81210185D01*
G37*
%TD.AperFunction*%
%TA.AperFunction,Conductor*%
G36*
X171605061Y-82920185D02*
G01*
X171650816Y-82972989D01*
X171660760Y-83042147D01*
X171639597Y-83095621D01*
X171619013Y-83125019D01*
X171589432Y-83167265D01*
X171589431Y-83167267D01*
X171493261Y-83373502D01*
X171493258Y-83373511D01*
X171434366Y-83593302D01*
X171434364Y-83593313D01*
X171414532Y-83819998D01*
X171414532Y-83820001D01*
X171434364Y-84046686D01*
X171434366Y-84046697D01*
X171493258Y-84266488D01*
X171493261Y-84266497D01*
X171589431Y-84472732D01*
X171589432Y-84472734D01*
X171719954Y-84659141D01*
X171880858Y-84820045D01*
X171880861Y-84820047D01*
X172067266Y-84950568D01*
X172125275Y-84977618D01*
X172177714Y-85023791D01*
X172196866Y-85090984D01*
X172176650Y-85157865D01*
X172125275Y-85202382D01*
X172067267Y-85229431D01*
X172067265Y-85229432D01*
X171880862Y-85359951D01*
X171860999Y-85379815D01*
X171817631Y-85423182D01*
X171756311Y-85456666D01*
X171729952Y-85459500D01*
X168944362Y-85459500D01*
X168877323Y-85439815D01*
X168856681Y-85423181D01*
X168214041Y-84780540D01*
X168214034Y-84780534D01*
X168066548Y-84681988D01*
X167902666Y-84614105D01*
X167902658Y-84614103D01*
X167728696Y-84579500D01*
X167728692Y-84579500D01*
X167551308Y-84579500D01*
X167551303Y-84579500D01*
X167377341Y-84614103D01*
X167377338Y-84614104D01*
X167377337Y-84614104D01*
X167377334Y-84614105D01*
X167346829Y-84626741D01*
X167341952Y-84628761D01*
X167272482Y-84636229D01*
X167210003Y-84604953D01*
X167174351Y-84544864D01*
X167170500Y-84514199D01*
X167170500Y-83291157D01*
X167161510Y-83245966D01*
X167161510Y-83245963D01*
X167143753Y-83156692D01*
X167139737Y-83136503D01*
X167127389Y-83106692D01*
X167112998Y-83071950D01*
X167105530Y-83002484D01*
X167136805Y-82940005D01*
X167196893Y-82904352D01*
X167227560Y-82900500D01*
X171538022Y-82900500D01*
X171605061Y-82920185D01*
G37*
%TD.AperFunction*%
%TA.AperFunction,Conductor*%
G36*
X144355956Y-77205731D02*
G01*
X144394196Y-77264208D01*
X144399500Y-77300086D01*
X144399500Y-80158846D01*
X144430261Y-80313489D01*
X144430264Y-80313501D01*
X144490602Y-80459172D01*
X144490609Y-80459185D01*
X144578210Y-80590288D01*
X144578213Y-80590292D01*
X146717594Y-82729672D01*
X146751079Y-82790995D01*
X146753441Y-82828160D01*
X146744532Y-82929997D01*
X146744532Y-82930001D01*
X146764364Y-83156686D01*
X146764366Y-83156697D01*
X146823258Y-83376488D01*
X146823261Y-83376497D01*
X146919432Y-83582734D01*
X146919875Y-83583501D01*
X146919967Y-83583881D01*
X146921720Y-83587640D01*
X146920964Y-83587992D01*
X146936348Y-83651402D01*
X146913495Y-83717428D01*
X146858574Y-83760619D01*
X146812488Y-83769501D01*
X137096439Y-83769501D01*
X137029400Y-83749816D01*
X136983645Y-83697012D01*
X136973701Y-83627854D01*
X137002726Y-83564298D01*
X137048987Y-83530940D01*
X137121807Y-83500777D01*
X137121808Y-83500776D01*
X137121811Y-83500775D01*
X137236543Y-83424114D01*
X143319630Y-77341025D01*
X143380951Y-77307542D01*
X143418117Y-77305180D01*
X143423303Y-77305633D01*
X143423308Y-77305635D01*
X143628263Y-77323566D01*
X143649999Y-77325468D01*
X143650000Y-77325468D01*
X143650002Y-77325468D01*
X143728101Y-77318635D01*
X143876692Y-77305635D01*
X144096496Y-77246739D01*
X144223096Y-77187703D01*
X144292172Y-77177212D01*
X144355956Y-77205731D01*
G37*
%TD.AperFunction*%
%TA.AperFunction,Conductor*%
G36*
X171422616Y-77561937D02*
G01*
X171468371Y-77614741D01*
X171478315Y-77683899D01*
X171471759Y-77709585D01*
X171425908Y-77832517D01*
X171419501Y-77892116D01*
X171419501Y-77892123D01*
X171419500Y-77892135D01*
X171419500Y-79587870D01*
X171419501Y-79587876D01*
X171425908Y-79647483D01*
X171476202Y-79782328D01*
X171476206Y-79782335D01*
X171562452Y-79897544D01*
X171562455Y-79897547D01*
X171677664Y-79983793D01*
X171677671Y-79983797D01*
X171722618Y-80000561D01*
X171812517Y-80034091D01*
X171847596Y-80037862D01*
X171912144Y-80064599D01*
X171951993Y-80121991D01*
X171954488Y-80191816D01*
X171918836Y-80251905D01*
X171905464Y-80262725D01*
X171880858Y-80279954D01*
X171719954Y-80440858D01*
X171589432Y-80627265D01*
X171589431Y-80627267D01*
X171493261Y-80833502D01*
X171493258Y-80833511D01*
X171434366Y-81053302D01*
X171434364Y-81053313D01*
X171422729Y-81186307D01*
X171397277Y-81251376D01*
X171340686Y-81292355D01*
X171299201Y-81299500D01*
X166653363Y-81299500D01*
X166586324Y-81279815D01*
X166540569Y-81227011D01*
X166530625Y-81157853D01*
X166559650Y-81094297D01*
X166565682Y-81087819D01*
X170074929Y-77578571D01*
X170136252Y-77545086D01*
X170162610Y-77542252D01*
X171355577Y-77542252D01*
X171422616Y-77561937D01*
G37*
%TD.AperFunction*%
%TA.AperFunction,Conductor*%
G36*
X179466238Y-77561937D02*
G01*
X179511993Y-77614741D01*
X179521937Y-77683899D01*
X179492912Y-77747455D01*
X179486880Y-77753933D01*
X179339954Y-77900858D01*
X179209432Y-78087265D01*
X179209431Y-78087267D01*
X179113261Y-78293502D01*
X179113258Y-78293511D01*
X179054366Y-78513302D01*
X179054364Y-78513313D01*
X179034532Y-78739998D01*
X179034532Y-78740001D01*
X179054364Y-78966686D01*
X179054366Y-78966697D01*
X179113258Y-79186488D01*
X179113261Y-79186497D01*
X179209431Y-79392732D01*
X179209432Y-79392734D01*
X179339954Y-79579141D01*
X179500858Y-79740045D01*
X179500861Y-79740047D01*
X179687266Y-79870568D01*
X179745275Y-79897618D01*
X179797714Y-79943791D01*
X179816866Y-80010984D01*
X179796650Y-80077865D01*
X179745275Y-80122382D01*
X179687267Y-80149431D01*
X179687265Y-80149432D01*
X179500858Y-80279954D01*
X179339954Y-80440858D01*
X179209432Y-80627265D01*
X179209431Y-80627267D01*
X179113261Y-80833502D01*
X179113258Y-80833511D01*
X179054366Y-81053302D01*
X179054364Y-81053312D01*
X179049465Y-81109306D01*
X179024011Y-81174375D01*
X178967420Y-81215352D01*
X178897658Y-81219229D01*
X178838256Y-81186178D01*
X178310292Y-80658213D01*
X178310288Y-80658210D01*
X178179185Y-80570609D01*
X178179172Y-80570602D01*
X178033501Y-80510264D01*
X178033489Y-80510261D01*
X177878845Y-80479500D01*
X177878842Y-80479500D01*
X173810049Y-80479500D01*
X173743010Y-80459815D01*
X173722368Y-80443181D01*
X173559143Y-80279956D01*
X173554664Y-80276820D01*
X173534535Y-80262725D01*
X173490912Y-80208149D01*
X173483719Y-80138650D01*
X173515241Y-80076296D01*
X173575471Y-80040882D01*
X173592404Y-80037861D01*
X173627483Y-80034091D01*
X173762331Y-79983796D01*
X173877546Y-79897546D01*
X173963796Y-79782331D01*
X174014091Y-79647483D01*
X174020500Y-79587873D01*
X174020499Y-77892128D01*
X174015299Y-77843757D01*
X174014091Y-77832516D01*
X173968241Y-77709585D01*
X173963257Y-77639893D01*
X173996742Y-77578570D01*
X174058066Y-77545086D01*
X174084423Y-77542252D01*
X179399199Y-77542252D01*
X179466238Y-77561937D01*
G37*
%TD.AperFunction*%
%TA.AperFunction,Conductor*%
G36*
X154727989Y-76740186D02*
G01*
X154773744Y-76792990D01*
X154783688Y-76862148D01*
X154754663Y-76925704D01*
X154748631Y-76932182D01*
X154669954Y-77010858D01*
X154539432Y-77197265D01*
X154539431Y-77197267D01*
X154443261Y-77403502D01*
X154443258Y-77403511D01*
X154384366Y-77623302D01*
X154384364Y-77623313D01*
X154364532Y-77849998D01*
X154364532Y-77850001D01*
X154384364Y-78076686D01*
X154384366Y-78076697D01*
X154443258Y-78296488D01*
X154443261Y-78296497D01*
X154539431Y-78502732D01*
X154539432Y-78502734D01*
X154669954Y-78689141D01*
X154830858Y-78850045D01*
X154830861Y-78850047D01*
X155017266Y-78980568D01*
X155075275Y-79007618D01*
X155127714Y-79053791D01*
X155146866Y-79120984D01*
X155126650Y-79187865D01*
X155075275Y-79232382D01*
X155017267Y-79259431D01*
X155017265Y-79259432D01*
X154830858Y-79389954D01*
X154669954Y-79550858D01*
X154539432Y-79737265D01*
X154539431Y-79737267D01*
X154443261Y-79943502D01*
X154443258Y-79943511D01*
X154384366Y-80163302D01*
X154384364Y-80163312D01*
X154379465Y-80219306D01*
X154354011Y-80284375D01*
X154297420Y-80325352D01*
X154227658Y-80329229D01*
X154168256Y-80296178D01*
X153640292Y-79768213D01*
X153640288Y-79768210D01*
X153509185Y-79680609D01*
X153509172Y-79680602D01*
X153363501Y-79620264D01*
X153363489Y-79620261D01*
X153208845Y-79589500D01*
X153208842Y-79589500D01*
X149140049Y-79589500D01*
X149073010Y-79569815D01*
X149052368Y-79553181D01*
X148889143Y-79389956D01*
X148867816Y-79375023D01*
X148864535Y-79372725D01*
X148820912Y-79318149D01*
X148813719Y-79248650D01*
X148845241Y-79186296D01*
X148905471Y-79150882D01*
X148922404Y-79147861D01*
X148957483Y-79144091D01*
X149092331Y-79093796D01*
X149207546Y-79007546D01*
X149293796Y-78892331D01*
X149344091Y-78757483D01*
X149350500Y-78697873D01*
X149350499Y-77002128D01*
X149344091Y-76942517D01*
X149344091Y-76942516D01*
X149323696Y-76887834D01*
X149318712Y-76818142D01*
X149352197Y-76756819D01*
X149413521Y-76723335D01*
X149439878Y-76720501D01*
X154660950Y-76720501D01*
X154727989Y-76740186D01*
G37*
%TD.AperFunction*%
%TA.AperFunction,Conductor*%
G36*
X205872539Y-65480185D02*
G01*
X205918294Y-65532989D01*
X205929500Y-65584500D01*
X205929500Y-108785500D01*
X205909815Y-108852539D01*
X205857011Y-108898294D01*
X205805500Y-108909500D01*
X151371940Y-108909500D01*
X151304901Y-108889815D01*
X151259146Y-108837011D01*
X151249202Y-108767853D01*
X151278227Y-108704297D01*
X151284259Y-108697819D01*
X151379783Y-108602293D01*
X151699674Y-108282402D01*
X151760995Y-108248919D01*
X151798156Y-108246557D01*
X151900000Y-108255468D01*
X151900000Y-108255467D01*
X151900001Y-108255468D01*
X151900002Y-108255468D01*
X151974855Y-108248919D01*
X152126692Y-108235635D01*
X152346496Y-108176739D01*
X152552734Y-108080568D01*
X152739139Y-107950047D01*
X152900047Y-107789139D01*
X153030568Y-107602734D01*
X153057618Y-107544724D01*
X153103790Y-107492285D01*
X153170983Y-107473133D01*
X153237865Y-107493348D01*
X153282382Y-107544725D01*
X153309429Y-107602728D01*
X153309432Y-107602734D01*
X153439954Y-107789141D01*
X153600858Y-107950045D01*
X153600861Y-107950047D01*
X153787266Y-108080568D01*
X153993504Y-108176739D01*
X154213308Y-108235635D01*
X154365145Y-108248919D01*
X154439998Y-108255468D01*
X154440000Y-108255468D01*
X154440002Y-108255468D01*
X154514855Y-108248919D01*
X154666692Y-108235635D01*
X154886496Y-108176739D01*
X155092734Y-108080568D01*
X155279139Y-107950047D01*
X155440047Y-107789139D01*
X155570568Y-107602734D01*
X155666739Y-107396496D01*
X155725635Y-107176692D01*
X155745468Y-106950001D01*
X158214532Y-106950001D01*
X158234364Y-107176686D01*
X158234366Y-107176697D01*
X158293258Y-107396488D01*
X158293261Y-107396497D01*
X158389431Y-107602732D01*
X158389432Y-107602734D01*
X158519954Y-107789141D01*
X158680858Y-107950045D01*
X158680861Y-107950047D01*
X158867266Y-108080568D01*
X159073504Y-108176739D01*
X159293308Y-108235635D01*
X159445145Y-108248919D01*
X159519998Y-108255468D01*
X159520000Y-108255468D01*
X159520002Y-108255468D01*
X159594855Y-108248919D01*
X159746692Y-108235635D01*
X159966496Y-108176739D01*
X160172734Y-108080568D01*
X160359139Y-107950047D01*
X160520047Y-107789139D01*
X160650568Y-107602734D01*
X160677618Y-107544724D01*
X160723790Y-107492285D01*
X160790983Y-107473133D01*
X160857865Y-107493348D01*
X160902382Y-107544725D01*
X160929429Y-107602728D01*
X160929432Y-107602734D01*
X161059954Y-107789141D01*
X161220858Y-107950045D01*
X161220861Y-107950047D01*
X161407266Y-108080568D01*
X161613504Y-108176739D01*
X161833308Y-108235635D01*
X161985145Y-108248919D01*
X162059998Y-108255468D01*
X162060000Y-108255468D01*
X162060002Y-108255468D01*
X162134855Y-108248919D01*
X162286692Y-108235635D01*
X162506496Y-108176739D01*
X162712734Y-108080568D01*
X162899139Y-107950047D01*
X163060047Y-107789139D01*
X163190568Y-107602734D01*
X163217618Y-107544724D01*
X163263790Y-107492285D01*
X163330983Y-107473133D01*
X163397865Y-107493348D01*
X163442382Y-107544725D01*
X163469429Y-107602728D01*
X163469432Y-107602734D01*
X163599954Y-107789141D01*
X163760858Y-107950045D01*
X163760861Y-107950047D01*
X163947266Y-108080568D01*
X164153504Y-108176739D01*
X164373308Y-108235635D01*
X164525145Y-108248919D01*
X164599998Y-108255468D01*
X164600000Y-108255468D01*
X164600002Y-108255468D01*
X164674855Y-108248919D01*
X164826692Y-108235635D01*
X165046496Y-108176739D01*
X165252734Y-108080568D01*
X165439139Y-107950047D01*
X165600047Y-107789139D01*
X165730568Y-107602734D01*
X165757618Y-107544724D01*
X165803790Y-107492285D01*
X165870983Y-107473133D01*
X165937865Y-107493348D01*
X165982382Y-107544725D01*
X166009429Y-107602728D01*
X166009432Y-107602734D01*
X166139954Y-107789141D01*
X166300858Y-107950045D01*
X166300861Y-107950047D01*
X166487266Y-108080568D01*
X166693504Y-108176739D01*
X166913308Y-108235635D01*
X167065145Y-108248919D01*
X167139998Y-108255468D01*
X167140000Y-108255468D01*
X167140002Y-108255468D01*
X167214855Y-108248919D01*
X167366692Y-108235635D01*
X167586496Y-108176739D01*
X167792734Y-108080568D01*
X167979139Y-107950047D01*
X168140047Y-107789139D01*
X168270568Y-107602734D01*
X168297618Y-107544724D01*
X168343790Y-107492285D01*
X168410983Y-107473133D01*
X168477865Y-107493348D01*
X168522382Y-107544725D01*
X168549429Y-107602728D01*
X168549432Y-107602734D01*
X168679954Y-107789141D01*
X168840858Y-107950045D01*
X168840861Y-107950047D01*
X169027266Y-108080568D01*
X169233504Y-108176739D01*
X169453308Y-108235635D01*
X169605145Y-108248919D01*
X169679998Y-108255468D01*
X169680000Y-108255468D01*
X169680002Y-108255468D01*
X169754855Y-108248919D01*
X169906692Y-108235635D01*
X170126496Y-108176739D01*
X170332734Y-108080568D01*
X170519139Y-107950047D01*
X170680047Y-107789139D01*
X170810568Y-107602734D01*
X170837618Y-107544724D01*
X170883790Y-107492285D01*
X170950983Y-107473133D01*
X171017865Y-107493348D01*
X171062382Y-107544725D01*
X171089429Y-107602728D01*
X171089432Y-107602734D01*
X171219954Y-107789141D01*
X171380858Y-107950045D01*
X171380861Y-107950047D01*
X171567266Y-108080568D01*
X171773504Y-108176739D01*
X171993308Y-108235635D01*
X172145145Y-108248919D01*
X172219998Y-108255468D01*
X172220000Y-108255468D01*
X172220002Y-108255468D01*
X172294855Y-108248919D01*
X172446692Y-108235635D01*
X172666496Y-108176739D01*
X172872734Y-108080568D01*
X173059139Y-107950047D01*
X173220047Y-107789139D01*
X173350568Y-107602734D01*
X173446739Y-107396496D01*
X173505635Y-107176692D01*
X173525468Y-106950000D01*
X173521679Y-106906697D01*
X173514007Y-106819003D01*
X173505635Y-106723308D01*
X173446739Y-106503504D01*
X173350568Y-106297266D01*
X173220047Y-106110861D01*
X173220045Y-106110858D01*
X173059141Y-105949954D01*
X172872734Y-105819432D01*
X172872732Y-105819431D01*
X172666497Y-105723261D01*
X172666488Y-105723258D01*
X172446697Y-105664366D01*
X172446693Y-105664365D01*
X172446692Y-105664365D01*
X172446691Y-105664364D01*
X172446686Y-105664364D01*
X172220002Y-105644532D01*
X172219998Y-105644532D01*
X171993313Y-105664364D01*
X171993302Y-105664366D01*
X171773511Y-105723258D01*
X171773502Y-105723261D01*
X171567267Y-105819431D01*
X171567265Y-105819432D01*
X171380858Y-105949954D01*
X171219954Y-106110858D01*
X171089432Y-106297265D01*
X171089431Y-106297267D01*
X171062382Y-106355275D01*
X171016209Y-106407714D01*
X170949016Y-106426866D01*
X170882135Y-106406650D01*
X170837618Y-106355275D01*
X170810568Y-106297267D01*
X170810567Y-106297265D01*
X170680045Y-106110858D01*
X170519141Y-105949954D01*
X170332734Y-105819432D01*
X170332732Y-105819431D01*
X170126497Y-105723261D01*
X170126488Y-105723258D01*
X169906697Y-105664366D01*
X169906693Y-105664365D01*
X169906692Y-105664365D01*
X169906691Y-105664364D01*
X169906686Y-105664364D01*
X169680002Y-105644532D01*
X169679998Y-105644532D01*
X169453313Y-105664364D01*
X169453302Y-105664366D01*
X169233511Y-105723258D01*
X169233502Y-105723261D01*
X169027267Y-105819431D01*
X169027265Y-105819432D01*
X168840858Y-105949954D01*
X168679954Y-106110858D01*
X168549432Y-106297265D01*
X168549431Y-106297267D01*
X168522382Y-106355275D01*
X168476209Y-106407714D01*
X168409016Y-106426866D01*
X168342135Y-106406650D01*
X168297618Y-106355275D01*
X168270568Y-106297267D01*
X168270567Y-106297265D01*
X168140045Y-106110858D01*
X167979141Y-105949954D01*
X167792734Y-105819432D01*
X167792732Y-105819431D01*
X167586497Y-105723261D01*
X167586488Y-105723258D01*
X167366697Y-105664366D01*
X167366693Y-105664365D01*
X167366692Y-105664365D01*
X167366691Y-105664364D01*
X167366686Y-105664364D01*
X167140002Y-105644532D01*
X167139998Y-105644532D01*
X166913313Y-105664364D01*
X166913302Y-105664366D01*
X166693511Y-105723258D01*
X166693502Y-105723261D01*
X166487267Y-105819431D01*
X166487265Y-105819432D01*
X166300858Y-105949954D01*
X166139954Y-106110858D01*
X166009432Y-106297265D01*
X166009431Y-106297267D01*
X165982382Y-106355275D01*
X165936209Y-106407714D01*
X165869016Y-106426866D01*
X165802135Y-106406650D01*
X165757618Y-106355275D01*
X165730568Y-106297267D01*
X165730567Y-106297265D01*
X165600045Y-106110858D01*
X165439141Y-105949954D01*
X165252734Y-105819432D01*
X165252732Y-105819431D01*
X165046497Y-105723261D01*
X165046488Y-105723258D01*
X164826697Y-105664366D01*
X164826693Y-105664365D01*
X164826692Y-105664365D01*
X164826691Y-105664364D01*
X164826686Y-105664364D01*
X164600002Y-105644532D01*
X164599998Y-105644532D01*
X164373313Y-105664364D01*
X164373302Y-105664366D01*
X164153511Y-105723258D01*
X164153502Y-105723261D01*
X163947267Y-105819431D01*
X163947265Y-105819432D01*
X163760858Y-105949954D01*
X163599954Y-106110858D01*
X163469432Y-106297265D01*
X163469431Y-106297267D01*
X163442382Y-106355275D01*
X163396209Y-106407714D01*
X163329016Y-106426866D01*
X163262135Y-106406650D01*
X163217618Y-106355275D01*
X163190568Y-106297267D01*
X163190567Y-106297265D01*
X163060045Y-106110858D01*
X162899141Y-105949954D01*
X162712734Y-105819432D01*
X162712732Y-105819431D01*
X162506497Y-105723261D01*
X162506488Y-105723258D01*
X162286697Y-105664366D01*
X162286693Y-105664365D01*
X162286692Y-105664365D01*
X162286691Y-105664364D01*
X162286686Y-105664364D01*
X162060002Y-105644532D01*
X162059998Y-105644532D01*
X161833313Y-105664364D01*
X161833302Y-105664366D01*
X161613511Y-105723258D01*
X161613502Y-105723261D01*
X161407267Y-105819431D01*
X161407265Y-105819432D01*
X161220858Y-105949954D01*
X161059954Y-106110858D01*
X160929432Y-106297265D01*
X160929431Y-106297267D01*
X160902382Y-106355275D01*
X160856209Y-106407714D01*
X160789016Y-106426866D01*
X160722135Y-106406650D01*
X160677618Y-106355275D01*
X160650568Y-106297267D01*
X160650567Y-106297265D01*
X160520045Y-106110858D01*
X160359141Y-105949954D01*
X160172734Y-105819432D01*
X160172732Y-105819431D01*
X159966497Y-105723261D01*
X159966488Y-105723258D01*
X159746697Y-105664366D01*
X159746693Y-105664365D01*
X159746692Y-105664365D01*
X159746691Y-105664364D01*
X159746686Y-105664364D01*
X159520002Y-105644532D01*
X159519998Y-105644532D01*
X159293313Y-105664364D01*
X159293302Y-105664366D01*
X159073511Y-105723258D01*
X159073502Y-105723261D01*
X158867267Y-105819431D01*
X158867265Y-105819432D01*
X158680858Y-105949954D01*
X158519954Y-106110858D01*
X158389432Y-106297265D01*
X158389431Y-106297267D01*
X158293261Y-106503502D01*
X158293258Y-106503511D01*
X158234366Y-106723302D01*
X158234364Y-106723313D01*
X158214532Y-106949998D01*
X158214532Y-106950001D01*
X155745468Y-106950001D01*
X155745468Y-106950000D01*
X155741679Y-106906697D01*
X155734007Y-106819003D01*
X155725635Y-106723308D01*
X155666739Y-106503504D01*
X155570568Y-106297266D01*
X155440047Y-106110861D01*
X155440045Y-106110858D01*
X155279141Y-105949954D01*
X155092734Y-105819432D01*
X155092732Y-105819431D01*
X154886497Y-105723261D01*
X154886488Y-105723258D01*
X154666697Y-105664366D01*
X154666693Y-105664365D01*
X154666692Y-105664365D01*
X154666691Y-105664364D01*
X154666686Y-105664364D01*
X154440002Y-105644532D01*
X154439998Y-105644532D01*
X154213313Y-105664364D01*
X154213302Y-105664366D01*
X153993511Y-105723258D01*
X153993502Y-105723261D01*
X153787267Y-105819431D01*
X153787265Y-105819432D01*
X153600858Y-105949954D01*
X153439954Y-106110858D01*
X153309432Y-106297265D01*
X153309431Y-106297267D01*
X153282382Y-106355275D01*
X153236209Y-106407714D01*
X153169016Y-106426866D01*
X153102135Y-106406650D01*
X153057618Y-106355275D01*
X153030568Y-106297267D01*
X153030567Y-106297265D01*
X152900045Y-106110858D01*
X152836819Y-106047632D01*
X152803334Y-105986309D01*
X152800500Y-105959951D01*
X152800500Y-105324497D01*
X152809938Y-105277046D01*
X152815895Y-105262666D01*
X152850500Y-105088691D01*
X152850500Y-104911308D01*
X152815895Y-104737334D01*
X152748013Y-104573453D01*
X152748012Y-104573452D01*
X152748009Y-104573446D01*
X152649464Y-104425964D01*
X152649461Y-104425960D01*
X152524039Y-104300538D01*
X152524035Y-104300535D01*
X152376553Y-104201990D01*
X152376544Y-104201985D01*
X152212666Y-104134105D01*
X152212658Y-104134103D01*
X152038696Y-104099500D01*
X152038692Y-104099500D01*
X151861309Y-104099500D01*
X151861304Y-104099500D01*
X151687341Y-104134103D01*
X151687333Y-104134105D01*
X151523457Y-104201985D01*
X151523447Y-104201990D01*
X151375965Y-104300535D01*
X151375961Y-104300538D01*
X151200538Y-104475960D01*
X151200537Y-104475961D01*
X151161064Y-104535039D01*
X151161063Y-104535040D01*
X151101990Y-104623447D01*
X151101983Y-104623459D01*
X151072154Y-104695476D01*
X151072154Y-104695477D01*
X151034105Y-104787332D01*
X151034105Y-104787334D01*
X151000947Y-104954035D01*
X151000946Y-104954039D01*
X150999500Y-104961306D01*
X150999500Y-105959951D01*
X150979815Y-106026990D01*
X150963181Y-106047632D01*
X150899954Y-106110858D01*
X150769432Y-106297265D01*
X150769431Y-106297267D01*
X150742382Y-106355275D01*
X150696209Y-106407714D01*
X150629016Y-106426866D01*
X150562135Y-106406650D01*
X150517618Y-106355275D01*
X150490568Y-106297267D01*
X150490567Y-106297265D01*
X150360045Y-106110858D01*
X150199141Y-105949954D01*
X150012734Y-105819432D01*
X150012732Y-105819431D01*
X149806497Y-105723261D01*
X149806488Y-105723258D01*
X149586697Y-105664366D01*
X149586693Y-105664365D01*
X149586692Y-105664365D01*
X149586691Y-105664364D01*
X149586686Y-105664364D01*
X149360002Y-105644532D01*
X149359998Y-105644532D01*
X149133313Y-105664364D01*
X149133302Y-105664366D01*
X148913511Y-105723258D01*
X148913502Y-105723261D01*
X148707267Y-105819431D01*
X148707265Y-105819432D01*
X148520858Y-105949954D01*
X148359954Y-106110858D01*
X148229432Y-106297265D01*
X148229431Y-106297267D01*
X148202382Y-106355275D01*
X148156209Y-106407714D01*
X148089016Y-106426866D01*
X148022135Y-106406650D01*
X147977618Y-106355275D01*
X147950568Y-106297267D01*
X147950567Y-106297265D01*
X147820045Y-106110858D01*
X147659141Y-105949954D01*
X147472734Y-105819432D01*
X147472732Y-105819431D01*
X147266497Y-105723261D01*
X147266488Y-105723258D01*
X147046697Y-105664366D01*
X147046693Y-105664365D01*
X147046692Y-105664365D01*
X147046691Y-105664364D01*
X147046686Y-105664364D01*
X146820002Y-105644532D01*
X146819998Y-105644532D01*
X146593313Y-105664364D01*
X146593302Y-105664366D01*
X146373511Y-105723258D01*
X146373502Y-105723261D01*
X146167267Y-105819431D01*
X146167265Y-105819432D01*
X145980858Y-105949954D01*
X145819954Y-106110858D01*
X145689432Y-106297265D01*
X145689431Y-106297267D01*
X145662382Y-106355275D01*
X145616209Y-106407714D01*
X145549016Y-106426866D01*
X145482135Y-106406650D01*
X145437618Y-106355275D01*
X145410568Y-106297267D01*
X145410567Y-106297265D01*
X145280045Y-106110858D01*
X145119141Y-105949954D01*
X144932734Y-105819432D01*
X144932732Y-105819431D01*
X144726497Y-105723261D01*
X144726488Y-105723258D01*
X144506697Y-105664366D01*
X144506693Y-105664365D01*
X144506692Y-105664365D01*
X144506691Y-105664364D01*
X144506686Y-105664364D01*
X144280002Y-105644532D01*
X144279998Y-105644532D01*
X144053313Y-105664364D01*
X144053302Y-105664366D01*
X143833511Y-105723258D01*
X143833502Y-105723261D01*
X143627267Y-105819431D01*
X143627265Y-105819432D01*
X143440858Y-105949954D01*
X143279954Y-106110858D01*
X143149432Y-106297265D01*
X143149431Y-106297267D01*
X143122382Y-106355275D01*
X143076209Y-106407714D01*
X143009016Y-106426866D01*
X142942135Y-106406650D01*
X142897618Y-106355275D01*
X142870568Y-106297267D01*
X142870567Y-106297265D01*
X142740045Y-106110858D01*
X142579141Y-105949954D01*
X142392734Y-105819432D01*
X142392732Y-105819431D01*
X142186497Y-105723261D01*
X142186488Y-105723258D01*
X141966697Y-105664366D01*
X141966693Y-105664365D01*
X141966692Y-105664365D01*
X141966691Y-105664364D01*
X141966686Y-105664364D01*
X141740002Y-105644532D01*
X141739998Y-105644532D01*
X141513313Y-105664364D01*
X141513302Y-105664366D01*
X141293511Y-105723258D01*
X141293502Y-105723261D01*
X141087267Y-105819431D01*
X141087265Y-105819432D01*
X140900858Y-105949954D01*
X140739954Y-106110858D01*
X140609432Y-106297265D01*
X140609431Y-106297267D01*
X140582382Y-106355275D01*
X140536209Y-106407714D01*
X140469016Y-106426866D01*
X140402135Y-106406650D01*
X140357618Y-106355275D01*
X140330568Y-106297267D01*
X140330567Y-106297265D01*
X140200045Y-106110858D01*
X140039141Y-105949954D01*
X139852734Y-105819432D01*
X139852732Y-105819431D01*
X139646497Y-105723261D01*
X139646488Y-105723258D01*
X139426697Y-105664366D01*
X139426693Y-105664365D01*
X139426692Y-105664365D01*
X139426691Y-105664364D01*
X139426686Y-105664364D01*
X139200002Y-105644532D01*
X139199998Y-105644532D01*
X138973313Y-105664364D01*
X138973302Y-105664366D01*
X138753511Y-105723258D01*
X138753502Y-105723261D01*
X138547267Y-105819431D01*
X138547265Y-105819432D01*
X138360858Y-105949954D01*
X138199954Y-106110858D01*
X138069432Y-106297265D01*
X138069431Y-106297267D01*
X137973261Y-106503502D01*
X137973258Y-106503511D01*
X137914366Y-106723302D01*
X137914364Y-106723313D01*
X137894532Y-106949998D01*
X137894532Y-106950001D01*
X137914364Y-107176686D01*
X137914366Y-107176697D01*
X137939388Y-107270080D01*
X137937725Y-107339930D01*
X137898562Y-107397792D01*
X137834334Y-107425296D01*
X137765432Y-107413709D01*
X137731932Y-107389854D01*
X137222404Y-106880326D01*
X137188919Y-106819003D01*
X137186557Y-106781842D01*
X137195468Y-106680000D01*
X137175635Y-106453308D01*
X137116739Y-106233504D01*
X137020568Y-106027266D01*
X136890047Y-105840861D01*
X136890045Y-105840858D01*
X136729141Y-105679954D01*
X136542734Y-105549432D01*
X136542732Y-105549431D01*
X136336497Y-105453261D01*
X136336488Y-105453258D01*
X136116697Y-105394366D01*
X136116693Y-105394365D01*
X136116692Y-105394365D01*
X136116691Y-105394364D01*
X136116686Y-105394364D01*
X135890002Y-105374532D01*
X135889998Y-105374532D01*
X135663313Y-105394364D01*
X135663302Y-105394366D01*
X135443511Y-105453258D01*
X135443502Y-105453261D01*
X135237267Y-105549431D01*
X135237265Y-105549432D01*
X135050858Y-105679954D01*
X134889954Y-105840858D01*
X134759432Y-106027265D01*
X134759431Y-106027267D01*
X134663261Y-106233502D01*
X134663258Y-106233511D01*
X134604366Y-106453302D01*
X134604364Y-106453313D01*
X134584532Y-106679998D01*
X134584532Y-106680001D01*
X134604364Y-106906686D01*
X134604366Y-106906697D01*
X134663258Y-107126488D01*
X134663261Y-107126497D01*
X134759431Y-107332732D01*
X134759432Y-107332734D01*
X134889954Y-107519141D01*
X135050858Y-107680045D01*
X135050861Y-107680047D01*
X135237266Y-107810568D01*
X135443504Y-107906739D01*
X135663308Y-107965635D01*
X135825230Y-107979801D01*
X135889998Y-107985468D01*
X135889999Y-107985468D01*
X135889999Y-107985467D01*
X135890000Y-107985468D01*
X135991839Y-107976557D01*
X136060336Y-107990323D01*
X136090326Y-108012404D01*
X136775741Y-108697819D01*
X136809226Y-108759142D01*
X136804242Y-108828834D01*
X136762370Y-108884767D01*
X136696906Y-108909184D01*
X136688060Y-108909500D01*
X116884500Y-108909500D01*
X116817461Y-108889815D01*
X116771706Y-108837011D01*
X116760500Y-108785500D01*
X116760500Y-104380001D01*
X126544532Y-104380001D01*
X126564364Y-104606686D01*
X126564366Y-104606697D01*
X126623258Y-104826488D01*
X126623261Y-104826497D01*
X126719431Y-105032732D01*
X126719432Y-105032734D01*
X126849954Y-105219141D01*
X127010858Y-105380045D01*
X127010861Y-105380047D01*
X127197266Y-105510568D01*
X127403504Y-105606739D01*
X127623308Y-105665635D01*
X127785230Y-105679801D01*
X127849998Y-105685468D01*
X127850000Y-105685468D01*
X127850002Y-105685468D01*
X127913025Y-105679954D01*
X128076692Y-105665635D01*
X128296496Y-105606739D01*
X128502734Y-105510568D01*
X128689139Y-105380047D01*
X128850047Y-105219139D01*
X128980568Y-105032734D01*
X129076739Y-104826496D01*
X129135635Y-104606692D01*
X129155468Y-104380000D01*
X129146557Y-104278158D01*
X129160323Y-104209662D01*
X129182400Y-104179676D01*
X129525259Y-103836819D01*
X129586582Y-103803334D01*
X129612940Y-103800500D01*
X158560215Y-103800500D01*
X158560216Y-103800499D01*
X158714868Y-103769737D01*
X158860550Y-103709394D01*
X158991660Y-103621789D01*
X160141789Y-102471660D01*
X160229394Y-102340550D01*
X160289737Y-102194868D01*
X160293735Y-102174767D01*
X160296793Y-102159396D01*
X160296793Y-102159394D01*
X160320500Y-102040214D01*
X160320500Y-101882529D01*
X160320500Y-100420049D01*
X160340185Y-100353010D01*
X160356819Y-100332368D01*
X160520045Y-100169141D01*
X160520046Y-100169140D01*
X160520047Y-100169139D01*
X160650568Y-99982734D01*
X160677618Y-99924724D01*
X160723790Y-99872285D01*
X160790983Y-99853133D01*
X160857865Y-99873348D01*
X160902382Y-99924725D01*
X160929429Y-99982728D01*
X160929432Y-99982734D01*
X161059954Y-100169141D01*
X161220858Y-100330045D01*
X161220861Y-100330047D01*
X161407266Y-100460568D01*
X161613504Y-100556739D01*
X161833308Y-100615635D01*
X161995230Y-100629801D01*
X162059998Y-100635468D01*
X162060000Y-100635468D01*
X162060002Y-100635468D01*
X162124614Y-100629815D01*
X162286692Y-100615635D01*
X162506496Y-100556739D01*
X162712734Y-100460568D01*
X162899139Y-100330047D01*
X163060047Y-100169139D01*
X163190568Y-99982734D01*
X163217618Y-99924724D01*
X163263790Y-99872285D01*
X163330983Y-99853133D01*
X163397865Y-99873348D01*
X163442382Y-99924725D01*
X163469429Y-99982728D01*
X163469432Y-99982734D01*
X163599954Y-100169141D01*
X163760858Y-100330045D01*
X163760861Y-100330047D01*
X163947266Y-100460568D01*
X164153504Y-100556739D01*
X164373308Y-100615635D01*
X164535230Y-100629801D01*
X164599998Y-100635468D01*
X164600000Y-100635468D01*
X164600002Y-100635468D01*
X164664614Y-100629815D01*
X164826692Y-100615635D01*
X165046496Y-100556739D01*
X165252734Y-100460568D01*
X165439139Y-100330047D01*
X165600047Y-100169139D01*
X165730568Y-99982734D01*
X165757618Y-99924724D01*
X165803790Y-99872285D01*
X165870983Y-99853133D01*
X165937865Y-99873348D01*
X165982382Y-99924725D01*
X166009429Y-99982728D01*
X166009432Y-99982734D01*
X166139954Y-100169141D01*
X166300858Y-100330045D01*
X166300861Y-100330047D01*
X166487266Y-100460568D01*
X166693504Y-100556739D01*
X166913308Y-100615635D01*
X167075230Y-100629801D01*
X167139998Y-100635468D01*
X167140000Y-100635468D01*
X167140002Y-100635468D01*
X167204614Y-100629815D01*
X167366692Y-100615635D01*
X167586496Y-100556739D01*
X167792734Y-100460568D01*
X167979139Y-100330047D01*
X168140047Y-100169139D01*
X168270568Y-99982734D01*
X168297618Y-99924724D01*
X168343790Y-99872285D01*
X168410983Y-99853133D01*
X168477865Y-99873348D01*
X168522382Y-99924725D01*
X168549429Y-99982728D01*
X168549432Y-99982734D01*
X168679954Y-100169141D01*
X168840858Y-100330045D01*
X168840861Y-100330047D01*
X169027266Y-100460568D01*
X169233504Y-100556739D01*
X169453308Y-100615635D01*
X169615230Y-100629801D01*
X169679998Y-100635468D01*
X169680000Y-100635468D01*
X169680002Y-100635468D01*
X169744614Y-100629815D01*
X169906692Y-100615635D01*
X170126496Y-100556739D01*
X170332734Y-100460568D01*
X170519139Y-100330047D01*
X170680047Y-100169139D01*
X170697272Y-100144539D01*
X170751848Y-100100913D01*
X170821346Y-100093718D01*
X170883701Y-100125239D01*
X170919116Y-100185468D01*
X170922138Y-100202406D01*
X170925908Y-100237483D01*
X170976202Y-100372328D01*
X170976206Y-100372335D01*
X171062452Y-100487544D01*
X171062455Y-100487547D01*
X171177664Y-100573793D01*
X171177671Y-100573797D01*
X171312517Y-100624091D01*
X171312516Y-100624091D01*
X171319444Y-100624835D01*
X171372127Y-100630500D01*
X173067872Y-100630499D01*
X173127483Y-100624091D01*
X173262331Y-100573796D01*
X173377546Y-100487546D01*
X173463796Y-100372331D01*
X173514091Y-100237483D01*
X173520500Y-100177873D01*
X173520499Y-98482128D01*
X173514091Y-98422517D01*
X173512345Y-98417835D01*
X173507360Y-98348143D01*
X173540844Y-98286820D01*
X173602167Y-98253334D01*
X173628526Y-98250500D01*
X177078844Y-98250500D01*
X177078845Y-98250499D01*
X177233497Y-98219737D01*
X177379179Y-98159394D01*
X177510289Y-98071789D01*
X178021788Y-97560290D01*
X178029816Y-97552262D01*
X178070943Y-97486806D01*
X178072761Y-97484001D01*
X178109393Y-97429179D01*
X178109719Y-97428389D01*
X178119293Y-97409859D01*
X178122361Y-97404977D01*
X178125789Y-97399522D01*
X178147020Y-97338843D01*
X178149494Y-97332365D01*
X178169737Y-97283498D01*
X178172450Y-97269855D01*
X178177021Y-97253107D01*
X178185368Y-97229255D01*
X178191111Y-97178282D01*
X178192707Y-97168015D01*
X178200500Y-97128843D01*
X178200500Y-97101914D01*
X178201280Y-97088029D01*
X178205565Y-97050001D01*
X178205565Y-97049998D01*
X178201280Y-97011969D01*
X178200500Y-96998085D01*
X178200500Y-96971157D01*
X178195682Y-96946936D01*
X178192709Y-96931992D01*
X178191110Y-96921714D01*
X178185368Y-96870745D01*
X178177023Y-96846898D01*
X178172449Y-96830139D01*
X178169737Y-96816503D01*
X178169735Y-96816498D01*
X178169734Y-96816494D01*
X178149492Y-96767627D01*
X178147022Y-96761160D01*
X178125789Y-96700478D01*
X178119287Y-96690132D01*
X178109717Y-96671603D01*
X178109394Y-96670823D01*
X178109392Y-96670820D01*
X178072791Y-96616043D01*
X178070926Y-96613166D01*
X178029816Y-96547738D01*
X177902262Y-96420184D01*
X177836842Y-96379078D01*
X177833923Y-96377186D01*
X177779179Y-96340607D01*
X177779172Y-96340604D01*
X177778381Y-96340276D01*
X177759869Y-96330712D01*
X177753575Y-96326757D01*
X177749521Y-96324210D01*
X177688856Y-96302982D01*
X177682363Y-96300503D01*
X177633497Y-96280263D01*
X177633493Y-96280262D01*
X177619860Y-96277550D01*
X177603104Y-96272976D01*
X177579260Y-96264633D01*
X177579256Y-96264632D01*
X177579255Y-96264632D01*
X177558575Y-96262301D01*
X177528303Y-96258890D01*
X177518003Y-96257288D01*
X177478844Y-96249500D01*
X177478842Y-96249500D01*
X177451915Y-96249500D01*
X177438031Y-96248720D01*
X177400002Y-96244435D01*
X177399998Y-96244435D01*
X177361969Y-96248720D01*
X177348085Y-96249500D01*
X177321154Y-96249500D01*
X177281996Y-96257288D01*
X177271696Y-96258890D01*
X177220741Y-96264632D01*
X177196895Y-96272976D01*
X177180142Y-96277549D01*
X177166503Y-96280262D01*
X177166500Y-96280263D01*
X177117628Y-96300507D01*
X177111131Y-96302987D01*
X177050476Y-96324211D01*
X177040127Y-96330714D01*
X177021627Y-96340272D01*
X177020825Y-96340604D01*
X177020820Y-96340606D01*
X176966065Y-96377192D01*
X176963150Y-96379082D01*
X176897736Y-96420185D01*
X176897735Y-96420186D01*
X176704741Y-96613181D01*
X176643418Y-96646666D01*
X176617060Y-96649500D01*
X167711940Y-96649500D01*
X167644901Y-96629815D01*
X167599146Y-96577011D01*
X167589202Y-96507853D01*
X167618227Y-96444297D01*
X167624249Y-96437827D01*
X167929675Y-96132401D01*
X167990995Y-96098919D01*
X168028156Y-96096557D01*
X168130000Y-96105468D01*
X168130000Y-96105467D01*
X168130001Y-96105468D01*
X168130002Y-96105468D01*
X168204855Y-96098919D01*
X168356692Y-96085635D01*
X168576496Y-96026739D01*
X168782734Y-95930568D01*
X168969139Y-95800047D01*
X169130047Y-95639139D01*
X169260568Y-95452734D01*
X169356739Y-95246496D01*
X169415635Y-95026692D01*
X169435468Y-94800000D01*
X169435300Y-94798085D01*
X169424383Y-94673302D01*
X169415635Y-94573308D01*
X169356739Y-94353504D01*
X169260568Y-94147266D01*
X169138539Y-93972989D01*
X169130045Y-93960858D01*
X168969141Y-93799954D01*
X168782734Y-93669432D01*
X168782732Y-93669431D01*
X168576497Y-93573261D01*
X168576488Y-93573258D01*
X168356697Y-93514366D01*
X168356693Y-93514365D01*
X168356692Y-93514365D01*
X168356691Y-93514364D01*
X168356686Y-93514364D01*
X168130002Y-93494532D01*
X168129998Y-93494532D01*
X167903313Y-93514364D01*
X167903302Y-93514366D01*
X167683511Y-93573258D01*
X167683502Y-93573261D01*
X167477267Y-93669431D01*
X167477265Y-93669432D01*
X167290858Y-93799954D01*
X167129954Y-93960858D01*
X166999432Y-94147265D01*
X166999431Y-94147267D01*
X166903261Y-94353502D01*
X166903258Y-94353511D01*
X166844366Y-94573302D01*
X166844364Y-94573313D01*
X166824532Y-94799998D01*
X166824532Y-94800002D01*
X166833441Y-94901838D01*
X166819674Y-94970338D01*
X166797594Y-95000326D01*
X166034741Y-95763181D01*
X165973418Y-95796666D01*
X165947060Y-95799500D01*
X165130012Y-95799500D01*
X165062973Y-95779815D01*
X165017218Y-95727011D01*
X165007274Y-95657853D01*
X165028194Y-95609469D01*
X165026110Y-95608160D01*
X165041342Y-95583918D01*
X165070931Y-95536825D01*
X165072777Y-95533979D01*
X165091716Y-95505635D01*
X165109394Y-95479179D01*
X165109720Y-95478390D01*
X165119287Y-95459868D01*
X165125789Y-95449522D01*
X165147023Y-95388837D01*
X165149484Y-95382389D01*
X165169737Y-95333497D01*
X165172448Y-95319862D01*
X165177023Y-95303100D01*
X165185368Y-95279255D01*
X165191110Y-95228283D01*
X165192707Y-95218017D01*
X165200500Y-95178842D01*
X165200500Y-95151914D01*
X165201280Y-95138029D01*
X165202558Y-95126692D01*
X165205565Y-95100000D01*
X165205564Y-95099994D01*
X165201280Y-95061969D01*
X165200500Y-95048085D01*
X165200500Y-95021157D01*
X165198109Y-95009140D01*
X165192709Y-94981992D01*
X165191110Y-94971714D01*
X165185368Y-94920745D01*
X165177023Y-94896898D01*
X165172449Y-94880139D01*
X165169737Y-94866503D01*
X165163125Y-94850541D01*
X165151374Y-94822171D01*
X165149484Y-94817607D01*
X165147028Y-94811175D01*
X165125789Y-94750478D01*
X165119289Y-94740134D01*
X165109719Y-94721606D01*
X165109394Y-94720821D01*
X165072790Y-94666040D01*
X165070905Y-94663131D01*
X165029816Y-94597738D01*
X164902262Y-94470184D01*
X164758042Y-94325964D01*
X164610292Y-94178213D01*
X164610288Y-94178210D01*
X164479185Y-94090609D01*
X164479172Y-94090602D01*
X164333501Y-94030264D01*
X164333489Y-94030261D01*
X164178845Y-93999500D01*
X164178842Y-93999500D01*
X159060049Y-93999500D01*
X158993010Y-93979815D01*
X158972368Y-93963181D01*
X158809141Y-93799954D01*
X158622734Y-93669432D01*
X158622732Y-93669431D01*
X158416497Y-93573261D01*
X158416488Y-93573258D01*
X158196697Y-93514366D01*
X158196693Y-93514365D01*
X158196692Y-93514365D01*
X158196691Y-93514364D01*
X158196686Y-93514364D01*
X157970002Y-93494532D01*
X157969998Y-93494532D01*
X157743313Y-93514364D01*
X157743302Y-93514366D01*
X157523511Y-93573258D01*
X157523502Y-93573261D01*
X157317267Y-93669431D01*
X157317265Y-93669432D01*
X157130858Y-93799954D01*
X156969954Y-93960858D01*
X156839432Y-94147265D01*
X156839431Y-94147267D01*
X156743261Y-94353502D01*
X156743258Y-94353511D01*
X156684366Y-94573302D01*
X156684364Y-94573313D01*
X156664532Y-94799998D01*
X156664532Y-94800001D01*
X156684364Y-95026686D01*
X156684366Y-95026697D01*
X156743258Y-95246488D01*
X156743260Y-95246492D01*
X156743261Y-95246496D01*
X156837934Y-95449521D01*
X156838970Y-95451743D01*
X156849462Y-95520820D01*
X156820942Y-95584605D01*
X156762466Y-95622844D01*
X156692598Y-95623399D01*
X156638907Y-95591829D01*
X155890034Y-94842956D01*
X155856549Y-94781633D01*
X155854139Y-94745035D01*
X155855220Y-94731998D01*
X155862270Y-94646909D01*
X155870300Y-94550005D01*
X155870300Y-94549993D01*
X155851135Y-94318702D01*
X155851133Y-94318691D01*
X155794157Y-94093699D01*
X155700924Y-93881151D01*
X155573983Y-93686852D01*
X155573980Y-93686849D01*
X155573979Y-93686847D01*
X155416784Y-93516087D01*
X155416779Y-93516083D01*
X155416777Y-93516081D01*
X155233634Y-93373535D01*
X155233628Y-93373531D01*
X155029504Y-93263064D01*
X155029495Y-93263061D01*
X154809984Y-93187702D01*
X154638282Y-93159050D01*
X154581049Y-93149500D01*
X154348951Y-93149500D01*
X154303164Y-93157140D01*
X154120015Y-93187702D01*
X153900504Y-93263061D01*
X153900495Y-93263064D01*
X153696371Y-93373531D01*
X153696365Y-93373535D01*
X153513222Y-93516081D01*
X153513219Y-93516084D01*
X153513216Y-93516086D01*
X153513216Y-93516087D01*
X153491746Y-93539410D01*
X153356016Y-93686852D01*
X153229075Y-93881151D01*
X153135842Y-94093699D01*
X153078866Y-94318691D01*
X153078864Y-94318702D01*
X153059700Y-94549993D01*
X153059700Y-94550006D01*
X153078864Y-94781297D01*
X153078866Y-94781308D01*
X153135842Y-95006300D01*
X153229075Y-95218848D01*
X153356016Y-95413147D01*
X153356019Y-95413151D01*
X153356021Y-95413153D01*
X153513216Y-95583913D01*
X153513219Y-95583915D01*
X153513222Y-95583918D01*
X153696365Y-95726464D01*
X153696371Y-95726468D01*
X153696374Y-95726470D01*
X153900497Y-95836936D01*
X154014487Y-95876068D01*
X154120015Y-95912297D01*
X154120017Y-95912297D01*
X154120019Y-95912298D01*
X154348951Y-95950500D01*
X154348952Y-95950500D01*
X154581051Y-95950500D01*
X154607732Y-95946047D01*
X154648672Y-95939215D01*
X154718036Y-95947595D01*
X154756764Y-95973842D01*
X155220741Y-96437819D01*
X155254226Y-96499142D01*
X155249242Y-96568834D01*
X155207370Y-96624767D01*
X155141906Y-96649184D01*
X155133060Y-96649500D01*
X146081154Y-96649500D01*
X145926509Y-96680261D01*
X145926501Y-96680263D01*
X145896448Y-96692712D01*
X145896447Y-96692712D01*
X145780827Y-96740602D01*
X145780814Y-96740609D01*
X145649712Y-96828209D01*
X145649710Y-96828212D01*
X144480326Y-97997594D01*
X144419003Y-98031079D01*
X144381838Y-98033441D01*
X144280002Y-98024532D01*
X144279998Y-98024532D01*
X144053313Y-98044364D01*
X144053302Y-98044366D01*
X143833511Y-98103258D01*
X143833502Y-98103261D01*
X143627267Y-98199431D01*
X143627265Y-98199432D01*
X143440858Y-98329954D01*
X143279954Y-98490858D01*
X143149432Y-98677265D01*
X143149431Y-98677267D01*
X143147123Y-98682217D01*
X143126781Y-98725842D01*
X143122382Y-98735275D01*
X143076209Y-98787714D01*
X143009016Y-98806866D01*
X142942135Y-98786650D01*
X142897618Y-98735275D01*
X142870568Y-98677266D01*
X142740047Y-98490861D01*
X142740045Y-98490858D01*
X142579141Y-98329954D01*
X142392734Y-98199432D01*
X142392732Y-98199431D01*
X142186497Y-98103261D01*
X142186488Y-98103258D01*
X141966697Y-98044366D01*
X141966693Y-98044365D01*
X141966692Y-98044365D01*
X141966691Y-98044364D01*
X141966686Y-98044364D01*
X141740002Y-98024532D01*
X141739998Y-98024532D01*
X141513313Y-98044364D01*
X141513302Y-98044366D01*
X141293511Y-98103258D01*
X141293502Y-98103261D01*
X141087267Y-98199431D01*
X141087265Y-98199432D01*
X140900858Y-98329954D01*
X140739954Y-98490858D01*
X140609432Y-98677265D01*
X140609431Y-98677267D01*
X140607123Y-98682217D01*
X140586781Y-98725842D01*
X140582382Y-98735275D01*
X140536209Y-98787714D01*
X140469016Y-98806866D01*
X140402135Y-98786650D01*
X140357618Y-98735275D01*
X140330568Y-98677266D01*
X140200047Y-98490861D01*
X140200045Y-98490858D01*
X140039141Y-98329954D01*
X139852734Y-98199432D01*
X139852732Y-98199431D01*
X139646497Y-98103261D01*
X139646488Y-98103258D01*
X139426697Y-98044366D01*
X139426693Y-98044365D01*
X139426692Y-98044365D01*
X139426691Y-98044364D01*
X139426686Y-98044364D01*
X139200002Y-98024532D01*
X139199998Y-98024532D01*
X138973313Y-98044364D01*
X138973302Y-98044366D01*
X138753511Y-98103258D01*
X138753502Y-98103261D01*
X138547267Y-98199431D01*
X138547265Y-98199432D01*
X138360858Y-98329954D01*
X138199954Y-98490858D01*
X138069432Y-98677265D01*
X138069431Y-98677267D01*
X137973261Y-98883502D01*
X137973258Y-98883511D01*
X137914366Y-99103302D01*
X137914364Y-99103313D01*
X137894532Y-99329998D01*
X137894532Y-99330001D01*
X137914364Y-99556686D01*
X137914366Y-99556697D01*
X137973258Y-99776488D01*
X137973261Y-99776497D01*
X138069431Y-99982732D01*
X138069432Y-99982734D01*
X138199954Y-100169141D01*
X138360858Y-100330045D01*
X138360861Y-100330047D01*
X138547266Y-100460568D01*
X138753504Y-100556739D01*
X138973308Y-100615635D01*
X139135230Y-100629801D01*
X139199998Y-100635468D01*
X139200000Y-100635468D01*
X139200002Y-100635468D01*
X139264614Y-100629815D01*
X139426692Y-100615635D01*
X139646496Y-100556739D01*
X139852734Y-100460568D01*
X140039139Y-100330047D01*
X140200047Y-100169139D01*
X140330568Y-99982734D01*
X140357618Y-99924724D01*
X140403790Y-99872285D01*
X140470983Y-99853133D01*
X140537865Y-99873348D01*
X140582382Y-99924725D01*
X140609429Y-99982728D01*
X140609432Y-99982734D01*
X140739954Y-100169141D01*
X140900858Y-100330045D01*
X140900861Y-100330047D01*
X141087266Y-100460568D01*
X141293504Y-100556739D01*
X141513308Y-100615635D01*
X141675230Y-100629801D01*
X141739998Y-100635468D01*
X141740000Y-100635468D01*
X141740002Y-100635468D01*
X141804614Y-100629815D01*
X141966692Y-100615635D01*
X142186496Y-100556739D01*
X142392734Y-100460568D01*
X142579139Y-100330047D01*
X142740047Y-100169139D01*
X142870568Y-99982734D01*
X142897618Y-99924724D01*
X142943790Y-99872285D01*
X143010983Y-99853133D01*
X143077865Y-99873348D01*
X143122382Y-99924725D01*
X143149429Y-99982728D01*
X143149432Y-99982734D01*
X143279954Y-100169141D01*
X143440858Y-100330045D01*
X143440861Y-100330047D01*
X143627266Y-100460568D01*
X143833504Y-100556739D01*
X144053308Y-100615635D01*
X144215230Y-100629801D01*
X144279998Y-100635468D01*
X144280000Y-100635468D01*
X144280002Y-100635468D01*
X144344614Y-100629815D01*
X144506692Y-100615635D01*
X144726496Y-100556739D01*
X144932734Y-100460568D01*
X145119139Y-100330047D01*
X145280047Y-100169139D01*
X145410568Y-99982734D01*
X145437618Y-99924724D01*
X145483790Y-99872285D01*
X145550983Y-99853133D01*
X145617865Y-99873348D01*
X145662382Y-99924725D01*
X145689429Y-99982728D01*
X145689432Y-99982734D01*
X145819954Y-100169141D01*
X145980858Y-100330045D01*
X145980861Y-100330047D01*
X146167266Y-100460568D01*
X146373504Y-100556739D01*
X146593308Y-100615635D01*
X146755230Y-100629801D01*
X146819998Y-100635468D01*
X146820000Y-100635468D01*
X146820002Y-100635468D01*
X146884614Y-100629815D01*
X147046692Y-100615635D01*
X147266496Y-100556739D01*
X147472734Y-100460568D01*
X147659139Y-100330047D01*
X147820047Y-100169139D01*
X147950568Y-99982734D01*
X147977618Y-99924724D01*
X148023790Y-99872285D01*
X148090983Y-99853133D01*
X148157865Y-99873348D01*
X148202382Y-99924725D01*
X148229429Y-99982728D01*
X148229432Y-99982734D01*
X148359954Y-100169141D01*
X148520858Y-100330045D01*
X148520861Y-100330047D01*
X148707266Y-100460568D01*
X148913504Y-100556739D01*
X149133308Y-100615635D01*
X149295230Y-100629801D01*
X149359998Y-100635468D01*
X149360000Y-100635468D01*
X149360002Y-100635468D01*
X149424614Y-100629815D01*
X149586692Y-100615635D01*
X149806496Y-100556739D01*
X150012734Y-100460568D01*
X150199139Y-100330047D01*
X150360047Y-100169139D01*
X150490568Y-99982734D01*
X150517618Y-99924724D01*
X150563790Y-99872285D01*
X150630983Y-99853133D01*
X150697865Y-99873348D01*
X150742382Y-99924725D01*
X150769429Y-99982728D01*
X150769432Y-99982734D01*
X150899954Y-100169141D01*
X151060858Y-100330045D01*
X151060861Y-100330047D01*
X151247266Y-100460568D01*
X151453504Y-100556739D01*
X151673308Y-100615635D01*
X151835230Y-100629801D01*
X151899998Y-100635468D01*
X151900000Y-100635468D01*
X151900002Y-100635468D01*
X151964614Y-100629815D01*
X152126692Y-100615635D01*
X152346496Y-100556739D01*
X152552734Y-100460568D01*
X152739139Y-100330047D01*
X152900047Y-100169139D01*
X153030568Y-99982734D01*
X153126739Y-99776496D01*
X153185635Y-99556692D01*
X153205468Y-99330000D01*
X153185635Y-99103308D01*
X153126739Y-98883504D01*
X153030568Y-98677266D01*
X152900047Y-98490861D01*
X152900045Y-98490858D01*
X152871368Y-98462181D01*
X152837883Y-98400858D01*
X152842867Y-98331166D01*
X152884739Y-98275233D01*
X152950203Y-98250816D01*
X152959049Y-98250500D01*
X155920951Y-98250500D01*
X155987990Y-98270185D01*
X156033745Y-98322989D01*
X156043689Y-98392147D01*
X156014664Y-98455703D01*
X156008632Y-98462181D01*
X155979954Y-98490858D01*
X155849432Y-98677265D01*
X155849431Y-98677267D01*
X155753261Y-98883502D01*
X155753258Y-98883511D01*
X155694366Y-99103302D01*
X155694364Y-99103313D01*
X155674532Y-99329998D01*
X155674532Y-99330001D01*
X155694364Y-99556686D01*
X155694366Y-99556697D01*
X155753258Y-99776488D01*
X155753261Y-99776497D01*
X155849431Y-99982732D01*
X155849432Y-99982734D01*
X155979951Y-100169137D01*
X155979952Y-100169138D01*
X155979953Y-100169139D01*
X156043182Y-100232368D01*
X156076666Y-100293689D01*
X156079500Y-100320048D01*
X156079500Y-101118696D01*
X156114103Y-101292659D01*
X156114104Y-101292663D01*
X156114105Y-101292666D01*
X156133539Y-101339582D01*
X156181984Y-101456542D01*
X156211022Y-101500001D01*
X156280535Y-101604036D01*
X156280538Y-101604039D01*
X156664319Y-101987819D01*
X156697804Y-102049142D01*
X156692820Y-102118833D01*
X156650949Y-102174767D01*
X156585484Y-102199184D01*
X156576638Y-102199500D01*
X129151153Y-102199500D01*
X128996510Y-102230260D01*
X128996502Y-102230262D01*
X128850824Y-102290604D01*
X128850814Y-102290609D01*
X128719711Y-102378210D01*
X128719707Y-102378213D01*
X128050326Y-103047594D01*
X127989003Y-103081079D01*
X127951838Y-103083441D01*
X127850002Y-103074532D01*
X127849998Y-103074532D01*
X127623313Y-103094364D01*
X127623302Y-103094366D01*
X127403511Y-103153258D01*
X127403502Y-103153261D01*
X127197267Y-103249431D01*
X127197265Y-103249432D01*
X127010858Y-103379954D01*
X126849954Y-103540858D01*
X126719432Y-103727265D01*
X126719431Y-103727267D01*
X126623261Y-103933502D01*
X126623258Y-103933511D01*
X126564366Y-104153302D01*
X126564364Y-104153313D01*
X126544532Y-104379998D01*
X126544532Y-104380001D01*
X116760500Y-104380001D01*
X116760500Y-95660006D01*
X120194700Y-95660006D01*
X120213864Y-95891297D01*
X120213866Y-95891308D01*
X120270842Y-96116300D01*
X120364075Y-96328848D01*
X120491016Y-96523147D01*
X120491019Y-96523151D01*
X120491021Y-96523153D01*
X120648216Y-96693913D01*
X120648219Y-96693915D01*
X120648222Y-96693918D01*
X120831365Y-96836464D01*
X120831371Y-96836468D01*
X120831374Y-96836470D01*
X121035497Y-96946936D01*
X121129598Y-96979241D01*
X121255015Y-97022297D01*
X121255017Y-97022297D01*
X121255019Y-97022298D01*
X121483951Y-97060500D01*
X121483952Y-97060500D01*
X121716048Y-97060500D01*
X121716049Y-97060500D01*
X121944981Y-97022298D01*
X122164503Y-96946936D01*
X122368626Y-96836470D01*
X122551784Y-96693913D01*
X122708979Y-96523153D01*
X122835924Y-96328849D01*
X122929157Y-96116300D01*
X122986134Y-95891305D01*
X122993976Y-95796666D01*
X123005300Y-95660006D01*
X123005300Y-95659994D01*
X122992042Y-95499999D01*
X122989139Y-95464962D01*
X123003220Y-95396527D01*
X123025027Y-95367049D01*
X123335260Y-95056816D01*
X123396582Y-95023334D01*
X123422940Y-95020500D01*
X126759951Y-95020500D01*
X126826990Y-95040185D01*
X126847632Y-95056819D01*
X127010858Y-95220045D01*
X127010861Y-95220047D01*
X127197266Y-95350568D01*
X127403504Y-95446739D01*
X127403509Y-95446740D01*
X127403511Y-95446741D01*
X127452435Y-95459850D01*
X127623308Y-95505635D01*
X127785230Y-95519801D01*
X127849998Y-95525468D01*
X127850000Y-95525468D01*
X127850002Y-95525468D01*
X127906673Y-95520509D01*
X128076692Y-95505635D01*
X128296496Y-95446739D01*
X128502734Y-95350568D01*
X128689139Y-95220047D01*
X128809180Y-95100006D01*
X132859700Y-95100006D01*
X132878864Y-95331297D01*
X132878866Y-95331308D01*
X132935842Y-95556300D01*
X133029075Y-95768848D01*
X133156016Y-95963147D01*
X133156019Y-95963151D01*
X133156021Y-95963153D01*
X133313216Y-96133913D01*
X133313219Y-96133915D01*
X133313222Y-96133918D01*
X133496365Y-96276464D01*
X133496371Y-96276468D01*
X133496374Y-96276470D01*
X133700497Y-96386936D01*
X133794869Y-96419334D01*
X133920015Y-96462297D01*
X133920017Y-96462297D01*
X133920019Y-96462298D01*
X134148951Y-96500500D01*
X134148952Y-96500500D01*
X134381048Y-96500500D01*
X134381049Y-96500500D01*
X134609981Y-96462298D01*
X134829503Y-96386936D01*
X135033626Y-96276470D01*
X135034422Y-96275851D01*
X135174857Y-96166546D01*
X135216784Y-96133913D01*
X135373979Y-95963153D01*
X135500924Y-95768849D01*
X135594157Y-95556300D01*
X135651134Y-95331305D01*
X135652082Y-95319868D01*
X135670300Y-95100006D01*
X135670300Y-95099994D01*
X135655447Y-94920745D01*
X135654139Y-94904962D01*
X135668220Y-94836527D01*
X135690031Y-94807046D01*
X136560259Y-93936819D01*
X136621582Y-93903334D01*
X136647940Y-93900500D01*
X137094037Y-93900500D01*
X137161076Y-93920185D01*
X137206831Y-93972989D01*
X137216775Y-94042147D01*
X137195612Y-94095623D01*
X137089432Y-94247265D01*
X137089431Y-94247267D01*
X136993261Y-94453502D01*
X136993258Y-94453511D01*
X136934366Y-94673302D01*
X136934364Y-94673313D01*
X136914532Y-94899998D01*
X136914532Y-94900001D01*
X136934364Y-95126686D01*
X136934366Y-95126697D01*
X136993258Y-95346488D01*
X136993261Y-95346497D01*
X137089431Y-95552732D01*
X137089432Y-95552734D01*
X137219954Y-95739141D01*
X137380858Y-95900045D01*
X137380861Y-95900047D01*
X137567266Y-96030568D01*
X137773504Y-96126739D01*
X137773509Y-96126740D01*
X137773511Y-96126741D01*
X137804420Y-96135023D01*
X137993308Y-96185635D01*
X138155230Y-96199801D01*
X138219998Y-96205468D01*
X138220000Y-96205468D01*
X138220002Y-96205468D01*
X138276673Y-96200509D01*
X138446692Y-96185635D01*
X138666496Y-96126739D01*
X138872734Y-96030568D01*
X139059139Y-95900047D01*
X139122251Y-95836935D01*
X139222368Y-95736819D01*
X139283691Y-95703334D01*
X139310049Y-95700500D01*
X144778844Y-95700500D01*
X144778845Y-95700499D01*
X144933497Y-95669737D01*
X145079179Y-95609394D01*
X145210289Y-95521789D01*
X145371789Y-95360289D01*
X145379816Y-95352262D01*
X145420931Y-95286825D01*
X145422777Y-95283979D01*
X145425934Y-95279254D01*
X145459394Y-95229179D01*
X145459720Y-95228390D01*
X145469287Y-95209868D01*
X145475789Y-95199522D01*
X145497022Y-95138837D01*
X145499477Y-95132407D01*
X145519738Y-95083497D01*
X145522449Y-95069860D01*
X145527025Y-95053096D01*
X145535368Y-95029255D01*
X145541109Y-94978287D01*
X145542709Y-94968004D01*
X145550500Y-94928842D01*
X145550500Y-94901914D01*
X145551280Y-94888029D01*
X145555565Y-94850001D01*
X145555565Y-94849998D01*
X145551280Y-94811969D01*
X145550500Y-94798085D01*
X145550500Y-94771157D01*
X145542708Y-94731987D01*
X145541109Y-94721703D01*
X145535368Y-94670745D01*
X145527027Y-94646909D01*
X145522449Y-94630137D01*
X145522415Y-94629965D01*
X145519738Y-94616503D01*
X145499481Y-94567600D01*
X145497006Y-94561115D01*
X145493114Y-94549993D01*
X145475789Y-94500478D01*
X145469289Y-94490134D01*
X145459719Y-94471606D01*
X145459394Y-94470821D01*
X145422790Y-94416040D01*
X145420905Y-94413131D01*
X145395729Y-94373064D01*
X145379816Y-94347738D01*
X145252262Y-94220184D01*
X145252260Y-94220182D01*
X145252257Y-94220180D01*
X145186900Y-94179114D01*
X145183982Y-94177223D01*
X145129179Y-94140605D01*
X145129173Y-94140603D01*
X145128365Y-94140268D01*
X145109898Y-94130730D01*
X145108806Y-94130044D01*
X145107965Y-94129516D01*
X145061657Y-94077199D01*
X145050984Y-94008149D01*
X145079336Y-93944291D01*
X145137712Y-93905898D01*
X145173901Y-93900500D01*
X146197060Y-93900500D01*
X146264099Y-93920185D01*
X146284741Y-93936819D01*
X147047594Y-94699672D01*
X147081079Y-94760995D01*
X147083441Y-94798160D01*
X147074532Y-94899997D01*
X147074532Y-94900001D01*
X147094364Y-95126686D01*
X147094366Y-95126697D01*
X147153258Y-95346488D01*
X147153261Y-95346497D01*
X147249431Y-95552732D01*
X147249432Y-95552734D01*
X147379954Y-95739141D01*
X147540858Y-95900045D01*
X147540861Y-95900047D01*
X147727266Y-96030568D01*
X147933504Y-96126739D01*
X147933509Y-96126740D01*
X147933511Y-96126741D01*
X147964420Y-96135023D01*
X148153308Y-96185635D01*
X148315230Y-96199801D01*
X148379998Y-96205468D01*
X148380000Y-96205468D01*
X148380002Y-96205468D01*
X148436673Y-96200509D01*
X148606692Y-96185635D01*
X148826496Y-96126739D01*
X149032734Y-96030568D01*
X149219139Y-95900047D01*
X149380047Y-95739139D01*
X149510568Y-95552734D01*
X149606739Y-95346496D01*
X149665635Y-95126692D01*
X149685468Y-94900000D01*
X149685026Y-94894953D01*
X149676558Y-94798160D01*
X149665635Y-94673308D01*
X149606739Y-94453504D01*
X149510568Y-94247266D01*
X149400877Y-94090609D01*
X149380045Y-94060858D01*
X149219141Y-93899954D01*
X149032734Y-93769432D01*
X149032732Y-93769431D01*
X148826497Y-93673261D01*
X148826488Y-93673258D01*
X148606697Y-93614366D01*
X148606693Y-93614365D01*
X148606692Y-93614365D01*
X148606691Y-93614364D01*
X148606686Y-93614364D01*
X148380002Y-93594532D01*
X148379998Y-93594532D01*
X148278160Y-93603441D01*
X148209660Y-93589674D01*
X148179672Y-93567594D01*
X147090292Y-92478213D01*
X147090288Y-92478210D01*
X146959185Y-92390609D01*
X146959172Y-92390602D01*
X146813501Y-92330264D01*
X146813489Y-92330261D01*
X146658845Y-92299500D01*
X146658842Y-92299500D01*
X136186158Y-92299500D01*
X136186155Y-92299500D01*
X136031510Y-92330261D01*
X136031498Y-92330264D01*
X135885827Y-92390602D01*
X135885815Y-92390609D01*
X135800922Y-92447334D01*
X135789445Y-92455002D01*
X135754708Y-92478212D01*
X134556764Y-93676156D01*
X134495441Y-93709641D01*
X134448674Y-93710784D01*
X134381049Y-93699500D01*
X134148951Y-93699500D01*
X134103164Y-93707140D01*
X133920015Y-93737702D01*
X133700504Y-93813061D01*
X133700495Y-93813064D01*
X133496371Y-93923531D01*
X133496365Y-93923535D01*
X133313222Y-94066081D01*
X133313219Y-94066084D01*
X133313216Y-94066086D01*
X133313216Y-94066087D01*
X133287797Y-94093700D01*
X133156016Y-94236852D01*
X133029075Y-94431151D01*
X132935842Y-94643699D01*
X132878866Y-94868691D01*
X132878864Y-94868702D01*
X132859700Y-95099993D01*
X132859700Y-95100006D01*
X128809180Y-95100006D01*
X128850047Y-95059139D01*
X128980568Y-94872734D01*
X129076739Y-94666496D01*
X129135635Y-94446692D01*
X129154055Y-94236156D01*
X129155468Y-94220001D01*
X129155468Y-94219998D01*
X129149105Y-94147266D01*
X129135635Y-93993308D01*
X129076739Y-93773504D01*
X128980568Y-93567266D01*
X128870075Y-93409464D01*
X128850045Y-93380858D01*
X128689141Y-93219954D01*
X128502734Y-93089432D01*
X128502732Y-93089431D01*
X128296497Y-92993261D01*
X128296488Y-92993258D01*
X128076697Y-92934366D01*
X128076693Y-92934365D01*
X128076692Y-92934365D01*
X128076691Y-92934364D01*
X128076686Y-92934364D01*
X127850002Y-92914532D01*
X127849998Y-92914532D01*
X127623313Y-92934364D01*
X127623302Y-92934366D01*
X127403511Y-92993258D01*
X127403502Y-92993261D01*
X127197267Y-93089431D01*
X127197265Y-93089432D01*
X127010858Y-93219954D01*
X126847632Y-93383181D01*
X126786309Y-93416666D01*
X126759951Y-93419500D01*
X122961153Y-93419500D01*
X122806510Y-93450260D01*
X122806502Y-93450262D01*
X122660824Y-93510604D01*
X122660814Y-93510609D01*
X122529711Y-93598210D01*
X122529707Y-93598213D01*
X121891764Y-94236156D01*
X121830441Y-94269641D01*
X121783674Y-94270784D01*
X121716049Y-94259500D01*
X121483951Y-94259500D01*
X121438164Y-94267140D01*
X121255015Y-94297702D01*
X121035504Y-94373061D01*
X121035495Y-94373064D01*
X120831371Y-94483531D01*
X120831365Y-94483535D01*
X120648222Y-94626081D01*
X120648219Y-94626084D01*
X120648216Y-94626086D01*
X120648216Y-94626087D01*
X120611017Y-94666496D01*
X120491016Y-94796852D01*
X120364075Y-94991151D01*
X120270842Y-95203699D01*
X120213866Y-95428691D01*
X120213864Y-95428702D01*
X120194700Y-95659993D01*
X120194700Y-95660006D01*
X116760500Y-95660006D01*
X116760500Y-88400001D01*
X119394532Y-88400001D01*
X119414364Y-88626686D01*
X119414366Y-88626697D01*
X119473258Y-88846488D01*
X119473261Y-88846497D01*
X119569431Y-89052732D01*
X119569432Y-89052734D01*
X119699954Y-89239141D01*
X119860858Y-89400045D01*
X119860861Y-89400047D01*
X120047266Y-89530568D01*
X120253504Y-89626739D01*
X120253509Y-89626740D01*
X120253511Y-89626741D01*
X120306415Y-89640916D01*
X120473308Y-89685635D01*
X120635230Y-89699801D01*
X120699998Y-89705468D01*
X120700000Y-89705468D01*
X120700002Y-89705468D01*
X120756796Y-89700499D01*
X120926692Y-89685635D01*
X121146496Y-89626739D01*
X121352734Y-89530568D01*
X121539139Y-89400047D01*
X121619001Y-89320185D01*
X121702368Y-89236819D01*
X121763691Y-89203334D01*
X121790049Y-89200500D01*
X124514972Y-89200500D01*
X124515094Y-89200506D01*
X124521157Y-89200506D01*
X124548085Y-89200506D01*
X124561969Y-89201286D01*
X124599998Y-89205571D01*
X124600000Y-89205571D01*
X124600002Y-89205571D01*
X124638031Y-89201286D01*
X124651915Y-89200506D01*
X124678841Y-89200506D01*
X124678842Y-89200506D01*
X124718017Y-89192713D01*
X124728283Y-89191116D01*
X124779255Y-89185374D01*
X124803107Y-89177026D01*
X124819852Y-89172456D01*
X124833497Y-89169743D01*
X124882382Y-89149493D01*
X124888852Y-89147023D01*
X124949522Y-89125795D01*
X124959860Y-89119298D01*
X124978389Y-89109725D01*
X124979179Y-89109399D01*
X125033965Y-89072790D01*
X125036827Y-89070936D01*
X125102262Y-89029822D01*
X125229816Y-88902268D01*
X125270939Y-88836817D01*
X125272784Y-88833971D01*
X125309393Y-88779185D01*
X125309719Y-88778395D01*
X125319293Y-88759865D01*
X125325789Y-88749528D01*
X125338435Y-88713384D01*
X125379156Y-88656609D01*
X125444108Y-88630861D01*
X125512670Y-88644316D01*
X125543158Y-88666658D01*
X125906321Y-89029820D01*
X126250536Y-89374035D01*
X126318648Y-89442147D01*
X126375966Y-89499465D01*
X126523446Y-89598009D01*
X126523459Y-89598016D01*
X126646363Y-89648923D01*
X126687334Y-89665894D01*
X126687336Y-89665894D01*
X126687341Y-89665896D01*
X126861304Y-89700499D01*
X126861307Y-89700500D01*
X126861309Y-89700500D01*
X132888693Y-89700500D01*
X132888694Y-89700499D01*
X133062666Y-89665895D01*
X133144606Y-89631953D01*
X133226547Y-89598013D01*
X133347393Y-89517266D01*
X133374036Y-89499464D01*
X137266679Y-85606819D01*
X137328002Y-85573335D01*
X137354360Y-85570501D01*
X142305499Y-85570501D01*
X142372538Y-85590186D01*
X142418293Y-85642990D01*
X142428237Y-85712148D01*
X142424216Y-85728154D01*
X142424662Y-85728274D01*
X142364366Y-85953302D01*
X142364364Y-85953313D01*
X142344532Y-86179998D01*
X142344532Y-86180001D01*
X142364364Y-86406686D01*
X142364366Y-86406697D01*
X142423258Y-86626488D01*
X142423261Y-86626497D01*
X142519431Y-86832732D01*
X142519432Y-86832734D01*
X142649954Y-87019141D01*
X142813181Y-87182368D01*
X142846666Y-87243691D01*
X142849500Y-87270049D01*
X142849500Y-88625595D01*
X142829815Y-88692634D01*
X142777011Y-88738389D01*
X142757594Y-88745370D01*
X142653508Y-88773259D01*
X142653502Y-88773261D01*
X142447267Y-88869431D01*
X142447265Y-88869432D01*
X142260858Y-88999954D01*
X142099954Y-89160858D01*
X141969432Y-89347265D01*
X141969431Y-89347267D01*
X141873261Y-89553502D01*
X141873258Y-89553511D01*
X141814366Y-89773302D01*
X141814364Y-89773313D01*
X141794532Y-89999998D01*
X141794532Y-90000001D01*
X141814364Y-90226686D01*
X141814366Y-90226697D01*
X141873258Y-90446488D01*
X141873261Y-90446497D01*
X141969431Y-90652732D01*
X141969432Y-90652734D01*
X142099954Y-90839141D01*
X142260858Y-91000045D01*
X142273846Y-91009139D01*
X142447266Y-91130568D01*
X142653504Y-91226739D01*
X142873308Y-91285635D01*
X143035230Y-91299801D01*
X143099998Y-91305468D01*
X143100000Y-91305468D01*
X143100002Y-91305468D01*
X143156673Y-91300509D01*
X143326692Y-91285635D01*
X143546496Y-91226739D01*
X143752734Y-91130568D01*
X143939139Y-91000047D01*
X144100047Y-90839139D01*
X144230568Y-90652734D01*
X144326739Y-90446496D01*
X144385635Y-90226692D01*
X144405468Y-90000000D01*
X144387739Y-89797357D01*
X144396709Y-89739091D01*
X144403169Y-89723498D01*
X144407589Y-89712824D01*
X144419737Y-89683498D01*
X144450500Y-89528843D01*
X144450500Y-89371158D01*
X144450500Y-87270049D01*
X144470185Y-87203010D01*
X144486819Y-87182368D01*
X144652368Y-87016819D01*
X144713691Y-86983334D01*
X144740049Y-86980500D01*
X145097060Y-86980500D01*
X145164099Y-87000185D01*
X145184741Y-87016819D01*
X145978211Y-87810289D01*
X146047737Y-87879815D01*
X146089712Y-87921790D01*
X146220814Y-88009390D01*
X146220827Y-88009397D01*
X146366498Y-88069735D01*
X146366503Y-88069737D01*
X146366507Y-88069737D01*
X146366508Y-88069738D01*
X146521154Y-88100500D01*
X146521157Y-88100500D01*
X146521158Y-88100500D01*
X147767060Y-88100500D01*
X147834099Y-88120185D01*
X147854741Y-88136819D01*
X148201509Y-88483587D01*
X148234994Y-88544910D01*
X148230010Y-88614602D01*
X148188138Y-88670535D01*
X148122674Y-88694952D01*
X148103023Y-88694796D01*
X148100005Y-88694532D01*
X148099998Y-88694532D01*
X147873313Y-88714364D01*
X147873302Y-88714366D01*
X147653511Y-88773258D01*
X147653502Y-88773261D01*
X147447267Y-88869431D01*
X147447265Y-88869432D01*
X147260858Y-88999954D01*
X147099954Y-89160858D01*
X146969432Y-89347265D01*
X146969431Y-89347267D01*
X146873261Y-89553502D01*
X146873258Y-89553511D01*
X146814366Y-89773302D01*
X146814364Y-89773313D01*
X146794532Y-89999998D01*
X146794532Y-90000001D01*
X146814364Y-90226686D01*
X146814366Y-90226697D01*
X146873258Y-90446488D01*
X146873261Y-90446497D01*
X146969431Y-90652732D01*
X146969432Y-90652734D01*
X147099954Y-90839141D01*
X147260858Y-91000045D01*
X147273846Y-91009139D01*
X147447266Y-91130568D01*
X147653504Y-91226739D01*
X147873308Y-91285635D01*
X148035230Y-91299801D01*
X148099998Y-91305468D01*
X148100000Y-91305468D01*
X148100002Y-91305468D01*
X148156673Y-91300509D01*
X148326692Y-91285635D01*
X148546496Y-91226739D01*
X148752734Y-91130568D01*
X148939139Y-91000047D01*
X149100047Y-90839139D01*
X149230568Y-90652734D01*
X149326739Y-90446496D01*
X149333203Y-90422369D01*
X149365295Y-90366781D01*
X152852075Y-86880001D01*
X158344532Y-86880001D01*
X158364364Y-87106686D01*
X158364366Y-87106697D01*
X158423258Y-87326488D01*
X158423261Y-87326497D01*
X158519431Y-87532732D01*
X158519432Y-87532734D01*
X158649954Y-87719141D01*
X158810858Y-87880045D01*
X158810861Y-87880047D01*
X158997266Y-88010568D01*
X159203504Y-88106739D01*
X159423308Y-88165635D01*
X159585230Y-88179801D01*
X159649998Y-88185468D01*
X159650000Y-88185468D01*
X159650002Y-88185468D01*
X159706673Y-88180509D01*
X159876692Y-88165635D01*
X160096496Y-88106739D01*
X160302734Y-88010568D01*
X160489139Y-87880047D01*
X160650047Y-87719139D01*
X160780568Y-87532734D01*
X160876739Y-87326496D01*
X160935635Y-87106692D01*
X160955468Y-86880000D01*
X160935635Y-86653308D01*
X160876739Y-86433504D01*
X160780568Y-86227266D01*
X160650047Y-86040861D01*
X160650045Y-86040858D01*
X160489141Y-85879954D01*
X160302734Y-85749432D01*
X160302732Y-85749431D01*
X160096497Y-85653261D01*
X160096488Y-85653258D01*
X159876697Y-85594366D01*
X159876693Y-85594365D01*
X159876692Y-85594365D01*
X159876691Y-85594364D01*
X159876686Y-85594364D01*
X159650002Y-85574532D01*
X159649998Y-85574532D01*
X159423313Y-85594364D01*
X159423302Y-85594366D01*
X159203511Y-85653258D01*
X159203502Y-85653261D01*
X158997267Y-85749431D01*
X158997265Y-85749432D01*
X158810858Y-85879954D01*
X158649954Y-86040858D01*
X158519432Y-86227265D01*
X158519431Y-86227267D01*
X158423261Y-86433502D01*
X158423258Y-86433511D01*
X158364366Y-86653302D01*
X158364364Y-86653313D01*
X158344532Y-86879998D01*
X158344532Y-86880001D01*
X152852075Y-86880001D01*
X154168258Y-85563818D01*
X154229579Y-85530335D01*
X154299271Y-85535319D01*
X154355204Y-85577191D01*
X154379465Y-85640692D01*
X154384364Y-85696687D01*
X154384366Y-85696697D01*
X154443258Y-85916488D01*
X154443261Y-85916497D01*
X154539431Y-86122732D01*
X154539432Y-86122734D01*
X154669954Y-86309141D01*
X154830858Y-86470045D01*
X154830861Y-86470047D01*
X155017266Y-86600568D01*
X155223504Y-86696739D01*
X155443308Y-86755635D01*
X155605230Y-86769801D01*
X155669998Y-86775468D01*
X155670000Y-86775468D01*
X155670002Y-86775468D01*
X155726673Y-86770509D01*
X155896692Y-86755635D01*
X156116496Y-86696739D01*
X156322734Y-86600568D01*
X156509139Y-86470047D01*
X156670047Y-86309139D01*
X156800568Y-86122734D01*
X156896739Y-85916496D01*
X156955635Y-85696692D01*
X156975468Y-85470000D01*
X156974549Y-85459500D01*
X156955635Y-85243313D01*
X156955635Y-85243312D01*
X156955635Y-85243308D01*
X156902965Y-85046739D01*
X156896741Y-85023511D01*
X156896738Y-85023502D01*
X156873423Y-84973504D01*
X156800568Y-84817266D01*
X156670047Y-84630861D01*
X156670045Y-84630858D01*
X156509141Y-84469954D01*
X156322734Y-84339432D01*
X156322728Y-84339429D01*
X156264725Y-84312382D01*
X156212285Y-84266210D01*
X156193133Y-84199017D01*
X156213348Y-84132135D01*
X156264725Y-84087618D01*
X156272932Y-84083791D01*
X156322734Y-84060568D01*
X156509139Y-83930047D01*
X156670047Y-83769139D01*
X156800568Y-83582734D01*
X156896739Y-83376496D01*
X156955635Y-83156692D01*
X156974668Y-82939141D01*
X156975468Y-82930001D01*
X156975468Y-82929998D01*
X156965840Y-82819953D01*
X156955635Y-82703308D01*
X156902511Y-82505046D01*
X156896741Y-82483511D01*
X156896738Y-82483502D01*
X156873423Y-82433504D01*
X156800568Y-82277266D01*
X156686982Y-82115047D01*
X156670045Y-82090858D01*
X156509141Y-81929954D01*
X156322734Y-81799432D01*
X156322728Y-81799429D01*
X156264725Y-81772382D01*
X156212285Y-81726210D01*
X156193133Y-81659017D01*
X156213348Y-81592135D01*
X156264725Y-81547618D01*
X156272932Y-81543791D01*
X156322734Y-81520568D01*
X156509139Y-81390047D01*
X156572368Y-81326817D01*
X156633689Y-81293334D01*
X156660048Y-81290500D01*
X163847892Y-81290500D01*
X163914931Y-81310185D01*
X163960686Y-81362989D01*
X163970630Y-81432147D01*
X163960274Y-81466905D01*
X163873262Y-81653502D01*
X163873258Y-81653511D01*
X163814366Y-81873302D01*
X163814364Y-81873313D01*
X163794532Y-82099998D01*
X163794532Y-82100001D01*
X163814364Y-82326686D01*
X163814366Y-82326697D01*
X163873258Y-82546488D01*
X163873261Y-82546497D01*
X163969431Y-82752732D01*
X163969432Y-82752734D01*
X164099954Y-82939141D01*
X164260858Y-83100045D01*
X164270358Y-83106697D01*
X164447266Y-83230568D01*
X164653504Y-83326739D01*
X164873308Y-83385635D01*
X165035230Y-83399801D01*
X165099998Y-83405468D01*
X165099999Y-83405468D01*
X165099999Y-83405467D01*
X165100000Y-83405468D01*
X165201839Y-83396557D01*
X165270336Y-83410323D01*
X165300326Y-83432404D01*
X165533181Y-83665259D01*
X165566666Y-83726582D01*
X165569500Y-83752940D01*
X165569500Y-89079951D01*
X165549815Y-89146990D01*
X165533181Y-89167632D01*
X165369954Y-89330858D01*
X165239432Y-89517265D01*
X165239431Y-89517267D01*
X165185952Y-89631953D01*
X165151672Y-89705468D01*
X165143264Y-89723498D01*
X165143260Y-89723507D01*
X165084366Y-89943302D01*
X165084364Y-89943313D01*
X165064532Y-90169998D01*
X165064532Y-90170001D01*
X165084364Y-90396686D01*
X165084366Y-90396697D01*
X165143258Y-90616488D01*
X165143261Y-90616497D01*
X165239431Y-90822732D01*
X165239432Y-90822734D01*
X165369954Y-91009141D01*
X165530858Y-91170045D01*
X165530861Y-91170047D01*
X165717266Y-91300568D01*
X165923504Y-91396739D01*
X166143308Y-91455635D01*
X166305230Y-91469801D01*
X166369998Y-91475468D01*
X166370000Y-91475468D01*
X166370002Y-91475468D01*
X166426673Y-91470509D01*
X166596692Y-91455635D01*
X166816496Y-91396739D01*
X167022734Y-91300568D01*
X167209139Y-91170047D01*
X167370047Y-91009139D01*
X167500568Y-90822734D01*
X167596739Y-90616496D01*
X167655635Y-90396692D01*
X167675468Y-90170000D01*
X167655635Y-89943308D01*
X167596739Y-89723504D01*
X167500568Y-89517266D01*
X167370047Y-89330861D01*
X167370045Y-89330858D01*
X167206819Y-89167632D01*
X167173334Y-89106309D01*
X167170500Y-89079951D01*
X167170500Y-86583362D01*
X167190185Y-86516323D01*
X167242989Y-86470568D01*
X167312147Y-86460624D01*
X167375703Y-86489649D01*
X167382181Y-86495681D01*
X167945958Y-87059459D01*
X167945961Y-87059462D01*
X167998449Y-87094533D01*
X168025587Y-87112666D01*
X168093453Y-87158013D01*
X168175393Y-87191953D01*
X168257334Y-87225895D01*
X168431303Y-87260499D01*
X168431307Y-87260500D01*
X168431308Y-87260500D01*
X168431309Y-87260500D01*
X171729952Y-87260500D01*
X171796991Y-87280185D01*
X171817628Y-87296814D01*
X171862961Y-87342147D01*
X171880862Y-87360048D01*
X171946065Y-87405703D01*
X172067266Y-87490568D01*
X172273504Y-87586739D01*
X172493308Y-87645635D01*
X172710073Y-87664599D01*
X172775141Y-87690051D01*
X172786946Y-87700446D01*
X174060536Y-88974035D01*
X174139233Y-89052732D01*
X174185966Y-89099465D01*
X174323126Y-89191113D01*
X174333453Y-89198013D01*
X174351700Y-89205571D01*
X174497334Y-89265895D01*
X174671304Y-89300499D01*
X174671308Y-89300500D01*
X174671309Y-89300500D01*
X175313012Y-89300500D01*
X175380051Y-89320185D01*
X175425806Y-89372989D01*
X175435750Y-89442147D01*
X175414587Y-89495621D01*
X175407947Y-89505104D01*
X175399432Y-89517265D01*
X175399431Y-89517267D01*
X175345952Y-89631953D01*
X175311672Y-89705468D01*
X175303264Y-89723498D01*
X175303260Y-89723507D01*
X175244366Y-89943302D01*
X175244364Y-89943313D01*
X175224532Y-90169998D01*
X175224532Y-90170001D01*
X175244364Y-90396686D01*
X175244366Y-90396697D01*
X175303258Y-90616488D01*
X175303261Y-90616497D01*
X175399431Y-90822732D01*
X175399432Y-90822734D01*
X175529954Y-91009141D01*
X175690858Y-91170045D01*
X175690861Y-91170047D01*
X175877266Y-91300568D01*
X176083504Y-91396739D01*
X176303308Y-91455635D01*
X176465230Y-91469801D01*
X176529998Y-91475468D01*
X176530000Y-91475468D01*
X176530002Y-91475468D01*
X176586673Y-91470509D01*
X176756692Y-91455635D01*
X176976496Y-91396739D01*
X177182734Y-91300568D01*
X177369139Y-91170047D01*
X177408619Y-91130567D01*
X177532368Y-91006819D01*
X177593691Y-90973334D01*
X177620049Y-90970500D01*
X178567362Y-90970500D01*
X178634401Y-90990185D01*
X178655043Y-91006819D01*
X180980184Y-93331960D01*
X181107738Y-93459514D01*
X181163469Y-93494532D01*
X181173131Y-93500603D01*
X181176040Y-93502488D01*
X181230821Y-93539092D01*
X181231606Y-93539417D01*
X181250134Y-93548987D01*
X181260478Y-93555487D01*
X181321175Y-93576726D01*
X181327607Y-93579182D01*
X181356021Y-93590951D01*
X181376497Y-93599433D01*
X181376498Y-93599433D01*
X181376503Y-93599435D01*
X181390139Y-93602147D01*
X181406898Y-93606721D01*
X181430745Y-93615066D01*
X181481714Y-93620808D01*
X181491992Y-93622407D01*
X181519140Y-93627807D01*
X181531157Y-93630198D01*
X181531158Y-93630198D01*
X181558085Y-93630198D01*
X181571969Y-93630978D01*
X181609998Y-93635263D01*
X181610000Y-93635263D01*
X181610002Y-93635263D01*
X181648031Y-93630978D01*
X181661915Y-93630198D01*
X181688841Y-93630198D01*
X181688842Y-93630198D01*
X181728017Y-93622405D01*
X181738283Y-93620808D01*
X181789255Y-93615066D01*
X181813100Y-93606721D01*
X181829862Y-93602146D01*
X181843497Y-93599435D01*
X181892389Y-93579182D01*
X181898837Y-93576721D01*
X181959522Y-93555487D01*
X181969868Y-93548985D01*
X181988390Y-93539418D01*
X181989179Y-93539092D01*
X182043987Y-93502469D01*
X182046825Y-93500629D01*
X182112262Y-93459514D01*
X182239816Y-93331960D01*
X182280931Y-93266523D01*
X182282777Y-93263677D01*
X182319389Y-93208884D01*
X182319394Y-93208877D01*
X182319720Y-93208088D01*
X182329287Y-93189566D01*
X182335789Y-93179220D01*
X182357023Y-93118535D01*
X182359484Y-93112087D01*
X182379737Y-93063195D01*
X182382448Y-93049560D01*
X182387023Y-93032798D01*
X182395368Y-93008953D01*
X182401110Y-92957981D01*
X182402707Y-92947715D01*
X182410500Y-92908540D01*
X182410500Y-92881612D01*
X182411280Y-92867727D01*
X182415565Y-92829699D01*
X182415565Y-92829696D01*
X182411280Y-92791667D01*
X182410500Y-92777783D01*
X182410500Y-92750855D01*
X182402711Y-92711701D01*
X182401110Y-92701412D01*
X182395368Y-92650443D01*
X182387023Y-92626596D01*
X182382449Y-92609837D01*
X182379737Y-92596201D01*
X182359484Y-92547305D01*
X182357028Y-92540873D01*
X182335789Y-92480176D01*
X182329289Y-92469832D01*
X182319719Y-92451304D01*
X182319394Y-92450519D01*
X182282790Y-92395738D01*
X182280905Y-92392829D01*
X182239815Y-92327435D01*
X182112262Y-92199882D01*
X179460594Y-89548213D01*
X179460590Y-89548210D01*
X179429748Y-89527602D01*
X179384943Y-89473990D01*
X179376236Y-89404665D01*
X179406390Y-89341637D01*
X179465833Y-89304918D01*
X179498639Y-89300500D01*
X180685639Y-89300500D01*
X180752678Y-89320185D01*
X180773320Y-89336819D01*
X180906195Y-89469694D01*
X180906216Y-89469717D01*
X184720536Y-93284035D01*
X184810031Y-93373530D01*
X184845966Y-93409465D01*
X184993449Y-93508011D01*
X184993451Y-93508012D01*
X184993453Y-93508013D01*
X184999721Y-93510609D01*
X185012938Y-93516084D01*
X185012946Y-93516087D01*
X185157334Y-93575895D01*
X185321159Y-93608481D01*
X185331304Y-93610499D01*
X185331308Y-93610500D01*
X185331309Y-93610500D01*
X185508692Y-93610500D01*
X189245638Y-93610500D01*
X189312677Y-93630185D01*
X189333319Y-93646819D01*
X191070063Y-95383563D01*
X191103548Y-95444886D01*
X191105911Y-95482045D01*
X191104341Y-95500000D01*
X191124936Y-95735403D01*
X191124938Y-95735413D01*
X191186094Y-95963655D01*
X191186096Y-95963659D01*
X191186097Y-95963663D01*
X191266004Y-96135023D01*
X191285965Y-96177830D01*
X191285967Y-96177834D01*
X191371864Y-96300507D01*
X191421501Y-96371396D01*
X191421506Y-96371402D01*
X191588597Y-96538493D01*
X191588603Y-96538498D01*
X191774158Y-96668425D01*
X191817783Y-96723002D01*
X191824977Y-96792500D01*
X191793454Y-96854855D01*
X191774158Y-96871575D01*
X191588597Y-97001505D01*
X191421505Y-97168597D01*
X191285965Y-97362169D01*
X191285964Y-97362171D01*
X191186098Y-97576335D01*
X191186094Y-97576344D01*
X191124938Y-97804586D01*
X191124936Y-97804596D01*
X191104341Y-98039999D01*
X191104341Y-98040000D01*
X191124936Y-98275403D01*
X191124938Y-98275413D01*
X191186094Y-98503655D01*
X191186096Y-98503659D01*
X191186097Y-98503663D01*
X191190000Y-98512032D01*
X191285965Y-98717830D01*
X191285967Y-98717834D01*
X191394281Y-98872521D01*
X191421505Y-98911401D01*
X191588599Y-99078495D01*
X191595183Y-99083105D01*
X191782165Y-99214032D01*
X191782167Y-99214033D01*
X191782170Y-99214035D01*
X191996337Y-99313903D01*
X192224592Y-99375063D01*
X192412918Y-99391539D01*
X192459999Y-99395659D01*
X192460000Y-99395659D01*
X192460001Y-99395659D01*
X192503776Y-99391829D01*
X192695408Y-99375063D01*
X192923663Y-99313903D01*
X193137830Y-99214035D01*
X193331401Y-99078495D01*
X193498495Y-98911401D01*
X193628425Y-98725842D01*
X193683002Y-98682217D01*
X193752500Y-98675023D01*
X193814855Y-98706546D01*
X193831575Y-98725842D01*
X193961500Y-98911395D01*
X193961505Y-98911401D01*
X194128599Y-99078495D01*
X194135183Y-99083105D01*
X194322165Y-99214032D01*
X194322167Y-99214033D01*
X194322170Y-99214035D01*
X194524294Y-99308287D01*
X194576733Y-99354459D01*
X194595885Y-99421653D01*
X194575669Y-99488534D01*
X194559570Y-99508350D01*
X193454741Y-100613181D01*
X193393418Y-100646666D01*
X193367060Y-100649500D01*
X188132940Y-100649500D01*
X188065901Y-100629815D01*
X188045259Y-100613181D01*
X187010855Y-99578777D01*
X186977370Y-99517454D01*
X186982354Y-99447762D01*
X187024226Y-99391829D01*
X187089690Y-99367412D01*
X187130628Y-99371321D01*
X187144592Y-99375063D01*
X187332918Y-99391539D01*
X187379999Y-99395659D01*
X187380000Y-99395659D01*
X187380001Y-99395659D01*
X187423776Y-99391829D01*
X187615408Y-99375063D01*
X187843663Y-99313903D01*
X188057830Y-99214035D01*
X188251401Y-99078495D01*
X188418495Y-98911401D01*
X188554035Y-98717830D01*
X188653903Y-98503663D01*
X188715063Y-98275408D01*
X188735659Y-98040000D01*
X188734878Y-98031079D01*
X188715063Y-97804596D01*
X188715063Y-97804592D01*
X188660128Y-97599570D01*
X188653905Y-97576344D01*
X188653904Y-97576343D01*
X188653903Y-97576337D01*
X188554035Y-97362171D01*
X188548425Y-97354158D01*
X188418494Y-97168597D01*
X188251402Y-97001506D01*
X188251396Y-97001501D01*
X188065842Y-96871575D01*
X188022217Y-96816998D01*
X188015023Y-96747500D01*
X188046546Y-96685145D01*
X188065842Y-96668425D01*
X188144738Y-96613181D01*
X188251401Y-96538495D01*
X188418495Y-96371401D01*
X188554035Y-96177830D01*
X188653903Y-95963663D01*
X188715063Y-95735408D01*
X188735659Y-95500000D01*
X188715063Y-95264592D01*
X188653903Y-95036337D01*
X188554035Y-94822171D01*
X188548425Y-94814158D01*
X188418494Y-94628597D01*
X188251402Y-94461506D01*
X188251395Y-94461501D01*
X188239971Y-94453502D01*
X188182316Y-94413131D01*
X188057834Y-94325967D01*
X188057830Y-94325965D01*
X187939494Y-94270784D01*
X187843663Y-94226097D01*
X187843659Y-94226096D01*
X187843655Y-94226094D01*
X187615413Y-94164938D01*
X187615403Y-94164936D01*
X187380001Y-94144341D01*
X187379999Y-94144341D01*
X187144596Y-94164936D01*
X187144586Y-94164938D01*
X186916344Y-94226094D01*
X186916335Y-94226098D01*
X186702171Y-94325964D01*
X186702169Y-94325965D01*
X186508597Y-94461505D01*
X186341505Y-94628597D01*
X186211575Y-94814158D01*
X186156998Y-94857783D01*
X186087500Y-94864977D01*
X186025145Y-94833454D01*
X186008425Y-94814158D01*
X185878494Y-94628597D01*
X185711402Y-94461506D01*
X185711395Y-94461501D01*
X185699971Y-94453502D01*
X185642316Y-94413131D01*
X185517834Y-94325967D01*
X185517830Y-94325965D01*
X185399494Y-94270784D01*
X185303663Y-94226097D01*
X185303659Y-94226096D01*
X185303655Y-94226094D01*
X185075413Y-94164938D01*
X185075403Y-94164936D01*
X184840001Y-94144341D01*
X184839999Y-94144341D01*
X184604596Y-94164936D01*
X184604586Y-94164938D01*
X184376344Y-94226094D01*
X184376335Y-94226098D01*
X184162171Y-94325964D01*
X184162169Y-94325965D01*
X183968597Y-94461505D01*
X183801505Y-94628597D01*
X183671575Y-94814158D01*
X183616998Y-94857783D01*
X183547500Y-94864977D01*
X183485145Y-94833454D01*
X183468425Y-94814158D01*
X183338494Y-94628597D01*
X183171402Y-94461506D01*
X183171395Y-94461501D01*
X183159971Y-94453502D01*
X183102316Y-94413131D01*
X182977834Y-94325967D01*
X182977830Y-94325965D01*
X182859494Y-94270784D01*
X182763663Y-94226097D01*
X182763659Y-94226096D01*
X182763655Y-94226094D01*
X182535413Y-94164938D01*
X182535403Y-94164936D01*
X182300001Y-94144341D01*
X182299999Y-94144341D01*
X182064596Y-94164936D01*
X182064586Y-94164938D01*
X181836344Y-94226094D01*
X181836335Y-94226098D01*
X181622171Y-94325964D01*
X181622169Y-94325965D01*
X181428597Y-94461505D01*
X181261505Y-94628597D01*
X181131575Y-94814158D01*
X181076998Y-94857783D01*
X181007500Y-94864977D01*
X180945145Y-94833454D01*
X180928425Y-94814158D01*
X180798494Y-94628597D01*
X180631402Y-94461506D01*
X180631395Y-94461501D01*
X180619971Y-94453502D01*
X180562316Y-94413131D01*
X180437834Y-94325967D01*
X180437830Y-94325965D01*
X180319494Y-94270784D01*
X180223663Y-94226097D01*
X180223659Y-94226096D01*
X180223655Y-94226094D01*
X179995413Y-94164938D01*
X179995403Y-94164936D01*
X179760001Y-94144341D01*
X179759999Y-94144341D01*
X179524596Y-94164936D01*
X179524586Y-94164938D01*
X179296344Y-94226094D01*
X179296335Y-94226098D01*
X179082171Y-94325964D01*
X179082169Y-94325965D01*
X178888597Y-94461505D01*
X178721505Y-94628597D01*
X178585965Y-94822169D01*
X178585964Y-94822171D01*
X178486098Y-95036335D01*
X178486094Y-95036344D01*
X178424938Y-95264586D01*
X178424936Y-95264596D01*
X178404341Y-95499999D01*
X178404341Y-95500000D01*
X178424936Y-95735403D01*
X178424938Y-95735413D01*
X178486094Y-95963655D01*
X178486096Y-95963659D01*
X178486097Y-95963663D01*
X178566004Y-96135023D01*
X178585965Y-96177830D01*
X178585967Y-96177834D01*
X178671864Y-96300507D01*
X178721501Y-96371396D01*
X178721506Y-96371402D01*
X178888597Y-96538493D01*
X178888603Y-96538498D01*
X179074158Y-96668425D01*
X179117783Y-96723002D01*
X179124977Y-96792500D01*
X179093454Y-96854855D01*
X179074158Y-96871575D01*
X178888597Y-97001505D01*
X178721505Y-97168597D01*
X178585965Y-97362169D01*
X178585964Y-97362171D01*
X178486098Y-97576335D01*
X178486094Y-97576344D01*
X178424938Y-97804586D01*
X178424936Y-97804596D01*
X178404341Y-98039999D01*
X178404341Y-98040000D01*
X178424936Y-98275403D01*
X178424938Y-98275413D01*
X178486094Y-98503655D01*
X178486096Y-98503659D01*
X178486097Y-98503663D01*
X178490000Y-98512032D01*
X178585965Y-98717830D01*
X178585967Y-98717834D01*
X178694281Y-98872521D01*
X178721505Y-98911401D01*
X178888599Y-99078495D01*
X178895183Y-99083105D01*
X179082165Y-99214032D01*
X179082167Y-99214033D01*
X179082170Y-99214035D01*
X179296337Y-99313903D01*
X179524592Y-99375063D01*
X179712918Y-99391539D01*
X179759999Y-99395659D01*
X179760000Y-99395659D01*
X179760001Y-99395659D01*
X179803776Y-99391829D01*
X179995408Y-99375063D01*
X180223663Y-99313903D01*
X180437830Y-99214035D01*
X180631401Y-99078495D01*
X180798495Y-98911401D01*
X180928425Y-98725842D01*
X180983002Y-98682217D01*
X181052500Y-98675023D01*
X181114855Y-98706546D01*
X181131575Y-98725842D01*
X181261500Y-98911395D01*
X181261505Y-98911401D01*
X181428599Y-99078495D01*
X181435183Y-99083105D01*
X181622165Y-99214032D01*
X181622167Y-99214033D01*
X181622170Y-99214035D01*
X181836337Y-99313903D01*
X182064592Y-99375063D01*
X182252918Y-99391539D01*
X182299999Y-99395659D01*
X182300000Y-99395659D01*
X182300001Y-99395659D01*
X182343776Y-99391829D01*
X182535408Y-99375063D01*
X182763663Y-99313903D01*
X182977830Y-99214035D01*
X183171401Y-99078495D01*
X183338495Y-98911401D01*
X183468425Y-98725842D01*
X183523002Y-98682217D01*
X183592500Y-98675023D01*
X183654855Y-98706546D01*
X183671575Y-98725842D01*
X183801500Y-98911395D01*
X183801505Y-98911401D01*
X183968599Y-99078495D01*
X183975183Y-99083105D01*
X184162165Y-99214032D01*
X184162167Y-99214033D01*
X184162170Y-99214035D01*
X184376337Y-99313903D01*
X184604592Y-99375063D01*
X184709523Y-99384243D01*
X184774592Y-99409695D01*
X184815571Y-99466286D01*
X184820333Y-99483579D01*
X184830261Y-99533491D01*
X184830264Y-99533501D01*
X184890602Y-99679172D01*
X184890609Y-99679185D01*
X184978210Y-99810288D01*
X184978213Y-99810292D01*
X187128211Y-101960289D01*
X187208136Y-102040214D01*
X187239712Y-102071790D01*
X187370814Y-102159390D01*
X187370827Y-102159397D01*
X187467646Y-102199500D01*
X187516503Y-102219737D01*
X187516507Y-102219737D01*
X187516508Y-102219738D01*
X187671154Y-102250500D01*
X187671157Y-102250500D01*
X193828844Y-102250500D01*
X193828845Y-102250499D01*
X193983497Y-102219737D01*
X194129179Y-102159394D01*
X194260289Y-102071789D01*
X201281789Y-95050289D01*
X201369394Y-94919179D01*
X201429738Y-94773497D01*
X201460500Y-94618842D01*
X201460500Y-94461157D01*
X201460500Y-68501158D01*
X201447467Y-68435633D01*
X201435752Y-68376738D01*
X201429739Y-68346508D01*
X201429737Y-68346503D01*
X201418523Y-68319431D01*
X201402426Y-68280568D01*
X201378688Y-68223258D01*
X201369397Y-68200827D01*
X201369390Y-68200814D01*
X201281790Y-68069712D01*
X201281789Y-68069711D01*
X201170289Y-67958211D01*
X200588764Y-67376686D01*
X199740292Y-66528213D01*
X199740288Y-66528210D01*
X199609185Y-66440609D01*
X199609172Y-66440602D01*
X199463501Y-66380264D01*
X199463489Y-66380261D01*
X199308845Y-66349500D01*
X199308842Y-66349500D01*
X140940049Y-66349500D01*
X140873010Y-66329815D01*
X140852368Y-66313181D01*
X140689141Y-66149954D01*
X140502734Y-66019432D01*
X140502732Y-66019431D01*
X140296497Y-65923261D01*
X140296488Y-65923258D01*
X140076697Y-65864366D01*
X140076693Y-65864365D01*
X140076692Y-65864365D01*
X140076691Y-65864364D01*
X140076686Y-65864364D01*
X139850002Y-65844532D01*
X139849998Y-65844532D01*
X139623313Y-65864364D01*
X139623302Y-65864366D01*
X139403511Y-65923258D01*
X139403502Y-65923261D01*
X139197267Y-66019431D01*
X139197265Y-66019432D01*
X139010858Y-66149954D01*
X138849954Y-66310858D01*
X138719432Y-66497265D01*
X138719431Y-66497267D01*
X138623261Y-66703502D01*
X138623258Y-66703511D01*
X138564366Y-66923302D01*
X138564364Y-66923313D01*
X138544532Y-67149998D01*
X138544532Y-67150001D01*
X138564364Y-67376686D01*
X138564366Y-67376697D01*
X138623258Y-67596488D01*
X138623261Y-67596497D01*
X138719431Y-67802732D01*
X138719432Y-67802734D01*
X138849954Y-67989141D01*
X139010858Y-68150045D01*
X139010861Y-68150047D01*
X139197266Y-68280568D01*
X139403504Y-68376739D01*
X139623308Y-68435635D01*
X139785230Y-68449801D01*
X139849998Y-68455468D01*
X139850000Y-68455468D01*
X139850002Y-68455468D01*
X139913025Y-68449954D01*
X140076692Y-68435635D01*
X140296496Y-68376739D01*
X140502734Y-68280568D01*
X140689139Y-68150047D01*
X140769475Y-68069711D01*
X140852368Y-67986819D01*
X140913691Y-67953334D01*
X140940049Y-67950500D01*
X198847060Y-67950500D01*
X198914099Y-67970185D01*
X198934741Y-67986819D01*
X199823181Y-68875259D01*
X199856666Y-68936582D01*
X199859500Y-68962940D01*
X199859500Y-94157059D01*
X199839815Y-94224098D01*
X199823181Y-94244740D01*
X196468350Y-97599570D01*
X196407027Y-97633055D01*
X196337335Y-97628071D01*
X196281402Y-97586199D01*
X196268287Y-97564294D01*
X196262676Y-97552262D01*
X196174035Y-97362171D01*
X196168425Y-97354158D01*
X196038494Y-97168597D01*
X195936819Y-97066922D01*
X195903334Y-97005599D01*
X195900500Y-96979241D01*
X195900500Y-96865638D01*
X195920185Y-96798599D01*
X195959401Y-96760100D01*
X196068656Y-96692712D01*
X196192712Y-96568656D01*
X196284814Y-96419334D01*
X196339999Y-96252797D01*
X196350500Y-96150009D01*
X196350499Y-94849992D01*
X196345392Y-94800002D01*
X196339999Y-94747203D01*
X196339998Y-94747200D01*
X196337659Y-94740141D01*
X196284814Y-94580666D01*
X196192712Y-94431344D01*
X196068656Y-94307288D01*
X195967249Y-94244740D01*
X195919336Y-94215187D01*
X195919331Y-94215185D01*
X195917862Y-94214698D01*
X195752797Y-94160001D01*
X195752795Y-94160000D01*
X195650010Y-94149500D01*
X194349998Y-94149500D01*
X194349981Y-94149501D01*
X194247203Y-94160000D01*
X194247200Y-94160001D01*
X194080668Y-94215185D01*
X194080663Y-94215187D01*
X193931342Y-94307289D01*
X193807289Y-94431342D01*
X193715187Y-94580663D01*
X193715183Y-94580673D01*
X193712335Y-94589268D01*
X193672560Y-94646711D01*
X193608044Y-94673531D01*
X193539268Y-94661214D01*
X193502517Y-94632233D01*
X193502324Y-94632427D01*
X193500682Y-94630785D01*
X193499642Y-94629965D01*
X193498494Y-94628597D01*
X193331402Y-94461506D01*
X193331395Y-94461501D01*
X193319971Y-94453502D01*
X193262316Y-94413131D01*
X193137834Y-94325967D01*
X193137830Y-94325965D01*
X193019494Y-94270784D01*
X192923663Y-94226097D01*
X192923659Y-94226096D01*
X192923655Y-94226094D01*
X192695413Y-94164938D01*
X192695403Y-94164936D01*
X192460001Y-94144341D01*
X192460000Y-94144341D01*
X192457944Y-94144520D01*
X192442045Y-94145911D01*
X192373546Y-94132140D01*
X192343563Y-94110063D01*
X190244035Y-92010535D01*
X190244030Y-92010531D01*
X190184961Y-91971064D01*
X190184960Y-91971063D01*
X190096544Y-91911985D01*
X190096542Y-91911984D01*
X190014607Y-91878046D01*
X190014606Y-91878046D01*
X189932666Y-91844105D01*
X189932658Y-91844103D01*
X189758696Y-91809500D01*
X189758692Y-91809500D01*
X189758691Y-91809500D01*
X185844361Y-91809500D01*
X185777322Y-91789815D01*
X185756680Y-91773181D01*
X182883501Y-88900000D01*
X186604341Y-88900000D01*
X186624936Y-89135403D01*
X186624938Y-89135413D01*
X186686094Y-89363655D01*
X186686096Y-89363659D01*
X186686097Y-89363663D01*
X186757724Y-89517267D01*
X186785965Y-89577830D01*
X186785967Y-89577834D01*
X186875338Y-89705468D01*
X186921505Y-89771401D01*
X187088599Y-89938495D01*
X187095473Y-89943308D01*
X187282165Y-90074032D01*
X187282167Y-90074033D01*
X187282170Y-90074035D01*
X187496337Y-90173903D01*
X187724592Y-90235063D01*
X187912918Y-90251539D01*
X187959999Y-90255659D01*
X187960000Y-90255659D01*
X187960001Y-90255659D01*
X187999234Y-90252226D01*
X188195408Y-90235063D01*
X188423663Y-90173903D01*
X188637830Y-90074035D01*
X188831401Y-89938495D01*
X188998495Y-89771401D01*
X189119903Y-89598013D01*
X189128425Y-89585842D01*
X189183002Y-89542217D01*
X189252500Y-89535023D01*
X189314855Y-89566546D01*
X189331575Y-89585842D01*
X189461500Y-89771395D01*
X189461505Y-89771401D01*
X189628599Y-89938495D01*
X189635473Y-89943308D01*
X189822165Y-90074032D01*
X189822167Y-90074033D01*
X189822170Y-90074035D01*
X190036337Y-90173903D01*
X190264592Y-90235063D01*
X190452918Y-90251539D01*
X190499999Y-90255659D01*
X190500000Y-90255659D01*
X190500001Y-90255659D01*
X190539234Y-90252226D01*
X190735408Y-90235063D01*
X190963663Y-90173903D01*
X191177830Y-90074035D01*
X191371401Y-89938495D01*
X191538495Y-89771401D01*
X191659903Y-89598013D01*
X191668425Y-89585842D01*
X191723002Y-89542217D01*
X191792500Y-89535023D01*
X191854855Y-89566546D01*
X191871575Y-89585842D01*
X192001500Y-89771395D01*
X192001505Y-89771401D01*
X192168599Y-89938495D01*
X192175473Y-89943308D01*
X192362165Y-90074032D01*
X192362167Y-90074033D01*
X192362170Y-90074035D01*
X192576337Y-90173903D01*
X192804592Y-90235063D01*
X192992918Y-90251539D01*
X193039999Y-90255659D01*
X193040000Y-90255659D01*
X193040001Y-90255659D01*
X193079234Y-90252226D01*
X193275408Y-90235063D01*
X193503663Y-90173903D01*
X193717830Y-90074035D01*
X193911401Y-89938495D01*
X194078495Y-89771401D01*
X194199903Y-89598013D01*
X194208425Y-89585842D01*
X194263002Y-89542217D01*
X194332500Y-89535023D01*
X194394855Y-89566546D01*
X194411575Y-89585842D01*
X194541500Y-89771395D01*
X194541505Y-89771401D01*
X194708599Y-89938495D01*
X194715473Y-89943308D01*
X194902165Y-90074032D01*
X194902167Y-90074033D01*
X194902170Y-90074035D01*
X195116337Y-90173903D01*
X195344592Y-90235063D01*
X195532918Y-90251539D01*
X195579999Y-90255659D01*
X195580000Y-90255659D01*
X195580001Y-90255659D01*
X195619234Y-90252226D01*
X195815408Y-90235063D01*
X196043663Y-90173903D01*
X196257830Y-90074035D01*
X196451401Y-89938495D01*
X196618495Y-89771401D01*
X196739903Y-89598013D01*
X196748425Y-89585842D01*
X196803002Y-89542217D01*
X196872500Y-89535023D01*
X196934855Y-89566546D01*
X196951575Y-89585842D01*
X197081500Y-89771395D01*
X197081505Y-89771401D01*
X197248599Y-89938495D01*
X197255473Y-89943308D01*
X197442165Y-90074032D01*
X197442167Y-90074033D01*
X197442170Y-90074035D01*
X197656337Y-90173903D01*
X197884592Y-90235063D01*
X198072918Y-90251539D01*
X198119999Y-90255659D01*
X198120000Y-90255659D01*
X198120001Y-90255659D01*
X198159234Y-90252226D01*
X198355408Y-90235063D01*
X198583663Y-90173903D01*
X198797830Y-90074035D01*
X198991401Y-89938495D01*
X199158495Y-89771401D01*
X199294035Y-89577830D01*
X199393903Y-89363663D01*
X199455063Y-89135408D01*
X199475659Y-88900000D01*
X199472984Y-88869431D01*
X199470132Y-88836833D01*
X199455063Y-88664592D01*
X199393903Y-88436337D01*
X199294035Y-88222171D01*
X199288425Y-88214158D01*
X199158494Y-88028597D01*
X198991402Y-87861506D01*
X198991396Y-87861501D01*
X198805842Y-87731575D01*
X198762217Y-87676998D01*
X198755023Y-87607500D01*
X198786546Y-87545145D01*
X198805842Y-87528425D01*
X198953152Y-87425277D01*
X198991401Y-87398495D01*
X199158495Y-87231401D01*
X199294035Y-87037830D01*
X199393903Y-86823663D01*
X199455063Y-86595408D01*
X199475659Y-86360000D01*
X199474172Y-86343009D01*
X199459911Y-86180001D01*
X199455063Y-86124592D01*
X199393903Y-85896337D01*
X199294035Y-85682171D01*
X199288425Y-85674158D01*
X199158494Y-85488597D01*
X198991402Y-85321506D01*
X198991396Y-85321501D01*
X198805842Y-85191575D01*
X198762217Y-85136998D01*
X198755023Y-85067500D01*
X198786546Y-85005145D01*
X198805842Y-84988425D01*
X198859909Y-84950567D01*
X198991401Y-84858495D01*
X199158495Y-84691401D01*
X199294035Y-84497830D01*
X199393903Y-84283663D01*
X199455063Y-84055408D01*
X199475659Y-83820000D01*
X199455063Y-83584592D01*
X199393903Y-83356337D01*
X199294035Y-83142171D01*
X199290072Y-83136510D01*
X199158494Y-82948597D01*
X198991402Y-82781506D01*
X198991396Y-82781501D01*
X198805842Y-82651575D01*
X198762217Y-82596998D01*
X198755023Y-82527500D01*
X198786546Y-82465145D01*
X198805842Y-82448425D01*
X198859909Y-82410567D01*
X198991401Y-82318495D01*
X199158495Y-82151401D01*
X199294035Y-81957830D01*
X199393903Y-81743663D01*
X199455063Y-81515408D01*
X199475659Y-81280000D01*
X199455063Y-81044592D01*
X199393903Y-80816337D01*
X199294035Y-80602171D01*
X199288425Y-80594158D01*
X199158494Y-80408597D01*
X198991402Y-80241506D01*
X198991396Y-80241501D01*
X198805842Y-80111575D01*
X198762217Y-80056998D01*
X198755023Y-79987500D01*
X198786546Y-79925145D01*
X198805842Y-79908425D01*
X198960924Y-79799835D01*
X198991401Y-79778495D01*
X199158495Y-79611401D01*
X199294035Y-79417830D01*
X199393903Y-79203663D01*
X199455063Y-78975408D01*
X199475659Y-78740000D01*
X199471972Y-78697864D01*
X199466058Y-78630260D01*
X199455063Y-78504592D01*
X199407408Y-78326738D01*
X199393905Y-78276344D01*
X199393904Y-78276343D01*
X199393903Y-78276337D01*
X199294035Y-78062171D01*
X199288424Y-78054158D01*
X199158496Y-77868600D01*
X199122412Y-77832516D01*
X199036567Y-77746671D01*
X199003084Y-77685351D01*
X199008068Y-77615659D01*
X199049939Y-77559725D01*
X199080915Y-77542810D01*
X199212331Y-77493796D01*
X199327546Y-77407546D01*
X199413796Y-77292331D01*
X199464091Y-77157483D01*
X199470500Y-77097873D01*
X199470499Y-75302128D01*
X199464091Y-75242517D01*
X199452190Y-75210610D01*
X199413797Y-75107671D01*
X199413793Y-75107664D01*
X199327547Y-74992455D01*
X199327544Y-74992452D01*
X199212335Y-74906206D01*
X199212328Y-74906202D01*
X199077482Y-74855908D01*
X199077483Y-74855908D01*
X199017883Y-74849501D01*
X199017881Y-74849500D01*
X199017873Y-74849500D01*
X199017864Y-74849500D01*
X197222129Y-74849500D01*
X197222123Y-74849501D01*
X197162516Y-74855908D01*
X197027671Y-74906202D01*
X197027669Y-74906203D01*
X196924311Y-74983578D01*
X196858847Y-75007995D01*
X196790574Y-74993144D01*
X196775689Y-74983578D01*
X196672330Y-74906203D01*
X196672328Y-74906202D01*
X196537482Y-74855908D01*
X196537483Y-74855908D01*
X196477883Y-74849501D01*
X196477881Y-74849500D01*
X196477873Y-74849500D01*
X196477864Y-74849500D01*
X194682129Y-74849500D01*
X194682123Y-74849501D01*
X194622516Y-74855908D01*
X194487671Y-74906202D01*
X194487669Y-74906203D01*
X194384311Y-74983578D01*
X194318847Y-75007995D01*
X194250574Y-74993144D01*
X194235689Y-74983578D01*
X194132330Y-74906203D01*
X194132328Y-74906202D01*
X193997482Y-74855908D01*
X193997483Y-74855908D01*
X193937883Y-74849501D01*
X193937881Y-74849500D01*
X193937873Y-74849500D01*
X193937864Y-74849500D01*
X192142129Y-74849500D01*
X192142123Y-74849501D01*
X192082516Y-74855908D01*
X191947671Y-74906202D01*
X191947669Y-74906203D01*
X191844311Y-74983578D01*
X191778847Y-75007995D01*
X191710574Y-74993144D01*
X191695689Y-74983578D01*
X191592330Y-74906203D01*
X191592328Y-74906202D01*
X191457482Y-74855908D01*
X191457483Y-74855908D01*
X191397883Y-74849501D01*
X191397881Y-74849500D01*
X191397873Y-74849500D01*
X191397864Y-74849500D01*
X189602129Y-74849500D01*
X189602123Y-74849501D01*
X189542516Y-74855908D01*
X189407671Y-74906202D01*
X189407669Y-74906203D01*
X189304311Y-74983578D01*
X189238847Y-75007995D01*
X189170574Y-74993144D01*
X189155689Y-74983578D01*
X189052330Y-74906203D01*
X189052328Y-74906202D01*
X188917482Y-74855908D01*
X188917483Y-74855908D01*
X188857883Y-74849501D01*
X188857881Y-74849500D01*
X188857873Y-74849500D01*
X188857864Y-74849500D01*
X187062129Y-74849500D01*
X187062123Y-74849501D01*
X187002516Y-74855908D01*
X186867671Y-74906202D01*
X186867664Y-74906206D01*
X186752455Y-74992452D01*
X186752452Y-74992455D01*
X186666206Y-75107664D01*
X186666202Y-75107671D01*
X186615908Y-75242517D01*
X186615099Y-75250047D01*
X186609501Y-75302123D01*
X186609500Y-75302135D01*
X186609500Y-77097870D01*
X186609501Y-77097876D01*
X186615908Y-77157483D01*
X186666202Y-77292328D01*
X186666206Y-77292335D01*
X186752452Y-77407544D01*
X186752455Y-77407547D01*
X186867664Y-77493793D01*
X186867671Y-77493797D01*
X186999081Y-77542810D01*
X187055015Y-77584681D01*
X187079432Y-77650145D01*
X187064580Y-77718418D01*
X187043430Y-77746673D01*
X186921503Y-77868600D01*
X186785965Y-78062169D01*
X186785964Y-78062171D01*
X186686098Y-78276335D01*
X186686094Y-78276344D01*
X186624938Y-78504586D01*
X186624936Y-78504596D01*
X186604341Y-78739999D01*
X186604341Y-78740000D01*
X186624936Y-78975403D01*
X186624938Y-78975413D01*
X186686094Y-79203655D01*
X186686096Y-79203659D01*
X186686097Y-79203663D01*
X186764932Y-79372725D01*
X186785965Y-79417830D01*
X186785967Y-79417834D01*
X186845728Y-79503181D01*
X186921501Y-79611396D01*
X186921506Y-79611402D01*
X187088597Y-79778493D01*
X187088603Y-79778498D01*
X187274158Y-79908425D01*
X187317783Y-79963002D01*
X187324977Y-80032500D01*
X187293454Y-80094855D01*
X187274158Y-80111575D01*
X187088597Y-80241505D01*
X186921505Y-80408597D01*
X186785965Y-80602169D01*
X186785964Y-80602171D01*
X186686098Y-80816335D01*
X186686094Y-80816344D01*
X186624938Y-81044586D01*
X186624936Y-81044596D01*
X186604341Y-81279999D01*
X186604341Y-81280000D01*
X186624936Y-81515403D01*
X186624938Y-81515413D01*
X186686094Y-81743655D01*
X186686096Y-81743659D01*
X186686097Y-81743663D01*
X186712103Y-81799432D01*
X186785965Y-81957830D01*
X186785967Y-81957834D01*
X186873485Y-82082821D01*
X186921501Y-82151396D01*
X186921506Y-82151402D01*
X187088597Y-82318493D01*
X187088603Y-82318498D01*
X187274158Y-82448425D01*
X187317783Y-82503002D01*
X187324977Y-82572500D01*
X187293454Y-82634855D01*
X187274158Y-82651575D01*
X187088597Y-82781505D01*
X186921505Y-82948597D01*
X186785965Y-83142169D01*
X186785964Y-83142171D01*
X186686098Y-83356335D01*
X186686094Y-83356344D01*
X186624938Y-83584586D01*
X186624936Y-83584596D01*
X186604341Y-83819999D01*
X186604341Y-83820000D01*
X186624936Y-84055403D01*
X186624938Y-84055413D01*
X186686094Y-84283655D01*
X186686096Y-84283659D01*
X186686097Y-84283663D01*
X186712103Y-84339432D01*
X186785965Y-84497830D01*
X186785967Y-84497834D01*
X186877644Y-84628761D01*
X186921501Y-84691396D01*
X186921506Y-84691402D01*
X187088597Y-84858493D01*
X187088603Y-84858498D01*
X187274158Y-84988425D01*
X187317783Y-85043002D01*
X187324977Y-85112500D01*
X187293454Y-85174855D01*
X187274158Y-85191575D01*
X187088597Y-85321505D01*
X186921505Y-85488597D01*
X186785965Y-85682169D01*
X186785964Y-85682171D01*
X186686098Y-85896335D01*
X186686094Y-85896344D01*
X186624938Y-86124586D01*
X186624936Y-86124596D01*
X186604341Y-86359999D01*
X186604341Y-86360000D01*
X186624936Y-86595403D01*
X186624938Y-86595413D01*
X186686094Y-86823655D01*
X186686096Y-86823659D01*
X186686097Y-86823663D01*
X186712368Y-86880001D01*
X186785965Y-87037830D01*
X186785967Y-87037834D01*
X186887172Y-87182368D01*
X186921501Y-87231396D01*
X186921506Y-87231402D01*
X187088597Y-87398493D01*
X187088603Y-87398498D01*
X187274158Y-87528425D01*
X187317783Y-87583002D01*
X187324977Y-87652500D01*
X187293454Y-87714855D01*
X187274158Y-87731575D01*
X187088597Y-87861505D01*
X186921505Y-88028597D01*
X186785965Y-88222169D01*
X186785964Y-88222171D01*
X186686098Y-88436335D01*
X186686094Y-88436344D01*
X186624938Y-88664586D01*
X186624936Y-88664596D01*
X186604341Y-88899999D01*
X186604341Y-88900000D01*
X182883501Y-88900000D01*
X182179716Y-88196215D01*
X182179695Y-88196195D01*
X181684041Y-87700540D01*
X181684038Y-87700537D01*
X181605428Y-87648012D01*
X181536544Y-87601985D01*
X181536542Y-87601984D01*
X181454607Y-87568046D01*
X181454606Y-87568046D01*
X181372666Y-87534105D01*
X181372658Y-87534103D01*
X181293597Y-87518377D01*
X181231686Y-87485993D01*
X181197112Y-87425277D01*
X181200851Y-87355507D01*
X181230105Y-87309080D01*
X181340047Y-87199139D01*
X181470568Y-87012734D01*
X181566739Y-86806496D01*
X181625635Y-86586692D01*
X181642896Y-86389396D01*
X181645468Y-86360001D01*
X181645468Y-86359998D01*
X181629720Y-86179998D01*
X181625635Y-86133308D01*
X181566739Y-85913504D01*
X181470568Y-85707266D01*
X181340047Y-85520861D01*
X181340045Y-85520858D01*
X181179141Y-85359954D01*
X180992734Y-85229432D01*
X180992728Y-85229429D01*
X180934725Y-85202382D01*
X180882285Y-85156210D01*
X180863133Y-85089017D01*
X180883348Y-85022135D01*
X180934725Y-84977618D01*
X180992734Y-84950568D01*
X181179139Y-84820047D01*
X181340047Y-84659139D01*
X181470568Y-84472734D01*
X181566739Y-84266496D01*
X181625635Y-84046692D01*
X181645468Y-83820000D01*
X181644077Y-83804106D01*
X181635107Y-83701578D01*
X181625635Y-83593308D01*
X181571237Y-83390289D01*
X181566741Y-83373511D01*
X181566738Y-83373502D01*
X181544932Y-83326739D01*
X181470568Y-83167266D01*
X181372839Y-83027693D01*
X181340045Y-82980858D01*
X181179141Y-82819954D01*
X180992734Y-82689432D01*
X180992728Y-82689429D01*
X180965038Y-82676517D01*
X180934724Y-82662381D01*
X180882285Y-82616210D01*
X180863133Y-82549017D01*
X180883348Y-82482135D01*
X180934725Y-82437618D01*
X180992734Y-82410568D01*
X181179139Y-82280047D01*
X181340047Y-82119139D01*
X181470568Y-81932734D01*
X181566739Y-81726496D01*
X181625635Y-81506692D01*
X181645468Y-81280000D01*
X181643734Y-81260185D01*
X181636227Y-81174375D01*
X181625635Y-81053308D01*
X181566739Y-80833504D01*
X181470568Y-80627266D01*
X181353319Y-80459815D01*
X181340045Y-80440858D01*
X181179141Y-80279954D01*
X180992734Y-80149432D01*
X180992728Y-80149429D01*
X180934725Y-80122382D01*
X180882285Y-80076210D01*
X180863133Y-80009017D01*
X180883348Y-79942135D01*
X180934725Y-79897618D01*
X180992734Y-79870568D01*
X181179139Y-79740047D01*
X181340047Y-79579139D01*
X181470568Y-79392734D01*
X181566739Y-79186496D01*
X181625635Y-78966692D01*
X181645468Y-78740000D01*
X181625635Y-78513308D01*
X181625632Y-78513299D01*
X181624851Y-78508863D01*
X181632592Y-78439423D01*
X181676647Y-78385193D01*
X181722773Y-78365709D01*
X181872666Y-78335894D01*
X182036547Y-78268013D01*
X182184035Y-78169464D01*
X182309464Y-78044035D01*
X182408013Y-77896547D01*
X182409841Y-77892135D01*
X182448003Y-77800001D01*
X182475894Y-77732666D01*
X182478405Y-77720045D01*
X182505773Y-77582454D01*
X182510500Y-77558691D01*
X182510500Y-76921309D01*
X182503455Y-76885894D01*
X182500950Y-76873302D01*
X182477950Y-76757671D01*
X182475894Y-76747334D01*
X182468898Y-76730444D01*
X182432451Y-76642452D01*
X182408016Y-76583459D01*
X182408009Y-76583446D01*
X182309465Y-76435966D01*
X182272641Y-76399142D01*
X182184035Y-76310536D01*
X182120191Y-76246692D01*
X181815793Y-75942292D01*
X181815792Y-75942291D01*
X181756712Y-75902816D01*
X181756710Y-75902813D01*
X181668296Y-75843737D01*
X181668294Y-75843736D01*
X181586359Y-75809798D01*
X181586358Y-75809798D01*
X181504418Y-75775857D01*
X181504410Y-75775855D01*
X181330448Y-75741252D01*
X181330444Y-75741252D01*
X181330443Y-75741252D01*
X170210188Y-75741252D01*
X170143149Y-75721567D01*
X170097394Y-75668763D01*
X170087450Y-75599605D01*
X170116475Y-75536049D01*
X170122507Y-75529571D01*
X172431786Y-73220292D01*
X172431789Y-73220289D01*
X172519394Y-73089179D01*
X172579738Y-72943497D01*
X172610500Y-72788842D01*
X172610500Y-72631157D01*
X172610500Y-71490049D01*
X172630185Y-71423010D01*
X172646819Y-71402368D01*
X172812368Y-71236819D01*
X172873691Y-71203334D01*
X172900049Y-71200500D01*
X175988327Y-71200500D01*
X176055366Y-71220185D01*
X176089902Y-71253377D01*
X176149954Y-71339141D01*
X176310858Y-71500045D01*
X176310861Y-71500047D01*
X176497266Y-71630568D01*
X176703504Y-71726739D01*
X176923308Y-71785635D01*
X177085230Y-71799801D01*
X177149998Y-71805468D01*
X177150000Y-71805468D01*
X177150002Y-71805468D01*
X177206673Y-71800509D01*
X177376692Y-71785635D01*
X177596496Y-71726739D01*
X177802734Y-71630568D01*
X177989139Y-71500047D01*
X178150047Y-71339139D01*
X178280568Y-71152734D01*
X178376739Y-70946496D01*
X178435635Y-70726692D01*
X178455468Y-70500001D01*
X186004532Y-70500001D01*
X186024364Y-70726686D01*
X186024366Y-70726697D01*
X186083258Y-70946488D01*
X186083261Y-70946497D01*
X186179431Y-71152732D01*
X186179432Y-71152734D01*
X186309954Y-71339141D01*
X186470858Y-71500045D01*
X186470861Y-71500047D01*
X186657266Y-71630568D01*
X186863504Y-71726739D01*
X187083308Y-71785635D01*
X187245230Y-71799801D01*
X187309998Y-71805468D01*
X187310000Y-71805468D01*
X187310002Y-71805468D01*
X187366673Y-71800509D01*
X187536692Y-71785635D01*
X187756496Y-71726739D01*
X187962734Y-71630568D01*
X188149139Y-71500047D01*
X188226176Y-71423010D01*
X188312368Y-71336819D01*
X188373691Y-71303334D01*
X188400049Y-71300500D01*
X189548844Y-71300500D01*
X189548845Y-71300499D01*
X189703497Y-71269737D01*
X189849179Y-71209394D01*
X189980289Y-71121789D01*
X190415259Y-70686819D01*
X190476582Y-70653334D01*
X190502940Y-70650500D01*
X190679951Y-70650500D01*
X190746990Y-70670185D01*
X190767632Y-70686819D01*
X190930858Y-70850045D01*
X190930861Y-70850047D01*
X191117266Y-70980568D01*
X191323504Y-71076739D01*
X191543308Y-71135635D01*
X191705230Y-71149801D01*
X191769998Y-71155468D01*
X191770000Y-71155468D01*
X191770002Y-71155468D01*
X191826673Y-71150509D01*
X191996692Y-71135635D01*
X192216496Y-71076739D01*
X192422734Y-70980568D01*
X192609139Y-70850047D01*
X192770047Y-70689139D01*
X192900568Y-70502734D01*
X192996739Y-70296496D01*
X193055635Y-70076692D01*
X193075468Y-69850000D01*
X193055635Y-69623308D01*
X192996739Y-69403504D01*
X192900568Y-69197266D01*
X192795118Y-69046666D01*
X192770045Y-69010858D01*
X192609141Y-68849954D01*
X192422734Y-68719432D01*
X192422732Y-68719431D01*
X192216497Y-68623261D01*
X192216488Y-68623258D01*
X191996697Y-68564366D01*
X191996693Y-68564365D01*
X191996692Y-68564365D01*
X191996691Y-68564364D01*
X191996686Y-68564364D01*
X191770002Y-68544532D01*
X191769998Y-68544532D01*
X191543313Y-68564364D01*
X191543302Y-68564366D01*
X191323511Y-68623258D01*
X191323502Y-68623261D01*
X191117267Y-68719431D01*
X191117265Y-68719432D01*
X190930858Y-68849954D01*
X190767632Y-69013181D01*
X190706309Y-69046666D01*
X190679951Y-69049500D01*
X190041155Y-69049500D01*
X189886510Y-69080261D01*
X189886498Y-69080264D01*
X189740827Y-69140602D01*
X189740814Y-69140609D01*
X189609711Y-69228210D01*
X189609707Y-69228213D01*
X189174741Y-69663181D01*
X189113418Y-69696666D01*
X189087060Y-69699500D01*
X188400049Y-69699500D01*
X188333010Y-69679815D01*
X188312368Y-69663181D01*
X188149141Y-69499954D01*
X187962734Y-69369432D01*
X187962732Y-69369431D01*
X187756497Y-69273261D01*
X187756488Y-69273258D01*
X187536697Y-69214366D01*
X187536693Y-69214365D01*
X187536692Y-69214365D01*
X187536691Y-69214364D01*
X187536686Y-69214364D01*
X187310002Y-69194532D01*
X187309998Y-69194532D01*
X187083313Y-69214364D01*
X187083302Y-69214366D01*
X186863511Y-69273258D01*
X186863502Y-69273261D01*
X186657267Y-69369431D01*
X186657265Y-69369432D01*
X186470858Y-69499954D01*
X186309954Y-69660858D01*
X186179432Y-69847265D01*
X186179431Y-69847267D01*
X186083261Y-70053502D01*
X186083258Y-70053511D01*
X186024366Y-70273302D01*
X186024364Y-70273313D01*
X186004532Y-70499998D01*
X186004532Y-70500001D01*
X178455468Y-70500001D01*
X178455468Y-70500000D01*
X178451097Y-70450045D01*
X178446719Y-70399998D01*
X178435635Y-70273308D01*
X178376739Y-70053504D01*
X178280568Y-69847266D01*
X178161128Y-69676686D01*
X178150045Y-69660858D01*
X177989141Y-69499954D01*
X177802734Y-69369432D01*
X177802732Y-69369431D01*
X177596497Y-69273261D01*
X177596488Y-69273258D01*
X177376697Y-69214366D01*
X177376693Y-69214365D01*
X177376692Y-69214365D01*
X177376691Y-69214364D01*
X177376686Y-69214364D01*
X177150002Y-69194532D01*
X177149998Y-69194532D01*
X176923313Y-69214364D01*
X176923302Y-69214366D01*
X176703511Y-69273258D01*
X176703502Y-69273261D01*
X176497267Y-69369431D01*
X176497265Y-69369432D01*
X176310862Y-69499951D01*
X176279248Y-69531566D01*
X176247631Y-69563182D01*
X176186311Y-69596666D01*
X176159952Y-69599500D01*
X172900049Y-69599500D01*
X172833010Y-69579815D01*
X172812368Y-69563181D01*
X172649141Y-69399954D01*
X172462734Y-69269432D01*
X172462732Y-69269431D01*
X172256497Y-69173261D01*
X172256488Y-69173258D01*
X172036697Y-69114366D01*
X172036693Y-69114365D01*
X172036692Y-69114365D01*
X172036691Y-69114364D01*
X172036686Y-69114364D01*
X171810002Y-69094532D01*
X171809998Y-69094532D01*
X171583313Y-69114364D01*
X171583302Y-69114366D01*
X171363511Y-69173258D01*
X171363502Y-69173261D01*
X171157267Y-69269431D01*
X171157265Y-69269432D01*
X170970858Y-69399954D01*
X170809954Y-69560858D01*
X170679432Y-69747265D01*
X170679431Y-69747267D01*
X170583261Y-69953502D01*
X170583258Y-69953511D01*
X170524366Y-70173302D01*
X170524364Y-70173313D01*
X170504532Y-70399998D01*
X170504532Y-70400001D01*
X170524364Y-70626686D01*
X170524366Y-70626697D01*
X170583258Y-70846488D01*
X170583261Y-70846497D01*
X170679431Y-71052732D01*
X170679432Y-71052734D01*
X170809954Y-71239141D01*
X170973181Y-71402368D01*
X171006666Y-71463691D01*
X171009500Y-71490049D01*
X171009500Y-72327060D01*
X170989815Y-72394099D01*
X170973181Y-72414741D01*
X167124741Y-76263181D01*
X167063418Y-76296666D01*
X167037060Y-76299500D01*
X166190049Y-76299500D01*
X166123010Y-76279815D01*
X166102368Y-76263181D01*
X165939141Y-76099954D01*
X165752734Y-75969432D01*
X165752732Y-75969431D01*
X165546497Y-75873261D01*
X165546488Y-75873258D01*
X165326697Y-75814366D01*
X165326693Y-75814365D01*
X165326692Y-75814365D01*
X165326691Y-75814364D01*
X165326686Y-75814364D01*
X165100002Y-75794532D01*
X165099998Y-75794532D01*
X164873313Y-75814364D01*
X164873302Y-75814366D01*
X164653511Y-75873258D01*
X164653502Y-75873261D01*
X164447267Y-75969431D01*
X164447265Y-75969432D01*
X164260858Y-76099954D01*
X164099954Y-76260858D01*
X163969432Y-76447265D01*
X163969431Y-76447267D01*
X163873261Y-76653502D01*
X163873258Y-76653511D01*
X163814366Y-76873302D01*
X163814364Y-76873313D01*
X163794532Y-77099998D01*
X163794532Y-77100001D01*
X163814364Y-77326686D01*
X163814366Y-77326697D01*
X163873258Y-77546488D01*
X163873261Y-77546497D01*
X163969431Y-77752732D01*
X163969432Y-77752734D01*
X164099954Y-77939141D01*
X164260858Y-78100045D01*
X164260861Y-78100047D01*
X164447266Y-78230568D01*
X164653504Y-78326739D01*
X164873308Y-78385635D01*
X165035230Y-78399801D01*
X165099998Y-78405468D01*
X165100000Y-78405468D01*
X165100002Y-78405468D01*
X165156673Y-78400509D01*
X165326692Y-78385635D01*
X165546496Y-78326739D01*
X165752734Y-78230568D01*
X165939139Y-78100047D01*
X166013718Y-78025468D01*
X166102368Y-77936819D01*
X166163691Y-77903334D01*
X166190049Y-77900500D01*
X166906638Y-77900500D01*
X166973677Y-77920185D01*
X167019432Y-77972989D01*
X167029376Y-78042147D01*
X167000351Y-78105703D01*
X166994319Y-78112181D01*
X165653319Y-79453181D01*
X165591996Y-79486666D01*
X165565638Y-79489500D01*
X161191940Y-79489500D01*
X161124901Y-79469815D01*
X161079146Y-79417011D01*
X161069202Y-79347853D01*
X161098227Y-79284297D01*
X161104259Y-79277819D01*
X162271788Y-78110290D01*
X162271790Y-78110287D01*
X162309295Y-78054158D01*
X162359394Y-77979179D01*
X162372831Y-77946739D01*
X162412665Y-77850571D01*
X162412666Y-77850567D01*
X162419737Y-77833498D01*
X162450500Y-77678843D01*
X162450500Y-77521158D01*
X162450500Y-71490049D01*
X162470185Y-71423010D01*
X162486819Y-71402368D01*
X162650045Y-71239141D01*
X162650047Y-71239139D01*
X162780568Y-71052734D01*
X162876739Y-70846496D01*
X162935635Y-70626692D01*
X162955468Y-70400000D01*
X162952350Y-70364366D01*
X162946413Y-70296497D01*
X162935635Y-70173308D01*
X162876739Y-69953504D01*
X162780568Y-69747266D01*
X162663319Y-69579815D01*
X162650045Y-69560858D01*
X162489141Y-69399954D01*
X162302734Y-69269432D01*
X162302732Y-69269431D01*
X162096497Y-69173261D01*
X162096488Y-69173258D01*
X161876697Y-69114366D01*
X161876693Y-69114365D01*
X161876692Y-69114365D01*
X161876691Y-69114364D01*
X161876686Y-69114364D01*
X161650002Y-69094532D01*
X161649998Y-69094532D01*
X161423313Y-69114364D01*
X161423302Y-69114366D01*
X161203511Y-69173258D01*
X161203502Y-69173261D01*
X160997267Y-69269431D01*
X160997265Y-69269432D01*
X160810858Y-69399954D01*
X160649954Y-69560858D01*
X160519432Y-69747265D01*
X160519431Y-69747267D01*
X160423261Y-69953502D01*
X160423258Y-69953511D01*
X160364366Y-70173302D01*
X160364364Y-70173313D01*
X160344532Y-70399998D01*
X160344532Y-70400001D01*
X160364364Y-70626686D01*
X160364366Y-70626697D01*
X160423258Y-70846488D01*
X160423261Y-70846497D01*
X160519431Y-71052732D01*
X160519432Y-71052734D01*
X160649954Y-71239141D01*
X160813181Y-71402368D01*
X160846666Y-71463691D01*
X160849500Y-71490049D01*
X160849500Y-75780951D01*
X160829815Y-75847990D01*
X160777011Y-75893745D01*
X160707853Y-75903689D01*
X160644297Y-75874664D01*
X160637819Y-75868632D01*
X160489141Y-75719954D01*
X160302734Y-75589432D01*
X160302732Y-75589431D01*
X160096497Y-75493261D01*
X160096488Y-75493258D01*
X159876697Y-75434366D01*
X159876693Y-75434365D01*
X159876692Y-75434365D01*
X159876691Y-75434364D01*
X159876686Y-75434364D01*
X159650002Y-75414532D01*
X159649998Y-75414532D01*
X159548160Y-75423441D01*
X159479660Y-75409674D01*
X159449674Y-75387596D01*
X159360290Y-75298212D01*
X159360289Y-75298211D01*
X159360288Y-75298210D01*
X159229186Y-75210610D01*
X159229173Y-75210603D01*
X159083502Y-75150265D01*
X159083490Y-75150262D01*
X158928846Y-75119501D01*
X158928843Y-75119501D01*
X149852940Y-75119501D01*
X149785901Y-75099816D01*
X149765259Y-75083182D01*
X146532404Y-71850326D01*
X146498919Y-71789003D01*
X146496557Y-71751842D01*
X146505468Y-71650000D01*
X146485635Y-71423308D01*
X146426739Y-71203504D01*
X146330568Y-70997266D01*
X146200047Y-70810861D01*
X146200045Y-70810858D01*
X146039141Y-70649954D01*
X145852734Y-70519432D01*
X145852732Y-70519431D01*
X145646497Y-70423261D01*
X145646488Y-70423258D01*
X145426697Y-70364366D01*
X145426693Y-70364365D01*
X145426692Y-70364365D01*
X145426691Y-70364364D01*
X145426686Y-70364364D01*
X145200002Y-70344532D01*
X145199998Y-70344532D01*
X144973313Y-70364364D01*
X144973302Y-70364366D01*
X144753511Y-70423258D01*
X144753502Y-70423261D01*
X144547267Y-70519431D01*
X144547265Y-70519432D01*
X144360858Y-70649954D01*
X144199954Y-70810858D01*
X144069432Y-70997265D01*
X144069431Y-70997267D01*
X143973261Y-71203502D01*
X143973258Y-71203511D01*
X143914366Y-71423302D01*
X143914364Y-71423313D01*
X143894532Y-71649998D01*
X143894532Y-71650001D01*
X143914364Y-71876686D01*
X143914366Y-71876697D01*
X143973258Y-72096488D01*
X143973261Y-72096497D01*
X144069431Y-72302732D01*
X144069432Y-72302734D01*
X144199954Y-72489141D01*
X144363181Y-72652368D01*
X144396666Y-72713691D01*
X144399500Y-72740049D01*
X144399500Y-74739913D01*
X144379815Y-74806952D01*
X144327011Y-74852707D01*
X144257853Y-74862651D01*
X144223096Y-74852295D01*
X144096502Y-74793263D01*
X144096488Y-74793258D01*
X143876697Y-74734366D01*
X143876693Y-74734365D01*
X143876692Y-74734365D01*
X143876691Y-74734364D01*
X143876686Y-74734364D01*
X143650002Y-74714532D01*
X143649998Y-74714532D01*
X143423313Y-74734364D01*
X143423302Y-74734366D01*
X143203511Y-74793258D01*
X143203502Y-74793261D01*
X142997267Y-74889431D01*
X142997265Y-74889432D01*
X142810858Y-75019954D01*
X142649954Y-75180858D01*
X142519432Y-75367265D01*
X142519431Y-75367267D01*
X142423261Y-75573502D01*
X142423258Y-75573511D01*
X142364366Y-75793302D01*
X142364364Y-75793313D01*
X142344532Y-76019998D01*
X142344532Y-76020001D01*
X142364819Y-76251881D01*
X142351052Y-76320381D01*
X142328972Y-76350369D01*
X141360706Y-77318635D01*
X141299383Y-77352120D01*
X141229691Y-77347136D01*
X141173758Y-77305264D01*
X141149498Y-77241763D01*
X141135635Y-77083308D01*
X141076739Y-76863504D01*
X140980568Y-76657266D01*
X140870100Y-76499500D01*
X140850045Y-76470858D01*
X140689141Y-76309954D01*
X140502734Y-76179432D01*
X140502732Y-76179431D01*
X140296497Y-76083261D01*
X140296488Y-76083258D01*
X140076697Y-76024366D01*
X140076693Y-76024365D01*
X140076692Y-76024365D01*
X140076691Y-76024364D01*
X140076686Y-76024364D01*
X139850002Y-76004532D01*
X139849998Y-76004532D01*
X139748160Y-76013441D01*
X139679660Y-75999674D01*
X139649672Y-75977594D01*
X133771934Y-70099856D01*
X133738449Y-70038533D01*
X133743433Y-69968841D01*
X133747223Y-69959790D01*
X133776739Y-69896496D01*
X133835635Y-69676692D01*
X133855468Y-69450000D01*
X133835635Y-69223308D01*
X133778710Y-69010861D01*
X133776741Y-69003511D01*
X133776738Y-69003502D01*
X133680568Y-68797266D01*
X133582839Y-68657693D01*
X133550045Y-68610858D01*
X133389141Y-68449954D01*
X133202734Y-68319432D01*
X133202732Y-68319431D01*
X132996497Y-68223261D01*
X132996488Y-68223258D01*
X132776697Y-68164366D01*
X132776693Y-68164365D01*
X132776692Y-68164365D01*
X132776691Y-68164364D01*
X132776686Y-68164364D01*
X132550002Y-68144532D01*
X132549998Y-68144532D01*
X132323313Y-68164364D01*
X132323302Y-68164366D01*
X132103511Y-68223258D01*
X132103502Y-68223261D01*
X131897267Y-68319431D01*
X131897265Y-68319432D01*
X131710858Y-68449954D01*
X131549954Y-68610858D01*
X131419432Y-68797265D01*
X131419431Y-68797267D01*
X131323261Y-69003502D01*
X131323258Y-69003511D01*
X131264366Y-69223302D01*
X131264364Y-69223313D01*
X131244532Y-69449998D01*
X131244532Y-69450001D01*
X131264364Y-69676686D01*
X131264366Y-69676697D01*
X131323258Y-69896488D01*
X131323261Y-69896497D01*
X131419431Y-70102732D01*
X131419432Y-70102734D01*
X131549954Y-70289141D01*
X131710858Y-70450045D01*
X131710861Y-70450047D01*
X131897266Y-70580568D01*
X131996190Y-70626697D01*
X132048381Y-70651034D01*
X132083657Y-70675735D01*
X138517594Y-77109672D01*
X138551079Y-77170995D01*
X138553441Y-77208160D01*
X138544532Y-77309997D01*
X138544532Y-77310001D01*
X138564364Y-77536686D01*
X138564366Y-77536697D01*
X138623258Y-77756488D01*
X138623261Y-77756497D01*
X138719431Y-77962732D01*
X138719432Y-77962734D01*
X138849954Y-78149141D01*
X139010858Y-78310045D01*
X139010861Y-78310047D01*
X139197266Y-78440568D01*
X139403504Y-78536739D01*
X139623308Y-78595635D01*
X139781763Y-78609498D01*
X139846830Y-78634949D01*
X139887808Y-78691540D01*
X139891687Y-78761302D01*
X139858635Y-78820706D01*
X138908007Y-79771334D01*
X138846684Y-79804819D01*
X138776992Y-79799835D01*
X138721059Y-79757963D01*
X138717232Y-79752556D01*
X138699464Y-79725964D01*
X138699462Y-79725961D01*
X138574039Y-79600538D01*
X138574035Y-79600535D01*
X138426553Y-79501990D01*
X138426544Y-79501985D01*
X138262666Y-79434105D01*
X138262658Y-79434103D01*
X138088696Y-79399500D01*
X138088692Y-79399500D01*
X137911309Y-79399500D01*
X137911304Y-79399500D01*
X137737330Y-79434105D01*
X137737144Y-79434162D01*
X137736758Y-79434219D01*
X137731360Y-79435293D01*
X137731307Y-79435027D01*
X137701155Y-79439500D01*
X133610048Y-79439500D01*
X133543009Y-79419815D01*
X133522371Y-79403185D01*
X133459139Y-79339953D01*
X133459138Y-79339952D01*
X133459137Y-79339951D01*
X133272734Y-79209432D01*
X133272728Y-79209429D01*
X133245038Y-79196517D01*
X133214724Y-79182381D01*
X133162285Y-79136210D01*
X133143133Y-79069017D01*
X133163348Y-79002135D01*
X133214725Y-78957618D01*
X133272734Y-78930568D01*
X133459139Y-78800047D01*
X133620047Y-78639139D01*
X133750568Y-78452734D01*
X133846739Y-78246496D01*
X133905635Y-78026692D01*
X133925468Y-77800000D01*
X133920802Y-77746673D01*
X133916515Y-77697669D01*
X133905635Y-77573308D01*
X133846739Y-77353504D01*
X133750568Y-77147266D01*
X133620047Y-76960861D01*
X133620045Y-76960858D01*
X133459141Y-76799954D01*
X133272734Y-76669432D01*
X133272732Y-76669431D01*
X133066497Y-76573261D01*
X133066488Y-76573258D01*
X132846697Y-76514366D01*
X132846693Y-76514365D01*
X132846692Y-76514365D01*
X132846691Y-76514364D01*
X132846686Y-76514364D01*
X132620002Y-76494532D01*
X132619998Y-76494532D01*
X132393313Y-76514364D01*
X132393302Y-76514366D01*
X132173511Y-76573258D01*
X132173502Y-76573261D01*
X131967267Y-76669431D01*
X131967265Y-76669432D01*
X131780858Y-76799954D01*
X131619954Y-76960858D01*
X131489432Y-77147265D01*
X131489431Y-77147267D01*
X131393261Y-77353502D01*
X131393258Y-77353511D01*
X131334366Y-77573302D01*
X131334364Y-77573313D01*
X131314532Y-77799998D01*
X131314532Y-77800001D01*
X131334364Y-78026686D01*
X131334366Y-78026697D01*
X131393258Y-78246488D01*
X131393261Y-78246497D01*
X131489431Y-78452732D01*
X131489432Y-78452734D01*
X131619954Y-78639141D01*
X131780858Y-78800045D01*
X131780861Y-78800047D01*
X131967266Y-78930568D01*
X132025275Y-78957618D01*
X132077714Y-79003791D01*
X132096866Y-79070984D01*
X132076650Y-79137865D01*
X132025275Y-79182381D01*
X132016881Y-79186296D01*
X131967267Y-79209431D01*
X131967265Y-79209432D01*
X131780858Y-79339954D01*
X131619954Y-79500858D01*
X131489432Y-79687265D01*
X131489431Y-79687267D01*
X131393261Y-79893502D01*
X131393258Y-79893511D01*
X131334366Y-80113302D01*
X131334364Y-80113312D01*
X131318088Y-80299349D01*
X131292635Y-80364417D01*
X131236044Y-80405396D01*
X131166282Y-80409274D01*
X131106879Y-80376222D01*
X129726547Y-78995889D01*
X129726546Y-78995888D01*
X129611808Y-78919223D01*
X129484333Y-78866422D01*
X129484323Y-78866419D01*
X129348997Y-78839501D01*
X129348995Y-78839501D01*
X129348994Y-78839501D01*
X126417943Y-78839501D01*
X126350904Y-78819816D01*
X126305149Y-78767012D01*
X126294654Y-78702245D01*
X126295125Y-78697870D01*
X126300500Y-78647873D01*
X126300499Y-76952128D01*
X126294091Y-76892517D01*
X126292344Y-76887834D01*
X126243797Y-76757671D01*
X126243793Y-76757664D01*
X126157547Y-76642455D01*
X126157544Y-76642452D01*
X126042335Y-76556206D01*
X126042328Y-76556202D01*
X125907482Y-76505908D01*
X125907483Y-76505908D01*
X125847883Y-76499501D01*
X125847881Y-76499500D01*
X125847873Y-76499500D01*
X125847864Y-76499500D01*
X124152129Y-76499500D01*
X124152123Y-76499501D01*
X124092516Y-76505908D01*
X123957671Y-76556202D01*
X123957664Y-76556206D01*
X123842455Y-76642452D01*
X123842452Y-76642455D01*
X123756206Y-76757664D01*
X123756202Y-76757671D01*
X123705908Y-76892517D01*
X123701644Y-76932182D01*
X123699501Y-76952123D01*
X123699500Y-76952135D01*
X123699500Y-78647870D01*
X123699501Y-78647876D01*
X123705908Y-78707483D01*
X123756202Y-78842328D01*
X123756206Y-78842335D01*
X123842452Y-78957544D01*
X123842455Y-78957547D01*
X123957664Y-79043793D01*
X123957671Y-79043797D01*
X123980027Y-79052135D01*
X124092517Y-79094091D01*
X124127596Y-79097862D01*
X124192144Y-79124599D01*
X124231993Y-79181991D01*
X124234488Y-79251816D01*
X124198836Y-79311905D01*
X124185464Y-79322725D01*
X124160858Y-79339954D01*
X123997632Y-79503181D01*
X123936309Y-79536666D01*
X123909951Y-79539500D01*
X123681153Y-79539500D01*
X123526510Y-79570260D01*
X123526502Y-79570262D01*
X123380824Y-79630604D01*
X123380814Y-79630609D01*
X123249711Y-79718210D01*
X123249707Y-79718213D01*
X120900326Y-82067594D01*
X120839003Y-82101079D01*
X120801838Y-82103441D01*
X120700002Y-82094532D01*
X120699998Y-82094532D01*
X120473313Y-82114364D01*
X120473302Y-82114366D01*
X120253511Y-82173258D01*
X120253502Y-82173261D01*
X120047267Y-82269431D01*
X120047265Y-82269432D01*
X119860858Y-82399954D01*
X119699954Y-82560858D01*
X119569432Y-82747265D01*
X119569431Y-82747267D01*
X119473261Y-82953502D01*
X119473258Y-82953511D01*
X119414366Y-83173302D01*
X119414364Y-83173313D01*
X119394532Y-83399998D01*
X119394532Y-83400001D01*
X119414364Y-83626686D01*
X119414366Y-83626697D01*
X119473258Y-83846488D01*
X119473261Y-83846496D01*
X119569431Y-84052732D01*
X119569432Y-84052734D01*
X119699954Y-84239141D01*
X119860858Y-84400045D01*
X119860861Y-84400047D01*
X120047266Y-84530568D01*
X120253504Y-84626739D01*
X120253509Y-84626740D01*
X120253511Y-84626741D01*
X120288921Y-84636229D01*
X120473308Y-84685635D01*
X120635230Y-84699801D01*
X120699998Y-84705468D01*
X120700000Y-84705468D01*
X120700002Y-84705468D01*
X120756673Y-84700509D01*
X120926692Y-84685635D01*
X121146496Y-84626739D01*
X121352734Y-84530568D01*
X121539139Y-84400047D01*
X121700047Y-84239139D01*
X121830568Y-84052734D01*
X121926739Y-83846496D01*
X121985635Y-83626692D01*
X122005468Y-83400000D01*
X121996557Y-83298158D01*
X122010323Y-83229662D01*
X122032401Y-83199675D01*
X122462320Y-82769756D01*
X122523641Y-82736273D01*
X122593333Y-82741257D01*
X122637680Y-82769758D01*
X123258211Y-83390289D01*
X123368697Y-83500775D01*
X123369712Y-83501790D01*
X123500817Y-83589392D01*
X123500819Y-83589392D01*
X123500821Y-83589394D01*
X123621533Y-83639394D01*
X123621534Y-83639395D01*
X123646498Y-83649735D01*
X123646503Y-83649737D01*
X123646507Y-83649737D01*
X123646508Y-83649738D01*
X123801154Y-83680500D01*
X123801157Y-83680500D01*
X123801158Y-83680500D01*
X123909951Y-83680500D01*
X123976990Y-83700185D01*
X123997632Y-83716819D01*
X124160858Y-83880045D01*
X124160861Y-83880047D01*
X124347266Y-84010568D01*
X124405275Y-84037618D01*
X124457714Y-84083791D01*
X124476866Y-84150984D01*
X124456650Y-84217865D01*
X124405275Y-84262381D01*
X124396469Y-84266488D01*
X124347267Y-84289431D01*
X124347265Y-84289432D01*
X124160858Y-84419954D01*
X123999954Y-84580858D01*
X123869432Y-84767265D01*
X123869431Y-84767267D01*
X123773261Y-84973502D01*
X123773258Y-84973511D01*
X123714366Y-85193302D01*
X123714364Y-85193313D01*
X123694532Y-85419998D01*
X123694532Y-85420001D01*
X123714364Y-85646686D01*
X123714366Y-85646697D01*
X123773258Y-85866488D01*
X123773261Y-85866497D01*
X123869431Y-86072732D01*
X123869432Y-86072734D01*
X123999951Y-86259137D01*
X123999952Y-86259138D01*
X123999953Y-86259139D01*
X124063182Y-86322368D01*
X124096666Y-86383689D01*
X124099500Y-86410048D01*
X124099500Y-86938696D01*
X124134103Y-87112659D01*
X124134104Y-87112663D01*
X124134105Y-87112666D01*
X124152887Y-87158009D01*
X124159205Y-87173261D01*
X124159204Y-87173261D01*
X124159205Y-87173262D01*
X124201984Y-87276542D01*
X124201985Y-87276543D01*
X124201987Y-87276547D01*
X124247348Y-87344433D01*
X124247348Y-87344434D01*
X124254747Y-87355507D01*
X124288286Y-87405703D01*
X124288892Y-87406609D01*
X124309770Y-87473287D01*
X124291285Y-87540667D01*
X124239307Y-87587357D01*
X124185790Y-87599500D01*
X121790049Y-87599500D01*
X121723010Y-87579815D01*
X121702368Y-87563181D01*
X121539141Y-87399954D01*
X121352734Y-87269432D01*
X121352732Y-87269431D01*
X121146497Y-87173261D01*
X121146488Y-87173258D01*
X120926697Y-87114366D01*
X120926693Y-87114365D01*
X120926692Y-87114365D01*
X120926691Y-87114364D01*
X120926686Y-87114364D01*
X120700002Y-87094532D01*
X120699998Y-87094532D01*
X120473313Y-87114364D01*
X120473302Y-87114366D01*
X120253511Y-87173258D01*
X120253502Y-87173261D01*
X120047267Y-87269431D01*
X120047265Y-87269432D01*
X119860858Y-87399954D01*
X119699954Y-87560858D01*
X119569432Y-87747265D01*
X119569431Y-87747267D01*
X119473261Y-87953502D01*
X119473258Y-87953511D01*
X119414366Y-88173302D01*
X119414364Y-88173313D01*
X119394532Y-88399998D01*
X119394532Y-88400001D01*
X116760500Y-88400001D01*
X116760500Y-74250001D01*
X118794532Y-74250001D01*
X118814364Y-74476686D01*
X118814366Y-74476697D01*
X118873258Y-74696488D01*
X118873261Y-74696497D01*
X118969431Y-74902732D01*
X118969432Y-74902734D01*
X119099954Y-75089141D01*
X119260858Y-75250045D01*
X119260861Y-75250047D01*
X119447266Y-75380568D01*
X119653504Y-75476739D01*
X119873308Y-75535635D01*
X120035230Y-75549801D01*
X120099998Y-75555468D01*
X120100000Y-75555468D01*
X120100002Y-75555468D01*
X120156673Y-75550509D01*
X120326692Y-75535635D01*
X120546496Y-75476739D01*
X120752734Y-75380568D01*
X120939139Y-75250047D01*
X121100047Y-75089139D01*
X121230568Y-74902734D01*
X121326739Y-74696496D01*
X121385635Y-74476692D01*
X121405468Y-74250000D01*
X121385635Y-74023308D01*
X121326739Y-73803504D01*
X121230568Y-73597266D01*
X121100047Y-73410861D01*
X121100045Y-73410858D01*
X120936819Y-73247632D01*
X120903334Y-73186309D01*
X120900500Y-73159951D01*
X120900500Y-72122939D01*
X120920185Y-72055900D01*
X120936814Y-72035263D01*
X122189674Y-70782402D01*
X122250995Y-70748919D01*
X122288156Y-70746557D01*
X122390000Y-70755468D01*
X122390000Y-70755467D01*
X122390001Y-70755468D01*
X122390002Y-70755468D01*
X122464855Y-70748919D01*
X122616692Y-70735635D01*
X122836496Y-70676739D01*
X123042734Y-70580568D01*
X123229139Y-70450047D01*
X123390047Y-70289139D01*
X123520568Y-70102734D01*
X123616739Y-69896496D01*
X123675635Y-69676692D01*
X123695468Y-69450000D01*
X123675635Y-69223308D01*
X123618710Y-69010861D01*
X123616741Y-69003511D01*
X123616738Y-69003502D01*
X123520568Y-68797266D01*
X123422839Y-68657693D01*
X123390045Y-68610858D01*
X123229141Y-68449954D01*
X123042734Y-68319432D01*
X123042732Y-68319431D01*
X122836497Y-68223261D01*
X122836488Y-68223258D01*
X122616697Y-68164366D01*
X122616693Y-68164365D01*
X122616692Y-68164365D01*
X122616691Y-68164364D01*
X122616686Y-68164364D01*
X122390002Y-68144532D01*
X122389998Y-68144532D01*
X122163313Y-68164364D01*
X122163302Y-68164366D01*
X121943511Y-68223258D01*
X121943502Y-68223261D01*
X121737267Y-68319431D01*
X121737265Y-68319432D01*
X121550858Y-68449954D01*
X121389954Y-68610858D01*
X121259432Y-68797265D01*
X121259431Y-68797267D01*
X121163261Y-69003502D01*
X121163258Y-69003511D01*
X121104366Y-69223302D01*
X121104364Y-69223313D01*
X121084532Y-69449998D01*
X121084532Y-69450002D01*
X121093441Y-69551838D01*
X121079674Y-69620338D01*
X121057594Y-69650326D01*
X119952454Y-70755468D01*
X119589711Y-71118211D01*
X119555190Y-71152732D01*
X119478209Y-71229712D01*
X119390609Y-71360814D01*
X119390602Y-71360827D01*
X119330264Y-71506498D01*
X119330261Y-71506510D01*
X119299500Y-71661153D01*
X119299500Y-73159951D01*
X119279815Y-73226990D01*
X119263181Y-73247632D01*
X119099954Y-73410858D01*
X118969432Y-73597265D01*
X118969431Y-73597267D01*
X118873261Y-73803502D01*
X118873258Y-73803511D01*
X118814366Y-74023302D01*
X118814364Y-74023313D01*
X118794532Y-74249998D01*
X118794532Y-74250001D01*
X116760500Y-74250001D01*
X116760500Y-65584500D01*
X116780185Y-65517461D01*
X116832989Y-65471706D01*
X116884500Y-65460500D01*
X205805500Y-65460500D01*
X205872539Y-65480185D01*
G37*
%TD.AperFunction*%
%TD*%
M02*
